<?xml version="1.0" encoding="UTF-8" standalone="no"?>
<!-- Created with Inkscape (http://www.inkscape.org/) -->

<svg
   width="92.216797mm"
   height="80.36306mm"
   viewBox="0 0 92.216797 80.36306"
   version="1.1"
   id="svg5"
   inkscape:version="1.1 (c68e22c387, 2021-05-23)"
   sodipodi:docname="dragon1.svg"
   xmlns:inkscape="http://www.inkscape.org/namespaces/inkscape"
   xmlns:sodipodi="http://sodipodi.sourceforge.net/DTD/sodipodi-0.dtd"
   xmlns="http://www.w3.org/2000/svg"
   xmlns:svg="http://www.w3.org/2000/svg">
  <sodipodi:namedview
     id="namedview7"
     pagecolor="#ffffff"
     bordercolor="#666666"
     borderopacity="1.0"
     inkscape:pageshadow="2"
     inkscape:pageopacity="0.0"
     inkscape:pagecheckerboard="0"
     inkscape:document-units="mm"
     showgrid="false"
     inkscape:snap-others="false"
     inkscape:snap-nodes="false"
     inkscape:zoom="5.9295174"
     inkscape:cx="140.98955"
     inkscape:cy="148.66303"
     inkscape:window-width="1920"
     inkscape:window-height="1017"
     inkscape:window-x="-8"
     inkscape:window-y="-8"
     inkscape:window-maximized="1"
     inkscape:current-layer="layer1" />
  <defs
     id="defs2" />
  <g
     inkscape:label="Layer 1"
     inkscape:groupmode="layer"
     id="layer1"
     transform="translate(-58.536053,-81.21727)">
    <path
       id="path8345"
       style="display:inline;fill:#000000;stroke:#ffffff;stroke-width:0.999999;stroke-opacity:1"
       d="m 352.20508,307.46875 c -32.41258,-0.20483 -56.57682,4.91841 -114.8086,23.52734 l -14.41601,4.60547 4.41601,1.23633 c 2.42821,0.68001 10.26407,2.86919 17.41407,4.86523 7.15,1.99605 17.09667,5.61647 22.10351,8.04493 18.04969,8.75459 20.11906,15.98405 10.32032,36.04883 -4.65079,9.52335 -4.84052,10.69783 -1.17383,7.26171 10.18554,-9.54504 28.40219,-9.21716 32.13867,0.57813 1.30165,3.41231 1.16091,4.34371 -2.25,14.89453 -3.86323,11.94992 -4.76586,21.74359 -2.52734,27.41602 1.10115,2.79038 1.12701,2.76172 3.07812,-3.18555 3.18651,-9.71301 11.09157,-16.03116 23.12695,-18.48438 12.05047,-2.45627 23.37557,1.09339 33.6875,10.55664 4.37925,4.01885 7.86777,6.42774 9.3086,6.42774 6.47502,0 7.37754,4.74085 3.2207,16.92578 -1.39317,4.08382 -2.5332,8.87378 -2.5332,10.64453 0,5.52423 6.85448,24.47156 6.96484,19.25195 0.0594,-2.81525 2.73556,-4.59325 8.00781,-5.31836 2.19724,-0.19994 11.56327,-4.16668 12.02735,-1.61325 -5.84157,0.94038 -8.38009,9.06146 -14,10.91211 -0.825,0.26234 -6.77837,5.66748 -13.22852,12.01172 -9.30316,9.15043 -11.49209,11.81641 -10.5957,12.89649 0.87693,1.05664 3.82204,0.78405 -1.75586,4.37304 -2.70944,1.74333 -2.71425,4.17281 -1.54883,3.83594 2.00361,-0.57915 3.32233,1.89858 1.95865,3.97019 -0.78968,1.19961 -3.74047,4.61436 -4.53873,8.47122 -0.79826,3.85685 -2.71496,9.51683 -4.25781,12.57617 -2.38866,15.2433 -6.87681,20.31979 -14.74848,30.90379 -13.40693,9.88182 -29.94672,15.49536 -42.83596,14.5382 -6.30393,-0.46815 -8.35418,-1.14379 -17.52347,-5.77531 -15.60179,-7.88058 -17.67529,-11.03316 -15.04763,-22.8913 3.35292,-15.13122 15.16816,-27.85129 33.44764,-36.00731 8.6595,-3.86374 9.5241,-5.0151 2.30712,-3.0755 -41.70795,11.20929 -61.79925,45.49452 -39.37918,67.19851 l 9.7e-4,-0.002 c 5.31178,5.14203 18.31563,12.41184 25.50865,14.26169 29.26144,4.63339 64.20163,-4.91358 78.8055,-24.33662 8.40647,-16.91028 16.71183,-32.88528 18.45703,-35.5 8.47173,-12.69248 12.52795,-17.21499 18.15234,-20.24023 3.12306,-1.67989 5.87933,-2.70697 6.125,-2.28321 0.24563,0.42377 0.76453,5.38203 1.15234,11.01954 l 0.70508,10.25 -2.33008,0.0156 c -4.32623,0.0254 -6.84886,1.21311 -7.42187,3.49609 -0.60465,2.40911 -3.72183,3.49024 -10.06641,3.49024 -9.66349,0 -13.78876,5.57479 -15.38672,20.79101 -0.50302,4.78995 -1.79795,11.85897 -2.87695,15.70899 -1.07899,3.84998 -1.62856,7.11973 -1.22265,7.26562 0.40591,0.14604 -4.73014,0.12756 -7.04077,7.06141 -2.0775,6.23424 -12.16388,9.09703 -10.8147,13.18273 0.47352,1.43395 6.08518,1.18122 11.35742,-0.61523 6.26616,-2.13509 15.04613,-10.21179 17.04687,-15.68164 0.84737,-2.31659 2.00075,-7.71253 2.5625,-11.99023 1.52236,-11.59306 6.28657,-19.72266 11.5586,-19.72266 8.59835,0 21.28898,7.95223 34.54492,21.64648 6.96476,7.19501 8.84843,3.94768 13.70676,14.05276 2.93827,5.3869 3.81041,-2.46241 2.54823,-5.24599 0.51004,-4.83325 1.81388,-2.66612 2.02032,0.97493 0.44914,7.92186 2.74761,7.85481 4.29068,0.69789 0.77313,-3.58585 2.9132,-1.32533 4.82073,6.33487 1.42261,4.10238 4.95168,-7.46193 0.14453,-11.51928 -5.35375,-7.79466 -7.50172,-11.16437 -17.60156,-14.9944 -4.67501,-1.77286 -8.67715,-3.37497 -8.89258,-3.56054 -0.63795,-0.54921 4.11989,-4.18323 7.89258,-6.0293 2.12908,-1.04179 7.46677,-1.99952 13.62695,-2.44531 10.31244,-0.74623 15.60615,-2.47113 16.75195,-5.45703 1.21319,-3.1615 0.59297,-10.60142 -1.36914,-16.42578 -2.23691,-6.64022 -5.19109,-11.91397 -14.07812,-25.13086 -3.36756,-5.00829 -5.74257,-9.43706 -5.27735,-9.83985 0.46519,-0.40282 3.32069,-1.80244 6.34571,-3.11133 4.69905,-2.03323 7.50239,-2.43548 19.25,-2.75976 7.56249,-0.20901 13.74584,-0.22331 13.73828,-0.0332 -0.006,0.19026 -0.68426,2.56626 -1.50781,5.28125 -0.8236,2.71498 -1.24881,5.71963 -0.94532,6.67578 0.31949,1.0066 3.79574,3.0758 8.25782,4.91601 12.73356,5.25143 14.53734,6.25952 18.70703,10.45899 4.13049,4.15997 11.42957,15.57293 10.5,18.58203 -1.6099,5.21141 -2.15913,4.31253 -5.03268,7.07651 -2.59486,0.94003 -1.72073,4.2347 4.00792,1.12039 3.58834,-6.04783 3.643,-4.40483 3.53117,-3.5712 -1.73578,5.81138 -2.82625,6.95291 0.65765,5.7825 3.22109,-5.89041 5.62223,-9.76589 5.49004,-5.91353 -0.56203,4.06904 0.30224,6.54772 2.7226,2.5768 0.68051,-4.49001 3.00298,-9.97845 -0.24878,-13.78021 -2.28034,-2.66596 -3.24603,-2.77927 -4.44238,-5.80493 -1.05649,-2.67194 -2.71548,-2.39299 -5.08203,-9.26953 -1.41237,-4.10396 -5.60351,-6.28654 -5.60351,-6.57227 0,-1.89604 33.61509,-26.81935 39.47461,-29.26758 5.03142,-2.10229 6.66775,-3.55591 7.31572,-0.72503 1.87518,2.97163 0.0586,7.45641 3.20816,3.27972 1.62229,-2.15134 2.09927,-8.34278 -2.99849,-11.87891 -4.43175,-3.07414 -4.13542,-4.91144 1.48633,-2.5625 2.05164,0.85739 3.98834,1.29877 4.30468,0.98242 1.12691,-1.12694 -3.45943,-5.92128 -6.8457,-7.15625 -3.20243,-1.16791 -8.29556,-0.0523 -1.19531,-1.9375 3.49542,-0.92807 3.33919,-1.88737 -1.98438,-2.75195 -7.91486,-1.28543 -11.7157,2.25755 -13.38281,11.80078 -0.41919,2.39959 -1.77233,4.9962 -3.38672,6.5 -2.3475,2.18672 -19.66623,12.00753 -22.55273,12.78907 -2.17573,0.58907 0.2966,-10.38676 4.10742,-18.23438 3.54735,-7.30481 3.86026,-8.64308 3.88672,-16.5 0.0226,-7.22468 -0.39127,-9.45085 -2.67188,-14.34961 -3.40135,-7.30609 -7.06226,-11.75819 -13.88476,-16.88281 -10.48604,-7.87642 -17.88086,-15.8671 -17.88086,-19.32227 0,-1.75816 11.52896,-6.68396 14.76953,-6.31054 2.26167,0.26052 2.02509,0.78147 2.19777,3.52148 -1.31799,6.33814 1.6727,4.13687 7.39793,2.62305 6.6034,-0.61663 8.22677,-0.0714 15.5332,5.21289 2.6216,1.89604 4.64676,2.45703 8.86524,2.45703 4.81066,0 3.49797,-0.47116 11.81471,1.12705 3.89902,3.0549 11.68306,5.40617 8.40897,2.13204 -1.50777,-1.50773 -1.52841,-1.87678 -0.19726,-3.34766 1.3697,-1.51343 1.12788,-1.64275 -2.86719,-1.55468 -5.04442,0.1113 -6.61162,1.54618 -9.35964,-3.84036 -1.08068,-2.11835 -5.09903,-4.48311 -8.10428,-6.80155 l -5.46289,-4.21484 3.48438,-0.3086 c 3.65041,-0.32401 8.43007,2.24235 8.48828,4.5586 0.0173,0.68749 0.44587,1.25 0.95312,1.25 1.60668,0 9.55739,-6.52983 9.85938,-8.09766 0.60393,-3.13602 -4.70125,-8.59904 -15.51172,-15.97656 -7.29978,-4.9817 -14.06658,-8.18224 -18.98047,-10.38672 -13.99102,-6.27668 -11.69963,-6.00357 -24.4874,-15.06284 -12.24411,-9.16622 -34.33503,-17.46129 -27.62521,-11.23532 0,0 7.65455,7.18443 20.74803,14.32383 -17.00259,-6.9877 -29.39991,-11.36727 -31.13672,-10.84702 4.323,7.96142 27.54413,17.35644 30.08902,19.42786 12.2618,10.16273 10.21738,6.0258 -2.98421,3.49509 -5.01524,-0.96141 -9.36762,-1.49757 -9.67187,-1.19336 -4.27236,0.93837 -1.38864,2.3386 3.34766,4.48047 l 3.52343,1.57227 -11.125,8.44726 c -9.82,7.45728 -10.8742,8.54166 -8.98046,9.24219 2.06498,0.76388 1.9921,0.97793 -1.96094,5.66602 -3.77235,4.47375 -3.95027,4.43084 -4.03524,7.27908 3.57363,-1.02661 2.06016,3.79391 1.27157,6.3635 -0.9029,2.94183 -2.89331,6.04108 -0.41622,5.24254 2.52592,-0.81427 3.1545,4.65138 3.1545,6.78871 0,3.18859 0.21246,3.53925 1.5,2.4707 1.30008,-1.07902 1.5,-0.56293 1.5,3.87695 h 0.002 c 0,3.4845 -0.39968,5.09109 -1.25,5.02344 -1.9649,-0.15678 -25.75845,-10.1667 -30.7207,-12.92383 -5.55372,-3.08576 -8.991,-8.76233 -9.01368,-14.88672 -0.0108,-2.88385 2.91039,-13.26187 8.44532,-30 4.6543,-14.07497 10.15409,-31.50464 11.05558,-34.72474 -1.26314,-7.18578 2.38644,-7.37492 3.73171,-7.70299 1.34527,-0.32807 6.4739,0.36143 6.7303,-0.98288 -4.55886,-3.80884 -6.52013,-3.68818 -11.28387,-3.2377 -5.78694,1.14036 -7.05585,-0.23963 -7.05585,-0.23963 0,0 4.48906,-4.42849 4.70203,-6.96079 0.22155,-2.6344 -1.77791,-2.19315 -3.75153,-0.41269 -2.86909,2.58829 -5.56254,4.8952 -6.94195,2.66325 -1.0382,-1.6798 -15.82215,-8.80871 -26.49678,-12.44085 -17.41406,-5.92531 -24.90072,-7.16718 -46.65234,-7.73438 -2.24669,-0.0586 -4.44463,-0.0957 -6.60547,-0.10937 z"
       transform="scale(0.26458333)"
       sodipodi:nodetypes="scccsssssssssssssccccssssssccsssssccccssssccsssscsssssssccssccscsssssssccsssssccccccsssssccsssssssssscssssccsscsssscccssssscccccsccccsscsssscccscsczcccsssssss" />
  </g>
</svg>
