<?xml version="1.0" encoding="UTF-8" standalone="no"?>
<!-- Created with Inkscape (http://www.inkscape.org/) -->

<svg
   width="210mm"
   height="297mm"
   viewBox="0 0 210 297"
   version="1.1"
   id="svg12293"
   inkscape:version="1.1 (c68e22c387, 2021-05-23)"
   sodipodi:docname="leech1.svg"
   xmlns:inkscape="http://www.inkscape.org/namespaces/inkscape"
   xmlns:sodipodi="http://sodipodi.sourceforge.net/DTD/sodipodi-0.dtd"
   xmlns="http://www.w3.org/2000/svg"
   xmlns:svg="http://www.w3.org/2000/svg">
  <sodipodi:namedview
     id="namedview12295"
     pagecolor="#ffffff"
     bordercolor="#666666"
     borderopacity="1.0"
     inkscape:pageshadow="2"
     inkscape:pageopacity="0.0"
     inkscape:pagecheckerboard="0"
     inkscape:document-units="mm"
     showgrid="false"
     inkscape:zoom="2.096401"
     inkscape:cx="246.61313"
     inkscape:cy="341.29921"
     inkscape:window-width="1920"
     inkscape:window-height="1017"
     inkscape:window-x="-8"
     inkscape:window-y="-8"
     inkscape:window-maximized="1"
     inkscape:current-layer="layer1" />
  <defs
     id="defs12290" />
  <g
     inkscape:label="Layer 1"
     inkscape:groupmode="layer"
     id="layer1">
    <path
       style="display:inline;fill:#000000;stroke:#ffffff;stroke-width:0.5;stroke-linecap:round;stroke-miterlimit:4;stroke-dasharray:none;stroke-opacity:1"
       d="m 77.793295,122.54118 c -0.11865,-0.19198 0.576652,-1.39533 0.773846,-1.5172 0.781392,-0.48293 -0.353977,-0.56164 -1.984615,-1.80518 -2.166154,-1.65193 -7.157839,-6.83184 -9.250235,-9.59904 -5.264354,-6.96212 -7.113685,-11.8817 -7.558961,-20.108329 -0.261737,-4.835643 -0.825818,-6.459682 -2.868026,-8.257308 -2.293269,-2.018616 -4.115808,-1.916156 -9.519793,-2.129939 -4.8528,-0.191978 -8.122777,1.854689 -12.100762,1.653126 -3.802289,-0.19266 -2.096346,1.804953 -3.913303,2.096946 -0.668643,0.333853 -1.480055,-1.227918 -2.87628,-3.257522 -1.396225,-2.029603 0.594703,-3.110683 1.438216,-2.618398 0.174718,-0.847734 1.916532,-1.607372 8.003934,-3.59488 7.637575,-2.493633 9.768332,-1.855495 14.957312,-1.870196 4.036687,-0.01144 5.126136,0.108421 7.148543,0.786466 4.721761,1.583049 8.704933,4.713397 10.514418,8.263216 1.274381,2.500064 2.136189,4.940129 1.635516,4.630695 -0.20375,-0.125923 -0.104884,0.150202 0.2197,0.613611 0.674437,0.96289 0.773243,1.545923 0.20218,1.192987 -0.225305,-0.139246 -0.191121,0.11087 0.08153,0.596541 0.515298,0.843471 0.610355,1.870961 0.868969,2.74357 0.190397,0.635909 0.142529,0.779915 -0.190768,0.573926 -0.228001,0.422846 0.836168,1.030661 0.780257,1.732483 -0.540808,-0.07858 -0.317138,0.587131 -0.145,0.693514 0.172131,0.106383 0.403892,0.64806 0.515027,1.203725 0.269085,1.34543 2.438644,5.882666 4.584531,9.587716 1.982802,3.37462 3.772046,6.85233 5.747176,10.23055 0.767761,1.30925 1.027458,2.07348 0.798509,2.34984 -0.554517,0.66936 0.273823,0.90146 0.918044,0.25724 0.764491,-0.76449 1.106114,-0.35552 0.610909,0.73134 -0.98001,2.15089 -8.617743,6.07146 -9.39088,4.8205 z"
       id="path12456"
       sodipodi:nodetypes="ssssssssczcsssssssccccssccsssss" />
  </g>
</svg>
