<?xml version="1.0" encoding="UTF-8" standalone="no"?>
<!-- Created with Inkscape (http://www.inkscape.org/) -->

<svg
   width="467.26706"
   height="326.07504"
   viewBox="0 0 123.63108 86.274022"
   version="1.1"
   id="svg5"
   inkscape:version="1.1 (c68e22c387, 2021-05-23)"
   sodipodi:docname="slug1.svg"
   xmlns:inkscape="http://www.inkscape.org/namespaces/inkscape"
   xmlns:sodipodi="http://sodipodi.sourceforge.net/DTD/sodipodi-0.dtd"
   xmlns="http://www.w3.org/2000/svg"
   xmlns:svg="http://www.w3.org/2000/svg">
  <sodipodi:namedview
     id="namedview7"
     pagecolor="#ffffff"
     bordercolor="#666666"
     borderopacity="1.0"
     inkscape:pageshadow="2"
     inkscape:pageopacity="0.0"
     inkscape:pagecheckerboard="0"
     inkscape:document-units="px"
     showgrid="false"
     inkscape:snap-nodes="false"
     inkscape:snap-others="false"
     inkscape:zoom="1.115625"
     inkscape:cx="105.77031"
     inkscape:cy="54.229692"
     inkscape:window-width="1920"
     inkscape:window-height="1017"
     inkscape:window-x="-8"
     inkscape:window-y="-8"
     inkscape:window-maximized="1"
     inkscape:current-layer="layer1" />
  <defs
     id="defs2" />
  <g
     inkscape:label="Layer 1"
     inkscape:groupmode="layer"
     id="layer1"
     transform="translate(-197.73997,-46.671303)">
    <path
       style="fill:#000000;stroke:#ffffff;stroke-width:0.264583;stroke-opacity:1"
       d="m 252.77232,132.75597 c -6.13887,-0.47175 -11.28035,-1.46049 -14.96414,-2.87772 -1.24528,-0.47908 -7.95497,-0.25416 -9.69287,-1.23937 -5.51544,-3.12667 -4.68829,-7.40582 -7.818,-11.4534 -4.61416,-5.96739 -7.26021,-12.17226 -8.4111,-19.723577 -0.27723,-1.819011 -0.67705,-4.438386 -0.8885,-5.820834 -0.70309,-4.596948 0.59463,-11.236666 -0.24037,-12.051448 -0.41706,-0.406966 -1.32257,-1.760542 -2.01224,-3.007955 -1.44286,-2.609695 -3.68435,-4.509984 -6.33452,-5.370294 -3.25802,-1.057626 -3.18149,-1.005395 -3.18149,-2.171262 0,-1.952225 1.91433,-2.226052 3.49831,-0.5004 0.99664,1.085799 2.46012,1.803824 4.19483,2.058111 1.80656,0.155319 2.83479,-0.87772 1.695,-1.870309 -1.11662,-0.948654 -0.95985,-2.258483 -0.0888,-2.569508 1.32786,-0.474139 2.96726,1.185694 2.96726,1.185694 l -2.84276,-2.98988 c -1.40563,-1.478377 -4.44732,-6.371668 -6.08716,-8.07946 -0.75751,-0.788905 -1.82492,-1.646565 -2.372,-1.905912 -1.13577,-0.538407 -2.31964,-2.14094 -2.32151,-3.142479 -0.003,-1.494169 2.09889,-2.1728 3.64821,-1.178004 0.40966,0.263045 0.91671,1.068391 1.12675,1.789656 0.819,2.812375 7.65763,10.636379 11.17205,12.781835 0.46171,0.281862 1.32142,0.512477 1.91045,0.512477 0.95537,0 1.14476,-0.159589 1.75453,-1.478412 1.00967,-2.183761 1.43722,-4.43639 1.43722,-7.572379 0,-2.297617 -0.15454,-3.131836 -0.86802,-4.685796 -0.58152,-1.26656 -0.79929,-2.177356 -0.65981,-2.759548 0.50065,-2.089569 2.86593,-2.493218 4.01369,-0.684959 0.58224,0.9173 0.61002,1.220857 0.26071,2.848504 -0.88421,4.119986 -0.41019,10.954151 1.05768,15.249326 0.41935,1.227082 2.18995,3.644064 4.00257,5.463777 1.7982,1.805231 2.16247,2.434739 4.45284,7.694828 6.38463,14.663038 2.49956,19.062142 9.42035,22.552778 4.29914,2.16836 8.49251,2.72211 17.33021,2.28849 7.13553,-0.3501 16.50623,-0.17052 20.80898,0.39878 7.40996,0.98042 14.60719,3.43836 23.27129,7.94742 6.61032,3.44022 14.60831,8.72068 18.02359,11.89962 1.90951,1.77711 1.43724,2.32034 -0.64067,3.36595 -1.91812,0.94443 -4.19155,0.83317 -10.13403,-0.49595 -6.91978,-1.54771 -9.73236,-2.25958 -14.97156,-2.26152 -5.57512,-0.002 -5.87428,0.71987 -12.6774,3.17828 -5.77275,2.08607 -11.56749,3.58641 -16.00729,4.14451 -3.36345,0.4228 -10.43079,0.71488 -12.83229,0.53034 z"
       id="path946"
       sodipodi:nodetypes="sssssssssssccscssscsssssssssssssssssccscssss" />
  </g>
</svg>
