<?xml version="1.0" encoding="UTF-8" standalone="no"?>
<!-- Created with Inkscape (http://www.inkscape.org/) -->

<svg
   width="305.54794"
   height="306.31378"
   viewBox="0 0 80.842893 81.045521"
   version="1.1"
   id="svg5"
   inkscape:version="1.1 (c68e22c387, 2021-05-23)"
   sodipodi:docname="succubus1.svg"
   xmlns:inkscape="http://www.inkscape.org/namespaces/inkscape"
   xmlns:sodipodi="http://sodipodi.sourceforge.net/DTD/sodipodi-0.dtd"
   xmlns="http://www.w3.org/2000/svg"
   xmlns:svg="http://www.w3.org/2000/svg">
  <sodipodi:namedview
     id="namedview7"
     pagecolor="#ffffff"
     bordercolor="#666666"
     borderopacity="1.0"
     inkscape:pageshadow="2"
     inkscape:pageopacity="0.0"
     inkscape:pagecheckerboard="0"
     inkscape:document-units="px"
     showgrid="false"
     inkscape:snap-nodes="false"
     inkscape:snap-others="false"
     inkscape:zoom="3.155464"
     inkscape:cx="155.76156"
     inkscape:cy="167.17034"
     inkscape:window-width="1920"
     inkscape:window-height="1017"
     inkscape:window-x="-1928"
     inkscape:window-y="-8"
     inkscape:window-maximized="1"
     inkscape:current-layer="layer1" />
  <defs
     id="defs2" />
  <g
     inkscape:label="Layer 1"
     inkscape:groupmode="layer"
     id="layer1"
     style="display:inline"
     transform="translate(-256.30707,-135.75264)">
    <path
       style="display:inline;fill:#000000;stroke-width:0.352778"
       d="m 272.4452,213.77747 c -4.11995,-3.92067 -7.18724,-8.02402 -9.82764,-13.14721 -7.17033,-13.91263 -8.30346,-29.10247 -3.02348,-40.5303 5.13534,-11.11477 20.17784,-22.08819 33.00748,-24.07877 3.58066,-0.61026 2.93047,-0.17816 0.75581,1.27279 -8.6182,5.71666 -12.58152,14.84646 -9.37675,21.6 0.69428,1.4631 4.12614,5.02734 4.84061,5.02734 0.2645,0 0.7361,-0.38946 1.04799,-0.86546 0.34403,-0.52506 1.05375,-0.95676 1.80446,-1.0976 1.12557,-0.21115 2.41128,-0.25632 2.41128,-1.34374 0,-1.34077 -1.74754,-1.70934 -1.98325,-0.48557 -0.10725,0.55683 -0.17575,0.42521 -0.22949,-0.44097 l -0.0766,-1.23472 -0.65125,1.39875 -0.65124,1.39876 -0.25769,-1.02672 c -0.14173,-0.56469 -0.10145,-1.78944 0.0895,-2.72167 0.19096,-0.93222 0.24363,-1.69495 0.11704,-1.69495 -0.35527,0 -1.31652,0.60955 -1.9684,1.78612 -0.97281,2.17195 -0.82122,0.96617 -0.75242,-0.0969 -0.16676,-2.28756 1.55054,-3.66989 2.60912,-4.36215 l 0.99326,-0.66775 -1.66086,-0.19629 c -2.15459,-0.25465 -2.40659,-0.5497 -0.73684,-0.86271 0.73666,-0.13808 1.84203,-0.46099 2.4564,-0.71757 1.04272,-0.43547 1.10463,-0.55893 0.93065,-1.856 -0.38676,-2.88353 1.77914,-5.77627 5.20849,-6.95638 1.29897,-0.37991 1.33204,-0.29852 0.0533,0.73673 -1.07674,0.87174 -2.547,2.83507 -2.547,4.17958 0,0.49471 0.0397,0.8988 0.0882,0.89799 0.0485,-8.1e-4 0.86917,-0.39769 1.82368,-0.88194 0.95452,-0.48426 1.98639,-0.87808 2.29306,-0.87516 1.28539,0.0123 3.43406,1.06029 4.29979,2.09729 1.07259,1.28479 1.37306,0.96172 1.37306,-1.4763 0,-1.24319 -0.2266,-1.65925 -1.71349,-3.14614 -1.85496,-1.85496 -1.80432,-2.08575 0.22824,-1.04025 2.26946,1.16736 4.30747,3.90923 4.30747,5.79511 0,0.47243 -0.25537,1.64968 -0.5675,2.61613 l -0.56751,1.75717 1.27306,1.8507 c 1.01724,1.47881 1.27198,2.17948 1.26766,3.48681 -0.007,2.24864 -0.53198,2.9962 -0.8631,1.23004 -0.24615,-1.31291 -1.20334,-3.29923 -1.58881,-3.297 -0.10369,6e-4 -0.18961,0.79103 -0.19095,1.75652 -0.002,1.32353 -0.18898,1.94198 -0.76064,2.51364 l -0.75821,0.75821 0.33989,-1.59366 c 0.21841,-1.02406 0.21795,-2.01744 -10e-4,-2.77932 -0.33061,-1.1489 -0.34217,-1.15523 -0.373,-0.20418 -0.0433,1.33566 -0.88748,3.26193 -2.0187,4.60631 l -0.9382,1.11498 1.34553,0.21871 c 0.74004,0.12029 1.55197,0.50104 1.80429,0.84611 0.53503,0.73169 0.69901,0.63931 3.42031,-1.92673 3.21755,-3.03398 4.30087,-6.5475 3.26523,-10.59002 -1.39602,-5.44917 -5.49346,-10.04885 -12.28928,-13.79562 -2.21411,-1.22071 -1.7172,-1.27096 3.03053,-0.30643 11.50334,2.33697 23.94229,11.091 30.00126,21.11368 1.80355,2.98342 3.04396,6.20157 3.96845,10.2959 0.82626,3.65928 0.83155,12.42528 0.0102,16.89858 -1.31732,7.1745 -4.82987,15.5527 -9.12574,21.76689 -1.90164,2.75082 -7.07456,8.43919 -8.77664,9.65118 -2.15409,1.937 -0.0843,-1.02899 0.35489,-1.85081 4.74138,-8.87258 6.56299,-21.74306 4.1957,-29.6444 -0.83567,-2.7892 -2.95105,-3.76579 -5.67918,-2.62186 -1.38445,0.58051 -4.26912,3.01017 -6.26221,5.27444 -1.40988,1.60171 -1.45644,1.7268 -1.02784,2.76153 0.24692,0.59611 1.00411,1.74259 1.68266,2.54774 1.91586,2.27333 4.83045,6.92237 5.5622,8.87224 0.92682,2.46968 0.89894,5.81337 -0.0594,7.11667 -0.40328,0.54847 -1.06642,1.14896 -1.47367,1.33442 -0.44124,0.20094 -0.82774,0.80258 -0.9565,1.48892 -0.30964,1.65052 -1.65439,3.07182 -3.79582,4.01189 -1.52854,0.67102 -2.65103,0.84373 -6.29541,0.96865 -7.21996,0.24748 -12.37081,-0.78691 -19.69244,-3.95461 -1.62853,-0.70458 -3.03579,-1.20623 -3.12724,-1.11478 -0.0915,0.0914 0.23762,0.88891 0.73127,1.77214 2.14545,4.51181 -5.74124,-5.00092 -6.65891,-6.22212 -2.43325,-3.30534 -2.62146,-3.79723 -0.94478,-2.46928 l 1.42505,1.12867 0.37514,-1.07613 c 0.28226,-0.80966 0.26912,-1.10658 -0.053,-1.19914 -1.08949,-0.31302 -6.32139,-0.71889 -6.45615,-0.50084 -0.2711,0.43864 1.98611,6.73908 3.7422,10.4454 2.76017,5.09239 0.56218,2.77759 -1.77595,0.55546 z m 36.93478,0.73837 c 2.52953,-0.70016 3.99221,-1.98896 3.99221,-3.51764 0,-0.87946 -0.20761,-1.29724 -0.79375,-1.59734 -0.43657,-0.22351 -1.42875,-1.00827 -2.20487,-1.7439 -2.51342,-2.38233 -8.02474,-3.70185 -16.64044,-3.98406 l -4.64601,-0.15218 -1.686,1.39324 c -0.92731,0.76627 -2.37596,1.79757 -3.21924,2.29176 -0.84328,0.4942 -1.44593,0.98584 -1.33924,1.09254 0.1067,0.1067 1.18544,0.38936 2.39719,0.62813 1.83138,0.36087 1.99482,0.4459 0.96847,0.50386 -3.08802,0.17439 -3.10995,0.45956 -0.14133,1.83811 7.90044,3.66876 17.14078,4.95593 23.31301,3.24748 z m -1.19374,-10.52179 c -0.51652,-0.90943 -4.419,-4.83261 -4.61357,-4.63804 -0.10534,0.10535 0.0721,0.48282 0.39427,0.83884 0.32219,0.35601 0.5858,0.93472 0.5858,1.28602 0,0.56225 -0.2192,0.61276 -1.83079,0.42189 -2.59248,-0.30704 -3.02908,-0.83997 -2.43016,-2.96633 0.83643,-2.96961 -0.11923,-3.24682 -0.11923,-3.24682 0,0 -0.54491,0.56242 -1.77233,-0.20919 -1.19326,-0.75014 -0.16983,-0.71358 -1.82025,0.48206 -1.9448,1.40889 -5.27011,5.31407 -4.67244,5.48722 0.2609,0.0756 2.58335,0.40731 5.16101,0.73717 2.57765,0.32986 5.99077,0.96936 7.58472,1.4211 3.52126,0.99796 3.90427,1.03981 3.53297,0.38608 z m -26.96898,-5.40329 c 1.61356,-1.50117 3.48745,-3.48372 4.16422,-4.40565 l 1.23048,-1.67626 -1.65429,-2.14987 c -0.90986,-1.18243 -1.86488,-2.23068 -2.12227,-2.32945 -0.72637,-0.27874 -6.05586,1.18024 -8.5151,2.33106 -1.21645,0.56925 -2.8637,1.55893 -3.66055,2.1993 l -1.44883,1.16431 0.22326,2.29647 c 0.39635,4.07711 0.44242,4.18158 2.03277,4.60982 1.82396,0.49114 5.58128,0.97864 6.28104,0.81494 0.29454,-0.0689 1.85571,-1.3535 3.46927,-2.85467 z m 6.99677,-7.91983 c 0.57752,-0.54255 0.81649,-1.16206 0.81649,-2.11666 v -1.34962 l -1.49931,0.005 c -2.42758,0.009 -2.62578,0.33177 -1.48715,2.42381 0.54006,0.99226 1.06553,1.80412 1.1677,1.80412 0.10218,0 0.5532,-0.34517 1.00227,-0.76705 z m -16.86407,-1.85074 c 1.72685,-1.16208 6.91618,-3.37943 7.90899,-3.37943 1.38667,0 0.65585,-0.89781 -2.39296,-2.9397 -1.60582,-1.07548 -3.80827,-1.25658 -5.01369,-0.41228 -0.95192,0.66676 -1.79334,2.89073 -2.1691,5.73323 -0.1603,1.21267 -0.25432,2.20486 -0.20891,2.20486 0.0454,0 0.88945,-0.54301 1.87567,-1.20668 z m 38.59468,-4.75556 c 2.20106,-6.52059 1.98781,-12.78268 -0.52643,-15.45897 -0.99494,-1.05906 -1.40224,-1.01951 -0.9785,0.095 0.40153,1.0561 -0.20868,2.79675 -1.33057,3.79553 -0.4126,0.36732 -0.64466,0.91012 -0.54766,1.28102 0.0926,0.35399 -0.16278,1.82354 -0.56744,3.26566 -0.99518,3.54659 -0.93891,4.42897 0.41078,6.4418 0.63059,0.94042 1.38466,2.08246 1.6757,2.53788 0.29104,0.45542 0.61784,0.82831 0.72622,0.82866 0.10838,3.5e-4 0.62044,-1.25362 1.1379,-2.78661 z m -23.25889,-0.22017 c 2.30415,-0.28789 2.05297,0.24045 2.85631,-6.00827 0.63498,-4.93918 0.68125,-6.92431 0.20046,-8.60073 -0.42939,-1.49718 -0.85134,-1.77413 -2.71341,-1.78097 -2.79966,-0.0103 -4.39397,2.34844 -4.88461,7.22655 -0.34756,3.45562 1.06258,9.98093 2.07312,9.59315 0.25792,-0.099 1.36858,-0.29235 2.46813,-0.42973 z m 7.91402,-3.21276 c 1.65809,-2.53748 1.6714,-3.01029 0.12642,-4.49048 l -0.99899,-0.95709 -0.42442,2.92346 c -0.23343,1.60789 -0.51494,3.36001 -0.62558,3.89359 -0.3227,1.55629 0.30112,1.11194 1.92257,-1.36948 z"
       id="path5572"
       sodipodi:nodetypes="cssccssssssscccsssccccssssccsssssssssscscsscscscsscssssssssssccsssssssssssscccscssscccssssscssssssssssssscsssssssscsssscsssscsccssccssssssssssssssssssssssssssscsss" />
  </g>
</svg>
