<?xml version="1.0" encoding="UTF-8" standalone="no"?>
<!-- Created with Inkscape (http://www.inkscape.org/) -->

<svg
   width="120.20424mm"
   height="89.066429mm"
   viewBox="0 0 120.20424 89.066427"
   version="1.1"
   id="svg9700"
   inkscape:version="1.1 (c68e22c387, 2021-05-23)"
   sodipodi:docname="wolf3.svg"
   xmlns:inkscape="http://www.inkscape.org/namespaces/inkscape"
   xmlns:sodipodi="http://sodipodi.sourceforge.net/DTD/sodipodi-0.dtd"
   xmlns:xlink="http://www.w3.org/1999/xlink"
   xmlns="http://www.w3.org/2000/svg"
   xmlns:svg="http://www.w3.org/2000/svg">
  <sodipodi:namedview
     id="namedview9702"
     pagecolor="#ffffff"
     bordercolor="#666666"
     borderopacity="1.0"
     inkscape:pageshadow="2"
     inkscape:pageopacity="0.0"
     inkscape:pagecheckerboard="0"
     inkscape:document-units="mm"
     showgrid="false"
     inkscape:zoom="0.5"
     inkscape:cx="334"
     inkscape:cy="-35"
     inkscape:window-width="1920"
     inkscape:window-height="1017"
     inkscape:window-x="1912"
     inkscape:window-y="-8"
     inkscape:window-maximized="1"
     inkscape:current-layer="layer2"
     inkscape:snap-nodes="false"
     inkscape:snap-others="false"
     inkscape:snap-intersection-paths="true"
     inkscape:object-paths="true" />
  <defs
     id="defs9697">
    <linearGradient
       inkscape:collect="always"
       id="linearGradient133717">
      <stop
         style="stop-color:#1a1616;stop-opacity:1"
         offset="0"
         id="stop133713" />
      <stop
         style="stop-color:#1a1616;stop-opacity:1"
         offset="1"
         id="stop133715" />
    </linearGradient>
    <inkscape:path-effect
       effect="powerstroke"
       id="path-effect127844"
       is_visible="true"
       lpeversion="1"
       offset_points="0.29492347,0.22635628 | 0.51258996,0.24583475 | 0.8,0.2079995"
       not_jump="false"
       sort_points="true"
       interpolator_type="CentripetalCatmullRom"
       interpolator_beta="0.2"
       start_linecap_type="zerowidth"
       linejoin_type="round"
       miter_limit="4"
       scale_width="1"
       end_linecap_type="zerowidth" />
    <linearGradient
       inkscape:collect="always"
       id="linearGradient124628">
      <stop
         style="stop-color:#e135ab;stop-opacity:1"
         offset="0"
         id="stop124624" />
      <stop
         style="stop-color:#e135ab;stop-opacity:1"
         offset="1"
         id="stop124626" />
    </linearGradient>
    <linearGradient
       inkscape:collect="always"
       id="linearGradient118085">
      <stop
         style="stop-color:#000000;stop-opacity:1;"
         offset="0"
         id="stop118081" />
      <stop
         style="stop-color:#000000;stop-opacity:1"
         offset="1"
         id="stop118083" />
    </linearGradient>
    <inkscape:path-effect
       effect="powerstroke"
       id="path-effect115271"
       is_visible="true"
       lpeversion="1"
       offset_points="0.10266311,0.17823159 | 1.01716,0.29065248 | 3.6030829,0.18392727"
       not_jump="false"
       sort_points="true"
       interpolator_type="CentripetalCatmullRom"
       interpolator_beta="0.2"
       start_linecap_type="zerowidth"
       linejoin_type="round"
       miter_limit="4"
       scale_width="1"
       end_linecap_type="zerowidth" />
    <inkscape:path-effect
       effect="powerstroke"
       id="path-effect109806"
       is_visible="true"
       lpeversion="1"
       offset_points="0.54066561,0.18602598 | 0.97440666,0.31721929 | 1.8,0.208"
       not_jump="false"
       sort_points="true"
       interpolator_type="CentripetalCatmullRom"
       interpolator_beta="0.2"
       start_linecap_type="zerowidth"
       linejoin_type="miter"
       miter_limit="1"
       scale_width="0.9"
       end_linecap_type="zerowidth" />
    <inkscape:path-effect
       effect="powerstroke"
       id="path-effect107037"
       is_visible="false"
       lpeversion="1"
       offset_points="2.5,0.117"
       not_jump="false"
       sort_points="true"
       interpolator_type="CentripetalCatmullRom"
       interpolator_beta="0.39726027"
       start_linecap_type="zerowidth"
       linejoin_type="round"
       miter_limit="4"
       scale_width="1"
       end_linecap_type="zerowidth" />
    <linearGradient
       inkscape:collect="always"
       id="linearGradient104555">
      <stop
         style="stop-color:#493e3e;stop-opacity:1;"
         offset="0"
         id="stop104551" />
      <stop
         style="stop-color:#a29191;stop-opacity:1"
         offset="1"
         id="stop104553" />
    </linearGradient>
    <linearGradient
       inkscape:collect="always"
       id="linearGradient104295">
      <stop
         style="stop-color:#252120;stop-opacity:1;"
         offset="0"
         id="stop104291" />
      <stop
         style="stop-color:#252120;stop-opacity:1"
         offset="1"
         id="stop104293" />
    </linearGradient>
    <linearGradient
       inkscape:collect="always"
       id="linearGradient101500">
      <stop
         style="stop-color:#493e3e;stop-opacity:1"
         offset="0"
         id="stop101496" />
      <stop
         style="stop-color:#493e3e;stop-opacity:1"
         offset="1"
         id="stop101498" />
    </linearGradient>
    <inkscape:path-effect
       effect="bspline"
       id="path-effect59917"
       is_visible="true"
       lpeversion="1"
       weight="33.333333"
       steps="2"
       helper_size="0"
       apply_no_weight="true"
       apply_with_weight="true"
       only_selected="false" />
    <inkscape:path-effect
       effect="bspline"
       id="path-effect58498"
       is_visible="true"
       lpeversion="1"
       weight="33.333333"
       steps="2"
       helper_size="0"
       apply_no_weight="true"
       apply_with_weight="true"
       only_selected="false" />
    <inkscape:path-effect
       effect="bspline"
       id="path-effect12869"
       is_visible="true"
       lpeversion="1"
       weight="33.333333"
       steps="2"
       helper_size="0"
       apply_no_weight="true"
       apply_with_weight="true"
       only_selected="false" />
    <inkscape:path-effect
       effect="bspline"
       id="path-effect12262"
       is_visible="true"
       lpeversion="1"
       weight="33.333333"
       steps="2"
       helper_size="0"
       apply_no_weight="true"
       apply_with_weight="true"
       only_selected="false" />
    <inkscape:path-effect
       effect="bspline"
       id="path-effect12258"
       is_visible="true"
       lpeversion="1"
       weight="33.333333"
       steps="2"
       helper_size="0"
       apply_no_weight="true"
       apply_with_weight="true"
       only_selected="false" />
    <inkscape:path-effect
       effect="bspline"
       id="path-effect12254"
       is_visible="true"
       lpeversion="1"
       weight="33.333333"
       steps="2"
       helper_size="0"
       apply_no_weight="true"
       apply_with_weight="true"
       only_selected="false" />
    <inkscape:path-effect
       effect="bspline"
       id="path-effect11628"
       is_visible="true"
       lpeversion="1"
       weight="33.333333"
       steps="2"
       helper_size="0"
       apply_no_weight="true"
       apply_with_weight="true"
       only_selected="false" />
    <inkscape:path-effect
       effect="bspline"
       id="path-effect10983"
       is_visible="true"
       lpeversion="1"
       weight="33.333333"
       steps="2"
       helper_size="0"
       apply_no_weight="true"
       apply_with_weight="true"
       only_selected="false" />
    <inkscape:path-effect
       effect="bspline"
       id="path-effect9944"
       is_visible="true"
       lpeversion="1"
       weight="33.333333"
       steps="2"
       helper_size="0"
       apply_no_weight="true"
       apply_with_weight="true"
       only_selected="false" />
    <linearGradient
       inkscape:collect="always"
       xlink:href="#linearGradient104295"
       id="linearGradient102346"
       x1="-208.24812"
       y1="238.48398"
       x2="-165.87444"
       y2="238.48398"
       gradientUnits="userSpaceOnUse" />
    <linearGradient
       inkscape:collect="always"
       xlink:href="#linearGradient104555"
       id="linearGradient103766"
       x1="-180.4975"
       y1="206.25525"
       x2="-85.005394"
       y2="206.25525"
       gradientUnits="userSpaceOnUse" />
    <linearGradient
       inkscape:collect="always"
       xlink:href="#linearGradient104555"
       id="linearGradient103804"
       x1="-197.72362"
       y1="191.4425"
       x2="-167.35345"
       y2="204.56818"
       gradientUnits="userSpaceOnUse"
       gradientTransform="matrix(0.70039263,0,0,0.70039263,-65.454735,90.337311)" />
    <linearGradient
       inkscape:collect="always"
       xlink:href="#linearGradient104295"
       id="linearGradient103882"
       x1="-201.88348"
       y1="239.25288"
       x2="-143.86322"
       y2="239.25288"
       gradientUnits="userSpaceOnUse" />
    <linearGradient
       inkscape:collect="always"
       xlink:href="#linearGradient133717"
       id="linearGradient104251"
       x1="-113.37737"
       y1="248.33755"
       x2="-61.621536"
       y2="248.33755"
       gradientUnits="userSpaceOnUse" />
    <linearGradient
       inkscape:collect="always"
       xlink:href="#linearGradient101500"
       id="linearGradient104297"
       x1="-219.39845"
       y1="240.50337"
       x2="-170.94218"
       y2="240.50337"
       gradientUnits="userSpaceOnUse" />
    <linearGradient
       inkscape:collect="always"
       xlink:href="#linearGradient104295"
       id="linearGradient104522"
       x1="-215.8618"
       y1="213.30214"
       x2="-202.39069"
       y2="213.30214"
       gradientUnits="userSpaceOnUse" />
    <linearGradient
       inkscape:collect="always"
       xlink:href="#linearGradient104295"
       id="linearGradient104530"
       x1="-208.12032"
       y1="238.12875"
       x2="-200.12057"
       y2="238.12875"
       gradientUnits="userSpaceOnUse" />
    <linearGradient
       inkscape:collect="always"
       xlink:href="#linearGradient104555"
       id="linearGradient104557"
       x1="-209.75345"
       y1="216.1916"
       x2="-218.35315"
       y2="207.98128"
       gradientUnits="userSpaceOnUse" />
    <inkscape:path-effect
       effect="fill_between_many"
       method="bsplinespiro"
       linkedpaths="#path12260,0,1"
       id="path-effect107039"
       join="true"
       close="true"
       autoreverse="true"
       is_visible="true"
       lpeversion="0"
       applied="false" />
    <inkscape:path-effect
       effect="fill_between_many"
       method="bsplinespiro"
       linkedpaths="#path115159,0,1"
       id="path-effect115273"
       join="true"
       close="true"
       autoreverse="true"
       is_visible="true"
       lpeversion="0"
       applied="false" />
    <linearGradient
       inkscape:collect="always"
       xlink:href="#linearGradient104555"
       id="linearGradient116690"
       x1="-130.99863"
       y1="228.29266"
       x2="-137.54182"
       y2="215.6239"
       gradientUnits="userSpaceOnUse" />
    <linearGradient
       inkscape:collect="always"
       xlink:href="#linearGradient118085"
       id="linearGradient118087"
       x1="-193.30679"
       y1="294.19168"
       x2="-188.59972"
       y2="294.19168"
       gradientUnits="userSpaceOnUse" />
    <linearGradient
       inkscape:collect="always"
       xlink:href="#linearGradient118085"
       id="linearGradient120432"
       x1="-197.96455"
       y1="295.93939"
       x2="-195.85745"
       y2="295.93939"
       gradientUnits="userSpaceOnUse" />
    <linearGradient
       inkscape:collect="always"
       xlink:href="#linearGradient118085"
       id="linearGradient120744"
       gradientUnits="userSpaceOnUse"
       x1="-197.96455"
       y1="295.93939"
       x2="-195.85745"
       y2="295.93939"
       gradientTransform="matrix(0.26458333,0,0.03094266,0.23364065,-192.06992,293.66764)" />
    <linearGradient
       inkscape:collect="always"
       xlink:href="#linearGradient118085"
       id="linearGradient120755"
       gradientUnits="userSpaceOnUse"
       x1="-197.96455"
       y1="295.93939"
       x2="-195.85745"
       y2="295.93939"
       gradientTransform="matrix(0.20911664,0,0,0.16401963,-186.32743,293.60454)" />
    <linearGradient
       inkscape:collect="always"
       xlink:href="#linearGradient118085"
       id="linearGradient120766"
       gradientUnits="userSpaceOnUse"
       x1="-197.96455"
       y1="295.93939"
       x2="-195.85745"
       y2="295.93939"
       gradientTransform="matrix(0.16157373,0,0,0.22332643,-201.53553,290.63864)" />
    <linearGradient
       inkscape:collect="always"
       xlink:href="#linearGradient133717"
       id="linearGradient120926"
       x1="-154.98412"
       y1="251.16608"
       x2="-109.85787"
       y2="251.16608"
       gradientUnits="userSpaceOnUse" />
    <linearGradient
       inkscape:collect="always"
       xlink:href="#linearGradient118085"
       id="linearGradient121774"
       gradientUnits="userSpaceOnUse"
       x1="-197.96455"
       y1="295.93939"
       x2="-195.85745"
       y2="295.93939"
       gradientTransform="matrix(-0.73131299,-0.50569624,0.3168892,-0.35590955,-426.16536,279.45619)" />
    <linearGradient
       inkscape:collect="always"
       xlink:href="#linearGradient118085"
       id="linearGradient122123"
       gradientUnits="userSpaceOnUse"
       gradientTransform="matrix(-0.76467521,-0.58471901,0.33134556,-0.41152586,-436.39305,278.12984)"
       x1="-197.96455"
       y1="295.93939"
       x2="-195.85745"
       y2="295.93939" />
    <linearGradient
       inkscape:collect="always"
       xlink:href="#linearGradient118085"
       id="linearGradient121774-8"
       gradientUnits="userSpaceOnUse"
       x1="-197.96455"
       y1="295.93939"
       x2="-195.85745"
       y2="295.93939"
       gradientTransform="matrix(-0.58674315,-0.43796237,0.25424485,-0.30823839,-378.95582,273.20602)" />
    <linearGradient
       inkscape:collect="always"
       xlink:href="#linearGradient118085"
       id="linearGradient121774-4"
       gradientUnits="userSpaceOnUse"
       x1="-197.96455"
       y1="295.93939"
       x2="-195.85745"
       y2="295.93939"
       gradientTransform="matrix(-0.38133725,-0.46053385,0.27737779,-0.16168918,-347.3939,233.09483)" />
    <linearGradient
       inkscape:collect="always"
       xlink:href="#linearGradient124628"
       id="linearGradient124630"
       x1="-123.9254"
       y1="238.06055"
       x2="-121.48677"
       y2="238.06055"
       gradientUnits="userSpaceOnUse" />
    <linearGradient
       inkscape:collect="always"
       xlink:href="#linearGradient104555"
       id="linearGradient125072"
       gradientUnits="userSpaceOnUse"
       x1="-112.46727"
       y1="241.28397"
       x2="-117.51226"
       y2="225.614" />
    <linearGradient
       inkscape:collect="always"
       xlink:href="#linearGradient118085"
       id="linearGradient128582"
       x1="-127.96148"
       y1="242.25697"
       x2="-126.44254"
       y2="242.25697"
       gradientUnits="userSpaceOnUse" />
    <linearGradient
       inkscape:collect="always"
       xlink:href="#linearGradient118085"
       id="linearGradient129313"
       gradientUnits="userSpaceOnUse"
       x1="-193.30679"
       y1="294.19168"
       x2="-188.59972"
       y2="294.19168"
       gradientTransform="translate(115.48067,0.57910945)" />
    <linearGradient
       inkscape:collect="always"
       xlink:href="#linearGradient118085"
       id="linearGradient129315"
       gradientUnits="userSpaceOnUse"
       x1="-197.96455"
       y1="295.93939"
       x2="-195.85745"
       y2="295.93939"
       gradientTransform="translate(115.48067,0.57910945)" />
    <linearGradient
       inkscape:collect="always"
       xlink:href="#linearGradient118085"
       id="linearGradient129317"
       gradientUnits="userSpaceOnUse"
       gradientTransform="matrix(0.26458333,0,0.03094266,0.23364065,-76.589254,294.24675)"
       x1="-197.96455"
       y1="295.93939"
       x2="-195.85745"
       y2="295.93939" />
    <linearGradient
       inkscape:collect="always"
       xlink:href="#linearGradient118085"
       id="linearGradient129319"
       gradientUnits="userSpaceOnUse"
       gradientTransform="matrix(0.20911664,0,0,0.16401963,-70.846764,294.18365)"
       x1="-197.96455"
       y1="295.93939"
       x2="-195.85745"
       y2="295.93939" />
    <linearGradient
       inkscape:collect="always"
       xlink:href="#linearGradient118085"
       id="linearGradient129321"
       gradientUnits="userSpaceOnUse"
       gradientTransform="matrix(0.16157373,0,0,0.22332643,-86.054864,291.21775)"
       x1="-197.96455"
       y1="295.93939"
       x2="-195.85745"
       y2="295.93939" />
    <linearGradient
       inkscape:collect="always"
       xlink:href="#linearGradient104555"
       id="linearGradient133719"
       x1="-110.99328"
       y1="226.07336"
       x2="-79.643311"
       y2="225.62715"
       gradientUnits="userSpaceOnUse" />
    <linearGradient
       inkscape:collect="always"
       xlink:href="#linearGradient104555"
       id="linearGradient133814"
       x1="-59.568111"
       y1="248.53693"
       x2="-47.908066"
       y2="234.90643"
       gradientUnits="userSpaceOnUse"
       gradientTransform="matrix(0.70039263,0,0,0.70039263,-65.697822,90.072125)" />
  </defs>
  <g
     id="layer2"
     inkscape:label="Wolf2"
     style="display:inline"
     inkscape:groupmode="layer"
     transform="translate(219.27973,-211.56745)">
    <g
       id="g68033"
       inkscape:label="HLegR"
       style="display:inline;stroke:none"
       transform="matrix(0.70039263,0,0,0.70039263,-65.697822,90.072125)">
      <path
         style="fill:url(#linearGradient120926);fill-opacity:1;stroke:none;stroke-width:0.234;stroke-linecap:round;stop-color:#000000"
         d="m -139.48648,217.30619 c -1.78459,4.99786 -5.12337,10.00725 -4.37289,15.26051 1.17431,8.22 4.73012,17.49186 11.33383,22.57843 1.69591,4.73023 5.81438,9.57199 4.64063,14.45734 -1.37878,5.7387 -9.36302,7.85537 -13.26022,12.28749 -2.73657,-0.0295 -6.35937,-0.63796 -8.38247,-0.13251 -3.09354,0.65474 -4.14859,2.27741 -4.72856,4.31034 -0.24828,0.87025 0.66932,2.7219 0.66932,2.7219 7.31871,2.5299 14.97818,2.12454 20.34736,0.0893 0.53573,-1.10042 0.62496,-1.75485 1.16016,-2.85578 3.92702,-3.56951 7.85363,-6.42521 11.78004,-9.99518 1.72566,-2.82581 7.20138,-6.72784 5.6223,-9.63823 -0.36592,-0.67443 -6.32558,-13.28171 -5.53306,-14.54657 4.40339,-7.02778 7.04084,-11.48713 10.35217,-17.13462 -0.38646,-5.80063 -0.77318,-11.60129 -1.16016,-17.40234 -6.66288,-6.34858 -19.13129,-4.83743 -28.46845,-7e-5 z"
         id="path59915"
         sodipodi:nodetypes="cscsccsccccsscccc" />
      <path
         style="fill:none;fill-opacity:1;stroke:#000000;stroke-width:0.415999;stroke-linecap:round;stroke-miterlimit:4;stroke-dasharray:none;stroke-opacity:1;paint-order:stroke fill markers;stop-color:#000000"
         d="m -143.87753,282.70673 c -2.7931,-0.32375 -5.55268,-1.05304 -8.32975,1.00965 -0.80582,0.58005 -1.76692,2.39797 -1.76692,2.39797"
         id="path120961"
         sodipodi:nodetypes="ccc" />
      <path
         style="display:inline;fill:none;fill-opacity:1;stroke:#000000;stroke-width:0.415999;stroke-linecap:round;stroke-miterlimit:4;stroke-dasharray:none;stroke-opacity:1;paint-order:stroke fill markers;stop-color:#000000"
         d="m -143.22856,283.84666 c -2.7931,-0.32375 -2.33994,-1.09766 -5.11701,0.96503 -0.80582,0.58005 -0.87449,3.24578 -0.87449,3.24578"
         id="path120961-3"
         sodipodi:nodetypes="ccc" />
    </g>
    <g
       id="g102349"
       inkscape:label="FLegR"
       style="display:inline;stroke:none"
       transform="matrix(0.70039263,0,0,0.70039263,-65.697822,90.072125)">
      <path
         style="fill:url(#linearGradient102346);fill-opacity:1;stroke:none;stroke-width:0.234;stroke-linecap:round;stop-color:#000000"
         d="m -180.27043,202.22416 c -5.24716,18.27778 -24.70446,48.63387 -27.84375,53.54567 -0.3236,5.52647 4.10517,11.24459 5.89002,15.52825 0.43956,1.05495 10.38717,6.47518 12.67248,4.99759 1.86591,-1.20642 3.52368,-4.51676 3.48047,-7.63025 -0.0115,-0.83203 0.47041,-2.09346 -1.48445,-2.96187 -2.3052,-1.02404 -6.46405,-5.28603 -6.72589,-7.07795 0.4067,-5.69718 5.98265,-17.59283 12.76172,-23.38161 1.88945,-1.61344 5.10385,-0.71717 7.13942,-2.14183 3.83121,-2.68141 8.36039,-6.56834 8.38882,-11.24459 0.0492,-8.09207 -12.04593,-27.41146 -14.27884,-19.63341 z"
         id="path101475"
         sodipodi:nodetypes="scsssscssss" />
      <path
         style="display:inline;fill:url(#linearGradient121774-4);fill-opacity:1;stroke:none;stroke-width:0.181043;stroke-linecap:round;stroke-miterlimit:4;stroke-dasharray:none;stroke-opacity:1;paint-order:stroke fill markers;stop-color:#000000"
         d="m -191.28965,276.19143 c 0.0735,0.32774 0.65415,0.35119 0.8073,0.34809 0.15315,-0.003 1.16477,-0.0847 1.36966,-0.88457 -1.06625,0.3328 -2.37944,-0.3666 -2.17696,0.53648 z"
         id="path119626-7-5"
         sodipodi:nodetypes="sscs" />
      <path
         style="display:inline;fill:url(#linearGradient121774);fill-opacity:1;stroke:none;stroke-width:0.269768;stroke-linecap:round;stroke-miterlimit:4;stroke-dasharray:none;stroke-opacity:1;paint-order:stroke fill markers;stop-color:#000000"
         d="m -189.76373,274.55339 c 0.24441,0.44572 1.06449,0.22806 1.27677,0.15713 0.2123,-0.0709 1.588,-0.62861 1.52745,-1.88302 -1.34314,0.94738 -3.47767,0.49777 -2.80422,1.72589 z"
         id="path119626-7"
         sodipodi:nodetypes="sscs" />
      <path
         style="display:inline;fill:url(#linearGradient122123);fill-opacity:1;stroke:none;stroke-width:0.296624;stroke-linecap:round;stroke-miterlimit:4;stroke-dasharray:none;stroke-opacity:1;paint-order:stroke fill markers;stop-color:#000000"
         d="m -189.1669,271.7811 c 0.25555,0.51536 1.11305,0.26369 1.33501,0.18168 0.22199,-0.082 1.66044,-0.72684 1.59714,-2.17727 -1.40442,1.09543 -3.63633,0.57556 -2.93215,1.99559 z"
         id="path119626-7-3"
         sodipodi:nodetypes="sscs" />
      <path
         style="display:inline;fill:url(#linearGradient121774-8);fill-opacity:1;stroke:none;stroke-width:0.224873;stroke-linecap:round;stroke-miterlimit:4;stroke-dasharray:none;stroke-opacity:1;paint-order:stroke fill markers;stop-color:#000000"
         d="m -189.28732,268.95992 c 0.19609,0.38601 0.85405,0.19751 1.02437,0.13608 0.17033,-0.0614 1.27407,-0.54441 1.22549,-1.6308 -1.07762,0.82049 -2.79019,0.4311 -2.24986,1.49472 z"
         id="path119626-7-1"
         sodipodi:nodetypes="sscs" />
    </g>
    <path
       style="fill:url(#linearGradient133814);fill-opacity:1;stroke:none;stroke-width:0.163892;stroke-linecap:round;stop-color:#000000"
       d="m -129.95295,225.95798 c 4.01258,3.89283 8.25677,13.36131 11.50092,18.50148 2.99669,4.74809 14.16668,9.91687 16.62632,13.75109 0.41578,2.61892 2.740224,5.65058 2.750223,11.00088 -4.086013,0.0629 -9.212033,-1.87453 -13.751093,-2.93773 -5.50501,-1.28946 -11.99103,-2.05656 -16.37631,-5.62546 -5.58455,-4.5449 -5.47137,-10.96445 -7.87563,-17.75142 -1.13005,-3.19001 2.59881,-11.5071 0.62505,-15.1887 2.1137,-5.80434 3.90624,-4.24606 6.50052,-1.75014 z"
       id="path76327"
       sodipodi:nodetypes="csccssscc"
       inkscape:label="Tail" />
    <g
       id="g105200"
       inkscape:label="Body"
       transform="matrix(0.70039263,0,0,0.70039263,-65.697822,90.072125)">
      <path
         style="display:inline;fill:url(#linearGradient103766);fill-opacity:1;stroke:none;stroke-width:0.234;stroke-linecap:round;stop-color:#000000"
         d="m -175.48411,174.88525 c 5.51257,-2.56582 15.87524,-0.9967 23.77137,-0.32636 23.23205,3.0728 51.49413,2.06248 63.566234,23.37111 5.183418,10.41833 2.643975,27.80696 -6.45085,33.03034 -6.876154,3.65178 -15.511444,-3.88354 -23.203124,-2.67729 -7.68089,1.20456 -16.66497,6.99338 -25.52343,8.03185 -11.05688,1.29619 -25.77671,3.30445 -33.31249,-2.38527 -4.44223,-3.35401 14.11712,-7.69272 11.00179,-9.03781 -19.91279,-5.74327 -15.6486,-47.30737 -9.8495,-50.00657 z"
         id="path58496"
         sodipodi:nodetypes="sccccaccs"
         inkscape:label="body" />
      <path
         style="display:inline;mix-blend-mode:screen;fill:url(#linearGradient116690);fill-opacity:1;stroke:none;stroke-width:0.234;stroke-linecap:round;stroke-miterlimit:4;stroke-dasharray:none;stop-color:#000000"
         d="m -147.15895,223.13638 c 9.39828,-7.78323 25.1399,-7.00545 36.14092,-1.72494 5.29055,2.53947 9.7811,2.1237 10.68872,6.02653 0.822169,3.53535 -12.57582,-0.0727 -18.97456,1.14068 -8.08086,1.5324 -12.62106,5.59137 -23.94989,7.69542 -11.32883,2.10405 -30.8167,-0.1501 -33.05932,-0.39064 -5.16048,-0.55353 25.15684,-9.43667 29.15413,-12.74705 z"
         id="path105235"
         sodipodi:nodetypes="sssssss" />
    </g>
    <g
       id="g123981"
       inkscape:label="Cock"
       transform="matrix(0.70039263,0,0,0.70039263,-65.697822,90.072125)"
       style="display:none">
      <path
         style="fill:url(#linearGradient125072);fill-opacity:1;stroke:none;stroke-width:0.415999;stroke-linecap:round;stroke-miterlimit:4;stroke-dasharray:none;stroke-opacity:1;paint-order:stroke fill markers;stop-color:#000000"
         d="m -124.69386,227.9323 c 3.5663,2.95559 4.03972,1.31138 0.88346,5.11144 -1.14257,1.43923 -1.37726,3.97245 -0.88346,5.74248 0.43195,1.54835 2.02403,2.72962 3.53383,3.28142 1.66143,0.60722 3.64776,0.37743 5.30075,-0.25242 2.12432,-0.80944 3.40111,-3.04238 5.30076,-4.29109 1.66678,-1.09564 3.78163,-2.42849 5.30075,-1.13587 2.02639,1.72426 -3.1642,3.34921 -2.52417,5.93179 0.64418,2.59931 3.17809,5.03579 5.80558,5.55317 2.483481,0.48902 2.793404,-2.49195 5.300757,-2.14554 2.393801,0.33073 4.543499,-1.64071 3.533833,-7.19388 -1.009666,-5.55317 -2.51821,-13.21721 -7.82492,-14.13534 -5.2652,-0.91095 -23.85034,2.68164 -23.72717,3.53384 z"
         id="path123165"
         sodipodi:nodetypes="ccssssssssssc" />
      <path
         id="path124503"
         style="fill:url(#linearGradient124630);fill-opacity:1;stroke:#000000;stroke-width:0.415999;stroke-linecap:round;paint-order:stroke fill markers;stop-color:#000000"
         d="m -121.83069,237.79421 a 1.7353649,0.91501063 73.078711 0 1 -0.3703,1.92656 1.7353649,0.91501063 73.078711 0 1 -1.38049,-1.39392 1.7353649,0.91501063 73.078711 0 1 0.37031,-1.92655 1.7353649,0.91501063 73.078711 0 1 1.38048,1.39391 z" />
      <g
         id="g126156"
         inkscape:label="Hard">
        <path
           style="fill:#e135ab;fill-opacity:1;stroke:none;stroke-width:0.415999;stroke-linecap:round;stroke-miterlimit:4;stroke-dasharray:none;stroke-opacity:1;paint-order:stroke fill markers;stop-color:#000000"
           d="m -148.14303,255.59134 c 1.67347,-1.02605 1.2494,-4.64062 3.21274,-6.96093 1.96334,-2.32032 6.09193,-5.59517 9.42911,-7.9471 2.2402,-1.57882 4.2482,-2.33161 4.60443,-4.31613 0.42873,-2.38838 5.6852,-3.84402 7.7417,-1.30168 1.14779,1.41895 3.45821,5.3951 2.73143,7.06921 -0.72041,1.65941 -2.1411,3.68548 -3.59015,3.67399 -1.44904,-0.0115 -2.92644,-2.06051 -3.76025,-0.72636 -1.70533,2.72864 -6.6735,7.05428 -8.10392,7.08344 -1.43042,0.0292 -9.37537,6.65437 -12.26509,3.42556 z"
           id="path125241"
           sodipodi:nodetypes="cssssssszc" />
        <path
           style="fill:none;fill-opacity:1;stroke:#000000;stroke-width:0.416;stroke-linecap:round;stroke-miterlimit:4;stroke-dasharray:none;stroke-opacity:1;paint-order:stroke fill markers;stop-color:#000000"
           d="m -145.07651,252.2554 c 0.75725,1.13588 -0.37863,1.92824 -0.37863,1.92824"
           id="path126191"
           sodipodi:nodetypes="cc" />
        <path
           style="fill:url(#linearGradient128582);fill-opacity:1;fill-rule:nonzero;stroke:none;stroke-width:0.415999;stroke-linecap:round;stroke-miterlimit:4;stroke-dasharray:none;stroke-opacity:1;paint-order:stroke fill markers;stop-color:#000000"
           d="m -127.91217,239.9221 c -0.058,0.34537 -0.093,0.79274 0.0609,1.36081 0.0222,0.082 0.0464,0.15815 0.0707,0.22547 0.12617,0.34938 0.29606,0.62751 0.45154,0.91671 0.009,0.0173 0.0186,0.0348 0.0279,0.0524 0.077,0.14588 0.1528,0.30213 0.21895,0.45914 0.073,0.1733 0.12856,0.33337 0.17387,0.49486 0.0193,0.0688 0.0358,0.13453 0.0511,0.19951 0.0233,0.0992 0.0469,0.20152 0.0633,0.31937 0.0362,0.25861 0.0189,0.48774 -0.014,0.64147 0.0797,-0.12429 0.2198,-0.33397 0.30264,-0.61574 0.0382,-0.12991 0.0594,-0.25974 0.0623,-0.38278 0.002,-0.0815 -0.003,-0.16572 -0.0149,-0.25203 -0.0275,-0.20187 -0.0895,-0.40002 -0.16976,-0.59424 -0.073,-0.17673 -0.15949,-0.34587 -0.23775,-0.49724 -4.5e-4,-8.8e-4 -0.0279,-0.0538 -0.0283,-0.0547 -0.17736,-0.3415 -0.28367,-0.53803 -0.4751,-0.87478 -0.0327,-0.0576 -0.0696,-0.12095 -0.10788,-0.18872 -0.21592,-0.38207 -0.4113,-0.96993 -0.43548,-1.20949 z"
           id="path126259"
           sodipodi:nodetypes="cc"
           inkscape:path-effect="#path-effect127844"
           inkscape:original-d="m -127.91217,239.9221 c -0.0626,1.9043 1.82991,2.9071 1.10433,4.66971" />
      </g>
    </g>
    <g
       id="g76273"
       inkscape:label="HLegL"
       style="fill:#5d544f;fill-opacity:1;stroke:none"
       transform="matrix(0.70039263,0,0,0.70039263,-65.697822,90.072125)">
      <path
         style="fill:url(#linearGradient104251);fill-opacity:1;stroke:none;stroke-width:0.234;stroke-linecap:round;stop-color:#000000"
         d="m -108.34074,197.40505 c -5.64813,3.83709 -4.05706,18.73786 -4.81912,25.52343 -0.70735,6.29853 2.43127,17.96381 6.247,23.02465 5.28661,7.01167 16.502363,10.46658 20.882812,11.24458 11.704806,-0.84641 16.550661,26.807 8.388823,30.69953 -4.075124,-0.43486 -6.068511,0.53546 -7.050182,2.85575 -0.28675,0.67777 -1.956748,5.40155 -0.624697,6.78247 2.845251,2.94963 9.330504,3.44341 13.386419,2.85577 3.397251,-0.49222 6.091557,-2.52281 8.03185,-5.35457 1.28187,-1.87082 -1.765636,-3.8602 0.535456,-6.78246 1.585698,-2.01375 0.307786,-6.42492 0.507461,-8.98025 0.770179,-9.85637 -2.793314,-17.04152 -4.27097,-25.87037 0.565589,-2.28125 -10.372648,-3.62768 -12.657165,-7.80743 -3.81046,-6.97162 3.222736,-15.86745 2.141829,-23.73858 -0.684,-4.98086 -2.403864,-10.02971 -5.354569,-14.10036 -6.106773,-8.42461 -19.241757,-14.4984 -25.344947,-10.35216 z"
         id="path75244"
         sodipodi:nodetypes="sssccsssssscssss" />
      <path
         d="m -84.771833,291.24036 c -0.244163,-0.46389 -0.970621,0.80881 -1.047691,1.12839 -0.0771,0.31958 -0.53147,2.53453 0.0771,4.31439 0.464017,-3.22651 1.618227,-4.0925 0.970591,-5.44278 z"
         style="display:inline;fill:url(#linearGradient129321);fill-opacity:1;stroke:none;stroke-width:0.0790217;stroke-linecap:round;stroke-miterlimit:4;stroke-dasharray:none;stroke-opacity:1;paint-order:stroke fill markers;stop-color:#000000"
         id="path120653-8-2"
         sodipodi:nodetypes="cscc" />
      <path
         d="m -68.947544,294.84899 c -0.09105,-0.33931 -1.23099,0.1754 -1.33073,0.4101 -0.0998,0.23472 0.504784,3.32761 1.018271,3.54095 0.366243,-1.68222 0.502404,-3.24321 0.312459,-3.95105 z"
         style="display:inline;fill:url(#linearGradient129319);fill-opacity:1;stroke:none;stroke-width:0.077043;stroke-linecap:round;stroke-miterlimit:4;stroke-dasharray:none;stroke-opacity:1;paint-order:stroke fill markers;stop-color:#000000"
         id="path120653-2-8"
         sodipodi:nodetypes="sscs" />
      <path
         d="m -74.993024,295.00573 c -0.59898,-0.42492 -0.96945,0.78015 -1.05137,1.1145 -0.0819,0.33434 -0.51913,2.65158 0.72398,4.51365 0.0413,-2.88114 1.97787,-4.45733 0.32739,-5.62815 z"
         style="display:inline;fill:url(#linearGradient129317);fill-opacity:1;stroke:none;stroke-width:0.10343;stroke-linecap:round;stroke-miterlimit:4;stroke-dasharray:none;stroke-opacity:1;paint-order:stroke fill markers;stop-color:#000000"
         id="path120653-27"
         sodipodi:nodetypes="sscs" />
      <path
         style="display:inline;fill:url(#linearGradient129315);fill-opacity:1;stroke:none;stroke-width:0.415999;stroke-linecap:round;stroke-miterlimit:4;stroke-dasharray:none;stroke-opacity:1;paint-order:stroke fill markers;stop-color:#000000"
         d="m -80.899544,294.18569 c -0.54271,-0.48119 -1.07277,0.0803 -1.19897,0.4589 -0.12621,0.37862 -0.691814,2.98045 0.304686,5.08912 0.846763,-1.81251 2.389694,-4.22213 0.894284,-5.54802 z"
         id="path119626-1"
         sodipodi:nodetypes="sscs" />
      <path
         style="display:inline;fill:none;fill-opacity:1;stroke:#000000;stroke-width:0.415999;stroke-linecap:round;stroke-miterlimit:4;stroke-dasharray:none;stroke-opacity:1;paint-order:stroke fill markers;stop-color:#000000"
         d="m -78.182526,290.77237 c 0,0 -3.186028,-0.0758 -4.009578,0.64899 -1.44812,1.27437 -2.05259,4.99758 -1.96335,5.4438 0.0892,0.44622 0.441729,1.64782 0.441729,1.64782"
         id="path118356-4"
         sodipodi:nodetypes="cssc" />
      <path
         style="display:inline;fill:none;fill-opacity:1;stroke:#000000;stroke-width:0.415999;stroke-linecap:round;stroke-miterlimit:4;stroke-dasharray:none;stroke-opacity:1;paint-order:stroke fill markers;stop-color:#000000"
         d="m -71.075583,292.20474 c 0,0 -0.942834,1.1841 -1.102464,1.67938 -0.5134,1.59292 0.09876,4.28273 0.370583,5.57637"
         id="path118354-7"
         sodipodi:nodetypes="csc" />
      <path
         style="display:inline;fill:none;fill-opacity:1;stroke:url(#linearGradient129313);stroke-width:0.416;stroke-linecap:round;stroke-miterlimit:4;stroke-dasharray:none;stroke-opacity:1;paint-order:stroke fill markers;stop-color:#000000"
         d="m -75.030857,291.99421 c 0,0 -1.271051,0.45442 -2.280721,1.46407 -1.00967,1.00968 -0.306546,5.72981 -0.306546,5.72981"
         id="path118013-9"
         sodipodi:nodetypes="csc" />
      <path
         style="display:none;mix-blend-mode:overlay;fill:url(#linearGradient133719);fill-opacity:1;stroke:none;stroke-width:0.415999;stroke-linecap:round;stroke-miterlimit:4;stroke-dasharray:none;stroke-opacity:1;paint-order:stroke fill markers;stop-color:#000000"
         d="m -112.47129,232.12684 c 1.34787,2.75666 3.64247,16.18034 12.828716,19.95897 7.555905,3.10801 22.148431,2.74943 19.324066,1.36371 -13.038404,-6.39706 -22.132302,-31.55355 -16.619725,-40.81476 7.656266,-12.86263 2.090568,-15.84291 -7.303687,-16.40628 -12.35664,-0.74102 -8.88145,34.56471 -8.22937,35.89836 z"
         id="path131416"
         sodipodi:nodetypes="ssssss" />
    </g>
    <g
       id="g102504"
       inkscape:label="FLegL"
       style="display:inline;fill:none;fill-opacity:1;stroke:none"
       transform="matrix(0.70039263,0,0,0.70039263,-65.697822,90.072125)">
      <path
         style="fill:url(#linearGradient103882);fill-opacity:1;stroke:none;stroke-width:0.234;stroke-linecap:round;stop-color:#000000"
         d="m -156.75078,178.2062 c 7.28599,1.32864 13.06285,21.44418 14.38031,28.7322 2.08067,11.50997 -5.29631,18.73548 -8.65391,27.93907 -3.40797,14.57293 -13.21712,23.67616 -18.51042,36.0243 -2.81311,6.63959 -3.33198,14.77904 -7.1569,20.89197 -1.70414,2.72353 -5.55317,6.81524 -6.81526,6.81524 -1.26208,0 -14.11398,4.27372 -17.68448,-0.31105 -1.53097,-1.96588 0.27399,-5.76665 0.64635,-8.20801 0.2221,-1.45611 3.72904,-3.15277 7.854,-4.60397 1.04396,-0.36728 5.92528,-0.49435 6.76189,-1.21879 2.49564,-3.39749 5.38857,-9.56009 5.7929,-15.16031 2.70704,-3.02769 9.58129,-18.99748 11.77435,-29.05855 2.13063,-12.97543 -7.83585,-12.6741 -4.79592,-24.48442 2.23988,-7.60064 8.61182,-38.77919 16.40709,-37.35768 z"
         id="path89878"
         sodipodi:nodetypes="ssccsssssccccs" />
      <path
         style="fill:none;fill-opacity:1;stroke:url(#linearGradient118087);stroke-width:0.416;stroke-linecap:round;stroke-miterlimit:4;stroke-dasharray:none;stroke-opacity:1;paint-order:stroke fill markers;stop-color:#000000"
         d="m -188.80771,289.77439 c 0,0 -2.91176,1.02236 -3.92143,2.03201 -1.00967,1.00968 -0.36965,6.80258 -0.36965,6.80258"
         id="path118013"
         sodipodi:nodetypes="csc" />
      <path
         style="fill:none;fill-opacity:1;stroke:#000000;stroke-width:0.415999;stroke-linecap:round;stroke-miterlimit:4;stroke-dasharray:none;stroke-opacity:1;paint-order:stroke fill markers;stop-color:#000000"
         d="m -185.35727,290.93148 c 0,0 -1.63698,1.81515 -1.79661,2.31043 -0.5134,1.59292 -0.40607,4.34583 -0.13425,5.63947"
         id="path118354"
         sodipodi:nodetypes="csc" />
      <path
         style="fill:none;fill-opacity:1;stroke:#000000;stroke-width:0.415999;stroke-linecap:round;stroke-miterlimit:4;stroke-dasharray:none;stroke-opacity:1;paint-order:stroke fill markers;stop-color:#000000"
         d="m -193.03215,289.05738 c 0,0 -3.81707,1.06011 -4.64062,1.78487 -1.44812,1.27437 -2.05259,4.99758 -1.96335,5.4438 0.0892,0.44622 0,1.96334 0,1.96334"
         id="path118356"
         sodipodi:nodetypes="cssc" />
      <path
         style="fill:url(#linearGradient120432);fill-opacity:1;stroke:none;stroke-width:0.415999;stroke-linecap:round;stroke-miterlimit:4;stroke-dasharray:none;stroke-opacity:1;paint-order:stroke fill markers;stop-color:#000000"
         d="m -196.38021,292.80339 c -0.54271,-0.48119 -1.07277,0.88347 -1.19897,1.26209 -0.12621,0.37862 -0.8703,3.00276 0.1262,5.11143 0.42286,-3.2627 2.56818,-5.04763 1.07277,-6.37352 z"
         id="path119626"
         sodipodi:nodetypes="sscs" />
      <path
         d="m -190.47369,293.7573 c -0.59898,-0.42492 -0.96945,0.78015 -1.05137,1.1145 -0.0819,0.33434 -0.51913,2.65158 0.72398,4.51365 0.0413,-2.88114 1.97787,-4.45733 0.32739,-5.62815 z"
         style="fill:url(#linearGradient120744);fill-opacity:1;stroke:none;stroke-width:0.10343;stroke-linecap:round;stroke-miterlimit:4;stroke-dasharray:none;stroke-opacity:1;paint-order:stroke fill markers;stop-color:#000000"
         id="path120653" />
      <path
         d="m -185.07522,293.66749 c -0.42894,-0.29831 -0.84788,0.54768 -0.94762,0.78238 -0.0998,0.23472 -0.68785,1.86146 0.0997,3.16867 0.33422,-2.02261 2.0298,-3.12912 0.84788,-3.95105 z"
         style="fill:url(#linearGradient120755);fill-opacity:1;stroke:none;stroke-width:0.077043;stroke-linecap:round;stroke-miterlimit:4;stroke-dasharray:none;stroke-opacity:1;paint-order:stroke fill markers;stop-color:#000000"
         id="path120653-2" />
      <path
         d="m -200.56802,290.72435 c -0.33141,-0.40617 -0.6551,0.74571 -0.73217,1.06529 -0.0771,0.31958 -0.53147,2.53453 0.0771,4.31439 0.25822,-2.75395 1.56832,-4.26055 0.6551,-5.37968 z"
         style="fill:url(#linearGradient120766);fill-opacity:1;stroke:none;stroke-width:0.0790217;stroke-linecap:round;stroke-miterlimit:4;stroke-dasharray:none;stroke-opacity:1;paint-order:stroke fill markers;stop-color:#000000"
         id="path120653-8" />
    </g>
    <path
       d="m -213.31826,245.23957 c -2.12674,-10.94369 5.39059,-20.29428 11.22945,-28.62209 3.6444,-5.1979 14.04442,-6.92713 15.86218,-0.84473 3.59053,12.01423 4.89546,26.79991 2.8313,35.08717 0.0581,2.92267 -6.58781,5.43507 -7.70671,5.87949 -2.07383,0.82371 -15.24288,-0.48842 -17.34085,-1.74906 -3.59528,-2.16034 -4.07524,-5.6334 -4.87538,-9.75078 z"
       style="display:inline;fill:url(#linearGradient103804);fill-opacity:1;stroke:none;stroke-width:0.0433631;stroke-linecap:round;stop-color:#000000"
       id="path91330"
       inkscape:label="Neck"
       sodipodi:nodetypes="ssscssss" />
    <g
       id="g13706"
       inkscape:label="Head"
       style="display:inline;fill:#252120;fill-opacity:1;stroke:none"
       transform="matrix(0.70039263,0,0,0.70039263,-65.697822,90.072125)">
      <path
         style="fill:url(#linearGradient104297);fill-opacity:1;stroke:none;stroke-width:0.234;stroke-linecap:round;stop-color:#000000"
         d="m -171.25691,238.27824 c -1.21227,4.6066 -2.97998,7.33101 -6.42548,10.6199 -2.26489,2.16194 -6.78306,1.29344 -8.83504,3.65895 -2.84928,3.28459 -1.83242,7.50503 -4.1944,11.15536 -1.20102,1.85613 -4.25195,4.33239 -6.42549,3.92666 -2.93672,-0.54819 -5.06787,-3.49576 -6.42548,-6.15774 -1.93796,-3.79991 0.5428,-8.08609 -1.8741,-11.60157 -3.25602,-4.73602 -9.6575,-4.44348 -12.76171,-9.28124 -2.02431,-3.15479 -1.14759,-11.49931 2.14182,-13.29718 5.84011,-3.19198 2.56882,-14.54251 9.85892,-13.71013 12.95912,1.47966 13.01753,1.14626 25.93333,-0.24609 4.69985,-0.50665 3.59969,7.50722 7.40125,15.20562 1.14765,2.32405 2.26594,7.22112 1.60638,9.72746 z"
         id="path9942"
         sodipodi:nodetypes="sssssssssssss" />
      <path
         inkscape:original-d="M 0,0"
         inkscape:path-effect="#path-effect115273"
         d="m -190.64887,263.69441 c -1.20103,1.85614 -4.25195,4.3324 -6.42549,3.92666 -2.93672,-0.54819 -5.06787,-3.49576 -6.42548,-6.15774 -1.34779,-2.64272 -1.33133,-3.70209 -1.5572,-5.63898 -0.19627,-1.68307 0.18932,-5.07989 0.18932,-5.07989 z"
         id="path115275"
         style="fill:none" />
      <path
         d="m -190.64887,263.69441 c -0.0866,0.0791 -0.29115,0.20948 -0.5648,0.47637 -0.19466,0.18985 -0.4603,0.4662 -0.81736,0.7994 -0.41765,0.38974 -0.97194,0.86619 -1.62395,1.30184 -0.54359,0.36322 -1.14806,0.69263 -1.75809,0.89624 -0.2856,0.0953 -0.56827,0.16161 -0.84198,0.19136 -0.2688,0.0292 -0.52556,0.0228 -0.7661,-0.0236 -0.0476,-0.009 -0.095,-0.0189 -0.14219,-0.0293 -0.5734,-0.12703 -1.17855,-0.36447 -1.80557,-0.75737 -0.57143,-0.35807 -1.13624,-0.82979 -1.69065,-1.4209 -0.99577,-1.06168 -1.85425,-2.39803 -2.57254,-3.80161 -0.33247,-0.64965 -0.58144,-1.20141 -0.77128,-1.69277 -0.18971,-0.491 -0.31896,-0.91805 -0.41437,-1.3196 -0.0977,-0.41125 -0.16083,-0.8001 -0.21443,-1.19773 -0.0568,-0.4214 -0.10377,-0.85561 -0.16414,-1.32274 -0.0272,-0.20601 -0.0452,-0.43762 -0.0566,-0.67929 -0.0122,-0.25753 -0.0168,-0.52698 -0.0171,-0.79039 -5.4e-4,-0.60019 0.0223,-1.22297 0.0393,-1.65709 0.009,-0.24053 0.0182,-0.44817 0.0245,-0.62196 0.0417,-1.13611 -0.0208,-1.29613 -0.0616,-1.30076 -0.025,-0.003 -0.16214,0.13502 -0.30507,1.27097 -0.0217,0.17281 -0.0453,0.38277 -0.0685,0.6239 -0.043,0.44673 -0.0897,1.05455 -0.10925,1.67754 -0.008,0.26876 -0.012,0.54614 -0.007,0.81417 0.005,0.25071 0.0166,0.49793 0.0398,0.72371 0.048,0.46254 0.0847,0.89705 0.134,1.33043 0.0465,0.40871 0.10535,0.81979 0.20319,1.2587 0.0958,0.4296 0.22836,0.88412 0.42398,1.40153 0.1953,0.51659 0.45094,1.08932 0.78901,1.75446 0.73025,1.43668 1.61958,2.82723 2.66861,3.94147 0.58578,0.6222 1.19184,1.127 1.81517,1.51335 0.68539,0.42482 1.35556,0.68408 1.99747,0.82013 0.0527,0.0112 0.1056,0.0216 0.15876,0.0313 0.30559,0.0555 0.62011,0.0596 0.93566,0.0242 0.32108,-0.0361 0.64374,-0.11311 0.96036,-0.21913 0.67361,-0.22555 1.325,-0.5837 1.89268,-0.97131 0.68428,-0.46723 1.25206,-0.97939 1.66213,-1.41391 0.35032,-0.37122 0.59302,-0.69211 0.74178,-0.93294 0.20611,-0.33369 0.25167,-0.59415 0.28609,-0.69861 z"
         style="fill:#070606;fill-opacity:1;fill-rule:nonzero;stroke:none;stroke-width:0.0619125;stroke-linecap:round;stroke-opacity:1;stop-color:#000000"
         id="path115159"
         inkscape:path-effect="#path-effect115271"
         inkscape:original-d="m -190.64887,263.69441 c -1.20103,1.85614 -4.25195,4.3324 -6.42549,3.92666 -2.93672,-0.54819 -5.06787,-3.49576 -6.42548,-6.15774 -1.34779,-2.64272 -1.33133,-3.70209 -1.5572,-5.63898 -0.19627,-1.68307 0.18932,-5.07989 0.18932,-5.07989"
         inkscape:linked-fill="path115275"
         sodipodi:nodetypes="csssc" />
      <path
         style="fill:#252120;fill-opacity:1;stroke:none;stroke-width:0.234;stroke-linecap:round;stop-color:#000000"
         d="m -192.85366,238.90294 c 0.53552,2.67759 1.07097,5.35487 1.69574,7.34798 0.62476,1.99311 1.33868,3.30198 2.05245,4.61055"
         id="path12256"
         inkscape:path-effect="#path-effect12258"
         inkscape:original-d="m -192.85366,238.90294 c 0.53572,2.67755 1.07117,5.35483 1.60637,8.03185 0.71422,1.30919 1.42814,2.61806 2.14182,3.92668" />
      <path
         style="fill:#252120;fill-opacity:1;stroke:none;stroke-width:0.234;stroke-linecap:round;stop-color:#000000"
         d="m -199.36839,238.90294 c -0.476,2.38001 -0.95196,4.75982 -1.66589,6.39584 -0.71392,1.63602 -1.66582,2.52843 -2.61776,3.42087"
         id="path12252"
         inkscape:path-effect="#path-effect12254"
         inkscape:original-d="m -199.36839,238.90294 c -0.47569,2.38007 -0.95165,4.75988 -1.42788,7.13942 -0.95168,0.89271 -1.90358,1.78512 -2.85577,2.67729" />
      <path
         style="fill:#070606;fill-opacity:1;stroke:none;stroke-width:0.234;stroke-linecap:round;stop-color:#000000"
         d="m -197.02165,259.1164 c 3.62952,-0.0513 5.10006,1.58371 4.4803,2.95538 -0.78877,1.74574 -2.91325,3.93333 -4.4487,3.72313 -1.53546,-0.2102 -3.30235,-3.0078 -3.91251,-4.30147 -0.61015,-1.29367 0.85654,-2.33431 3.88091,-2.37704 z"
         id="path11626"
         sodipodi:nodetypes="sssss" />
      <g
         id="g13614"
         inkscape:label="EarR"
         style="display:inline;fill:#080705;fill-opacity:1;stroke:none">
        <path
           style="display:inline;fill:url(#linearGradient104522);fill-opacity:1;fill-rule:nonzero;stroke:url(#linearGradient104522);stroke-width:0.0619125;stroke-linecap:round;stroke-opacity:1;stop-color:#000000"
           d="m -213.81087,200.88584 c -0.43136,3.89699 -4.08996,25.76116 -0.0592,25.68674 2.15761,-0.0398 8.8201,-3.19791 10.53047,-5.32476 1.71036,-2.12685 0.52045,-6.11295 -1.20481,-9.93555 -1.72527,-3.82259 -8.83513,-14.32342 -9.26649,-10.42643 z"
           id="path12260"
           sodipodi:nodetypes="ssssss"
           inkscape:linked-fill="path107041" />
        <path
           style="fill:url(#linearGradient104557);fill-opacity:1;stroke:none;stroke-width:0.234;stroke-linecap:round;stop-color:#000000"
           d="m -213.03971,205.2779 c 0.41776,3.35498 -3.32877,14.98753 -0.0631,19.05746 1.48025,1.84481 4.96146,-1.80923 5.17454,-4.16488 0.44869,-4.96015 0.38283,-8.94485 -5.11144,-14.89258 z"
           id="path12867"
           sodipodi:nodetypes="cssc" />
        <path
           d="m -202.50934,218.33903 c -0.0813,-0.8907 -0.27578,-2.28873 -0.84196,-4.22907 -0.36862,-1.26327 -0.83647,-2.68423 -1.60413,-4.43777 -0.0414,-0.0946 -0.0846,-0.19254 -0.12967,-0.29358 -0.77529,-1.74008 -1.80886,-3.54705 -3.0907,-5.1904 -0.85583,-1.0972 -1.64905,-1.89699 -2.23324,-2.40768 -0.72038,-0.62973 -1.3544,-0.99295 -1.64121,-1.17093 0.26518,0.24664 0.72808,0.74022 1.38091,1.44004 0.52775,0.56574 1.24931,1.35952 2.06717,2.46289 1.22596,1.65394 2.20801,3.38478 2.99343,5.10242 0.0456,0.0997 0.0895,0.19622 0.13166,0.28944 0.75199,1.66151 1.38939,3.14915 1.80738,4.30922 0.68126,1.89078 0.99525,3.23502 1.16036,4.12542 z"
           style="display:inline;fill:#020202;fill-opacity:1;fill-rule:nonzero;stroke:none;stroke-width:0.416;stroke-linecap:round;stroke-miterlimit:4;stroke-dasharray:none;stroke-opacity:1;stop-color:#000000"
           id="path107909"
           sodipodi:nodetypes="csc"
           inkscape:path-effect="#path-effect109806"
           inkscape:original-d="m -202.50934,218.33903 c -0.30573,-2.21421 -1.11233,-5.01965 -2.83758,-8.84225 -1.72527,-3.82259 -4.15245,-6.93877 -6.70333,-8.88718" />
      </g>
      <g
         id="g28255"
         inkscape:label="Eye"
         style="display:inline;stroke:none">
        <path
           style="fill:url(#linearGradient104530);fill-opacity:1;stroke:none;stroke-width:0.234;stroke-linecap:round;stop-color:#000000"
           d="m -207.9357,235.42247 c 4.69669,1.57101 8.01354,1.38406 7.67489,4.10517 -0.17822,1.43195 -2.84619,1.58521 -4.19442,1.07091 -1.9426,-0.74103 -3.93947,-3.44741 -3.48047,-5.17608 z"
           id="path10981"
           sodipodi:nodetypes="caac" />
        <circle
           style="fill:#afd016;fill-opacity:1;stroke:none;stroke-width:0.234;stroke-linecap:round;stop-color:#000000"
           id="path13730"
           cx="-203.20583"
           cy="238.45673"
           r="1.6063702" />
        <ellipse
           style="fill:#0c0302;fill-opacity:1;stroke:none;stroke-width:0.234;stroke-linecap:round;stop-color:#000000"
           id="path13732"
           cx="-203.16121"
           cy="238.23361"
           rx="0.58007812"
           ry="0.7585637" />
      </g>
      <use
         x="0"
         y="0"
         xlink:href="#g13614"
         id="use58381"
         width="100%"
         height="100%"
         transform="matrix(-1,0,0,1,-390.76569,1.8740986)"
         style="display:inline;stroke:none" />
      <use
         x="0"
         y="0"
         xlink:href="#g28255"
         id="use28337"
         width="100%"
         height="100%"
         transform="matrix(-1,0,0,1,-391.95408,0.26772836)"
         style="display:inline;fill-opacity:1;stroke:none" />
    </g>
  </g>
</svg>
