<?xml version="1.0" encoding="UTF-8" standalone="no"?>
<!-- Created with Inkscape (http://www.inkscape.org/) -->

<svg
   width="71.595566mm"
   height="36.076504mm"
   viewBox="0 0 71.595566 36.076504"
   version="1.1"
   id="svg5"
   inkscape:version="1.1 (c68e22c387, 2021-05-23)"
   sodipodi:docname="Bear1.svg"
   xmlns:inkscape="http://www.inkscape.org/namespaces/inkscape"
   xmlns:sodipodi="http://sodipodi.sourceforge.net/DTD/sodipodi-0.dtd"
   xmlns="http://www.w3.org/2000/svg"
   xmlns:svg="http://www.w3.org/2000/svg">
  <sodipodi:namedview
     id="namedview7"
     pagecolor="#ffffff"
     bordercolor="#666666"
     borderopacity="1.0"
     inkscape:pageshadow="2"
     inkscape:pageopacity="0.0"
     inkscape:pagecheckerboard="0"
     inkscape:document-units="mm"
     showgrid="false"
     inkscape:zoom="2.096401"
     inkscape:cx="104.94176"
     inkscape:cy="96.594116"
     inkscape:window-width="1920"
     inkscape:window-height="1017"
     inkscape:window-x="-8"
     inkscape:window-y="-8"
     inkscape:window-maximized="1"
     inkscape:current-layer="layer1" />
  <defs
     id="defs2" />
  <g
     inkscape:label="Layer 1"
     inkscape:groupmode="layer"
     id="layer1"
     transform="translate(-33.632131,-63.569292)">
    <path
       style="display:inline;fill:#000000;stroke-width:0.1;stroke:#ffffff;stroke-opacity:1;stroke-miterlimit:4;stroke-dasharray:none;stroke-linecap:round"
       d="m 61.64169,99.414682 c -0.08041,-0.08084 -0.146204,-0.434372 -0.146204,-0.785615 0,-0.801539 1.190674,-1.564443 2.913088,-1.866505 1.839898,-0.322668 2.536211,-1.462239 2.269497,-3.714221 -0.393326,-3.321015 -2.29955,-5.66673 -5.04666,-6.210191 -0.895499,-0.177155 -1.100378,-0.04702 -1.70418,1.082484 -0.377471,0.706117 -1.488721,1.935449 -2.469444,2.731848 -2.81625,2.286942 -6.157961,5.599229 -7.297754,7.233497 l -1.045664,1.499306 h -5.627497 c -5.433997,0 -5.627497,-0.02481 -5.627497,-0.721589 0,-1.128332 1.48191,-2.344209 3.206587,-2.630943 2.476424,-0.411716 3.255354,-0.9828 3.921877,-2.875383 1.185494,-3.058868 3.212914,-5.601181 4.080448,-8.784174 0.583979,-2.227499 0.582763,-2.338253 -0.02942,-2.680928 -0.351212,-0.196596 -1.178271,-0.83131 -1.83791,-1.410483 -1.18473,-1.040208 -1.256464,-1.054414 -5.887821,-1.166153 -2.578664,-0.06221 -4.949477,-0.177271 -5.268473,-0.255683 -0.715419,-0.175856 -2.404212,-1.743794 -2.412523,-2.239874 -0.0034,-0.200103 0.952887,-1.311353 2.124975,-2.469445 1.715429,-1.694947 2.091626,-2.264107 1.928833,-2.918193 -0.156484,-0.628743 0.190937,-1.2537 1.535709,-2.762501 1.615828,-1.812917 1.724398,-2.050939 1.545132,-3.38746 l -0.192813,-1.43753 1.354424,0.219792 c 0.744933,0.120886 1.542777,0.06347 1.772987,-0.127584 0.422595,-0.350722 1.566326,-0.109088 1.566326,0.330914 0,0.28584 9.943185,0.178772 13.98626,-0.150604 3.058713,-0.249183 5.584504,0.247062 8.294596,1.629648 1.189941,0.607062 1.748099,0.642244 6.007841,0.378695 5.367814,-0.07167 12.537711,-0.699075 16.615904,1.293663 2.827172,1.391813 5.255172,3.954425 6.069433,6.405938 1.489795,5.049236 2.35341,11.121666 5.958643,14.306209 1.69875,1.466596 1.9783,1.905801 2.47719,3.891883 0.58861,2.34326 0.73474,5.347142 0.29237,6.009666 -0.14255,0.213487 -0.58315,0.558482 -0.97912,0.766656 -0.87082,0.457825 -8.403909,1.202345 -9.174284,0.906724 -1.03365,-0.396649 -0.333897,-1.357147 1.692141,-2.322672 1.761031,-0.839237 2.028472,-1.097788 2.028472,-1.961045 0,-1.474241 -0.590201,-2.038174 -3.704167,-3.539328 -1.552222,-0.748281 -3.049012,-1.634113 -3.3262,-1.968515 -0.470846,-0.568028 -0.533806,-0.554249 -0.95764,0.209617 -0.249513,0.449693 -0.459285,1.417804 -0.466157,2.151359 -0.01175,1.254058 -2.194067,5.768034 -3.300029,6.825902 -0.23817,0.227813 -2.421452,0.497949 -5.096922,0.630639 -4.044019,0.200561 -4.708815,0.157762 -4.89016,-0.314822 -0.314897,-0.8206 0.427612,-1.482605 1.932862,-1.723306 4.533976,-1.511188 3.246926,-4.365442 2.022429,-7.457705 H 77.531951 74.31273 c 0.0857,1.646296 0.171408,3.292593 0.257112,4.938889 l -2.03926,2.186161 -2.039257,2.186157 -4.351712,0.106899 c -2.393445,0.05879 -4.417506,0.04075 -4.497918,-0.0401 z M 87.78544,87.04619 c -1.82656,-1.85444 -2.559223,-2.130817 -1.25572,-0.473682 l 0.773,0.982712 -1.702922,0.433899 -1.702922,0.433903 2.204723,-0.129847 c 1.2126,-0.07142 2.293532,0.01383 2.402071,0.189463 0.10854,0.175623 0.380447,0.319313 0.604238,0.319313 0.223788,0 -0.371323,-0.790092 -1.322468,-1.755761 z m -19.502901,0.466524 c -1.020801,-0.482709 -2.132051,-0.823934 -2.469444,-0.758278 -0.362737,0.07059 0.179529,0.431944 1.326836,0.884177 2.644884,1.042533 3.430478,0.955972 1.142608,-0.125899 z M 63.28631,80.415477 c 0.675298,-2.411931 0.234054,-2.004487 -0.806896,0.745085 -0.764415,2.019134 -0.82188,2.349535 -0.286329,1.64628 0.368511,-0.483906 0.860462,-1.560023 1.093225,-2.391365 z m -7.195546,-9.982051 c -0.966706,0.367541 -3.414722,2.751087 -3.414722,3.324792 0.513948,-0.423391 6.774647,-4.575874 3.414722,-3.324792 z m -16.4675,1.808788 c 0,-0.182577 -0.15875,-0.43007 -0.352778,-0.549986 -0.194028,-0.119916 -0.352778,0.02947 -0.352778,0.331958 0,0.302492 0.15875,0.549986 0.352778,0.549986 0.194028,0 0.352778,-0.149381 0.352778,-0.331958 z m 53.894822,-0.81457 c -1.338923,-1.752095 -3.635316,-3.363232 -5.643863,-3.959706 -1.360477,-0.404019 -3.570206,-0.538211 -8.862674,-0.538211 -3.877677,0 -6.959392,0.09093 -6.848253,0.202069 0.111139,0.111138 3.394961,0.352609 7.297382,0.536603 8.172594,0.385325 9.853355,0.821074 12.847715,3.330857 2.208371,1.850991 2.329642,1.893936 1.209693,0.428388 z M 42.085633,67.450369 c -0.245435,-0.295731 -0.518894,-0.465042 -0.607688,-0.376249 -0.244651,0.244651 0.252428,0.913941 0.678779,0.913941 0.233924,0 0.207162,-0.202418 -0.07109,-0.537692 z m 14.261154,-1.402586 c 2.98854,-1.00322 5.64464,-1.126396 7.507252,-0.348147 1.832511,0.765672 1.8461,0.39159 0.01792,-0.493414 -1.840371,-0.89091 -4.29574,-0.961759 -6.786196,-0.195815 -1.37115,0.4217 -2.608278,0.489292 -5.55625,0.303574 -2.722366,-0.171506 -3.792361,-0.126575 -3.792361,0.159249 0,0.244528 0.714647,0.400023 1.852083,0.402981 2.36407,0.0061 3.681933,0.330032 3.028433,0.74428 -0.982803,0.622991 1.137004,0.297436 3.729119,-0.572708 z"
       id="path854"
       sodipodi:nodetypes="sssssssscsssccsssscsssscsssssccccssssssssssssscccccccssssscccsssssssssssscccsssssssssssssssssssssscss" />
  </g>
</svg>
