<?xml version="1.0" encoding="UTF-8" standalone="no"?>
<!-- Created with Inkscape (http://www.inkscape.org/) -->

<svg
   width="640"
   height="300"
   viewBox="0 0 169.33333 79.374999"
   version="1.1"
   id="svg5"
   inkscape:version="1.1 (c68e22c387, 2021-05-23)"
   sodipodi:docname="bg_web.svg"
   xmlns:inkscape="http://www.inkscape.org/namespaces/inkscape"
   xmlns:sodipodi="http://sodipodi.sourceforge.net/DTD/sodipodi-0.dtd"
   xmlns="http://www.w3.org/2000/svg"
   xmlns:svg="http://www.w3.org/2000/svg">
  <sodipodi:namedview
     id="namedview7"
     pagecolor="#ffffff"
     bordercolor="#666666"
     borderopacity="1.0"
     inkscape:pageshadow="2"
     inkscape:pageopacity="0.0"
     inkscape:pagecheckerboard="false"
     inkscape:document-units="mm"
     showgrid="false"
     units="px"
     inkscape:zoom="0.94867184"
     inkscape:cx="517.5657"
     inkscape:cy="372.62622"
     inkscape:window-width="1920"
     inkscape:window-height="1017"
     inkscape:window-x="1912"
     inkscape:window-y="-8"
     inkscape:window-maximized="1"
     inkscape:current-layer="layer1" />
  <defs
     id="defs2">
    <filter
       inkscape:label="Black Hole"
       inkscape:menu="Morphology"
       inkscape:menu-tooltip="Creates a black light inside and outside"
       height="3.121986"
       width="1.8700142"
       y="-1.060993"
       x="-0.43500711"
       style="color-interpolation-filters:sRGB;"
       id="filter5939">
      <feGaussianBlur
         stdDeviation="5"
         in="SourceAlpha"
         result="result1"
         id="feGaussianBlur5927" />
      <feComposite
         operator="arithmetic"
         k2="3.2"
         k1="-1"
         k4="-2"
         result="result3"
         in2="result1"
         id="feComposite5929" />
      <feColorMatrix
         values="1 0 0 0 0 0 1 0 0 0 0 0 1 0 0 0 0 0 10 0 "
         result="result2"
         id="feColorMatrix5931" />
      <feComposite
         result="fbSourceGraphic"
         in="SourceGraphic"
         operator="out"
         in2="result2"
         id="feComposite5933" />
      <feBlend
         mode="multiply"
         in="result1"
         in2="fbSourceGraphic"
         result="result91"
         id="feBlend5935" />
      <feBlend
         mode="screen"
         in="fbSourceGraphic"
         in2="result91"
         id="feBlend5937" />
    </filter>
  </defs>
  <g
     inkscape:groupmode="layer"
     id="layer2"
     inkscape:label="Layer 2"
     style="display:none"
     sodipodi:insensitive="true">
    <rect
       style="font-variation-settings:normal;opacity:1;vector-effect:none;fill:#0000ff;fill-opacity:1;fill-rule:evenodd;stroke:none;stroke-width:0.264583;stroke-linecap:butt;stroke-linejoin:miter;stroke-miterlimit:4;stroke-dasharray:none;stroke-dashoffset:0;stroke-opacity:0.766129;-inkscape-stroke:none;stop-color:#000000;stop-opacity:1"
       id="rect1593"
       width="169.33333"
       height="79.375"
       x="0"
       y="0"
       rx="0"
       ry="0" />
  </g>
  <g
     inkscape:label="Layer 1"
     inkscape:groupmode="layer"
     id="layer1">
    <path
       style="fill:#000000;stroke-width:0.0438408"
       d="m 47.079699,69.01178 c 1.734301,-2.809038 6.10302,-4.764549 5.684126,-8.349059 -0.65327,-6.536779 -5.237365,-11.673083 -8.698706,-16.946852 -0.514437,-1.950742 -5.142888,-0.184103 -1.605985,-1.737278 2.384199,-3.077733 3.320293,-7.095255 2.737362,-10.900193 0.928397,-2.656855 -6.35458,-1.515218 -3.275532,-2.451497 2.991157,0.02493 6.331884,0.888609 9.121446,0.742571 1.483368,-2.627219 1.905703,-7.22761 -2.171482,-7.228213 -2.456323,-1.098693 -5.837079,-1.597252 -7.82561,-3.063529 2.260102,0.604839 6.189831,2.49097 7.371623,-1.674479 1.319111,-2.696555 1.473881,-6.127509 0.776446,-8.9216775 -2.700822,-2.5412857 -5.467504,-5.0104336 -8.148069,-7.57304933 0.287477,-1.5928267 3.297107,2.82130453 4.545883,3.47580243 1.381224,1.2822775 2.757336,2.570046 4.135194,3.8559409 7.153459,-2.0599998 14.717895,-3.4696552 20.977326,-7.74604223 -0.168207,-1.83746397 2.569073,0.82272983 4.193601,0.2664723 4.863265,0.67801653 9.810274,1.44352963 14.723827,0.95106233 0.343037,-1.57629473 2.381559,-3.176107 0.835707,-0.4371913 -0.489126,2.5158818 2.610322,5.0442226 3.449221,7.5424099 2.612642,4.4015765 5.587112,8.6170815 9.196163,12.2639735 2.66816,-1.207155 5.38674,-2.296326 8.073,-3.461721 -0.74288,2.178311 -4.88279,2.155784 -6.78174,3.583875 -2.24001,2.373243 -0.65996,7.301876 -1.14239,10.723279 -0.33704,3.241252 0.70607,6.239532 4.45689,5.728963 1.48662,0.02237 5.23989,1.035209 2.09589,1.157369 -2.56637,2.736611 -3.52618,6.695524 -4.50499,10.249071 -1.30386,3.185604 3.21285,3.512917 4.85713,5.245361 2.74449,2.099851 -1.09724,0.392847 -2.1912,-0.755548 -2.8797,-0.972537 -5.72017,-5.661247 -8.710934,-4.038285 -2.502383,1.796422 -6.706022,5.001355 -5.670757,8.185506 2.501757,3.986421 4.92033,8.026018 7.261231,12.10895 -1.554058,0.07881 -1.684495,-2.420911 -2.68389,-3.349441 -0.969564,-4.473454 -5.188577,-3.229822 -8.592861,-2.870732 -5.505343,0.835673 -11.178011,1.722098 -16.169944,4.307833 0.08042,1.938646 -1.32368,2.736391 -0.803125,0.272417 -1.593806,-2.879166 -6.280386,-2.476818 -8.878093,-1.343944 -0.07564,1.717281 -2.875555,4.665498 -1.303366,1.426517 1.927085,-3.573393 -3.600817,-4.976473 -6.141799,-5.292438 -2.283945,-0.958229 -3.705968,0.395011 -4.873527,2.161482 -1.497598,1.487165 -2.775275,3.484024 -4.391177,4.70964 -1.329435,0.160473 -0.234834,-0.261202 0.07312,-0.817326 z m 26.865606,-2.026112 c 6.831465,-2.989092 14.356828,-4.101562 21.760343,-4.440432 -1.657978,-2.686008 -2.865292,-7.311129 -6.876016,-5.304769 -4.821643,1.015422 -10.303344,0.849032 -14.381919,3.961086 -0.565378,0.990826 -1.623529,6.067958 -0.502408,5.784115 z m -0.98982,-1.711331 c 0.852488,-2.712905 0.59976,-5.162488 -2.785235,-5.010058 -2.92626,-0.993837 -4.69626,0.131104 -5.016192,3.154597 -0.681709,1.508363 -1.841997,3.282735 0.584788,2.205352 2.303891,-0.953897 5.894636,1.011898 7.080051,0.819778 l 0.06367,-0.529024 z m -9.247936,-0.07676 c 2.001588,-3.063968 2.965342,-7.266143 -1.483807,-8.703707 -1.84119,-0.883898 -3.710144,-0.640677 -4.563916,1.250744 -1.017117,1.910569 -5.829454,5.100271 -1.174532,4.659608 2.689215,-0.46413 6.183291,3.074688 7.222255,2.793355 z m -9.218911,-4.53103 c 2.311289,-2.487052 5.203309,-5.288498 2.400986,-8.621261 -1.739444,-4.203999 -3.842605,-8.851283 -8.234596,-10.839668 -1.725034,0.748938 -7.069309,0.329009 -3.631606,2.909732 3.614355,5.395528 8.206088,10.795646 8.489108,17.60521 0.377254,-0.264865 0.637196,-0.733036 0.976108,-1.054013 z m 20.577257,-0.605778 c 5.128229,-2.760715 11.154646,-2.7344 16.747245,-3.864612 -1.5194,-1.878088 -2.264521,-5.771265 -5.483303,-3.913656 -4.025517,0.708004 -8.228984,1.472756 -11.696722,3.742639 0.121017,0.978319 -1.508876,6.084498 0.43278,4.035629 z m -1.538861,0.0075 c 1.233516,-2.917101 -0.313546,-5.323542 -3.191219,-6.284308 -2.520595,-1.155983 -5.28376,-1.816243 -8.059994,-1.850713 -1.18491,1.717991 -4.344132,4.119834 -0.545169,3.855023 2.684153,-0.07736 3.163925,3.806307 5.454208,3.749347 1.919785,-0.600122 5.474239,1.472576 6.342174,0.530651 z m 20.016348,-5.403402 c 1.525196,-1.724089 2.422795,-3.07226 0.22651,-4.435145 -0.823907,-0.471303 -1.648514,-2.60676 -2.471904,-1.843618 -3.042144,2.234719 -0.879598,4.818105 0.768739,7.022982 0.823916,1.744734 0.70932,0.181506 1.476655,-0.744219 z m -19.443117,-0.06575 c 1.424038,-3.539725 -0.727433,-6.252295 -4.324768,-6.645659 -3.407256,-2.233249 -5.271734,0.706259 -7.00185,3.355051 3.774041,0.376649 8.327142,1.265034 11.124876,4.306156 0.437779,0.0236 -0.28705,-1.118162 0.201742,-1.015548 z M 59.524218,54.465158 c 3.202944,-2.186877 1.861977,-5.850832 0.172991,-8.557345 -1.570133,-2.711519 -3.75267,-7.250273 -7.582051,-5.532319 -1.674485,0.345687 -3.802414,0.606323 -1.034346,1.693615 4.142895,3.300841 5.748578,8.615512 7.736986,13.2915 l 0.227668,-0.289797 z m 15.358989,0.827212 c 4.195984,-2.392968 9.039647,-3.13692 13.73561,-3.885943 -1.254188,-3.556981 -3.907507,-4.880544 -7.415187,-3.556246 -3.668076,0.387436 -7.41824,2.002773 -6.434195,6.312249 0.08407,0.244363 -0.426304,1.579231 0.113775,1.12994 z m 21.162235,-3.964939 c 4.102448,-1.887615 -2.271229,-3.200416 -3.793892,-3.85709 0.10138,0.98271 2.986396,3.664215 3.793892,3.85709 z M 63.250483,49.759863 c 2.208582,-1.979521 3.477894,-4.250253 0.98344,-6.649004 -0.388154,-2.489036 -4.699588,1.067927 -4.209943,2.164619 1.709229,0.841177 1.558105,8.004081 3.226503,4.484385 z m 26.255445,0.369559 c 0.375868,-2.640523 5.072996,-4.017163 4.896981,-5.360706 -2.273443,-2.239364 -5.191437,-3.419116 -6.894327,0.08545 -2.606117,1.764671 0.702467,4.922894 1.715276,5.846278 z m 15.319232,-1.098159 c 0.88223,-3.683817 2.16312,-7.406021 4.42896,-10.475539 -3.16702,-0.872733 -6.62599,-1.50232 -7.16019,2.730811 -1.49275,3.396003 -2.68479,7.945319 1.98346,9.15464 1.11901,1.174777 0.26666,-1.00916 0.74777,-1.409912 z M 74.631455,47.775636 c 0.60372,-3.070096 -5.827226,-5.756265 -7.063365,-2.825762 -2.918519,2.795944 3.717741,1.982001 5.211574,3.519399 1.79828,0.748269 1.818197,2.122689 1.851791,-0.693637 z m 24.337387,1.30711 c 2.518898,-1.122266 -2.621625,-2.439724 -3.376624,-3.41 -2.670916,0.43204 -3.135852,1.836218 -0.207276,2.41049 1.144813,0.224178 2.545074,1.976645 3.5839,0.99951 z m -23.24206,0.01417 c 2.686865,-1.876276 7.616505,-1.6377 9.564348,-2.573815 -1.404445,-4.548545 -6.608965,-2.026285 -9.575446,-0.565585 -0.481567,0.341492 -1.114625,4.232475 0.01114,3.1394 z m 24.499808,-3.0509 c 0.0354,-2.926387 2.62445,-6.58505 2.6723,-8.588496 -2.72602,-0.769806 -6.244979,-1.561124 -6.347695,2.583623 -0.679559,2.663325 -1.873163,5.932893 1.755987,6.747292 1.972808,1.211819 1.765798,1.744551 1.919408,-0.742419 z M 86.33237,45.723328 c 1.898625,-2.699199 4.679373,-3.951725 4.336257,-7.586481 0.927234,-1.81324 2.213679,-3.039409 -0.85025,-2.804566 -2.95942,-0.903786 -3.576141,3.603837 -4.803581,5.456241 -1.618071,1.99882 -0.690628,3.932201 0.931533,5.554827 z M 66.343262,45.68837 c 3.221642,-2.281381 1.426138,-5.61475 -0.692316,-7.930959 -0.935864,-1.238895 -6.600928,0.337649 -3.628424,1.624116 1.914123,1.605419 3.199907,4.878842 4.32074,6.306843 z m 8.567084,-1.282345 c 1.520278,-2.482525 -1.706749,-6.071142 -3.89884,-4.067357 -1.776494,1.851195 -2.394448,3.230461 0.723062,3.489546 1.302095,-0.308117 3.650625,3.459147 3.175778,0.577811 z m 0.823187,0.957689 c 1.984703,-1.46385 5.409388,-1.531409 7.209233,-2.203879 -1.036134,-3.026471 -5.153503,-4.544994 -7.170621,-1.585719 0.05686,0.935562 -0.751654,3.745747 -0.03861,3.789598 z m 19.51829,-0.859047 c -0.411684,-2.652722 2.18029,-6.80114 1.570866,-8.052055 -3.311658,-1.61443 -6.336779,0.306286 -6.141724,4.071788 -0.417126,2.054254 3.806074,3.675689 4.570858,3.980267 z M 61.266099,42.820778 c 4.138996,-1.58232 -1.618395,-6.043369 -4.143482,-3.638752 -4.326125,0.166864 1.417204,1.989232 1.629402,3.943336 0.640775,2.089301 1.427891,0.197016 2.51408,-0.304584 z m 22.472774,-0.260806 c 0.393967,-2.495872 3.77226,-6.261909 3.458782,-7.567151 -3.603213,-2.0107 -7.826678,2.586218 -5.263021,5.829697 0.471483,0.222692 1.547316,2.998182 1.804239,1.737454 z M 69.463682,41.574093 c 2.912743,-1.313779 2.093683,-6.092988 -1.111028,-5.347128 -1.389204,0.49518 -4.083378,0.437987 -1.646762,2.105171 1.051635,0.44163 1.83514,5.23781 2.75779,3.241957 z m -25.492797,0.05047 c 3.817183,-3.34e-4 7.083254,-2.268076 7.096882,-6.316741 0.75296,-2.894137 0.184357,-6.422169 -3.634032,-5.56325 -4.259793,-1.650541 -0.482706,3.236644 -1.645529,5.38909 0.636086,1.90064 -3.129263,6.393822 -1.817321,6.490901 z m 32.497921,-1.47494 c 1.297517,-1.333766 5.378241,0.481517 2.761857,-1.958178 -0.256081,-1.976796 -4.047491,-2.263808 -3.463313,-0.01319 0.325407,0.692871 -0.756689,3.717553 0.701456,1.971366 z m -1.300227,-0.266249 c 0.624675,-1.653704 -0.412526,-5.468476 -2.039348,-2.321384 -2.843368,2.279101 0.641255,1.450096 1.984547,3.112343 z m -24.43441,0.175406 c 3.67815,0.164656 5.350494,-3.510546 5.088237,-6.726371 0.993714,-3.003077 -2.926297,-3.349093 -4.39038,-2.898124 0.773652,3.269161 0.241321,7.018088 -1.682425,9.800577 0.316297,0.169138 0.671868,-0.337126 0.984568,-0.176082 z m 30.000586,-1.505528 c -0.769353,-2.359579 4.485025,-4.668078 0.403112,-4.342085 -3.753372,-0.492219 -2.490295,4.224686 -0.403112,4.342085 z m -25.134242,0.372332 c 1.712534,-0.552938 3.813018,-0.725175 5.340823,-1.484579 0.801314,-3.344228 0.01,-7.429072 -4.207268,-6.621902 -1.121904,1.276131 0.338699,6.27759 -1.988109,8.311869 l 0.287052,-0.07138 z m 16.77472,-1.211733 c 1.948326,-1.305183 1.006727,-4.005033 -1.254731,-2.339022 -2.398367,-0.443637 1.463872,3.330998 0.882501,2.792515 z M 62.395862,37.2208 c 4.605544,0.602716 4.460044,-6.796659 -0.204345,-5.659131 -2.381535,-0.407756 0.405643,4.17268 -0.557253,5.857843 z m 41.166658,-0.326486 c -1.37336,-4.842816 -0.64904,-9.97754 -0.69358,-14.938874 -2.98702,1.023595 -6.685031,1.958433 -5.431343,5.899451 0.429859,2.4962 -0.850315,7.009825 1.502478,8.315949 1.542295,0.228897 3.074105,0.541014 4.622445,0.723474 z M 76.897068,36.212561 c 2.249128,-1.112306 -2.946707,0.493769 0,0 z m -1.302905,-0.02529 c 2.898646,-0.462401 2.210721,-5.590952 -0.580793,-4.41328 -2.63691,0.625711 -1.626984,4.931108 0.580793,4.41328 z m -8.858048,-0.08413 c 3.389068,0.581326 3.983997,-4.622074 0.261161,-3.768097 -2.492165,-0.904067 0.345998,2.823663 -0.934923,3.943874 l 0.673762,-0.175771 z m 11.568656,-0.48824 c 1.574979,-1.061828 0.703547,-2.412497 -0.436321,-1.273942 -0.806251,0.207937 0.301364,2.208064 0.436321,1.273942 z m 19.302687,0.253132 c -1.058556,-3.723031 -0.749935,-7.625822 -0.748748,-11.449876 -3.46334,0.499118 -5.111407,3.096934 -4.280095,6.534333 -0.339888,2.754943 0.76879,5.289669 3.881666,4.815588 0.08591,-0.203559 1.066978,0.380667 1.147177,0.09996 z M 70.440674,35.022181 c 1.717905,0.150904 4.226208,-1.966325 1.084004,-1.975804 -2.263673,-1.633698 -1.774706,2.197137 -1.084004,1.975804 z M 92.680522,34.910939 C 91.55643,32.38114 92.367883,28.13375 91.997811,26.395146 c -4.174582,0.448908 -4.158386,4.955303 -3.406916,8.125725 1.089236,-0.01008 3.552965,0.8818 4.089627,0.390068 z m -4.550024,-0.435653 c -0.89785,-1.896588 0.228872,-5.527162 -0.08124,-6.468342 -2.884694,0.471471 -6.278723,3.008447 -3.901929,5.979858 1.326023,0.155225 2.655921,0.40716 3.983174,0.488484 z M 83.2612,33.521038 c -0.864977,-1.634136 1.038392,-4.693014 -1.770617,-2.706938 -2.598289,0.568205 -1.68635,3.982401 1.028275,2.96009 0.141546,-0.06451 1.242335,0.387076 0.742342,-0.253152 z m -3.769123,-0.25104 c 0.996276,-3.454453 -3.935209,1.02576 0.07535,0.24127 l -0.0753,-0.24127 z M 73.42408,32.415566 c -0.05214,-1.505671 -2.849006,-4.138697 -2.977161,-0.895997 -1.898586,0.98946 3.096303,1.392016 2.977161,0.895997 z m 5.025415,-0.664554 c 2.335416,-0.142931 -0.90728,-2.257192 -0.748537,-2.579263 -0.774227,0.869529 -1.447629,3.998105 0.748537,2.579263 z m -8.997409,0.262185 c 2.642183,-1.904142 0.408653,-4.832127 -1.313287,-5.307916 0.538122,2.402186 -4.381075,5.514285 -0.02251,5.202568 0.425988,-0.09192 0.917354,0.34266 1.335806,0.105343 z m 5.308173,-0.628521 c 0.433447,-1.376219 0.0065,-3.870365 -1.643383,-1.758785 -2.345791,-0.45869 1.185219,2.915551 1.643383,1.758785 z m -8.956385,-0.383897 c 3.548858,-2.499062 1.187906,-7.348033 -1.517736,-7.758574 0.332803,2.733663 -2.515665,6.259938 -2.507254,7.644706 1.280212,-0.09314 2.999676,1.052441 4.02499,0.113869 z m 10.984694,-0.766297 c 2.219606,-2.014963 -3.253299,-2.347151 -1.440583,0.01526 -0.222066,1.145785 1.534012,1.150868 1.440583,-0.01526 z m 3.506024,0.539743 c 1.094169,-0.768438 4.840104,-1.36305 1.587813,-2.048697 -2.237704,-0.846577 -2.419862,-6.061037 -3.405594,-1.637262 -0.840083,1.285902 0.203688,3.927233 1.817781,3.685959 z m -19.45606,-0.386299 c 1.836073,-2.535144 4.836767,-7.479193 1.224679,-9.683723 -1.455009,-1.370833 -3.18954,-3.708772 -2.493449,-0.07681 -0.416272,2.755364 -2.911392,4.046805 -2.127533,6.987766 -0.532955,1.607718 -2.54284,3.088112 0.526921,2.738685 0.883297,-0.12925 2.17521,0.764942 2.869382,0.03406 z m -5.416408,-0.46938 c 2.65367,-2.127285 2.085656,-6.489904 -1.825541,-6.272579 -2.344735,-0.968549 -0.205,4.634782 -1.931206,5.96054 1.245633,0.06966 2.522334,0.484471 3.756747,0.312039 z m 17.348899,-0.680771 c 2.654333,-0.326223 1.901664,-6.391694 -0.469346,-3.032009 -1.773201,0.711629 -4.45455,-0.02506 -1.696061,2.001063 0.635533,0.669218 1.087344,1.60258 2.165407,1.030946 z m 13.023123,-0.910226 c 3.987223,-1.046955 -2.918593,-3.441558 -3.343613,-5.775964 -0.803238,-1.6852 -1.400886,-3.375665 -1.989063,-0.552304 -1.689808,2.72214 0.402398,6.594333 3.502238,7.058065 0.623407,-0.208965 1.223807,-0.478203 1.830438,-0.729797 z m -8.711568,-0.0186 c 1.066114,-0.959064 3.147796,-5.288958 0.158661,-3.216238 -1.662255,0.07883 -3.495657,-0.699468 -2.364893,1.805238 -0.205608,1.420655 1.06555,1.722157 2.206232,1.411 z M 89.03945,26.939815 c 2.62319,-0.771684 4.678288,-1.734299 1.415633,-3.480386 -2.883359,-2.735968 -4.962988,-6.262772 -6.142464,-10.048717 -0.685496,2.20191 -2.602358,4.43945 -2.679192,6.629979 1.266275,3.105082 3.898594,5.370975 6.594964,7.222655 l 0.2515,-0.09467 z M 70.879084,26.104379 c 3.34126,-0.205571 3.522738,-3.148338 2.537602,-5.67933 -0.27772,-2.376878 -3.652705,1.912436 -5.527501,1.635286 -2.047599,0.388342 -3.679725,0.776118 -1.237989,2.283133 1.137238,1.232296 2.426168,2.261557 4.227888,1.760911 z m 23.457203,-1.320255 c 1.844625,-0.482399 2.777573,-1.169414 0.649694,-2.25166 -2.667859,-1.584296 -3.601508,-8.232709 -6.688578,-3.799515 -1.157553,2.018367 3.659092,5.653555 5.369082,6.321465 z M 77.102312,24.625158 c 2.475051,-0.06876 5.530715,-6.136957 1.025254,-4.596646 -1.767862,0.33014 -5.672375,-2.361045 -4.037436,1.285483 0.326643,2.369137 -0.08921,3.977067 3.012182,3.311163 z M 57.44412,23.776781 c 3.2013,-2.862158 1.582249,-7.381699 -1.821687,-9.214992 -1.640596,-1.862516 -0.455582,3.522067 -1.397439,4.433138 0.0957,2.192335 -3.738632,4.135146 -0.06179,4.36589 1.033008,0.0999 2.430386,1.322525 3.280921,0.415964 z m 40.296736,-0.409664 c 1.601048,-1.11241 6.914804,-1.457307 3.315334,-3.683861 C 96.411298,14.613399 93.084573,8.5508775 89.791082,2.5696154 89.17424,4.757436 86.157239,6.8801617 87.740687,9.1931605 90.118531,14.377706 92.264263,20.267835 97.192837,23.578392 Z M 51.649143,22.335011 c 2.64607,-2.015614 2.507242,-5.915201 2.662528,-8.942545 -1.476806,-1.038595 -5.166684,-6.4143072 -4.251123,-1.958768 0.226369,3.443996 -0.877359,7.209407 -3.837185,9.229976 1.780887,0.525514 3.606615,1.621453 5.42578,1.671337 z m 13.974546,-0.290089 c 2.49978,-0.745837 6.246231,-1.461108 7.470307,-3.76352 -0.744908,-1.491674 0.293268,-7.802098 -2.100402,-4.205989 -3.162066,2.6875 -7.447293,2.979821 -11.366822,3.604957 1.922356,1.323532 3.526941,4.693251 5.996917,4.364552 z M 80.88796,19.574077 c 0.815067,-1.860745 2.898931,-5.271202 2.555596,-6.408469 -3.485828,0.515779 -7.167013,0.499015 -10.525868,-0.666397 0.320172,3.164768 -0.105965,7.589545 4.392813,6.935565 1.180631,0.149953 2.391227,0.29153 3.577459,0.139301 z m 8.032803,-2.049705 c 2.179539,-0.910178 1.137468,-2.398835 0.13571,-3.971366 -1.191734,-1.592419 -2.059775,-7.5568334 -3.350196,-3.063304 -2.092876,2.2287 0.341032,7.456861 2.124831,7.937654 L 88.32354,18.020809 Z M 59.918847,17.095085 c 2.045892,-0.644842 7.646064,-0.0094 4.200395,-2.968506 -1.35656,-3.710183 -5.145905,-0.622222 -7.904956,-0.693624 -2.022331,-0.286148 2.957471,4.234767 3.704561,3.66213 z M 66.672699,15.8061 c 1.685249,-0.296345 0.432629,-4.496758 -0.207428,-4.832784 -1.725265,0.564313 -4.566444,0.696045 -2.042872,2.678228 0.728145,0.553151 1.221299,2.604584 2.2503,2.154556 z m 2.859268,-1.317525 c 3.027382,-0.867506 3.047882,-5.2272485 1.938969,-6.5970835 -1.864611,2.033088 -5.306335,2.4512235 -3.607298,5.8699805 0.05121,2.036425 0.32488,1.429435 1.668329,0.727103 z M 55.425149,12.905879 C 60.353862,11.85373 65.690081,11.333828 69.971445,8.4747635 72.830461,6.8754675 70.904985,3.6372316 70.825992,1.1700473 68.423815,2.3724282 65.513751,4.169324 62.672851,5.0312844 58.603237,6.477185 54.386917,7.4360656 50.24038,8.6232095 c 1.644852,1.334314 3.124906,3.9655535 5.184769,4.2826695 z m 26.304572,-0.0013 c 2.368603,1.068432 4.891294,-4.0725915 3.610644,-4.2364575 -4.411313,0.343383 -8.93062,0.02773 -13.093513,-1.5690283 -0.108169,3.1797188 0.524115,6.3246278 4.504581,5.7372448 1.651742,0.187794 3.320924,0.136561 4.978288,0.06824 z m 3.269702,-4.7744685 c 2.527825,-0.0093 2.490946,-3.4001441 3.855556,-4.9297284 C 90.092064,0.98877757 84.819832,3.0770146 83.492315,2.2118992 79.416056,2.0056172 75.403589,1.2269159 71.35949,0.75065777 71.810361,3.5384728 71.27806,7.4890308 75.197417,7.3879989 c 3.19043,0.8593086 6.524291,0.8833076 9.802006,0.7421216 z"
       id="path11298" />
  </g>
</svg>
