<?xml version="1.0" encoding="UTF-8" standalone="no"?>
<svg
   sodipodi:docname="Blob2.svg"
   inkscape:version="1.1 (c68e22c387, 2021-05-23)"
   id="svg8"
   version="1.1"
   viewBox="0 0 67.090586 45.735017"
   height="172.85675"
   width="253.57072"
   xmlns:inkscape="http://www.inkscape.org/namespaces/inkscape"
   xmlns:sodipodi="http://sodipodi.sourceforge.net/DTD/sodipodi-0.dtd"
   xmlns="http://www.w3.org/2000/svg"
   xmlns:svg="http://www.w3.org/2000/svg"
   xmlns:rdf="http://www.w3.org/1999/02/22-rdf-syntax-ns#"
   xmlns:cc="http://creativecommons.org/ns#"
   xmlns:dc="http://purl.org/dc/elements/1.1/">
  <defs
     id="defs2">
    <linearGradient
       id="linearGradient14154"
       inkscape:swatch="solid">
      <stop
         style="stop-color:#ffffff;stop-opacity:1;"
         offset="0"
         id="stop14152" />
    </linearGradient>
    <linearGradient
       id="linearGradient2801"
       inkscape:swatch="solid">
      <stop
         id="stop2799"
         offset="0"
         style="stop-color:#c8e900;stop-opacity:1;" />
    </linearGradient>
    <linearGradient
       id="linearGradient2795"
       inkscape:swatch="solid">
      <stop
         id="stop2793"
         offset="0"
         style="stop-color:#c80000;stop-opacity:1;" />
    </linearGradient>
  </defs>
  <sodipodi:namedview
     units="px"
     inkscape:window-maximized="1"
     inkscape:window-y="-8"
     inkscape:window-x="-8"
     inkscape:window-height="1017"
     inkscape:window-width="1920"
     showgrid="false"
     inkscape:document-rotation="0"
     inkscape:current-layer="layer1"
     inkscape:document-units="mm"
     inkscape:cy="106.96429"
     inkscape:cx="143.39286"
     inkscape:zoom="2.8"
     inkscape:pageshadow="2"
     inkscape:pageopacity="0.0"
     borderopacity="1.0"
     bordercolor="#666666"
     pagecolor="#ffffff"
     id="base"
     inkscape:pagecheckerboard="0"
     inkscape:snap-nodes="false"
     inkscape:snap-others="false" />
  <metadata
     id="metadata5">
    <rdf:RDF>
      <cc:Work
         rdf:about="">
        <dc:format>image/svg+xml</dc:format>
        <dc:type
           rdf:resource="http://purl.org/dc/dcmitype/StillImage" />
        <dc:title />
      </cc:Work>
    </rdf:RDF>
  </metadata>
  <g
     id="layer1"
     inkscape:groupmode="layer"
     inkscape:label="Layer 1"
     style="display:inline"
     transform="translate(-5.2917393,-0.56696685)">
    <path
       style="display:inline;fill:#000000;fill-opacity:1;stroke:#ffffff;stroke-width:3.77953;stroke-linecap:round;stroke-linejoin:round;stroke-miterlimit:4;stroke-dasharray:none;stroke-opacity:1;paint-order:stroke fill markers"
       id="path11151"
       sodipodi:type="arc"
       sodipodi:cx="38.837055"
       sodipodi:cy="23.434525"
       sodipodi:rx="31.655506"
       sodipodi:ry="20.694193"
       sodipodi:start="0"
       sodipodi:end="6.2571974"
       sodipodi:open="true"
       sodipodi:arc-type="arc"
       d="M 70.492561,23.434525 A 31.655506,20.694193 0 0 1 39.042719,44.128281 31.655506,20.694193 0 0 1 7.1842214,23.703416 31.655506,20.694193 0 0 1 38.220099,2.7442623 31.655506,20.694193 0 0 1 70.481872,22.896786" />
  </g>
  <g
     inkscape:label="Layer 2"
     id="layer2"
     inkscape:groupmode="layer"
     transform="translate(-5.2917393,-0.56696685)">
    <path
       id="path14150"
       style="stroke:#ffffff;stroke-width:2;stroke-linecap:round;stroke-linejoin:round;paint-order:stroke fill markers"
       d="m 65.077859,23.314699 c 0,4.828546 -4.09269,9.129599 -12.20627,9.16097 -8.113579,0.03137 -17.205064,-4.218707 -17.310491,-9.046845 -0.105427,-4.828138 6.357899,-8.801529 14.470108,-8.895636 8.11221,-0.09411 14.830833,3.726364 15.041669,8.55328"
       sodipodi:nodetypes="csssc" />
    <path
       id="path16440"
       style="fill:none;stroke:#ffffff;stroke-width:2;stroke-linecap:round;stroke-linejoin:round;stroke-miterlimit:4;stroke-dasharray:none;stroke-opacity:1"
       d="m 59.797703,22.496299 c 3.448251,4.670209 3.158417,6.758541 -0.698267,8.546666 -1.846352,0.856048 -7.170851,0.83473 -9.743324,0.194035 -4.27256,-1.064114 -12.316818,-2.707488 -11.43378,-6.614582 0.398301,-1.068036 8.17377,-3.668938 8.852222,-3.361257 1.133372,0.639111 2.594651,0.661494 3.968749,-0.519717 1.300284,0.196915 6.653458,-0.57069 9.0544,1.754855 z M 49.094478,22.069402 c 6.668214,7.272256 5.061049,9.533814 5.061049,9.533814"
       sodipodi:nodetypes="csscccccc" />
    <path
       style="fill:none;stroke:#ffffff;stroke-width:2;stroke-linecap:butt;stroke-linejoin:miter;stroke-miterlimit:4;stroke-dasharray:none;stroke-opacity:1"
       d="m 43.744423,14.591492 c 0.318706,0.848872 0.709109,1.333195 0.854788,2.063232 0.133902,0.671021 -0.44794,1.537565 0.0024,2.052751 0.561828,0.642765 1.747663,0.669102 2.53767,0.345551 0.482694,-0.19769 0.902205,-0.719364 0.956979,-1.238088 0.06566,-0.621807 -0.643452,-1.088837 -0.811881,-1.690989 -0.185116,-0.661808 -0.07706,-1.105217 -0.201436,-2.051768"
       id="path20647"
       sodipodi:nodetypes="caaaaac" />
  </g>
</svg>
