<?xml version="1.0" encoding="UTF-8" standalone="no"?>
<!-- Created with Inkscape (http://www.inkscape.org/) -->

<svg
   width="657.56787"
   height="616.26074"
   viewBox="0 0 173.98151 163.05233"
   version="1.1"
   id="svg1115"
   inkscape:version="1.1 (c68e22c387, 2021-05-23)"
   sodipodi:docname="demon3.svg"
   xmlns:inkscape="http://www.inkscape.org/namespaces/inkscape"
   xmlns:sodipodi="http://sodipodi.sourceforge.net/DTD/sodipodi-0.dtd"
   xmlns="http://www.w3.org/2000/svg"
   xmlns:svg="http://www.w3.org/2000/svg">
  <sodipodi:namedview
     id="namedview1117"
     pagecolor="#ffffff"
     bordercolor="#666666"
     borderopacity="1.0"
     inkscape:pageshadow="2"
     inkscape:pageopacity="0.0"
     inkscape:pagecheckerboard="0"
     inkscape:document-units="mm"
     showgrid="false"
     fit-margin-top="10"
     fit-margin-left="10"
     fit-margin-right="10"
     fit-margin-bottom="10"
     inkscape:zoom="0.67081229"
     inkscape:cx="231.80851"
     inkscape:cy="398.77027"
     inkscape:window-width="1920"
     inkscape:window-height="1017"
     inkscape:window-x="1912"
     inkscape:window-y="-8"
     inkscape:window-maximized="1"
     inkscape:current-layer="layer1"
     units="px" />
  <defs
     id="defs1112" />
  <g
     inkscape:label="Layer 1"
     inkscape:groupmode="layer"
     id="layer1"
     transform="translate(-43.759724,-43.155853)">
    <path
       d="m 111.15703,170.67466 c -0.12058,-0.004 -0.24157,-0.006 -0.36136,-0.0171 -0.13368,-0.0135 -0.24078,-0.18842 -0.20667,-0.31932 0.0313,-0.12024 0.0813,-0.23087 0.17136,-0.31614 0.13249,-0.12489 0.26617,-0.24952 0.40778,-0.36376 1.04841,-0.84848 1.94687,-1.83342 2.68309,-2.96313 1.17535,-1.8021 2.23288,-3.66923 3.0762,-5.65219 0.3574,-0.84055 0.66998,-1.69579 0.84095,-2.59662 0.0417,-0.21857 0.0651,-0.4411 0.11027,-0.65888 0.12335,-0.59144 0.10988,-0.52639 -0.3705,-0.89608 -0.58668,-0.45181 -1.25626,-0.74298 -1.96789,-0.92425 -1.26459,-0.3221 -2.5506,-0.47046 -3.85605,-0.36295 -0.72671,0.06 -1.44905,0.16779 -2.16901,0.28361 -0.56288,0.0909 -1.12933,0.10915 -1.69736,0.0723 -0.50298,-0.033 -0.94725,-0.2146 -1.31656,-0.55812 -0.20746,-0.19278 -0.41135,-0.3935 -0.58945,-0.61285 -0.17771,-0.21897 -0.39747,-0.32885 -0.66641,-0.37129 -0.26022,-0.0409 -0.51766,-0.0983 -0.77867,-0.13208 -0.86395,-0.11184 -1.72751,-0.22729 -2.59781,-0.286 -0.86951,-0.0591 -1.73782,-0.13208 -2.607328,-0.19119 -1.173754,-0.0793 -2.348697,-0.10825 -3.52523,-0.088 -0.466089,0.007 -0.932179,0.0306 -1.39827,0.0376 -0.649749,0.009 -1.232858,0.21579 -1.760829,0.58509 -0.23245,0.16224 -0.465694,0.32646 -0.6795,0.51171 -0.628329,0.54383 -1.261816,1.08291 -1.865552,1.65373 -0.485923,0.45894 -0.92504,0.96787 -1.328059,1.50259 -0.854037,1.1329 -1.704502,2.26857 -2.543862,3.41258 -0.52797,0.71955 -1.000804,1.47721 -1.42445,2.26222 -1.010325,1.8727 -1.97424,3.76957 -2.838986,5.71407 -0.617223,1.38796 -1.208662,2.78821 -1.702122,4.22655 -0.04601,0.13403 -0.0952,0.26695 -0.142007,0.40062 -0.03649,0.10435 -0.01865,0.19715 0.05871,0.27888 0.22293,0.23562 0.44586,0.47085 0.667203,0.70806 0.05514,0.0591 0.115426,0.11739 0.15272,0.18722 0.02538,0.0472 0.03926,0.12654 0.01666,0.16977 -0.236813,0.44745 -0.472436,0.8961 -0.727894,1.33323 -0.26577,0.45458 -0.552961,0.89687 -0.831822,1.34432 -0.600563,0.96312 -1.180101,1.93854 -1.720766,2.93697 -0.0357,0.0658 -0.06109,0.14994 -0.153908,0.16382 -0.01825,0.003 -0.05355,-0.005 -0.05514,-0.012 -0.01507,-0.0781 -0.0357,-0.15787 -0.03451,-0.23681 0.01825,-0.9536 0.108695,-1.90046 0.249508,-2.84415 0.197146,-1.3241 0.461329,-2.63429 0.801278,-3.92785 0.371285,-1.41334 0.874662,-2.78265 1.454995,-4.12262 1.639844,-3.78584 3.633918,-7.37732 5.966353,-10.77997 0.343518,-0.501 0.706473,-0.99009 1.078948,-1.47046 0.771529,-0.99566 1.620805,-1.92109 2.566869,-2.75489 0.547408,-0.48237 1.098386,-0.96115 1.658488,-1.42882 0.248316,-0.20707 0.519641,-0.38755 0.786602,-0.57121 0.495047,-0.34074 1.048008,-0.51408 1.643415,-0.58272 0.909569,-0.1051 1.819536,-0.11739 2.732279,-0.0663 0.465298,0.0262 0.931785,0.0364 1.397081,0.0678 0.748125,0.0499 1.495853,0.10555 2.242786,0.17018 0.70648,0.061 1.41176,0.13688 2.11744,0.20746 0.62516,0.0627 1.24952,0.12969 1.87507,0.18921 0.3225,0.0309 0.64658,0.0499 0.96987,0.0723 0.0722,0.005 0.16343,-0.0663 0.17929,-0.13838 0.2273,-1.03651 0.66205,-1.99805 1.07776,-2.96513 0.52837,-1.22889 1.11981,-2.42883 1.74774,-3.60972 0.38081,-0.7156 0.78303,-1.4197 1.24357,-2.08809 0.10195,-0.14842 0.12495,-0.28599 0.0595,-0.45419 -0.0956,-0.24514 -0.17096,-0.49821 -0.26378,-0.74416 -0.55892,-1.4776 -1.12457,-2.95323 -1.68031,-4.43201 -0.42761,-1.13846 -0.80167,-2.29515 -1.09045,-3.47685 -0.29354,-1.20151 -0.51925,-2.41732 -0.64936,-3.6474 -0.0766,-0.72512 -0.11742,-1.4546 -0.15906,-2.18288 -0.044,-0.76876 -0.0742,-1.5387 -0.10313,-2.30864 -0.0528,-1.40224 0.0547,-2.79615 0.25585,-4.18212 0.0785,-0.54026 0.2142,-1.07221 0.32924,-1.60652 0.0297,-0.13808 0.0789,-0.27213 0.1186,-0.40818 0.23087,-0.78779 0.68863,-1.41691 1.34909,-1.89728 0.37683,-0.2737 0.75486,-0.54899 1.15233,-0.79097 0.42682,-0.25982 0.76399,-0.59461 1.02342,-1.01707 0.21222,-0.34549 0.43396,-0.68465 0.65094,-1.02699 0.58588,-0.92424 1.17097,-1.84888 1.75686,-2.77313 0.17334,-0.2737 0.34391,-0.54979 0.52162,-0.82112 0.2507,-0.38199 0.39787,-0.79492 0.40183,-1.25546 0.004,-0.42563 0.0151,-0.85087 0.013,-1.27649 -0.002,-0.30385 -0.0238,-0.6077 -0.029,-0.91156 -0.0123,-0.70965 -0.0171,-1.41851 0.0861,-2.12418 0.0294,-0.19952 0.0333,-0.40303 0.0476,-0.60493 0.003,-0.0465 -0.0861,-0.10479 -0.13447,-0.0884 -0.46133,0.15748 -0.9056,0.35383 -1.32171,0.60929 -0.33678,0.20667 -0.60017,0.48116 -0.75527,0.84927 -0.0865,0.20508 -0.17771,0.40936 -0.24712,0.6204 -0.12654,0.38478 -0.24158,0.77351 -0.35542,1.16225 -0.17097,0.58311 -0.33717,1.16741 -0.50457,1.7513 -0.09,0.31416 -0.23126,0.60335 -0.40937,0.87744 -0.37604,0.57955 -0.79889,1.12338 -1.25269,1.64262 -1.16066,1.32846 -2.33799,2.64383 -3.6232,3.85289 -0.97384,0.91632 -1.74219,1.96313 -2.32292,3.16545 -0.5728,1.18566 -1.19874,2.34553 -1.77947,3.52721 -0.491084,1.00002 -0.960745,2.01073 -1.422471,3.02463 -0.682277,1.49823 -1.491489,2.92268 -2.421686,4.28009 -0.125741,0.18366 -0.247524,0.3709 -0.362956,0.5613 -0.193179,0.31932 -0.298298,0.66402 -0.278861,1.04126 0.01469,0.28322 0.02181,0.56764 0.04721,0.85007 0.122173,1.35583 0.395879,2.68429 0.744555,3.99807 0.124946,0.46965 0.26458,0.93575 0.391516,1.40462 0.0476,0.17572 0.08845,0.35422 0.112263,0.53431 0.0094,0.073 -0.02538,0.15748 -0.05633,0.22928 -0.03729,0.0861 -0.179296,0.13598 -0.259423,0.11349 -0.140418,-0.0397 -0.265375,-0.10945 -0.362955,-0.21301 -0.194768,-0.20549 -0.393103,-0.41057 -0.564863,-0.63467 -0.420075,-0.54821 -0.782237,-1.13449 -1.085692,-1.75529 -0.517261,-1.05831 -0.933371,-2.15551 -1.26499,-3.28564 -0.166205,-0.56605 -0.264976,-1.1448 -0.334393,-1.7283 -0.06187,-0.5232 -0.09838,-1.04919 -0.154306,-1.5728 -0.08609,-0.80762 -0.104722,-1.61763 -0.119399,-2.42884 -0.01786,-0.98096 0.03331,-0.86038 -0.458158,-1.85681 -0.151924,-0.30822 -0.322097,-0.60929 -0.501789,-0.90244 -0.868316,-1.4181 -1.798911,-2.79336 -2.787022,-4.13174 -1.023018,-1.38597 -2.019063,-2.79177 -3.017488,-4.196 -0.37565,-0.52836 -0.724721,-1.07578 -1.083313,-1.61604 -0.08965,-0.13493 -0.175726,-0.27292 -0.253871,-0.41452 -0.191592,-0.34789 -0.25506,-0.72314 -0.214996,-1.11624 0.01627,-0.16105 0.04998,-0.32091 0.06426,-0.48196 0.01394,-0.15669 -0.01229,-0.25387 -0.247524,-0.25189 -0.162239,10e-4 -0.324082,0.007 -0.486322,0.012 -0.232448,0.009 -0.439512,-0.0595 -0.621585,-0.2031 -0.238797,-0.18802 -0.47442,-0.3804 -0.714011,-0.56723 -0.351451,-0.27411 -0.701714,-0.55019 -1.059512,-0.81596 -0.410953,-0.30505 -0.863952,-0.52638 -1.366537,-0.63825 -0.6914,-0.15431 -1.382404,-0.31218 -2.074995,-0.46172 -0.435545,-0.094 -0.874265,-0.17335 -1.310208,-0.26379 -0.158273,-0.033 -0.314959,-0.0766 -0.470454,-0.12174 -0.241575,-0.0702 -0.446256,-0.18921 -0.554945,-0.43355 -0.0242,-0.054 -0.06546,-0.10075 -0.100748,-0.14963 -0.03213,-0.0448 -0.115831,-0.0651 -0.161843,-0.0364 -0.13685,0.0858 -0.278067,0.16621 -0.406987,0.26298 -0.336774,0.25269 -0.706474,0.37288 -1.132103,0.36613 -0.62833,-0.0105 -1.254676,0.0301 -1.880624,0.10195 -0.684262,0.0786 -1.373677,0.11034 -2.059922,0.16977 -0.908379,0.079 -1.819933,0.13718 -2.723554,0.25507 -0.934957,0.12174 -0.70806,-0.012 -1.455788,0.63587 -0.459346,0.39787 -0.89767,0.82112 -1.331232,1.24714 -0.853244,0.83816 -1.695776,1.68704 -2.544259,2.52958 -0.142802,0.14198 -0.271324,0.30147 -0.45776,0.39469 -0.08132,0.0405 -0.221343,-0.0151 -0.246731,-0.10914 -0.01547,-0.0579 -0.03888,-0.12054 -0.03054,-0.17693 0.02697,-0.18009 0.05276,-0.36256 0.105126,-0.53629 0.402226,-1.34116 0.889341,-2.64978 1.508546,-3.90723 0.188816,-0.38358 0.416902,-0.74376 0.692591,-1.06944 0.287983,-0.33993 0.578745,-0.68029 0.896876,-0.99127 0.985731,-0.96352 1.984553,-1.91355 2.978614,-2.86834 0.307024,-0.29474 0.617619,-0.5855 0.921471,-0.88339 0.276481,-0.27054 0.511311,-0.57439 0.713613,-0.90481 0.3816,-0.62317 0.715994,-1.27133 1.011516,-1.93854 0.327652,-0.74098 0.639436,-1.48911 0.960741,-2.23287 0.200716,-0.464897 0.40659,-0.927426 0.609289,-1.391529 0.190006,-0.435543 0.449826,-0.812391 0.858003,-1.077366 0.164619,-0.106745 0.181279,-0.235229 0.08886,-0.422064 -0.06307,-0.126985 -0.134871,-0.249503 -0.19913,-0.376038 -0.07378,-0.144377 -0.145186,-0.289577 -0.214996,-0.436338 -0.164619,-0.347492 -0.174139,-0.697744 -0.04642,-1.062687 0.274498,-0.783426 0.545028,-1.568845 0.802072,-2.358222 0.608893,-1.867927 1.213818,-3.737053 1.810017,-5.609342 0.258234,-0.810802 0.469264,-1.635486 0.609289,-2.476437 0.04006,-0.239577 0.07657,-0.48037 0.105906,-0.721536 0.04642,-0.380416 0.201113,-0.69656 0.514484,-0.928612 0.08132,-0.06027 0.155893,-0.129683 0.233243,-0.19517 0.207461,-0.175321 0.128125,-0.226489 -0.0357,-0.281241 -0.191989,-0.06387 -0.384375,-0.126536 -0.575968,-0.191993 -0.215394,-0.07331 -0.40183,-0.192771 -0.552962,-0.362949 -0.174932,-0.19715 -0.347882,-0.395873 -0.517261,-0.597385 -0.599769,-0.713621 -1.185654,-1.439926 -1.799307,-2.141643 -1.002392,-1.14558 -2.091257,-2.205884 -3.232088,-3.213835 -0.763198,-0.674745 -1.597401,-1.244754 -2.488327,-1.734644 -1.066256,-0.586681 -2.17575,-1.082928 -3.292383,-1.562893 -1.884591,-0.810006 -3.835822,-1.414543 -5.83783,-1.857627 -0.415315,-0.09205 -0.829046,-0.190403 -1.241981,-0.291151 -0.848086,-0.206265 -1.706089,-0.348677 -2.576785,-0.416113 -0.07973,-0.006 -0.160256,-0.02264 -0.235227,-0.04918 -0.01945,-0.006 -0.03808,-0.08171 -0.02381,-0.104347 0.03054,-0.04798 0.07616,-0.09475 0.12694,-0.120988 0.846103,-0.437132 1.699346,-0.859991 2.609708,-1.149958 0.289174,-0.09205 0.583903,-0.166205 0.878234,-0.241572 0.340344,-0.08725 0.682276,-0.08441 1.022225,0.006 0.449826,0.119789 0.904811,0.225305 1.347497,0.367313 1.640241,0.527191 3.297935,0.983363 4.98776,1.323299 1.212629,0.244361 2.432794,0.428407 3.667238,0.525197 0.920281,0.07226 1.820331,-0.02294 2.70848,-0.262591 0.214997,-0.05787 0.431976,-0.110343 0.644593,-0.17613 0.614447,-0.190792 1.240793,-0.181677 1.867534,-0.1 0.823493,0.107496 1.641036,0.253866 2.458181,0.403025 0.856812,0.15628 1.719178,0.281241 2.579165,0.417687 0.680294,0.107944 1.36019,0.217778 2.041675,0.317343 0.681483,0.0991 1.364949,0.185635 2.047623,0.278468 0.722738,0.09835 1.445871,0.192771 2.167419,0.297493 0.701713,0.101498 1.401444,0.215395 2.102365,0.320521 0.301073,0.04528 0.597388,0.105846 0.882992,0.215785 0.311786,0.119789 0.566846,0.310192 0.763198,0.579544 0.05989,0.08171 0.122967,0.161843 0.17414,0.249098 0.237209,0.404224 0.543044,0.755675 0.840945,1.114651 1.673562,2.015497 3.51452,3.871925 5.405855,5.679567 1.113856,1.064277 2.242389,2.113067 3.329273,3.205514 0.817144,0.821506 1.73148,1.52877 2.67476,2.198358 0.36455,0.258618 0.75844,0.467672 1.17296,0.635856 0.0186,0.0075 0.0377,0.01499 0.0567,0.02189 1.39589,0.545811 2.80963,1.041263 4.23606,1.501394 0.26974,0.08696 0.54463,0.157089 0.81913,0.228888 0.11702,0.03088 0.23721,0.05232 0.3574,0.06822 0.16343,0.02144 0.32448,0.003 0.47482,-0.06986 0.18247,-0.08801 0.36692,-0.171753 0.54344,-0.270537 0.24713,-0.138829 0.48394,-0.296309 0.73226,-0.433564 0.28322,-0.156685 0.56764,-0.31337 0.86197,-0.446652 0.65094,-0.29472 1.32766,-0.327253 2.02144,-0.173731 0.73543,0.162637 1.43556,0.427611 2.12696,0.716784 0.37327,0.15628 0.73781,0.333999 1.10632,0.502184 0.74336,0.339951 1.40462,0.806438 2.02898,1.327272 0.13844,0.115441 0.26141,0.252681 0.37763,0.39151 0.1087,0.129684 0.006,0.343115 -0.16819,0.368902 -0.0599,0.009 -0.12058,0.02219 -0.18048,0.01979 -0.20231,-0.009 -0.4054,-0.01514 -0.60651,-0.03733 -0.92742,-0.102697 -1.85683,-0.169773 -2.79099,-0.151528 -0.0809,0.0015 -0.16224,0.0015 -0.24316,0.003 -0.3935,0.003 -0.76161,0.0928 -1.09561,0.309412 -0.23801,0.154301 -0.48196,0.298693 -0.71957,0.453788 -0.17929,0.117391 -0.27846,0.291557 -0.31059,0.50139 -0.0187,0.120238 -0.023,0.242366 -0.0424,0.36217 -0.044,0.271721 -0.17295,0.495437 -0.39469,0.661252 -0.12972,0.09715 -0.2626,0.190403 -0.39549,0.282831 -0.22253,0.155096 -0.37485,0.349457 -0.4649,0.616425 -0.10076,0.298303 -0.14598,0.582708 -0.0698,0.891326 0.22293,0.904413 0.43395,1.81199 0.65688,2.716403 0.0686,0.278468 0.20707,0.527191 0.38914,0.750113 0.21817,0.266968 0.43753,0.532738 0.6561,0.798897 0.3213,0.391915 0.65371,0.775104 0.95995,1.178519 0.22768,0.300284 0.50536,0.525194 0.8453,0.672754 0.27807,0.12099 0.55852,0.24197 0.84849,0.32925 0.77549,0.23323 1.55813,0.44228 2.31656,0.72987 0.13963,0.0528 0.28045,0.0499 0.41413,-0.012 0.58946,-0.27251 1.15709,-0.5839 1.68308,-0.96789 0.2027,-0.14797 0.34431,-0.33398 0.43079,-0.571986 0.2975,-0.820726 0.6791,-1.603762 1.08371,-2.376078 0.56605,-1.080528 1.23246,-2.09641 1.9901,-3.051198 0.40303,-0.50815 0.83382,-0.994067 1.31181,-1.434768 0.16977,-0.156295 0.23403,-0.221736 0.11184,-0.535901 -0.0397,-0.101498 -0.10555,-0.168994 -0.21896,-0.181288 -0.0603,-0.006 -0.12054,-0.01544 -0.18048,-0.02624 -0.13958,-0.02534 -0.28045,-0.04603 -0.4177,-0.08096 -0.15669,-0.03958 -0.31376,-0.08291 -0.46412,-0.141228 -0.43633,-0.169773 -0.75486,-0.466487 -0.93178,-0.904803 -0.0833,-0.20667 -0.16779,-0.412934 -0.24554,-0.621583 -0.0896,-0.241182 -0.25228,-0.400251 -0.48354,-0.516082 -0.50695,-0.253865 -1.00636,-0.522813 -1.50379,-0.794924 -0.17692,-0.09685 -0.34272,-0.215395 -0.50655,-0.33361 -0.0436,-0.03178 -0.0659,-0.09715 -0.0904,-0.150733 -0.0313,-0.06941 0.0302,-0.180478 0.10036,-0.189608 0.0595,-0.0075 0.12098,-0.02414 0.17929,-0.01739 0.18049,0.02099 0.36296,0.03973 0.53987,0.07931 1.18923,0.26616 2.3483,0.622768 3.44471,1.164621 0.0723,0.03568 0.14843,0.06342 0.22333,0.09355 0.0453,0.01829 0.12728,-0.04288 0.12773,-0.0928 4.1e-4,-0.04048 0.009,-0.08126 0.003,-0.120539 -0.13013,-0.943288 -0.25109,-1.887761 -0.33042,-2.837407 -0.007,-0.09595 -0.0778,-0.149938 -0.15788,-0.131633 -0.0397,0.009 -0.0793,0.01664 -0.11814,0.02744 -1.36971,0.375649 -2.76521,0.624762 -4.16903,0.825074 -0.31932,0.04558 -0.64658,0.03853 -0.97026,0.05277 -0.25506,0.0105 -0.47363,-0.08216 -0.67355,-0.234825 -0.30861,-0.23523 -0.57359,-0.513293 -0.81397,-0.815569 -0.68347,-0.859976 -1.27015,-1.781451 -1.74973,-2.769956 -0.14121,-0.291556 -0.27013,-0.589064 -0.39548,-0.887757 -0.0543,-0.129684 -0.10154,-0.266564 -0.12417,-0.404599 -0.0444,-0.268947 0.003,-0.524402 0.17256,-0.747338 0.0369,-0.04843 0.0738,-0.09685 0.11344,-0.142877 0.77114,-0.891715 1.60097,-1.722351 2.56251,-2.41137 0.16343,-0.11739 0.34233,-0.2146 0.51885,-0.312185 0.0488,-0.02699 0.11781,-0.03133 0.16144,0.03133 0.0353,0.05082 0.0658,0.106745 0.0361,0.167404 -0.044,0.0901 -0.0892,0.181677 -0.14757,0.262591 -0.16541,0.230477 -0.34113,0.453804 -0.50615,0.684266 -0.12971,0.180883 -0.2499,0.368902 -0.37446,0.553757 -0.0647,0.0964 -0.0488,0.189609 0.009,0.281632 0.20666,0.325663 0.42959,0.639828 0.69219,0.922659 0.48394,0.521629 1.01707,0.98891 1.58272,1.418906 0.0643,0.04873 0.13328,0.09235 0.20032,0.13718 0.12059,0.08096 0.25149,0.125336 0.39945,0.123687 0.20349,-0.0015 0.40461,-0.01199 0.60175,-0.06897 0.31099,-0.0901 0.62595,-0.167405 0.93417,-0.266564 0.63586,-0.204691 1.26697,-0.425243 1.90282,-0.630324 0.82866,-0.266953 1.66048,-0.521224 2.47326,-0.836573 0.64578,-0.250312 1.32886,-0.355813 2.02066,-0.393504 0.12143,-0.0075 0.24316,-0.0075 0.36454,-0.01349 1.21976,-0.05952 2.37289,0.215005 3.48398,0.698149 0.0928,0.04048 0.18445,0.08336 0.27529,0.128484 0.77786,0.389921 1.55376,0.783815 2.35027,1.136465 0.79653,0.352246 1.58114,0.730263 2.36854,1.102748 0.54939,0.259817 1.09284,0.531928 1.64144,0.792945 0.42482,0.201902 0.50852,0.200717 0.90282,-0.04408 0.83064,-0.515272 1.58153,-1.130917 2.27373,-1.819936 0.20467,-0.203491 0.26418,-0.447447 0.20389,-0.72551 -0.11184,-0.516471 -0.27808,-1.015476 -0.46848,-1.50736 -0.0805,-0.20745 -0.16105,-0.415304 -0.23444,-0.625541 -0.019,-0.05427 -0.012,-0.11829 -0.015,-0.177315 -0.003,-0.07016 0.11065,-0.156685 0.17295,-0.132082 0.0555,0.02174 0.11934,0.03568 0.16224,0.07301 0.12143,0.106296 0.24792,0.211827 0.34749,0.337178 0.87029,1.095206 1.71163,2.211852 2.46928,3.389561 0.033,0.05112 0.061,0.105096 0.0892,0.159068 0.12024,0.231662 0.11979,0.466487 0.0135,0.701717 -0.0928,0.205081 -0.22292,0.387148 -0.37604,0.549785 -0.23602,0.251092 -0.47164,0.502978 -0.72114,0.740202 -0.9417,0.894099 -1.9445,1.717194 -2.95045,2.536721 -0.094,0.07661 -0.19438,0.146325 -0.29394,0.215784 -0.27331,0.189219 -0.5716,0.295125 -0.90917,0.297509 -0.62912,0.0045 -1.25666,-0.0015 -1.88062,-0.09325 -0.14003,-0.02024 -0.28165,-0.03613 -0.42247,-0.03928 -0.0547,-0.0012 -0.11739,0.02849 -0.16383,0.06192 -0.0646,0.04723 -0.12098,0.107495 -0.17454,0.167794 -0.21538,0.242366 -0.42602,0.489095 -0.6426,0.730277 -0.16739,0.18604 -0.27608,0.391511 -0.30107,0.64776 -0.0294,0.301871 -0.0766,0.602542 -0.18287,0.889736 -0.0174,0.04678 0.033,0.127735 0.0837,0.140778 0.43118,0.112293 0.86236,0.22451 1.29354,0.335589 1.42843,0.368107 2.74021,0.986122 3.94411,1.836982 0.0829,0.05877 0.17534,0.106746 0.24714,0.17613 0.21976,0.213012 0.49028,0.269338 0.78065,0.274495 0.1012,0.0015 0.2027,0.0075 0.30385,0.009 1.19556,0.02189 2.39153,0.03733 3.58711,0.06627 0.83103,0.01979 1.65769,0.09595 2.48079,0.221737 0.56882,0.08681 1.10116,0.262201 1.59779,0.550969 0.0702,0.04093 0.14393,0.07541 0.21103,0.120538 0.10555,0.07181 0.22095,0.0979 0.3455,0.09115 0.14168,-0.0075 0.28481,-0.009 0.42445,-0.03133 0.58033,-0.09085 1.15828,-0.198334 1.7398,-0.279263 0.38199,-0.05307 0.6319,-0.243551 0.76043,-0.604132 0.0408,-0.114241 0.0933,-0.22451 0.13688,-0.337957 0.30504,-0.795329 0.64935,-1.573612 1.03888,-2.330456 0.15073,-0.292741 0.24991,-0.597385 0.30346,-0.917906 0.10989,-0.659664 0.18723,-1.324095 0.25069,-1.9901 0.0345,-0.36295 0.0766,-0.72512 0.11064,-1.08807 0.0226,-0.241976 0.04,-0.484732 0.0535,-0.727503 0.012,-0.231257 -0.0516,-0.444269 -0.19278,-0.626351 -0.2979,-0.384374 -0.60135,-0.764385 -0.90599,-1.143196 -0.0889,-0.110344 -0.1916,-0.209444 -0.28324,-0.317748 -0.10584,-0.125336 -0.20388,-0.265365 -0.20626,-0.43157 -0.003,-0.218169 -0.13493,-0.274495 -0.30821,-0.301076 -0.18009,-0.02744 -0.35938,-0.06267 -0.54067,-0.07616 -0.89885,-0.06657 -1.77868,0.03568 -2.64263,0.29433 -0.64182,0.192382 -1.26261,0.436338 -1.87269,0.710833 -0.14723,0.06627 -0.29751,0.126535 -0.44745,0.18565 -0.0607,0.02384 -0.1789,-0.01904 -0.21142,-0.08456 -0.0253,-0.05082 -0.0468,-0.11709 -0.0361,-0.169773 0.015,-0.07736 0.0511,-0.155096 0.0944,-0.222142 0.0877,-0.135981 0.1777,-0.272111 0.28163,-0.395483 0.79851,-0.946062 1.6216,-1.867522 2.59622,-2.640648 0.0793,-0.06312 0.15907,-0.125336 0.23801,-0.189203 0.61683,-0.499815 1.33163,-0.762811 2.11188,-0.855239 0.19992,-0.02384 0.407,-0.03058 0.60613,-0.006 0.72432,0.08845 1.44467,0.201902 2.14044,0.433174 0.11544,0.03808 0.22967,0.08096 0.34748,0.109894 0.28085,0.06822 0.5605,0.08096 0.8354,-0.03448 0.37326,-0.156685 0.75804,-0.289967 1.11901,-0.47085 0.74217,-0.37208 1.47324,-0.766769 2.20629,-1.157094 0.1785,-0.09475 0.35184,-0.201513 0.52043,-0.313371 0.77749,-0.514492 1.54703,-1.040484 2.33005,-1.546236 0.57003,-0.368511 1.04801,-0.829841 1.4562,-1.364948 0.3566,-0.467282 0.7148,-0.934158 1.04483,-1.419686 0.59263,-0.87149 1.17217,-1.751706 1.74338,-2.637079 0.84571,-1.3118 1.68982,-2.624396 2.59503,-3.896122 0.66998,-0.940904 1.35543,-1.87151 2.03254,-2.807257 0.15432,-0.213401 0.30664,-0.428406 0.45539,-0.645781 0.25784,-0.376832 0.41373,-0.785809 0.39549,-1.252685 -0.006,-0.161048 0.006,-0.324884 0.0297,-0.484733 0.0376,-0.25427 0.17216,-0.44983 0.39667,-0.581928 0.19438,-0.113792 0.39866,-0.194766 0.62397,-0.22571 0.28323,-0.03853 0.56645,-0.04243 0.84928,-0.0075 0.39349,0.04843 0.76439,-0.01709 1.12654,-0.174541 0.74257,-0.323295 1.49189,-0.631508 2.23248,-0.95915 0.6668,-0.294735 1.32528,-0.608105 1.98812,-0.911955 2.68864,-1.231667 5.40308,-2.402644 8.16352,-3.465332 0.019,-0.0075 0.0376,-0.01544 0.0559,-0.02384 0.68584,-0.32211 1.4078,-0.364553 2.14124,-0.252681 1.15432,0.176116 2.30348,0.126536 3.45145,-0.04558 0.50297,-0.07541 0.9897,-0.218574 1.45658,-0.418497 0.70726,-0.303055 1.41611,-0.604131 2.11228,-0.931774 0.97145,-0.456967 1.92942,-0.942494 2.86794,-1.464513 0.10629,-0.05907 0.21103,-0.120538 0.31774,-0.178904 0.28639,-0.156295 0.57953,-0.290761 0.91353,-0.305439 0.0825,-0.003 0.15828,-0.03208 0.21619,-0.09595 0.2027,0 0.4054,0 0.60811,0 0.14362,0.0928 0.30742,0.094 0.46885,0.104347 0.30346,0.01949 0.60731,0.03088 0.91037,0.05547 0.86872,0.06986 1.73703,0.140778 2.60534,0.218168 0.30266,0.02699 0.60374,0.06941 0.90441,0.113043 0.16384,0.02384 0.30664,0.09835 0.42484,0.218573 0.0769,0.07811 0.0532,0.276084 -0.0448,0.319712 -0.073,0.03253 -0.14797,0.06432 -0.22532,0.08096 -1.05117,0.223715 -2.07618,0.543038 -3.10634,0.844114 -0.48791,0.142877 -0.9524,0.342725 -1.39232,0.598974 -0.40262,0.234436 -0.80762,0.465303 -1.20826,0.703306 -1.5859,0.940905 -3.1718,1.88142 -4.75492,2.827078 -0.835,0.49863 -1.66404,1.007156 -2.49586,1.511723 -0.61484,0.372875 -1.13527,0.849677 -1.55495,1.432789 -0.44983,0.625151 -0.90561,1.246344 -1.3352,1.885378 -0.9056,1.346703 -1.69936,2.760451 -2.45739,4.194425 -0.19873,0.376038 -0.40223,0.749707 -0.60731,1.122582 -0.0781,0.141977 -0.16461,0.279247 -0.25149,0.416097 -0.14513,0.228094 -0.33717,0.402635 -0.59184,0.503383 -0.11304,0.04483 -0.22531,0.0913 -0.33518,0.143627 -0.054,0.02579 -0.1012,0.06657 -0.15153,0.100299 -0.0591,0.03973 -0.0552,0.1658 0.0105,0.207854 0.2388,0.152727 0.48037,0.301466 0.71838,0.455378 0.19437,0.125785 0.3229,0.294329 0.37764,0.528375 0.0877,0.374449 0.20547,0.742166 0.29433,1.116225 0.10435,0.439516 0.29472,0.834205 0.53511,1.21621 1.11187,1.767178 2.24398,3.520863 3.39194,5.264233 0.37883,0.575182 0.72909,1.169389 1.08332,1.760042 0.11379,0.190403 0.20071,0.397073 0.2975,0.59779 0.11784,0.244345 0.15192,0.504568 0.12024,0.770727 -0.0214,0.180088 -0.0472,0.363354 -0.10239,0.535107 -0.1114,0.346698 -0.24356,0.687039 -0.36771,1.029374 -0.0552,0.151918 -0.11259,0.303446 -0.16542,0.456173 -0.0274,0.07931 0.0285,0.158664 0.11709,0.17532 0.0198,0.0045 0.04,0.0105 0.06,0.0105 0.34748,-0.0105 0.54383,0.178499 0.71401,0.467281 0.76041,1.292356 1.5498,2.568055 2.30546,3.862794 0.30465,0.522019 0.70013,0.938926 1.19477,1.272521 0.45381,0.306234 0.9175,0.5974 1.40978,0.838177 0.83698,0.409756 1.67991,0.806439 2.51609,1.216989 0.4546,0.222936 0.90125,0.46133 1.35027,0.69536 0.47086,0.245155 0.88339,0.569635 1.27333,0.928222 1.52877,1.405412 2.84969,2.98814 4.02543,4.695408 0,0.162248 0,0.32448 0,0.486727 -0.12339,0.01904 -0.24316,0.0045 -0.3574,-0.04483 -0.31655,-0.134931 -0.63626,-0.26379 -0.94765,-0.409366 -0.88062,-0.41214 -1.75726,-0.831431 -2.6359,-1.247544 -0.29274,-0.138829 -0.58588,-0.276473 -0.87981,-0.413324 -0.5843,-0.272126 -1.19478,-0.377237 -1.835,-0.277283 -0.50259,0.07856 -1.00875,0.088 -1.51609,0.08845 -1.60138,0.0015 -3.20274,0.003 -4.80371,0.009 -0.44586,0.0015 -0.88974,0.02414 -1.32528,-0.11739 -0.17612,-0.05757 -0.36177,-0.02534 -0.51845,0.09715 -0.0475,0.03733 -0.10195,0.06627 -0.15074,0.102398 -0.41333,0.30346 -0.8711,0.511314 -1.36335,0.650548 -0.38955,0.110344 -0.7755,0.232442 -1.16385,0.348273 -0.93218,0.278063 -1.84651,0.605316 -2.74536,0.977801 -0.55456,0.229667 -1.02184,0.566051 -1.39669,1.040469 -0.33916,0.42881 -0.70688,0.83539 -1.05714,1.25547 -0.15787,0.18961 -0.32369,0.35304 -0.57637,0.41969 -0.11619,0.0306 -0.19634,0.14077 -0.2138,0.2729 -0.0214,0.16066 -0.0463,0.3213 -0.0583,0.48276 -0.0226,0.309 -0.1123,0.5954 -0.26538,0.86394 -0.0901,0.15828 -0.17335,0.32092 -0.26062,0.48117 -0.2126,0.39191 -0.42522,0.78342 -0.63824,1.17495 -0.39707,0.73146 -0.73622,1.48751 -1.00754,2.2757 -0.44824,1.30228 -0.906,2.60098 -1.36138,3.90088 -0.60295,1.72037 -1.20867,3.43954 -1.81042,5.16032 -0.24752,0.70806 -0.44031,1.43198 -0.61842,2.16028 -0.13208,0.54185 -0.14602,1.07537 -0.0162,1.62199 0.11709,0.49187 0.21261,0.99089 0.28441,1.49148 0.0861,0.60136 0.15709,1.20431 0.17295,1.81439 0.0277,1.0599 -0.0873,2.10553 -0.2864,3.14204 -0.16066,0.83579 -0.37922,1.65769 -0.67355,2.45897 -0.21778,0.59343 -0.5129,1.1452 -0.85602,1.67356 -0.0325,0.0499 -0.073,0.0984 -0.11903,0.13599 -0.046,0.0373 -0.10195,0.067 -0.167,0.0373 -0.0615,-0.0277 -0.0924,-0.0805 -0.0837,-0.14198 0.015,-0.0991 0.0385,-0.19754 0.0646,-0.29433 0.35106,-1.30267 0.49822,-2.62636 0.39429,-3.97347 -0.0841,-1.09284 -0.25665,-2.17178 -0.54978,-3.2301 -0.12489,-0.45022 -0.26261,-0.89371 -0.50259,-1.2991 -0.0615,-0.1039 -0.10555,-0.21897 -0.14994,-0.33202 -0.11229,-0.28441 -0.26577,-0.54583 -0.43238,-0.80088 -0.41055,-0.62833 -0.85483,-1.23207 -1.33321,-1.81042 -0.96907,-1.17138 -1.94211,-2.33918 -2.90841,-3.51293 -0.96589,-1.17295 -1.96789,-2.31816 -2.81875,-3.58155 -0.0342,-0.0504 -0.0726,-0.0976 -0.1087,-0.14633 -0.40382,-0.54107 -0.87546,-1.01033 -1.45064,-1.36971 -0.48115,-0.30069 -0.95677,-0.6097 -1.44428,-0.90005 -0.8354,-0.49743 -1.68149,-0.9774 -2.51688,-1.47483 -0.97464,-0.58073 -1.94291,-1.17177 -2.91357,-1.75925 -0.14678,-0.0889 -0.23839,-0.0579 -0.25704,0.0921 -0.0778,0.62318 -0.1551,1.24675 -0.23047,1.87032 -0.009,0.0801 -0.012,0.16144 -0.012,0.24237 3.9e-4,0.0858 0.0373,0.16223 0.10675,0.20824 0.21935,0.14513 0.4407,0.28759 0.66561,0.42366 0.5958,0.36017 1.10593,0.81673 1.55615,1.34629 0.38596,0.4542 0.67038,0.95995 0.85919,1.52561 0.21936,0.65571 0.36852,1.32687 0.46728,2.00954 0.11904,0.82192 0.23086,1.64501 0.33955,2.4685 0.0555,0.42165 0.0969,0.84531 0.14633,1.26815 0.0373,0.32171 0.0805,0.64301 0.11469,0.96512 0.0238,0.22531 0.0971,0.43198 0.19556,0.63467 0.44347,0.91037 0.87465,1.82707 1.32448,2.73467 0.57596,1.16184 1.14201,2.32807 1.60216,3.54228 0.12893,0.34073 0.24752,0.68623 0.35027,1.03532 0.18563,0.63071 0.22491,1.27372 0.12698,1.92545 -0.081,0.54106 -0.15033,1.0837 -0.22967,1.62476 -0.13283,0.90481 -0.19079,1.81517 -0.14993,2.72792 0.0714,1.59939 0.14632,3.19916 0.24316,4.79736 0.0627,1.03293 0.0837,2.06546 0.075,3.09959 -0.006,0.67038 -0.14318,1.32846 -0.17771,1.99607 -0.001,0.0202 -0.009,0.0396 -0.012,0.0595 -0.0762,0.5022 -0.21301,0.98891 -0.36454,1.47285 -0.50259,1.60494 -1.09521,3.17854 -1.67872,4.75491 -0.0984,0.26538 -0.21975,0.52281 -0.33637,0.78145 -0.0496,0.11064 -0.11184,0.21578 -0.17216,0.3213 -0.094,0.16502 -0.23562,0.27688 -0.41055,0.34511 -0.075,0.0294 -0.15352,0.0523 -0.23207,0.0699 -0.22966,0.0511 -0.41293,0.17175 -0.53272,0.37208 -0.2737,0.45815 -0.65014,0.76557 -1.18526,0.87029 -0.0889,0.0174 -0.17096,0.1036 -0.24117,0.17295 -0.0559,0.0555 -0.0933,0.13209 -0.13208,0.2031 -0.28879,0.524 -0.44309,0.68505 -1.05713,0.8112 -0.14872,0.0306 -0.25863,0.11589 -0.34272,0.23364 -0.11739,0.16502 -0.21976,0.34113 -0.34154,0.50258 -0.13374,0.17732 -0.27648,0.34868 -0.42643,0.5125 -0.15985,0.17454 -0.37208,0.24276 -0.60373,0.2388 -0.22332,-0.005 -0.44665,-0.0265 -0.65253,-0.12339 -0.25625,-0.12023 -0.5121,-0.24236 -0.76479,-0.36969 -0.23482,-0.11814 -0.46489,-0.24673 -0.70012,-0.36495 -0.0238,-0.012 -0.0711,0.0152 -0.10315,0.0318 -0.015,0.007 -0.027,0.0357 -0.025,0.0523 0.0135,0.1003 0.0234,0.2019 0.0477,0.29988 0.15986,0.64975 0.27053,1.30823 0.36692,1.97028 0.11934,0.82269 0.21262,1.64737 0.27847,2.47603 0.1,1.25666 0.0861,2.51053 -0.0627,3.76323 -0.0769,0.64935 -0.34352,1.19993 -0.81594,1.65452 -0.33757,0.32487 -0.71165,0.60016 -1.09998,0.85998 -0.26299,0.17613 -0.5478,0.25546 -0.86158,0.2388 -0.0801,-0.005 -0.16143,-0.0135 -0.24077,-0.005 -0.0282,0.003 -0.0754,0.0555 -0.0723,0.0798 0.0234,0.18009 0.0472,0.36138 0.0901,0.53749 0.12458,0.5117 0.25188,1.02263 0.38953,1.53115 0.43831,1.6232 0.93218,3.23051 1.47283,4.82235 0.66443,1.956 1.35266,3.90406 2.03772,5.85291 0.2622,0.74575 0.59104,1.46451 0.90996,2.18725 0.31139,0.70608 0.77946,1.27411 1.38557,1.73823 0.14483,0.11109 0.2872,0.2261 0.43913,0.32646 0.33796,0.22332 0.67314,0.45299 1.0242,0.65411 0.6327,0.36216 1.27332,0.71084 1.91633,1.05475 0.57161,0.30543 1.15471,0.58985 1.72632,0.89529 0.56328,0.30108 1.02183,0.71599 1.37685,1.25546 0.89608,1.36099 1.61604,2.80687 2.16107,4.34198 0.12249,0.34552 0.2146,0.69736 0.27966,1.05555 0.0321,0.17691 0.0342,0.36295 0.0226,0.54304 -0.006,0.0945 -0.0619,0.19081 -0.11229,0.27609 -0.073,0.12293 -0.25148,0.1801 -0.37326,0.11813 -0.16223,-0.0822 -0.33003,-0.16184 -0.47204,-0.27211 -0.36771,-0.2856 -0.73266,-0.57677 -1.08133,-0.88537 -0.72908,-0.64618 -1.40303,-1.3475 -2.04049,-2.08452 -0.42444,-0.49069 -0.85166,-0.9786 -1.28164,-1.46412 -0.10704,-0.12099 -0.22333,-0.23562 -0.34709,-0.33915 -0.12893,-0.10824 -0.28839,-0.15906 -0.45499,-0.12263 -0.19635,0.0429 -0.38834,0.10629 -0.58191,0.16302 -0.0499,0.015 -0.0781,0.11979 -0.0429,0.15471 0.0861,0.0841 0.17018,0.17136 0.2622,0.24871 0.43516,0.36455 0.87427,0.72393 1.30863,1.08888 0.34629,0.29115 0.61683,0.6418 0.80683,1.05355 0.14437,0.31258 0.29552,0.62199 0.43237,0.93814 0.5482,1.26538 0.9889,2.57043 1.41851,3.87906 0.088,0.26854 0.16223,0.54303 0.19436,0.82705 0.0282,0.24872 0.0175,0.48316 -0.12729,0.70013 -0.0297,0.0444 -0.0234,0.11349 -0.0337,0.17097 -0.16223,0 -0.32448,0 -0.48671,0 -0.021,-0.0535 -0.0262,-0.12609 -0.0651,-0.15748 -0.45856,-0.37326 -0.84929,-0.81239 -1.23048,-1.25984 -0.56605,-0.66482 -1.18327,-1.27806 -1.82985,-1.86475 -1.2158,-1.10354 -2.41652,-2.22335 -3.57085,-3.39155 -0.27053,-0.2737 -0.5371,-0.55296 -0.78778,-0.84452 -0.25111,-0.29194 -0.55417,-0.39191 -0.92386,-0.3217 -0.0595,0.012 -0.11814,0.0265 -0.17732,0.04 -0.0634,0.015 -0.11229,0.0786 -0.0945,0.12968 0.0607,0.17136 0.1039,0.35263 0.18922,0.5113 0.58112,1.07736 0.92662,2.24438 1.30346,3.39948 0.2511,0.77034 0.48156,1.54742 0.6676,2.33641 0.0603,0.25625 0.12144,0.5129 0.16184,0.77272 0.0178,0.11589 -0.003,0.24157 -0.0277,0.35859 -0.0306,0.14557 -0.20984,0.23721 -0.3328,0.17295 -0.16105,-0.0841 -0.32528,-0.16779 -0.47006,-0.27608 -0.4538,-0.34034 -0.90759,-0.68189 -1.34552,-1.04206 -0.42325,-0.34829 -0.85443,-0.68307 -1.3233,-0.96867 -0.36415,-0.22214 -0.69933,-0.48396 -1.03254,-0.74932 -0.66522,-0.52995 -1.12893,-1.21263 -1.50022,-1.96512 -0.11619,-0.23601 -0.22133,-0.47838 -0.31653,-0.72353 -0.35106,-0.9064 -0.69895,-1.81438 -1.04167,-2.72395 -0.24396,-0.64777 -0.37842,-1.32291 -0.48394,-2.00479 -0.0277,-0.18009 -0.0714,-0.35739 -0.1027,-0.5367 -0.0472,-0.26813 -0.17493,-0.49028 -0.35383,-0.69377 -0.24078,-0.27371 -0.47322,-0.55494 -0.69893,-0.84134 -0.12489,-0.15827 -0.23007,-0.33281 -0.34273,-0.501 -0.21421,-0.32052 -0.26933,-0.67513 -0.20548,-1.04801 0.0373,-0.21896 0.0904,-0.43633 0.14872,-0.65094 0.0853,-0.31257 0.18209,-0.62198 0.2737,-0.93258 0.12024,-0.40937 0.19478,-0.82825 0.25427,-1.24952 0.0571,-0.40421 0.0349,-0.80842 -0.003,-1.21302 -0.10555,-1.1099 -0.23921,-2.21621 -0.42882,-3.3146 -0.41768,-2.41693 -0.91313,-4.81639 -1.71005,-7.14249 -0.6438,-1.87863 -1.35384,-3.73269 -2.18368,-5.53754 -0.36375,-0.79097 -0.77153,-1.56171 -1.16821,-2.3372 -0.25862,-0.50496 -0.53392,-1.00119 -0.80087,-1.5018 -0.0571,-0.10705 -0.11709,-0.2134 -0.16541,-0.32487 -0.1126,-0.26022 -0.1075,-0.51727 0.0699,-0.74693 0.13568,-0.17573 0.28877,-0.33837 0.43554,-0.50537 0.1063,-0.12143 0.21777,-0.2384 0.32051,-0.36296 0.0186,-0.0226 0.015,-0.075 0.005,-0.10825 -0.012,-0.0373 -0.0373,-0.0726 -0.0646,-0.10149 -0.61047,-0.65015 -1.22215,-1.29911 -1.83421,-1.94766 -0.0135,-0.015 -0.0342,-0.0219 -0.0496,-0.0349 -0.0472,-0.04 -0.12969,-0.0313 -0.15194,0.019 -0.0487,0.11109 -0.0971,0.22214 -0.14362,0.3344 -0.74257,1.79772 -1.77193,3.41217 -3.09206,4.84099 -0.33163,0.35899 -0.70727,0.66522 -1.09561,0.96035 -0.55773,0.42364 -1.17256,0.53154 -1.83897,0.36176 -0.64737,-0.16541 -1.29395,-0.3344 -1.933,-0.52837 -0.56128,-0.17057 -1.11345,-0.37247 -1.66602,-0.57042 -1.96392,-0.7021 -3.933,-1.38796 -5.94096,-1.95638 -0.3701,-0.10465 -0.74337,-0.19874 -1.11584,-0.29394 -0.14962,-0.0381 -0.27926,0 -0.38279,0.12054 -0.14513,0.16899 -0.29829,0.33123 -0.43873,0.50418 -0.69258,0.84967 -1.31655,1.74893 -1.8826,2.68666 -1.25665,2.08174 -2.47999,4.18411 -3.63589,6.32296 -0.92465,1.71085 -1.7763,3.46017 -2.41336,5.3051 -0.23126,0.66998 -0.48632,1.33162 -0.72472,1.99923 -0.40897,1.1448 -0.87109,2.26896 -1.32449,3.39671 -0.11306,0.28123 -0.24673,0.55574 -0.39112,0.82269 -0.25347,0.46887 -0.63943,0.76916 -1.16542,0.89808 -0.39707,0.0971 -0.79573,0.15152 -1.20271,0.14557 -0.22293,-0.003 -0.44586,-0.012 -0.6684,-0.0229 -0.38556,-0.019 -0.76875,8e-4 -1.15352,0.0354 -0.95122,0.0853 -1.90046,0.0742 -2.85168,-0.0354 -0.84491,-0.0971 -1.69101,-0.18761 -2.54545,-0.18008 -0.89529,0.007 -1.78026,0.0928 -2.6577,0.2626 -0.25784,0.0499 -0.5125,0.12174 -0.7628,0.20072 -0.96511,0.30503 -1.92704,0.62118 -2.892145,0.92543 -0.675533,0.21301 -1.354637,0.41532 -2.03374,0.61802 -0.09561,0.0286 -0.199527,0.0456 -0.298298,0.0412 -0.181676,-0.007 -0.358591,-0.12653 -0.364542,-0.33638 -0.0039,-0.13958 0.0087,-0.28362 0.03927,-0.41968 0.03054,-0.13718 0.09441,-0.26695 0.138829,-0.40143 0.02301,-0.0702 0.09956,-0.14798 0.006,-0.2154 -0.07537,-0.0543 -0.151529,4.1e-4 -0.226104,0.0231 -0.251886,0.0766 -0.503377,0.1547 -0.756058,0.2273 -0.174932,0.0504 -0.351452,0.0976 -0.529557,0.13643 -0.09838,0.0214 -0.200717,0.0282 -0.301472,0.0309 -0.326461,0.009 -0.540665,-0.23443 -0.483146,-0.54819 0.03649,-0.20033 0.0952,-0.39351 0.188815,-0.57557 0.07418,-0.14408 0.147959,-0.2884 0.219758,-0.43357 0.0472,-0.096 -0.0012,-0.18088 -0.123762,-0.21896 -0.05792,-0.0178 -0.119399,-0.0246 -0.175727,-0.0465 -0.110269,-0.0424 -0.194766,-0.17175 -0.192386,-0.2856 0.0024,-0.12339 0.02974,-0.23959 0.09202,-0.34827 0.152718,-0.26538 0.335187,-0.50893 0.566051,-0.71006 0.213806,-0.18604 0.432373,-0.3681 0.662443,-0.53351 0.510518,-0.36693 1.042058,-0.70093 1.593433,-1.00398 0.724324,-0.39827 1.502596,-0.60334 2.324898,-0.62635 0.68862,-0.0195 1.37804,-0.012 2.06547,0.0535 0.3225,0.0309 0.64737,0.0412 0.97106,0.054 0.46569,0.0183 0.93217,0.0219 1.39787,0.0465 0.66998,0.0354 1.33798,0.0105 2.00478,-0.0432 0.50655,-0.0405 1.00081,-0.15509 1.48276,-0.31298 0.50854,-0.1662 0.95559,-0.43752 1.33322,-0.82071 0.0905,-0.0916 0.14836,-0.18881 0.12574,-0.32289 -0.0135,-0.0798 -0.025,-0.16066 -0.0278,-0.24118 -0.006,-0.167 0.0369,-0.32249 0.13764,-0.45697 0.10949,-0.14558 0.21777,-0.29274 0.33876,-0.42841 0.37723,-0.42404 0.76121,-0.84173 1.13964,-1.26498 0.12138,-0.13568 0.23523,-0.27807 0.3459,-0.42246 0.0202,-0.0262 0.009,-0.0757 0.0127,-0.1147 0.0167,-0.001 0.0357,3.9e-4 0.0496,-0.007 0.007,-0.005 0.01,-0.0349 0.008,-0.0357 -0.0365,-0.007 -0.0524,0.012 -0.048,0.06 z m 24.7365,-24.75277 c 0.0135,-0.0234 0.0282,-0.0468 0.0424,-0.0702 -0.015,0.0226 -0.0294,0.0448 -0.0441,0.0675 0.31812,0.25268 0.39667,0.59025 0.34788,0.97463 -0.0226,0.17849 -0.18724,0.27648 -0.35939,0.19714 -0.12774,-0.0591 -0.25664,-0.12368 -0.36693,-0.20984 -0.22332,-0.17453 -0.43554,-0.36255 -0.64894,-0.54899 -0.13718,-0.11979 -0.26697,-0.24832 -0.40184,-0.37049 -0.0678,-0.0619 -0.14872,-0.067 -0.21737,-0.0178 -0.14798,0.10629 -0.29394,0.21539 -0.44309,0.32011 -0.16541,0.11589 -0.34906,0.11664 -0.51924,0.0325 -0.14363,-0.0706 -0.26736,-0.18009 -0.40223,-0.26934 -0.0658,-0.0436 -0.13478,-0.0829 -0.20429,-0.12054 -0.0159,-0.009 -0.0448,-0.009 -0.0588,7.9e-4 -0.0135,0.009 -0.0198,0.0349 -0.0229,0.0543 -0.0135,0.0798 -0.0195,0.16065 -0.0376,0.23918 -0.0654,0.28244 -0.32764,0.42604 -0.60611,0.3352 -0.23364,-0.0762 -0.44506,-0.19476 -0.64181,-0.33956 -0.47759,-0.35104 -0.88498,-0.77113 -1.21818,-1.26141 -0.1138,-0.1674 -0.22254,-0.33877 -0.32369,-0.51409 -0.1662,-0.28838 -0.22135,-0.37326 -0.43356,-0.0468 -0.0658,0.10149 -0.14393,0.19635 -0.22571,0.2856 -0.1102,0.12054 -0.23205,0.22848 -0.40737,0.24196 -0.088,0.007 -0.14558,0.0576 -0.19597,0.12579 -0.0357,0.0484 -0.0789,0.0916 -0.12294,0.13283 -0.0588,0.0547 -0.16066,0.0588 -0.22173,-3.9e-4 -0.0865,-0.0834 -0.18009,-0.16582 -0.24158,-0.26617 -0.0619,-0.10075 -0.088,-0.22333 -0.13013,-0.33598 -0.019,-0.0516 -0.10075,-0.0579 -0.14797,-0.012 -0.0432,0.0424 -0.0873,0.0837 -0.12819,0.12819 -0.98652,1.07419 -1.98137,2.14044 -2.95481,3.22653 -0.56328,0.62872 -1.21738,1.12417 -1.96868,1.49903 -0.21738,0.10824 -0.43238,0.22173 -0.65213,0.32487 -0.38477,0.18049 -0.77232,0.35462 -1.15868,0.53194 -0.0551,0.0253 -0.10829,0.0555 -0.16383,0.0798 -0.11701,0.0511 -0.13764,0.15034 -0.0484,0.21817 0.66125,0.50218 1.31695,1.01152 1.98574,1.50339 0.44031,0.32368 0.8945,0.62873 1.35107,0.9294 0.67235,0.4427 1.42287,0.67355 2.2162,0.77352 0.30148,0.0381 0.60295,0.0754 0.90562,0.10239 0.27765,0.025 0.4998,0.15233 0.69138,0.34312 0.17336,0.17336 0.3098,0.37526 0.41929,0.59304 0.11784,0.23482 0.10585,0.47044 -0.0432,0.6914 -0.0789,0.11694 -0.16383,0.23046 -0.24634,0.3447 -0.0289,0.0405 -0.001,0.13808 0.0448,0.15232 0.15431,0.0465 0.3106,0.0865 0.46411,0.13569 0.90561,0.28996 1.81439,0.57 2.71483,0.87624 1.764,0.59977 3.56252,1.07895 5.35984,1.56289 0.23325,0.0627 0.4768,0.0988 0.71798,0.11814 0.37287,0.0297 0.72233,-0.0511 1.03572,-0.27171 0.34986,-0.24634 0.67155,-0.52203 0.94883,-0.84808 0.1048,-0.12339 0.20588,-0.25071 0.30147,-0.38121 0.64618,-0.88299 1.24634,-1.79693 1.82984,-2.72236 0.0969,-0.15391 0.18486,-0.31416 0.26856,-0.47601 0.22412,-0.43356 0.38279,-0.89252 0.51171,-1.36178 0.0286,-0.1036 7.9e-4,-0.20111 -0.0702,-0.28204 -0.0801,-0.0911 -0.16502,-0.1785 -0.24554,-0.26934 -0.6319,-0.71203 -1.26737,-1.42088 -1.89331,-2.13766 -0.83977,-0.96113 -1.67357,-1.92703 -2.50618,-2.89413 -0.17136,-0.19913 -0.32687,-0.41214 -0.49148,-0.61722 -0.0627,-0.0786 -0.11814,-0.17057 -0.19834,-0.2261 -0.16541,-0.11499 -0.34233,-0.2146 -0.51924,-0.31139 -0.0801,-0.0441 -0.15669,3.9e-4 -0.22532,0.04 z m 19.89314,-23.23747 c 0.019,-0.26062 -0.003,-0.4411 -0.0925,-0.60612 -0.0964,-0.17771 -0.19041,-0.3582 -0.30544,-0.52361 -0.42841,-0.61603 -0.87149,-1.22215 -1.38797,-1.76797 -0.51566,-0.54463 -1.03649,-1.0841 -1.56803,-1.61286 -0.2868,-0.28561 -0.60017,-0.54463 -0.90282,-0.81398 -0.069,-0.061 -0.17137,-0.048 -0.20667,0.0238 -0.334,0.67752 -0.78542,1.27729 -1.25905,1.85841 -1.11465,1.36813 -2.2896,2.6823 -3.57482,3.89494 -0.29472,0.27806 -0.57635,0.57041 -0.85681,0.86315 -0.25307,0.26459 -0.47521,0.55535 -0.64181,0.8822 -0.35185,0.69101 -0.55971,1.43279 -0.73464,2.18329 -0.081,0.34788 -0.0186,0.68307 0.16859,0.99405 0.15748,0.26181 0.33836,0.50418 0.54265,0.73068 0.27132,0.30108 0.54106,0.60373 0.80644,0.90996 0.0651,0.0754 0.11589,0.16503 0.16341,0.25309 0.0559,0.10315 -0.003,0.24712 -0.11469,0.30622 -0.21103,0.11064 -0.21698,0.11664 -0.11424,0.28045 0.21658,0.34392 0.40898,0.69933 0.54979,1.08172 0.0441,0.11904 0.12173,0.20113 0.23641,0.263 0.32052,0.17414 0.63825,0.35304 0.95123,0.53987 0.34946,0.20904 0.66641,0.46054 0.94566,0.75844 0.2261,0.24118 0.38399,0.51845 0.47442,0.83738 0.0837,0.29472 0.12728,0.59302 0.13493,0.89885 0.025,0.95876 -0.0723,1.90284 -0.34075,2.82511 -0.0516,0.17732 -0.0229,0.31138 0.0969,0.44466 0.12218,0.13523 0.23325,0.28045 0.34867,0.42207 0.81993,1.00675 1.59264,2.04842 2.29713,3.13887 0.65968,1.02104 1.29712,2.05674 1.89253,3.11745 0.24832,0.4419 0.49068,0.88617 0.67672,1.359 0.015,0.0376 0.0301,0.0754 0.0477,0.11184 0.0531,0.11349 0.16343,0.14003 0.23205,0.0535 0.11304,-0.14288 0.2261,-0.28599 0.33241,-0.43395 0.49704,-0.6914 0.97462,-1.39589 1.38637,-2.14244 0.23603,-0.42841 0.57042,-0.72312 1.04088,-0.87545 0.32685,-0.10584 0.64419,-0.24236 0.96113,-0.37684 0.18565,-0.0789 0.36296,-0.1781 0.54106,-0.27409 0.0769,-0.0417 0.11154,-0.12459 0.10704,-0.20509 -0.012,-0.22253 -0.0294,-0.44506 -0.0567,-0.66602 -0.0699,-0.56287 -0.14363,-1.12535 -0.22096,-1.68704 -0.094,-0.68227 -0.18524,-1.36456 -0.32407,-2.04008 -0.0634,-0.30862 -0.19279,-0.57321 -0.39905,-0.80565 -0.2019,-0.2273 -0.40937,-0.45022 -0.60493,-0.68267 -0.43038,-0.51171 -0.86594,-1.01984 -1.27808,-1.54622 -0.22412,-0.28601 -0.41532,-0.59977 -0.60136,-0.91236 -0.23007,-0.38676 -0.37565,-0.80881 -0.4292,-1.25705 -0.0675,-0.56407 -0.0964,-1.12972 -0.054,-1.69895 0.0465,-0.62635 0.0841,-1.25309 0.15629,-1.87785 0.0789,-0.68425 0.14153,-1.37011 0.23403,-2.05317 0.17652,-1.30585 0.40183,-2.60257 0.68743,-3.88859 0.0262,-0.11903 0.0477,-0.2384 0.0567,-0.28401 z m -42.97908,14.9252 c -0.0547,0.38636 -0.008,0.74892 0.0448,1.11029 0.0175,0.11904 0.048,0.23959 0.0952,0.34986 0.13685,0.31814 0.32606,0.60493 0.5597,0.86157 0.0337,0.0369 0.12179,0.0282 0.16264,-0.0183 0.067,-0.0757 0.13328,-0.15192 0.19833,-0.22928 0.37803,-0.45022 0.74099,-0.91353 1.13528,-1.34868 1.26697,-1.39748 2.59741,-2.73228 4.00758,-3.98696 0.83302,-0.74098 1.66008,-1.48871 2.48635,-2.23724 0.17969,-0.16262 0.34471,-0.34152 0.51647,-0.51329 0.0345,-0.0345 0.0357,-0.0733 -0.003,-0.10629 -0.0615,-0.052 -0.12813,-0.0981 -0.18882,-0.15035 -0.0841,-0.0726 -0.17334,-0.0964 -0.27806,-0.0487 -0.0365,0.0166 -0.0754,0.0313 -0.11464,0.0405 -0.14875,0.0345 -0.29512,-0.0793 -0.28481,-0.2261 0.0405,-0.57637 0.25348,-1.06031 0.75765,-1.38161 0.1194,-0.0762 0.24752,-0.13808 0.37009,-0.20905 0.14439,-0.0834 0.14995,-0.12144 0.0409,-0.25943 -0.025,-0.0318 -0.0551,-0.0603 -0.0746,-0.0948 -0.0575,-0.1024 -0.0309,-0.26697 0.0571,-0.33441 0.0801,-0.061 0.16343,-0.11978 0.25109,-0.16818 0.19477,-0.10794 0.39628,-0.20429 0.59024,-0.31337 0.40619,-0.22848 0.80922,-0.46173 1.24476,-0.63269 0.11064,-0.0432 0.21222,-0.11739 0.30623,-0.19159 0.0424,-0.0337 0.0675,-0.10075 0.0798,-0.1567 0.012,-0.0576 0.006,-0.12174 -0.003,-0.18127 -0.0865,-0.58112 -0.16857,-1.16305 -0.26695,-1.74219 -0.0373,-0.21817 -0.10914,-0.43158 -0.17493,-0.6438 -0.0868,-0.28045 -0.25546,-0.50575 -0.49703,-0.67196 -0.20032,-0.13763 -0.40659,-0.26656 -0.61207,-0.39627 -0.44546,-0.28086 -0.89925,-0.5494 -1.33757,-0.84095 -1.57281,-1.04722 -2.85922,-2.38361 -3.92944,-3.93341 -0.32805,-0.47481 -0.30028,-0.50932 -0.5843,0.005 -0.11742,0.21262 -0.24514,0.42008 -0.38081,0.62159 -0.4522,0.67275 -0.90798,1.34312 -1.36733,2.01073 -0.0849,0.12339 -0.1301,0.24514 -0.11226,0.39588 0.0698,0.5835 0.12138,1.16938 0.20389,1.75091 0.20786,1.4673 0.2983,2.94331 0.35344,4.42211 0.008,0.22213 -0.0104,0.44547 -0.023,0.668 -0.0234,0.41253 -0.15272,0.79017 -0.36692,1.14519 -0.30345,0.50298 -0.59342,1.01429 -0.88696,1.52322 -0.66085,1.14599 -1.19279,2.34632 -1.5371,3.62638 -0.0106,0.0393 -0.0183,0.0789 -0.0302,0.11784 -0.23365,0.77906 -0.40223,1.57003 -0.40739,2.36774 z m 33.39784,-3.55815 c -0.003,0 -0.006,0 -0.009,0 0,0.16105 -0.009,0.32249 0.003,0.48274 0.006,0.0757 0.0357,0.15789 0.0786,0.22096 0.0678,0.0988 0.15389,0.18564 0.23601,0.27449 0.12533,0.13569 0.22927,0.28838 0.26458,0.46808 0.0651,0.33201 0.26815,0.58073 0.4653,0.83539 0.0412,0.0535 0.12579,0.0853 0.15033,0.0564 0.0253,-0.0301 0.0579,-0.0612 0.0666,-0.0968 0.0889,-0.37644 0.0793,-0.75923 0.0643,-1.14162 -0.009,-0.20627 -0.081,-0.39588 -0.17454,-0.57398 -0.23364,-0.44586 -0.60333,-0.74655 -1.05792,-0.94806 -0.0166,-0.007 -0.0813,0.0381 -0.0833,0.0619 -0.009,0.11934 -0.005,0.24039 -0.005,0.36058 z M 133.42108,89.241351 c -0.0135,0.226504 -0.0226,0.387552 -0.0337,0.5486 -0.007,0.100748 -0.0226,0.201107 -0.0231,0.301466 0,0.03088 0.0298,0.07691 0.0579,0.0892 0.0277,0.01199 0.0813,0.003 0.1051,-0.01739 0.39785,-0.34232 0.80246,-0.675135 1.24634,-0.957561 0.11904,-0.07571 0.23601,-0.155501 0.34748,-0.241572 0.0441,-0.03418 0.075,-0.0889 0.10315,-0.138829 0.019,-0.03403 -0.0901,-0.107045 -0.18604,-0.125786 -0.23721,-0.04648 -0.47322,-0.102398 -0.71243,-0.13718 -0.27726,-0.04093 -0.53908,-0.17691 -0.82943,-0.13688 -0.16462,0.280852 -0.0186,0.590654 -0.0754,0.815959 z"
       id="path831"
       style="display:inline;stroke-width:0.396672" />
  </g>
</svg>
