<?xml version="1.0" encoding="UTF-8" standalone="no"?>
<!-- Created with Inkscape (http://www.inkscape.org/) -->

<svg
   width="48.484356mm"
   height="75.753647mm"
   viewBox="0 0 48.484356 75.753647"
   version="1.1"
   id="svg5"
   inkscape:version="1.1 (c68e22c387, 2021-05-23)"
   sodipodi:docname="demon1.svg"
   xmlns:inkscape="http://www.inkscape.org/namespaces/inkscape"
   xmlns:sodipodi="http://sodipodi.sourceforge.net/DTD/sodipodi-0.dtd"
   xmlns="http://www.w3.org/2000/svg"
   xmlns:svg="http://www.w3.org/2000/svg">
  <sodipodi:namedview
     id="namedview7"
     pagecolor="#ffffff"
     bordercolor="#666666"
     borderopacity="1.0"
     inkscape:pageshadow="2"
     inkscape:pageopacity="0.0"
     inkscape:pagecheckerboard="0"
     inkscape:document-units="mm"
     showgrid="false"
     inkscape:object-nodes="false"
     inkscape:snap-nodes="false"
     inkscape:snap-others="false"
     inkscape:zoom="2"
     inkscape:cx="-144.25"
     inkscape:cy="158.25"
     inkscape:window-width="1920"
     inkscape:window-height="1017"
     inkscape:window-x="1912"
     inkscape:window-y="-8"
     inkscape:window-maximized="1"
     inkscape:current-layer="layer1" />
  <defs
     id="defs2" />
  <g
     inkscape:label="body"
     inkscape:groupmode="layer"
     id="layer1">
    <path
       style="fill:#000000;stroke:#ffffff;stroke-width:0.148228;stroke-miterlimit:4;stroke-dasharray:none;stroke-opacity:1"
       d="m 33.133087,60.071306 c 0.0242,-10e-4 0.88229,-0.17674 1.90688,-0.38961 3.99143,-0.82925 6.29831,-0.20277 7.85662,2.13364 1.1318,2.02196 0.49607,4.46232 -0.46479,5.87084 -1.28616,1.81256 -2.58532,2.63195 -4.23875,3.69794 -0.2137,0.1678 0.90282,1.05106 1.461,1.15577 0.40583,0.0761 0.99691,0.49017 1.66374,1.16538 0.6048,0.81396 0.16006,0.39267 0.31963,1.18134 -0.7862,-0.42956 -0.90528,-0.22438 -0.7495,0.5429 -0.36511,-0.11588 -0.87649,-0.2728 -0.68026,0.0939 0.28858,0.53924 0.18814,0.54964 -2.30888,-0.12148 l -1.2e-4,-2e-5 c -1.84296,-0.49534 -1.95665,-0.55629 -2.15704,-1.15654 -0.11634,-0.3485 -0.41008,-0.77265 -0.65275,-0.94256 -0.24267,-0.16992 -0.44121,-0.44072 -0.44121,-0.60179 0,-0.25243 -0.39933,-0.2748 -2.89238,-0.16208 -6.06216,0.27413 -10.22552,-1.26187 -11.72441,-4.32549 -0.97004,-1.49908 -1.32207,-2.99234 1.02219,0.25638 1.13835,1.49245 4.09228,2.23733 8.83577,2.22806 3.90549,-0.008 4.05608,-0.0442 3.90913,-0.94975 -0.20151,-1.24177 -0.77638,-2.07503 -2.09171,-3.03192 -1.51258,-1.10037 -2.26166,-1.75991 -2.37116,-2.08768 -0.044,-0.13174 -0.79733,-0.49316 -1.67404,-0.80316 -3.40508,-1.204 -4.21446,-1.89628 -5.98393,-5.11819 l -1.08166,-1.96953 -0.69093,0.53855 c -0.67096,0.52297 -0.89873,0.79618 -2.13013,2.55511 -0.32187,0.45976 -1.0278,1.15389 -1.56874,1.54252 l -0.98352,0.70659 c 0.0796,0.93259 0.15921,1.8652 0.23882,2.79779 -0.99508,1.18349 -2.48856,2.95696 -2.29019,4.29893 0.28805,1.69336 0.27524,1.73214 -0.73075,2.21319 -0.66577,0.31837 -0.93144,0.56066 -0.93144,0.84951 0,0.43016 -0.9911,0.69022 -1.7323303,0.94323 -1.127571,0.99565 -2.168298,0.88071 -1.709183,-0.0365 -1.328175,0.68198 -2.236885,0.61132 -1.825328,-0.0351 0.186289,-0.2926 0.204353,-0.25937 -0.259603,-0.0983 -0.465638,-0.001 -0.969811,-0.081 -1.120386,-0.17636 -0.42495,-0.26907 0.51519,-1.08937 2.142111,-1.86905 2.961699,-1.14221 3.8074693,-4.56806 2.867909,-7.48651 -0.43371,-1.24778 -0.53641,-2.23071 -0.23309,-2.23071 0.4879503,-0.47169 -0.1274164,-3.548895 1.0036403,-3.60672 l 0.17994,0.90344 0.55285,-0.43813 c 0.30407,-0.24097 0.98978,-0.97843 1.52378,-1.63879 1.36591,-1.68911 1.82228,-2.13566 3.68118,-3.60193 l 1.63984,-1.29348 -0.11935,-0.87076 c -0.15625,-1.13993 -1.07011,-2.82242 -1.68962,-3.11072 -1.17323,-0.54598 -5.09845,0.87595 -5.09845,1.84694 0,0.15779 0.26473,0.58839 0.58828,0.9569 0.64378,0.73321 0.69059,0.95004 0.38097,1.76443 -0.22343,0.84702 -0.34048,0.31148 -0.65014,-0.23236 -0.34851,-0.61204 -0.5436,-0.76602 -0.91605,-0.72299 -0.26028,0.0301 -0.55484,0.13626 -0.65459,0.236 -0.2121603,0.21216 0.35175,1.82099 0.79289,2.26213 0.33611,0.72525 -0.8619703,0.33769 -1.0958703,-0.22611 l -0.40642,-0.51668 v 1.31739 c 0,1.44273 -0.167547,1.56219 -0.870491,0.62067 -0.292351,-0.39157 -0.404122,-0.8366 -0.404122,-1.60901 0,-0.90224 -0.03802,-1.01578 -0.245118,-0.73251 -0.134814,0.18436 -0.245119,0.82373 -0.245119,1.42082 -0.09061,0.90538 0.349923,1.43552 -0.509846,0.57575 -0.828606,-0.8286 -0.603325,-2.74688 0.436577,-3.71745 0.655741,-0.61201 1.109542,-1.5189 1.620678,-3.23881 0.228201,-0.76786 0.580291,-1.60636 0.782431,-1.86334 0.2021303,-0.25697 0.6469703,-1.08356 0.9885403,-1.83685 0.45768,-1.00941 0.66674,-1.29562 0.79488,-1.08829 0.13738,0.22229 0.22504,0.169 0.41779,-0.25405 0.23619,-0.51837 0.19832,-0.57717 -1.1931,-1.85266 -1.3851903,-1.26978 -2.6520823,-1.95321 -3.6860053,-1.98843 -0.697589,-0.0238 -3.051263,1.25525 -3.727709,2.02567 -0.33613,0.38283 -0.669621,1.00777 -0.741093,1.38875 -0.206966,1.10322 -0.471205,0.99992 -0.354852,-0.13872 0.204946,-2.00559 0.466682,-3.1581 0.85406,-3.76066 0.865668,-1.34653 1.956676,-3.74435 2.168973,-4.76698 0.200429,-1.72596 0.402522,-4.0081 -0.44185,-5.30224 -0.292347,-0.44151 -0.859355,-1.05254 -1.260014,-1.35786 -0.632887,-0.48229 -0.901301,-0.55503 -2.04564,-0.55444 -0.82376403,-0.13526 -1.65508206,0.4678 -0.96198403,-0.49018 0.42931403,-0.59339 1.55570903,-1.65408 3.52456903,-3.31898 2.814366,-2.37987 4.31217,-4.30965 5.476265,-7.05566 l 0.7146603,-1.68592 -0.13087,-2.94141 c -0.11903,-2.6753294 -0.19366,-3.1225894 -0.8250403,-4.9443394 -0.772712,-2.22955 -1.2991,-3.03285 -2.738277,-4.17874 0.807768,-0.51858 3.5294073,2.51872 3.6147973,2.59164 1.38412,1.18732 4.66658,5.3746897 6.22089,7.9358794 1.01976,1.68034 1.20028,2.13 1.3996,3.48636 0.12587,0.85645 0.31682,1.783 0.42435,2.05898 0.10754,0.27599 0.52959,1.82542 0.93791,3.4432 0.40831,1.61777 0.81913,2.92877 0.91293,2.91331 0.3296,-0.0543 0.83996,-1.94645 0.86513,-3.20745 0.0473,-2.36956 0.43087,0.44722 0.49426,1.07851 0.10616,1.09062 0.0567,1.29473 -0.67719,2.79434 -0.43543,0.88978 -0.87069,1.61778 -0.96724,1.61778 -1.98037,1.18191 -3.26793,3.874 -3.78132,5.88282 -0.32401,1.32817 -0.33162,4.62828 -0.0114,4.94848 0.17379,0.1738 0.22944,-0.0974 0.23276,-1.13446 0.13065,-0.67554 -0.33964,-1.81072 0.38076,-0.87303 0.59093,0.76917 0.79438,1.87391 0.56931,3.09142 -0.10832,0.58595 -0.1521,1.1102 -0.0973,1.16501 0.78222,-0.25448 1.10334,-1.27916 1.20224,-1.91251 0.18536,-1.65835 0.1836,-0.93848 0.39643,0.20572 l 0.2371,1.27461 0.26533,-0.63731 c 0.32341,-0.77679 0.43293,-0.79066 0.77463,-0.0981 0.26481,0.53677 0.26656,0.53457 0.37895,-0.4782 0.49388,-2.51034 0.2728,-0.54443 0.72847,0.4845 l 0.33005,0.72906 0.12114,-1.38561 c 0.0868,-0.99305 0.24938,-1.56569 0.57377,-2.02125 0.71164,-1.0553 0.54539,-0.0479 0.40201,0.52012 -0.2302,0.8982 -0.21255,1.03358 0.27305,2.09428 0.28553,0.62369 0.51916,1.2722 0.51916,1.44112 0,0.22073 0.16812,0.14607 0.59756,-0.26537 0.46901,-0.44933 0.63313,-0.51494 0.76291,-0.30496 0.12772,0.20664 0.24405,0.14741 0.51118,-0.26026 0.22662,-0.34588 0.39394,-0.44994 0.48543,-0.30191 0.18136,0.29344 2.34917,-2.76533 2.34917,-3.31468 0,-0.26406 0.0943,-0.369 0.27077,-0.30129 0.39077,0.14995 0.67487,-0.82154 0.82583,-2.82406 0.19005,-2.52091 -0.35575,-4.61451 -1.69429,-6.49899 -0.19526,-0.27489 -0.54389,-1.18915 -0.77474,-2.03167 -0.34655,-1.26482 -0.38528,-1.69211 -0.22218,-2.45117 0.43951,-2.04557 0.55796,-2.0109 0.71136,0.20822 0.0801,1.1594 0.31322,2.03786 0.40363,2.03786 1.36641,-4.38341 2.00425,-6.62096 3.92816,-10.74863 0.35706,-1.1546 1.64847,-2.8815197 3.36353,-4.4978194 1.44203,-1.359 5.38786,-4.19122 8.15893,-5.85629 1.56568,-1.08931 6.89593,-3.11754993 3.27192,-0.97863 -1.12946,0.66296 -2.19052,1.47523 -2.80512,2.14738 -2.93698,3.21198 -3.64953,8.1531694 -2.02226,14.0232694 0.96788,3.49143 1.69695,4.8765 3.92235,7.45157 1.00803,0.31891 4.43241,6.11541 2.90523,4.8043 -0.31955,-0.48533 -0.84897,-1.13332 -1.17646,-1.43999 -0.59526,-0.55738 -0.59569,-0.55745 -1.30775,-0.21955 -0.39176,0.18591 -0.81453,0.52505 -0.93948,0.75366 -0.60079,3.27933 -0.26083,7.10319 0.12285,9.74647 0.2778,1.8964 0.71818,4.10246 0.97861,4.90235 0.65229,2.2699 0.49062,4.6976 0.15391,3.1756 -0.58617,-2.22435 -0.64323,-2.34043 -1.54698,-3.14697 -1.39341,-1.24354 -3.05656,-2.3185 -4.32381,-2.79466 -1.03777,-0.38993 -1.23838,-0.40442 -2.59541,-0.18747 -1.75923,0.28127 -3.3517,0.84668 -3.80957,1.35263 -0.31423,0.34722 -0.30866,0.45786 0.0977,1.94058 0.31864,1.16267 0.50264,1.54484 0.70616,1.46674 0.23219,-0.0891 0.26642,0.5731 0.21881,4.23245 -0.0561,4.31177 -0.0539,4.33807 0.36076,4.33789 1.07771,0.14595 1.347651,2.246119 1.302781,3.127049 10e-4,1.02671 -0.24463,0.39119 -0.6284,-0.17456 -0.67149,-0.98992 -0.90538,-1.0484 -0.90538,-0.22634 0,0.69373 -0.46138,1.57248 -1.00331,1.91092 -0.34218,0.2137 -0.36957,0.16204 -0.37235,-0.70244 -0.004,-1.47035 0.628283,-3.691078 -1.372991,-0.895722 -0.285103,0.359391 -0.427931,0.364918 -0.501562,-0.75812 0.08818,-0.701393 0.928502,-1.198577 0.327459,-1.799607 -0.58193,-0.58194 -0.80173,-0.59427 -1.62668,-0.0913 -0.65615,0.42393 -0.63731,0.47611 -0.63731,-0.29487 0,-0.79938 0.60072,-1.52599 1.10243,-1.33347 0.42485,0.16303 0.85851,-0.42639 0.85851,-1.16686 0,-0.41935 -0.28625,-0.86547 -1.10836,-1.72737 -1.0476,-1.0983 -1.15917,-1.162 -2.03498,-1.162 -1.14784,0 -1.41074,0.284 -1.5085,1.62966 -0.072,0.99186 -0.0396,1.06474 1.28165,2.8805 1.29183,1.77527 2.257623,3.078873 3.2717,4.694242 0.48043,0.7653 1.211093,2.369468 1.329243,2.362538 z m 6.530017,3.74089 c -0.41584,-0.34511 -2.11106,-0.79247 -3.01164,-0.79475 -1.03669,-0.003 -1.1699,0.26422 -0.74884,1.5 0.17258,0.50648 0.31432,1.28018 0.31499,1.71934 5.9e-4,0.43915 0.13623,1.05739 0.30125,1.37385 0.16503,0.31646 0.25304,0.69788 0.19559,0.84761 -0.0574,0.14972 -0.0132,0.44283 0.0984,0.65135 0.18724,0.34984 0.24624,0.35672 0.76399,0.089 1.54549,-0.90578 3.15733,-4.35761 2.08621,-5.38638 z m -20.8021,-21.97622 c -0.19581,-0.21636 -0.39855,-0.35086 -0.45052,-0.29888 -0.13176,0.13176 0.35732,0.69228 0.60406,0.69228 0.11136,0 0.0422,-0.17703 -0.15354,-0.3934 z m 2.21695,0.15808 c 0.3749,-0.3749 0.2725,-0.57561 -0.15687,-0.30746 -0.3962,0.24742 -0.52424,0.54278 -0.23532,0.54278 0.0863,0 0.26277,-0.1059 0.39219,-0.23532 z"
       id="path854"
       sodipodi:nodetypes="cscccscccsccssssccsssssscssscccssccscscccccssscssssccsscccssssccssssssssssssccsccsccssccsssscccsccsccsccccsscccsccsssssssssssssccsccssccssccccssssssscccsscccccsssssssacscscsscccsssssssss"
       inkscape:label="body" />
  </g>
</svg>
