<?xml version="1.0" encoding="UTF-8" standalone="no"?>
<svg
   width="23.91128mm"
   height="41.129208mm"
   viewBox="0 0 23.911279 41.129208"
   version="1.1"
   id="svg8"
   inkscape:version="1.1 (c68e22c387, 2021-05-23)"
   sodipodi:docname="Fungi2.svg"
   xmlns:inkscape="http://www.inkscape.org/namespaces/inkscape"
   xmlns:sodipodi="http://sodipodi.sourceforge.net/DTD/sodipodi-0.dtd"
   xmlns:xlink="http://www.w3.org/1999/xlink"
   xmlns="http://www.w3.org/2000/svg"
   xmlns:svg="http://www.w3.org/2000/svg"
   xmlns:rdf="http://www.w3.org/1999/02/22-rdf-syntax-ns#"
   xmlns:cc="http://creativecommons.org/ns#"
   xmlns:dc="http://purl.org/dc/elements/1.1/">
  <defs
     id="defs2">
    <linearGradient
       id="linearGradient3408"
       inkscape:swatch="solid">
      <stop
         style="stop-color:#ffffff;stop-opacity:1;"
         offset="0"
         id="stop3406" />
    </linearGradient>
    <linearGradient
       id="linearGradient2801"
       inkscape:swatch="solid">
      <stop
         style="stop-color:#c8e900;stop-opacity:1;"
         offset="0"
         id="stop2799" />
    </linearGradient>
    <linearGradient
       id="linearGradient2795"
       inkscape:swatch="solid">
      <stop
         style="stop-color:#c80000;stop-opacity:1;"
         offset="0"
         id="stop2793" />
    </linearGradient>
  </defs>
  <sodipodi:namedview
     inkscape:lockguides="false"
     height="104mm"
     id="base"
     pagecolor="#ffffff"
     bordercolor="#666666"
     borderopacity="1.0"
     inkscape:pageopacity="0.0"
     inkscape:pageshadow="2"
     inkscape:zoom="1"
     inkscape:cx="-291.5"
     inkscape:cy="-40.5"
     inkscape:document-units="mm"
     inkscape:current-layer="layer2"
     inkscape:document-rotation="0"
     showgrid="false"
     inkscape:window-width="1920"
     inkscape:window-height="1017"
     inkscape:window-x="-8"
     inkscape:window-y="-8"
     inkscape:window-maximized="1"
     inkscape:pagecheckerboard="0"
     inkscape:snap-nodes="false"
     inkscape:snap-others="false" />
  <metadata
     id="metadata5">
    <rdf:RDF>
      <cc:Work
         rdf:about="">
        <dc:format>image/svg+xml</dc:format>
        <dc:type
           rdf:resource="http://purl.org/dc/dcmitype/StillImage" />
      </cc:Work>
    </rdf:RDF>
  </metadata>
  <g
     transform="translate(7.7304765,-12.553743)"
     inkscape:label="Layer 1"
     inkscape:groupmode="layer"
     id="layer1"
     style="display:inline" />
  <g
     transform="translate(7.7304765,-12.553743)"
     inkscape:groupmode="layer"
     id="layer2"
     inkscape:label="Layer 2"
     style="display:inline">
    <use
       x="0"
       y="0"
       xlink:href="#path39345"
       id="use45210"
       width="100%"
       height="100%"
       transform="matrix(-1.1794697,0,0,0.81638431,0.25199991,7.0421028)" />
    <use
       x="0"
       y="0"
       xlink:href="#path39903"
       id="use45206"
       width="100%"
       height="100%"
       transform="matrix(-0.45153138,0,0,0.7290569,5.0670185,13.318805)" />
    <path
       id="path47730"
       style="opacity:1;stroke:#ffffff;stroke-width:1;stroke-linecap:round;stroke-linejoin:round;stroke-miterlimit:4;stroke-dasharray:none;paint-order:stroke fill markers;stop-color:#000000;stop-opacity:1"
       d="m 3.2333246,42.211713 c -0.353545,0.0022 -0.5832033,0.755355 -0.8594523,0.59725 -0.276249,-0.158104 3.385926,-11.432609 1.610587,-12.604943 -0.550202,-0.363323 -0.594824,-1.239686 -0.604012,-1.910003 -0.01838,-1.340634 1.108171,-2.44393 2.522115,-2.470061 1.413945,-0.02613 2.58499,1.034703 2.622172,2.406684 2.17e-4,0.686217 -0.862786,2.182318 -1.622928,2.313248 -0.970857,0.167224 -2.9613897,11.66347 -3.6684817,11.667825 z"
       sodipodi:nodetypes="ssssscss" />
    <path
       style="font-variation-settings:normal;opacity:1;vector-effect:none;fill:#000000;fill-opacity:1;stroke:#ffffff;stroke-width:0.804483;stroke-linecap:round;stroke-linejoin:round;stroke-miterlimit:4;stroke-dasharray:none;stroke-dashoffset:0;stroke-opacity:1;-inkscape-stroke:none;paint-order:stroke fill markers;stop-color:#000000;stop-opacity:1"
       d="M 0.40967627,52.259673 C -2.1140877,50.083332 -2.0303957,45.558925 -1.0603057,42.370701 c 0.87660597,-2.880986 4.212279,-4.31981 6.080382,-6.681739 1.590409,-2.010827 4.075573,-3.797898 4.343129,-6.347651 0.372083,-3.545864 -3.473641,-6.374867 -4.07586,-9.888972 -0.365401,-2.132214 -0.694227,-4.258301 0.334087,-6.481286 2.106752,1.842513 3.1810715,4.304652 3.4758944,6.627776 0.4960044,3.908381 3.6170263,7.511041 3.0722083,11.412917 -0.466945,3.344168 -3.2564847,5.933366 -5.2117547,8.686259 -1.208761,1.701856 -2.169119,1.456566 -4.009043,4.810852 -1.402342,2.55655 3.885744,5.59591 2.271791,7.750816 -0.961321,1.28353 -3.596419,1.047254 -4.81085203,0 z"
       id="path39903"
       sodipodi:nodetypes="aaaaacsaasaa" />
    <use
       x="0"
       y="0"
       xlink:href="#path39903"
       id="use45204"
       width="100%"
       height="100%"
       transform="matrix(-0.63173805,0.04957543,0.08321651,0.97101181,4.1604459,0.07107749)" />
    <use
       x="0"
       y="0"
       xlink:href="#path39345"
       id="use45208"
       width="100%"
       height="100%"
       transform="matrix(-0.73907062,-0.10737796,-0.12962531,0.89219676,14.440527,5.6295639)" />
    <path
       style="font-variation-settings:normal;opacity:1;fill:#000000;fill-opacity:1;stroke:#ffffff;stroke-width:0.4;stroke-linecap:round;stroke-linejoin:round;stroke-miterlimit:4;stroke-dasharray:none;stroke-dashoffset:0;stroke-opacity:1;paint-order:stroke fill markers;stop-color:#000000;stop-opacity:1"
       d="m -2.7910111,17.633039 c -1.0584642,2.896621 -3.2935288,5.363632 -3.9088173,8.385582 -1.2894233,6.332918 -1.0851803,13.156573 0.6681735,19.37704 0.8158101,2.894293 1.4834885,6.633718 4.4433568,7.851043 1.13122548,0.465247 3.3877669,0.102812 4.6103993,0.06682 1.3681866,-0.04028 1.8250787,-1.51552 0.9354429,-3.30746 -1.6794888,-3.382893 -5.1589863,-8.321731 -5.9801551,-13.029389 -0.7221246,-4.13985 1.09384188,-8.359381 1.06907798,-12.561667 -0.019714,-3.3453 0.427034,-9.074086 -0.96885208,-9.989199 -0.9262861,-0.607253 -0.4884814,2.166921 -0.868626,3.207234 z"
       id="path39345"
       sodipodi:nodetypes="aaacssaasa" />
  </g>
</svg>
