<?xml version="1.0" encoding="UTF-8" standalone="no"?>
<svg
   width="31.560978mm"
   height="54.537071mm"
   viewBox="0 0 31.560977 54.537071"
   version="1.1"
   id="svg8"
   inkscape:version="1.1 (c68e22c387, 2021-05-23)"
   sodipodi:docname="Fungi2.svg"
   xmlns:inkscape="http://www.inkscape.org/namespaces/inkscape"
   xmlns:sodipodi="http://sodipodi.sourceforge.net/DTD/sodipodi-0.dtd"
   xmlns:xlink="http://www.w3.org/1999/xlink"
   xmlns="http://www.w3.org/2000/svg"
   xmlns:svg="http://www.w3.org/2000/svg"
   xmlns:rdf="http://www.w3.org/1999/02/22-rdf-syntax-ns#"
   xmlns:cc="http://creativecommons.org/ns#"
   xmlns:dc="http://purl.org/dc/elements/1.1/">
  <defs
     id="defs2">
    <linearGradient
       inkscape:collect="always"
       id="linearGradient2666-4">
      <stop
         style="stop-color:#1e7bc5;stop-opacity:1"
         offset="0"
         id="stop3017" />
      <stop
         style="stop-color:#1a1452;stop-opacity:1"
         offset="1"
         id="stop3019" />
    </linearGradient>
    <linearGradient
       inkscape:collect="always"
       id="linearGradient2666">
      <stop
         style="stop-color:#801ec5;stop-opacity:1"
         offset="0"
         id="stop2772" />
      <stop
         style="stop-color:#1a1452;stop-opacity:1"
         offset="1"
         id="stop2774" />
    </linearGradient>
    <linearGradient
       inkscape:collect="always"
       id="linearGradient2666-4-4-5-0">
      <stop
         style="stop-color:#301ec5;stop-opacity:1"
         offset="0"
         id="stop2662" />
      <stop
         style="stop-color:#100a46;stop-opacity:1"
         offset="1"
         id="stop2664" />
    </linearGradient>
    <linearGradient
       id="linearGradient3408"
       inkscape:swatch="solid">
      <stop
         style="stop-color:#ffffff;stop-opacity:1;"
         offset="0"
         id="stop3406" />
    </linearGradient>
    <linearGradient
       id="linearGradient2801"
       inkscape:swatch="solid">
      <stop
         style="stop-color:#c8e900;stop-opacity:1;"
         offset="0"
         id="stop2799" />
    </linearGradient>
    <linearGradient
       id="linearGradient2795"
       inkscape:swatch="solid">
      <stop
         style="stop-color:#c80000;stop-opacity:1;"
         offset="0"
         id="stop2793" />
    </linearGradient>
    <radialGradient
       inkscape:collect="always"
       xlink:href="#linearGradient2666-4-4-5-0"
       id="radialGradient2668"
       cx="-0.63239467"
       cy="33.639462"
       fx="-0.63239467"
       fy="33.639462"
       r="5.9728637"
       gradientTransform="matrix(0.53503127,-0.0538464,0.23773658,2.3622101,-9.2163692,-45.718939)"
       gradientUnits="userSpaceOnUse" />
    <radialGradient
       inkscape:collect="always"
       xlink:href="#linearGradient2666"
       id="radialGradient2807"
       gradientUnits="userSpaceOnUse"
       gradientTransform="matrix(1.2138937,-0.04011325,0.07384358,2.2346297,-4.0739375,-41.86202)"
       cx="4.9515624"
       cy="33.132477"
       fx="4.9515624"
       fy="33.132477"
       r="3.583024" />
    <radialGradient
       inkscape:collect="always"
       xlink:href="#linearGradient2666-4"
       id="radialGradient3015"
       cx="4.4783678"
       cy="32.572021"
       fx="4.4783678"
       fy="32.572021"
       r="6.9610114"
       gradientTransform="matrix(1,0,0,2.8849902,0,-62.305527)"
       gradientUnits="userSpaceOnUse" />
  </defs>
  <sodipodi:namedview
     inkscape:lockguides="false"
     height="104mm"
     id="base"
     pagecolor="#ffffff"
     bordercolor="#666666"
     borderopacity="1.0"
     inkscape:pageopacity="0.0"
     inkscape:pageshadow="2"
     inkscape:zoom="4"
     inkscape:cx="80.625"
     inkscape:cy="125.625"
     inkscape:document-units="mm"
     inkscape:current-layer="layer2"
     inkscape:document-rotation="0"
     showgrid="false"
     inkscape:window-width="1920"
     inkscape:window-height="1017"
     inkscape:window-x="1912"
     inkscape:window-y="-8"
     inkscape:window-maximized="1"
     inkscape:pagecheckerboard="0"
     inkscape:snap-nodes="false"
     inkscape:snap-others="false"
     fit-margin-top="10"
     fit-margin-left="4"
     fit-margin-right="4"
     fit-margin-bottom="4" />
  <metadata
     id="metadata5">
    <rdf:RDF>
      <cc:Work
         rdf:about="">
        <dc:format>image/svg+xml</dc:format>
        <dc:type
           rdf:resource="http://purl.org/dc/dcmitype/StillImage" />
      </cc:Work>
    </rdf:RDF>
  </metadata>
  <g
     transform="translate(11.530254,-2.9448081)"
     inkscape:label="Layer 1"
     inkscape:groupmode="layer"
     id="layer1"
     style="display:inline" />
  <g
     transform="translate(11.530254,-2.9448081)"
     inkscape:groupmode="layer"
     id="layer2"
     inkscape:label="Layer 2"
     style="display:inline">
    <use
       x="0"
       y="0"
       xlink:href="#path39345"
       id="use45210"
       width="100%"
       height="100%"
       transform="matrix(-1.1794697,0,0,0.81638431,0.91345824,6.9098111)" />
    <use
       x="0"
       y="0"
       xlink:href="#path39903"
       id="use45206"
       width="100%"
       height="100%"
       transform="matrix(-0.45153138,0,0,0.7290569,5.0670185,13.318805)" />
    <use
       x="0"
       y="0"
       xlink:href="#path39903"
       id="use45204"
       width="100%"
       height="100%"
       transform="matrix(-0.63173805,0.04957543,0.08321651,0.97101181,4.1604459,0.07107749)" />
    <path
       id="path47730"
       style="opacity:1;fill:url(#radialGradient2807);fill-opacity:1;stroke:none;stroke-width:1.20251;stroke-linecap:round;stroke-linejoin:round;stroke-miterlimit:4;stroke-dasharray:none;paint-order:stroke fill markers;stop-color:#000000;stop-opacity:1"
       d="m 2.296457,44.938007 c -0.4294002,0.0026 -0.7083332,0.899306 -1.0438531,0.71107 -0.33551997,-0.188234 4.1123976,-13.611366 1.9561485,-15.007116 -0.6682513,-0.432563 -0.7224472,-1.475938 -0.7336066,-2.274 -0.022324,-1.596123 1.3459361,-2.909679 3.0632506,-2.94079 1.7173157,-0.03111 3.1396158,1.231891 3.1847754,2.865335 2.635e-4,0.816992 -1.0479021,2.598211 -1.9711374,2.754093 C 5.572874,31.245692 3.1552601,44.932822 2.296457,44.938007 Z"
       sodipodi:nodetypes="ssssscss" />
    <path
       style="font-variation-settings:normal;opacity:1;vector-effect:none;fill:url(#radialGradient3015);fill-opacity:1;stroke:none;stroke-width:0.804483;stroke-linecap:round;stroke-linejoin:round;stroke-miterlimit:4;stroke-dasharray:none;stroke-dashoffset:0;stroke-opacity:1;-inkscape-stroke:none;paint-order:stroke fill markers;stop-color:#000000;stop-opacity:1"
       d="M 0.40967627,52.259673 C -2.1140877,50.083332 -2.0303957,45.558925 -1.0603057,42.370701 c 0.87660597,-2.880986 4.212279,-4.31981 6.080382,-6.681739 1.590409,-2.010827 4.075573,-3.797898 4.343129,-6.347651 0.372083,-3.545864 -3.473641,-6.374867 -4.07586,-9.888972 -0.365401,-2.132214 -0.694227,-4.258301 0.334087,-6.481286 2.106752,1.842513 3.1810715,4.304652 3.4758944,6.627776 0.4960044,3.908381 3.6170263,7.511041 3.0722083,11.412917 -0.466945,3.344168 -3.2564847,5.933366 -5.2117547,8.686259 -1.208761,1.701856 -2.169119,1.456566 -4.009043,4.810852 -1.402342,2.55655 3.885744,5.59591 2.271791,7.750816 -0.961321,1.28353 -3.596419,1.047254 -4.81085203,0 z"
       id="path39903"
       sodipodi:nodetypes="aaaaacsaasaa" />
    <use
       x="0"
       y="0"
       xlink:href="#path39345"
       id="use45208"
       width="100%"
       height="100%"
       transform="matrix(-0.81080735,-0.10737796,-0.14220719,0.89219676,14.286177,5.6295639)" />
    <path
       style="font-variation-settings:normal;opacity:1;fill:url(#radialGradient2668);fill-opacity:1;stroke:none;stroke-width:0.4;stroke-linecap:round;stroke-linejoin:round;stroke-miterlimit:4;stroke-dasharray:none;stroke-dashoffset:0;stroke-opacity:1;paint-order:stroke fill markers;stop-color:#000000;stop-opacity:1"
       d="m -2.7910111,17.633039 c -1.0584642,2.896621 -3.2935288,5.363632 -3.9088173,8.385582 -1.2894233,6.332918 -1.0851803,13.156573 0.6681735,19.37704 0.8158101,2.894293 1.4834885,6.633718 4.4433568,7.851043 1.13122548,0.465247 3.3877669,0.102812 4.6103993,0.06682 1.3681866,-0.04028 1.8250787,-1.51552 0.9354429,-3.30746 -1.6794888,-3.382893 -5.1589863,-8.321731 -5.9801551,-13.029389 -0.7221246,-4.13985 1.09384188,-8.359381 1.06907798,-12.561667 -0.019714,-3.3453 0.427034,-9.074086 -0.96885208,-9.989199 -0.9262861,-0.607253 -0.4884814,2.166921 -0.868626,3.207234 z"
       id="path39345"
       sodipodi:nodetypes="aaacssaasa" />
  </g>
</svg>
