<?xml version="1.0" encoding="UTF-8" standalone="no"?>
<!-- Created with Inkscape (http://www.inkscape.org/) -->

<svg
   width="144.39928mm"
   height="140.54454mm"
   viewBox="0 0 144.39928 140.54454"
   version="1.1"
   id="svg5"
   inkscape:version="1.1 (c68e22c387, 2021-05-23)"
   sodipodi:docname="Grin1.svg"
   xmlns:inkscape="http://www.inkscape.org/namespaces/inkscape"
   xmlns:sodipodi="http://sodipodi.sourceforge.net/DTD/sodipodi-0.dtd"
   xmlns:xlink="http://www.w3.org/1999/xlink"
   xmlns="http://www.w3.org/2000/svg"
   xmlns:svg="http://www.w3.org/2000/svg">
  <sodipodi:namedview
     id="namedview7"
     pagecolor="#ffffff"
     bordercolor="#666666"
     borderopacity="1.0"
     inkscape:pageshadow="2"
     inkscape:pageopacity="0.0"
     inkscape:pagecheckerboard="0"
     inkscape:document-units="mm"
     showgrid="false"
     inkscape:zoom="1.8973437"
     inkscape:cx="261.94516"
     inkscape:cy="512.5587"
     inkscape:window-width="1920"
     inkscape:window-height="1017"
     inkscape:window-x="1912"
     inkscape:window-y="-8"
     inkscape:window-maximized="1"
     inkscape:current-layer="layer2"
     inkscape:snap-global="false"
     fit-margin-top="20"
     fit-margin-left="10"
     fit-margin-right="10"
     fit-margin-bottom="20" />
  <defs
     id="defs2">
    <linearGradient
       inkscape:collect="always"
       id="linearGradient1164">
      <stop
         style="stop-color:#d32921;stop-opacity:1"
         offset="0"
         id="stop1160" />
      <stop
         style="stop-color:#ba413b;stop-opacity:0.77647054"
         offset="1"
         id="stop1162" />
    </linearGradient>
    <linearGradient
       inkscape:collect="always"
       id="linearGradient1854">
      <stop
         style="stop-color:#d32921;stop-opacity:1"
         offset="0"
         id="stop1926" />
      <stop
         style="stop-color:#d42921;stop-opacity:0.77506113"
         offset="1"
         id="stop1928" />
    </linearGradient>
    <radialGradient
       inkscape:collect="always"
       xlink:href="#linearGradient1164"
       id="radialGradient1856"
       cx="59.508106"
       cy="114.93935"
       fx="59.508106"
       fy="114.93935"
       r="20.930246"
       gradientTransform="matrix(0.84877392,0.29873657,-0.49159391,1.3967225,66.987935,-62.24049)"
       gradientUnits="userSpaceOnUse" />
    <radialGradient
       inkscape:collect="always"
       xlink:href="#linearGradient1854"
       id="radialGradient1894"
       cx="59.508102"
       cy="114.93934"
       fx="59.508102"
       fy="114.93934"
       r="20.930246"
       gradientTransform="matrix(0.84877402,0.29873643,-0.49159374,1.3967229,66.987909,-62.240516)"
       gradientUnits="userSpaceOnUse" />
    <radialGradient
       inkscape:collect="always"
       xlink:href="#linearGradient1164"
       id="radialGradient1048"
       cx="100.19177"
       cy="187.05809"
       fx="100.19177"
       fy="187.05809"
       r="46.283234"
       gradientTransform="matrix(0.99233748,0.37473964,-0.21677239,0.41730667,39.179442,68.309687)"
       gradientUnits="userSpaceOnUse" />
  </defs>
  <g
     inkscape:groupmode="layer"
     id="layer2"
     inkscape:label="Layer 2"
     transform="translate(-27.237827,-73.680613)">
    <rect
       style="font-variation-settings:normal;display:none;opacity:1;vector-effect:none;fill:#000000;fill-opacity:1;fill-rule:evenodd;stroke:#5ea230;stroke-width:0.264583;stroke-linecap:butt;stroke-linejoin:miter;stroke-miterlimit:4;stroke-dasharray:none;stroke-dashoffset:0;stroke-opacity:0.766129;-inkscape-stroke:none;stop-color:#000000;stop-opacity:1"
       id="rect939"
       width="210.22708"
       height="272.94025"
       x="1.1832669"
       y="6.3107572"
       sodipodi:insensitive="true" />
    <path
       style="font-variation-settings:normal;opacity:1;fill:url(#radialGradient1048);fill-opacity:1;stroke:#d32921;stroke-width:2;stroke-linecap:butt;stroke-linejoin:miter;stroke-miterlimit:4;stroke-dasharray:none;stroke-dashoffset:0;stroke-opacity:1;stop-color:#000000;stop-opacity:1"
       d="m 79.431371,162.71395 c 0,0 13.500101,7.34073 20.808039,7.28312 7.02969,-0.0555 20.57688,-8.12914 20.57688,-8.12914 0,0 0.75594,6.00523 2.07666,12.85936 1.06857,5.5456 5.08548,-16.1616 5.08548,-16.1616 0,0 17.1919,-2.92836 23.11586,-7.88372 11.21446,-9.3808 -20.80426,37.84181 -20.80426,37.84181 0,0 -2.58809,-18.99885 -3.23623,-14.19067 -0.70419,5.22394 -3.69854,14.19067 -3.69854,14.19067 0,0 -12.48473,5.26811 -24.5028,5.51861 -11.571084,0.24118 -22.653537,-4.73023 -22.653537,-4.73023 0,0 -2.4099,-10.44333 -2.773902,-15.76743 -0.39066,-5.71401 -5.085488,14.58487 -5.085488,14.58487 0,0 -37.338077,-44.62855 -24.965121,-35.4767 7.259377,5.36952 27.739023,6.70116 27.739023,6.70116 0,0 5.691895,20.1429 6.75888,14.97905 1.689702,-8.17759 1.559056,-11.61916 1.559056,-11.61916 z"
       id="path1040"
       sodipodi:nodetypes="cscscscscscscscsc" />
  </g>
  <g
     inkscape:label="Layer 1"
     inkscape:groupmode="layer"
     id="layer1"
     transform="translate(-27.237827,-73.680613)">
    <g
       id="g2124"
       transform="rotate(5.9003554,59.969568,112.06362)">
      <path
         style="font-variation-settings:normal;opacity:1;fill:url(#radialGradient1856);fill-opacity:1;stroke:url(#radialGradient1894);stroke-width:5;stroke-linecap:butt;stroke-linejoin:miter;stroke-miterlimit:4;stroke-dasharray:none;stroke-dashoffset:0;stroke-opacity:0.766129;stop-color:#000000;stop-opacity:1"
         d="m 41.01992,101.76096 c 4.812302,-11.845264 26.342242,2.99518 38.653386,14.98805 5.307362,5.17015 -16.145323,11.72616 -25.63745,9.46613 -8.282871,-1.97211 -18.686823,-10.49556 -13.015936,-24.45418 z"
         id="path857"
         sodipodi:nodetypes="ssss" />
    </g>
    <use
       x="0"
       y="0"
       xlink:href="#g2124"
       id="use2137"
       width="100%"
       height="100%"
       transform="matrix(-1,0,0,1,198.87493,0.78884462)" />
  </g>
</svg>
