<?xml version="1.0" encoding="UTF-8" standalone="no"?>
<!-- Created with Inkscape (http://www.inkscape.org/) -->

<svg
   width="432.39639"
   height="497.76376"
   viewBox="0 0 114.40488 131.7"
   version="1.1"
   id="svg1024"
   inkscape:version="1.1 (c68e22c387, 2021-05-23)"
   sodipodi:docname="Imp1.svg"
   xmlns:inkscape="http://www.inkscape.org/namespaces/inkscape"
   xmlns:sodipodi="http://sodipodi.sourceforge.net/DTD/sodipodi-0.dtd"
   xmlns="http://www.w3.org/2000/svg"
   xmlns:svg="http://www.w3.org/2000/svg">
  <sodipodi:namedview
     id="namedview1026"
     pagecolor="#ffffff"
     bordercolor="#666666"
     borderopacity="1.0"
     inkscape:pageshadow="2"
     inkscape:pageopacity="0.0"
     inkscape:pagecheckerboard="0"
     inkscape:document-units="mm"
     showgrid="false"
     fit-margin-top="10"
     fit-margin-left="10"
     fit-margin-right="10"
     fit-margin-bottom="10"
     inkscape:zoom="0.67081229"
     inkscape:cx="312.30793"
     inkscape:cy="26.087775"
     inkscape:window-width="1920"
     inkscape:window-height="1017"
     inkscape:window-x="1912"
     inkscape:window-y="-8"
     inkscape:window-maximized="1"
     inkscape:current-layer="layer1"
     units="px" />
  <defs
     id="defs1021" />
  <g
     inkscape:label="Layer 1"
     inkscape:groupmode="layer"
     id="layer1"
     transform="translate(-22.288856,-141.41835)">
    <path
       d="m 81.240289,151.41835 c 0.122825,0 0.245285,0 0.368109,0 0.05632,0.0607 0.132274,0.0727 0.208219,0.0828 0.627203,0.0839 1.226062,0.26998 1.810021,0.50691 0.583233,0.23656 1.144299,0.51818 1.689013,0.8336 1.323085,0.76566 2.498272,1.71954 3.563716,2.81078 0.170791,0.17515 0.331043,0.36303 0.477125,0.55889 0.118458,0.15844 0.217304,0.33359 0.309604,0.50947 0.138813,0.26455 0.178785,0.5498 0.153348,0.84777 -0.02108,0.24674 -0.08213,0.48294 -0.163522,0.71479 -0.17915,0.51091 -0.436062,0.98005 -0.774011,1.4023 -0.475308,0.59413 -1.050909,1.07053 -1.722445,1.42919 -0.0665,0.0356 -0.140266,0.0589 -0.212943,0.081 -0.08903,0.0272 -0.195502,-0.0596 -0.182783,-0.14899 0.01058,-0.0748 0.02108,-0.15226 0.04906,-0.22165 0.08613,-0.21295 0.180239,-0.42262 0.272176,-0.63339 0.09194,-0.21076 0.189686,-0.41897 0.275808,-0.63192 0.0516,-0.12718 0.09229,-0.25983 0.126465,-0.39319 0.02689,-0.10616 0.01671,-0.21439 -0.04252,-0.31105 -0.05597,-0.0912 -0.107923,-0.18678 -0.176604,-0.26782 -0.128635,-0.1519 -0.262001,-0.30089 -0.404448,-0.4397 -0.517097,-0.50328 -1.067988,-0.96806 -1.656672,-1.38558 -0.236926,-0.16788 -0.487663,-0.31869 -0.742032,-0.45932 -0.360842,-0.19986 -0.364839,-0.19296 -0.56034,0.15008 -0.06068,0.10644 -0.119186,0.2144 -0.180602,0.32051 -0.399723,0.69151 -0.859042,1.34198 -1.355062,1.96736 -0.342672,0.43206 -0.766379,0.74203 -1.2882,0.9259 -0.44769,0.15771 -0.889567,0.33251 -1.33435,0.49893 -0.889929,0.33323 -1.772228,0.68571 -2.628363,1.09924 -0.192957,0.0934 -0.384461,0.19042 -0.572694,0.29289 -0.368473,0.20058 -0.682074,0.46732 -0.938261,0.79981 -0.112291,0.14572 -0.227841,0.28926 -0.33286,0.44043 -0.332498,0.47821 -0.65482,0.96369 -0.993495,1.43755 -0.133002,0.18604 -0.188233,0.36338 -0.139902,0.59558 0.06542,0.31397 0.08903,0.63665 0.131903,0.9557 0.004,0.0302 0.01526,0.0589 0.02253,0.0887 0.0087,0.036 0.07703,0.0764 0.109008,0.06 0.14935,-0.076 0.301972,-0.14718 0.446236,-0.2322 0.514917,-0.30343 1.022202,-0.62067 1.541116,-0.91646 1.291834,-0.73658 2.610558,-1.42192 3.955444,-2.05676 0.18024,-0.085 0.357935,-0.17515 0.539628,-0.25618 0.05414,-0.0243 0.11773,-0.0309 0.178059,-0.0375 0.09012,-0.01 0.177695,0.10864 0.138085,0.18823 -0.04069,0.0817 -0.08286,0.16425 -0.136271,0.23766 -0.208219,0.28597 -0.450597,0.54144 -0.711507,0.78018 -0.576691,0.528 -1.1552,1.05418 -1.727895,1.58654 -0.471674,0.43825 -0.936806,0.88376 -1.40303,1.32781 -0.07703,0.0733 -0.145717,0.15589 -0.212216,0.2391 -0.0095,0.011 0.01016,0.0702 0.02362,0.0731 0.148624,0.0324 0.298338,0.0603 0.44878,0.085 0.302336,0.0495 0.607579,0.0846 0.907373,0.14535 1.637411,0.33214 3.256292,0.74058 4.858456,1.21334 0.367381,0.10823 0.733311,0.2213 1.098512,0.33686 0.226388,0.0716 0.452414,0.0793 0.67844,0.01 0.219484,-0.0676 0.436788,-0.14136 0.654819,-0.21332 0.203496,-0.0672 0.405538,-0.13881 0.60976,-0.20313 0.209674,-0.0661 0.419346,-0.0607 0.635198,-0.0137 0.331407,0.0733 0.646462,0.1926 0.957155,0.32196 1.417565,0.5894 2.776261,1.29619 4.094621,2.08146 0.597043,0.35576 1.112322,0.81399 1.601438,1.30311 0.268178,0.26817 0.439696,0.58759 0.490569,0.96623 0.02035,0.15154 0.04142,0.3038 0.04906,0.45641 0.01636,0.3216 0.03016,0.64356 0.03197,0.96515 7.27e-4,0.1519 0.04361,0.26528 0.174061,0.34958 0.192958,0.1247 0.378647,0.26128 0.571968,0.38556 0.541443,0.34812 1.087611,0.68933 1.627601,1.03964 0.269995,0.17515 0.537447,0.35503 0.793996,0.54871 1.302372,0.98404 2.451395,2.13052 3.535369,3.34569 0.0204,0.0229 0.0396,0.0468 0.0596,0.0698 0.44588,0.51528 0.79109,1.09015 1.02766,1.73007 0.0741,0.20132 0.15189,0.40118 0.23002,0.60104 0.0836,0.21367 0.12137,0.2213 0.26018,0.0596 0.10974,-0.12786 0.21731,-0.25836 0.33286,-0.38046 0.22385,-0.23619 0.48367,-0.42479 0.78273,-0.55488 0.36811,-0.16062 0.75294,-0.26019 1.15448,-0.28636 0.39863,-0.0258 0.79763,-0.0179 1.19444,0.0251 0.33505,0.0364 0.66863,0.0879 1.00295,0.13088 0.10646,0.0137 0.21367,0.0207 0.3205,0.0313 0.22058,0.0218 0.42589,-0.0294 0.62103,-0.13007 0.27399,-0.14098 0.52945,-0.31105 0.76202,-0.51199 0.28998,-0.25038 0.57923,-0.50257 0.85322,-0.77003 0.81181,-0.79253 1.61634,-1.59272 2.42233,-2.3907 0.0429,-0.0426 0.0799,-0.0927 0.11046,-0.14462 0.0106,-0.0179 0.002,-0.0691 -0.0135,-0.0766 -0.16243,-0.0854 -0.32886,-0.16279 -0.49239,-0.24674 -0.18423,-0.0945 -0.31832,-0.24019 -0.39826,-0.42989 -0.0534,-0.12649 -0.0981,-0.25764 -0.13555,-0.3899 -0.12174,-0.42807 -0.20095,-0.86559 -0.26527,-1.30529 -0.0665,-0.45496 -0.12536,-0.91064 -0.18387,-1.36668 -0.0185,-0.14245 -0.0669,-0.27036 -0.17225,-0.36629 -0.15771,-0.14391 -0.32414,-0.27837 -0.48693,-0.41645 -0.0298,-0.025 -0.0934,0.005 -0.1083,0.0508 -0.0327,0.10178 -0.0574,0.20677 -0.0963,0.30598 -0.0847,0.21586 -0.0636,0.41535 0.0534,0.61594 0.12318,0.21149 0.23293,0.43133 0.34376,0.64973 0.0629,0.12361 0.0996,0.25582 0.10901,0.39609 0.032,0.47167 -0.11737,0.71332 -0.56143,0.88484 -0.1141,0.0439 -0.23184,0.0854 -0.35175,0.10465 -0.1628,0.0261 -0.23584,0.12471 -0.27363,0.26963 -0.0153,0.0592 -0.0273,0.12141 -0.0552,0.1748 -0.0502,0.0956 -0.11592,0.17878 -0.21913,0.22748 -0.0789,0.0375 -0.20276,0.008 -0.23874,-0.0702 -0.0254,-0.0549 -0.0498,-0.11221 -0.0625,-0.17079 -0.0589,-0.26927 -0.10502,-0.5418 -0.17188,-0.80889 -0.0898,-0.36048 -0.11846,-0.72423 -0.1072,-1.09379 0.006,-0.19914 0.003,-0.39864 -0.003,-0.59777 -0.004,-0.13773 -0.013,-0.27581 -0.0327,-0.41209 -0.0872,-0.60684 -0.19695,-1.20969 -0.33867,-1.80638 -0.0462,-0.19368 -0.0978,-0.38627 -0.14245,-0.58032 -0.0302,-0.13226 0.0174,-0.24855 0.1181,-0.32887 0.10684,-0.0857 0.22639,-0.15625 0.34558,-0.2253 0.30488,-0.17696 0.61376,-0.34703 0.91791,-0.52473 0.23802,-0.13916 0.46913,-0.28852 0.75511,-0.31941 0.0454,-0.006 0.0869,-0.0775 0.12356,-0.12389 0.0229,-0.0294 -0.008,-0.10245 -0.0418,-0.1144 -0.11556,-0.0406 -0.23293,-0.0764 -0.34557,-0.1232 -0.0985,-0.0411 -0.18715,-0.1166 -0.28853,-0.13735 -0.12645,-0.0262 -0.22348,0.0814 -0.33395,0.12978 -0.0701,0.0305 -0.141,0.0618 -0.21476,0.0814 -0.0581,0.0152 -0.12065,0.0161 -0.18133,0.0181 -0.0716,0.003 -0.16752,-0.0603 -0.1817,-0.1177 -0.0153,-0.0629 0.002,-0.12251 0.0385,-0.17262 0.0447,-0.0618 0.0945,-0.12058 0.14608,-0.1766 0.12464,-0.13556 0.2511,-0.26891 0.37756,-0.40262 0.27581,-0.29182 0.50946,-0.61522 0.67662,-0.97969 0.11265,-0.24565 0.27726,-0.43788 0.48875,-0.59742 0.0734,-0.0552 0.1439,-0.11481 0.21731,-0.17005 0.41862,-0.3147 0.79472,-0.67372 1.12976,-1.07636 0.10792,-0.12965 0.21876,-0.25654 0.33032,-0.38336 0.0607,-0.0691 0.12172,-0.13808 0.18896,-0.20059 0.15516,-0.14463 0.33431,-0.20641 0.54871,-0.15952 0.29906,0.0658 0.59995,0.12388 0.90047,0.18459 0.10501,0.0214 0.2133,0.0316 0.31541,0.0622 0.13736,0.0411 0.2402,0.12759 0.2998,0.26454 0.0498,0.11413 0.0749,0.23257 0.0909,0.35467 0.077,0.5934 0.19804,1.1781 0.35902,1.75478 0.1072,0.38374 0.21585,0.76712 0.36557,1.13703 0.0458,0.11304 0.0872,0.2293 0.17842,0.31761 0.0272,0.0265 0.0589,0.0331 0.0788,0.007 0.0465,-0.0592 0.0952,-0.11921 0.13046,-0.18533 0.34013,-0.63483 0.67808,-1.27076 1.0153,-1.90741 0.0429,-0.081 0.0789,-0.16606 0.11556,-0.25036 0.0443,-0.10218 0.0509,-0.20968 0.0192,-0.31506 -0.053,-0.17588 -0.11229,-0.34993 -0.17115,-0.524 -0.20423,-0.60394 -0.28817,-1.22098 -0.20459,-1.8569 0.0119,-0.0912 0.0196,-0.18314 0.0225,-0.27471 0.004,-0.13295 -0.0523,-0.24238 -0.16534,-0.30851 -0.11846,-0.0691 -0.24529,-0.1243 -0.37066,-0.17988 -0.15407,-0.0683 -0.31469,-0.12278 -0.46549,-0.19696 -0.52945,-0.26127 -0.79073,-0.70243 -0.8376,-1.28057 -0.006,-0.0764 -0.007,-0.15334 -0.002,-0.22966 0.007,-0.11482 -0.0313,-0.2064 -0.11229,-0.28816 -0.14063,-0.14135 -0.27981,-0.28672 -0.3583,-0.47386 -0.0291,-0.0687 -0.0447,-0.14535 -0.0523,-0.21984 -0.009,-0.0857 0.11592,-0.17842 0.19114,-0.14754 0.0563,0.0229 0.11411,0.0457 0.16462,0.0788 0.15335,0.10136 0.30488,0.20604 0.45423,0.31323 0.46404,0.33324 0.96515,0.59378 1.5055,0.77838 0.10139,0.0349 0.20314,0.0691 0.30234,0.11015 0.12718,0.0527 0.25001,0.1166 0.37828,0.16679 0.31615,0.12388 0.48476,0.36048 0.53999,0.68789 0.0229,0.13597 0.0407,0.27327 0.0712,0.40736 0.23475,1.03019 0.44733,2.06693 0.80998,3.06261 0.11011,0.30197 0.11883,0.59812 0.0229,0.9001 -0.0603,0.18968 -0.11956,0.38009 -0.19041,0.56579 -0.11519,0.30052 -0.24493,0.59522 -0.35903,0.89574 -0.14681,0.38664 -0.28271,0.77728 -0.42589,1.16502 -0.12463,0.33794 -0.15044,0.68752 -0.12536,1.04218 0.0174,0.24456 0.0396,0.48949 0.0738,0.73222 0.085,0.60795 0.13628,1.21916 0.15154,1.83219 0.0389,1.56329 0.0494,3.12729 0.0113,4.69093 -0.003,0.10726 -0.005,0.21476 -0.0106,0.32197 -0.02,0.42916 -0.16061,0.80889 -0.46222,1.12213 -0.085,0.0883 -0.16789,0.17878 -0.25619,0.26382 -0.26527,0.25509 -0.52654,0.51491 -0.80054,0.75983 -0.64319,0.57488 -1.21879,1.20862 -1.70209,1.92413 -0.0342,0.0508 -0.073,0.0985 -0.10792,0.14899 -0.66464,0.95896 -1.3994,1.8627 -2.15379,2.75118 -1.1036,1.29983 -2.29223,2.51499 -3.58661,3.62623 -0.98077,0.84195 -2.04222,1.56726 -3.17707,2.18466 -0.28235,0.15371 -0.57306,0.29361 -0.86631,0.4248 -0.56761,0.25327 -1.17192,0.34958 -1.78676,0.39318 -0.28926,0.0203 -0.54544,-0.0636 -0.7682,-0.2471 -0.10647,-0.0876 -0.21149,-0.1777 -0.30888,-0.27509 -0.15153,-0.15188 -0.29943,-0.30778 -0.44296,-0.46695 -0.54399,-0.60357 -1.085795,-1.20971 -1.575275,-1.85943 -0.198407,-0.26382 -0.441512,-0.4655 -0.741668,-0.60104 -0.223482,-0.10108 -0.444783,-0.20604 -0.667175,-0.30924 -1.515315,-0.70388 -3.023726,-1.42229 -4.452918,-2.2926 -0.628294,-0.38228 -1.243505,-0.78673 -1.857988,-1.19081 -0.33286,-0.21876 -0.651912,-0.45786 -0.977505,-0.68825 -0.08721,-0.0618 -0.174061,-0.12499 -0.261638,-0.18642 -0.03489,-0.0243 -0.09266,0.004 -0.103927,0.0501 -0.01817,0.0744 -0.04142,0.14826 -0.0516,0.22386 -0.05996,0.45785 -0.178786,0.90191 -0.316871,1.34051 -0.295069,0.93827 -0.651549,1.85 -1.188632,2.68142 -0.05814,0.0901 -0.110835,0.18387 -0.159527,0.27908 -0.14281,0.27981 -0.203859,0.57633 -0.168247,0.89029 0.04797,0.42699 0.131175,0.84779 0.216942,1.26822 0.02979,0.14608 0.110464,0.25292 0.227478,0.33141 0.0883,0.0592 0.183146,0.1155 0.283441,0.14789 0.218393,0.0698 0.439696,0.13404 0.663904,0.18133 0.436789,0.0919 0.881208,0.11262 1.326718,0.11372 0.122454,3.6e-4 0.245649,-0.004 0.367382,0.005 0.05814,0.006 0.116288,0.0342 0.1697,0.0622 0.08359,0.0435 0.112291,0.16606 0.05341,0.23802 -0.05741,0.0704 -0.127907,0.13047 -0.18569,0.20058 -0.01236,0.015 -0.0051,0.0702 0.0098,0.0788 0.237291,0.14318 0.462589,0.30124 0.642465,0.51528 0.218031,0.25947 0.399723,0.5429 0.545077,0.84887 0.02581,0.0545 0.04107,0.11482 0.05451,0.17407 0.02871,0.12539 -0.0665,0.25872 -0.191867,0.26054 -0.106468,0.001 -0.213308,-0.01 -0.319416,-0.0199 -0.154802,-0.015 -0.15989,-0.0157 -0.122097,0.17152 0.02325,0.11591 0.004,0.21222 -0.07995,0.29435 -0.04433,0.0433 -0.02181,0.0883 0.0051,0.12168 0.05741,0.0716 0.122825,0.13666 0.184963,0.20386 0.31251,0.3394 0.582142,0.71115 0.828153,1.10106 0.11556,0.18278 0.206766,0.37501 0.251826,0.58832 0.141721,0.67262 0.0854,1.34161 -0.03453,2.00988 -0.03561,0.19841 -0.143174,0.33286 -0.336858,0.39573 0,0 -0.0047,-0.0137 -0.0047,-0.0137 l 0.01453,0.003 c -0.02762,0.0806 0.0036,0.15153 0.04433,0.21622 0.174789,0.27762 0.179149,0.57997 0.131176,0.88956 -0.01167,0.0755 -0.02835,0.15045 -0.04579,0.22494 -0.04252,0.17878 -0.08648,0.3572 -0.130448,0.53599 -0.02289,0.0923 -0.01853,0.18278 0.02035,0.26963 0.04361,0.0981 0.09121,0.19441 0.13373,0.29289 0.225299,0.52037 0.458956,1.0371 0.6719,1.5622 0.529452,1.30636 1.056723,2.61381 1.570549,3.92637 0.865946,2.2112 1.719901,4.42748 2.58076,6.64086 0.766379,1.97063 1.532395,3.94163 2.237361,5.93552 0.556702,1.57455 1.109052,3.15055 1.563282,4.7589 0.24165,0.85541 0.47858,1.71153 0.64573,2.58548 0.11556,0.6025 0.19914,1.20899 0.26746,1.81874 0.11337,1.00803 0.17333,2.0157 0.0607,3.02809 -0.0305,0.27508 -0.0716,0.54762 -0.15007,0.81216 -0.23039,0.77583 -0.44442,0.98914 -1.11233,1.30674 -0.30524,0.14535 -0.6232,0.25654 -0.9448,0.35757 -1.010569,0.31796 -2.046943,0.52727 -3.085134,0.72676 -1.069078,0.20569 -2.150875,0.32778 -3.228676,0.47532 -0.515642,0.0709 -1.026561,0.17659 -1.539661,0.2678 -0.17079,0.0302 -0.321595,0.10754 -0.445509,0.22567 -0.143901,0.13735 -0.284167,0.27981 -0.411716,0.43206 -0.49275,0.5876 -0.948071,1.20353 -1.393581,1.82855 -0.231477,0.32524 -0.361569,0.66972 -0.377557,1.06364 -0.0044,0.10726 -0.01305,0.21439 -0.0218,0.32123 -0.01126,0.13991 0.0066,0.27545 0.05487,0.40698 0.09521,0.25874 0.185326,0.51965 0.288164,0.77548 0.263091,0.65481 0.581779,1.28383 0.903012,1.91139 0.649368,1.26931 1.331806,2.52044 2.034228,3.76104 0.258731,0.45677 0.146082,0.3761 0.697699,0.48912 0.900469,0.1846 1.802753,0.36084 2.706492,0.52908 0.436426,0.0814 0.86849,0.18824 1.312182,0.23185 0.610124,0.0599 1.219521,0.12567 1.829281,0.19041 0.762386,0.081 1.526216,0.14135 2.292596,0.1737 0.15335,0.007 0.30597,0.0192 0.45896,0.0283 0.82633,0.049 1.65267,0.0985 2.47901,0.14643 0.30597,0.0179 0.6123,0.0356 0.91863,0.0488 0.919,0.0382 1.83801,0.093 2.75737,0.10713 2.31513,0.0356 4.62989,0.0716 6.94174,0.20858 0.21404,0.0124 0.42843,0.0291 0.64138,0.0527 0.63955,0.0709 1.27947,0.14135 1.91831,0.2213 0.89792,0.11193 1.78749,0.26963 2.65816,0.52327 0.13154,0.0382 0.26636,0.0651 0.40008,0.0952 0.0128,0.003 0.0334,-0.005 0.0418,-0.015 0.006,-0.007 0.001,-0.0291 -0.006,-0.0396 -0.0512,-0.0755 -0.0977,-0.15553 -0.15735,-0.22422 -0.39137,-0.45204 -0.78564,-0.90155 -1.17918,-1.35179 -0.11084,-0.12676 -0.23184,-0.24455 -0.3027,-0.40226 -0.0523,-0.11592 0.013,-0.26091 0.14244,-0.28562 0.0589,-0.011 0.12283,-0.0185 0.18133,-0.008 0.24238,0.0418 0.47495,0.11743 0.70461,0.20569 0.63156,0.24382 1.23151,0.54798 1.79948,0.91644 0.43824,0.28418 0.85323,0.59887 1.25368,0.93282 1.01893,0.8496 1.91576,1.80965 2.64399,2.9227 0.17588,0.26854 0.35285,0.53636 0.46077,0.84196 0.004,0.0124 0.0221,0.0207 0.0338,0.0309 0,0.0919 0,0.18388 0,0.27618 -0.17261,0.0389 -0.33141,-0.0157 -0.49276,-0.0669 -0.33576,-0.10617 -0.67044,-0.21766 -1.0113,-0.30452 -1.02547,-0.26163 -2.06548,-0.44297 -3.11712,-0.56978 -0.95897,-0.11591 -1.91758,-0.22458 -2.88346,-0.26309 -0.22857,-0.01 -0.45605,-0.053 -0.6828,-0.0898 -0.0734,-0.0124 -0.14462,-0.0479 -0.21294,-0.0806 -0.10865,-0.0523 -0.1359,-0.23258 -0.0502,-0.31688 0.0324,-0.032 0.0658,-0.0662 0.10539,-0.0868 0.10829,-0.0567 0.21839,-0.11124 0.33104,-0.15881 0.43824,-0.18496 0.89211,-0.32487 1.34562,-0.46549 0.13081,-0.0406 0.26091,-0.0846 0.38882,-0.13377 0.02,-0.008 0.0287,-0.0486 0.0381,-0.076 0.002,-0.006 -0.0138,-0.0247 -0.0243,-0.0276 -0.133,-0.0349 -0.26527,-0.0742 -0.40009,-0.10067 -1.1592,-0.22857 -2.32966,-0.37538 -3.50703,-0.4626 -0.70315,-0.0519 -1.40775,-0.0828 -2.11163,-0.12319 -0.10719,-0.007 -0.21439,-0.0137 -0.32123,-0.0185 -1.01057,-0.0497 -2.02042,-0.10576 -3.03136,-0.14718 -1.14866,-0.0472 -2.29768,-0.0817 -3.4467,-0.1221 -0.0919,-0.003 -0.18387,-0.01 -0.27545,-0.0146 -0.8416,-0.0468 -1.68356,-0.0905 -2.52516,-0.14136 -0.58142,-0.0353 -1.1621,-0.0786 -1.74316,-0.12169 -0.38191,-0.0287 -0.76383,-0.061 -1.14539,-0.0978 -0.778,-0.0749 -1.55528,-0.15626 -2.333291,-0.2293 -0.900105,-0.0846 -1.800936,-0.16244 -2.698133,-0.27471 -0.820887,-0.10287 -1.642137,-0.20169 -2.453576,-0.36884 -0.04325,-0.01 -0.09048,-0.001 -0.135543,7.3e-4 -0.03888,0.001 -0.05632,0.0272 -0.0378,0.0643 0.05414,0.10905 0.106468,0.21948 0.170427,0.32268 0.377921,0.61339 0.758021,1.22497 1.13885,1.83654 0.461861,0.74204 0.957155,1.4619 1.479339,2.16251 0.192231,0.25765 0.393183,0.51129 0.615211,0.74275 0.413532,0.43171 0.84269,0.84815 1.270031,1.26604 0.231112,0.22602 0.485481,0.42698 0.779096,0.56398 0.888119,0.41498 1.755519,0.87429 2.662529,1.24931 0.15553,0.0643 0.30379,0.14572 0.45496,0.21986 0.30451,0.14934 0.57923,0.34266 0.84232,0.5556 0.50547,0.40881 0.84778,0.92118 1.00512,1.55421 0.004,0.015 0.007,0.0298 0.0113,0.0444 0.21839,0.79326 0.26054,1.60144 0.18896,2.41651 -0.016,0.18132 -0.0665,0.3612 -0.11846,0.53672 -0.0251,0.0843 -0.0843,0.16171 -0.1399,0.23292 -0.068,0.0865 -0.20931,0.10136 -0.28926,0.0302 -0.0792,-0.0704 -0.15807,-0.14607 -0.21803,-0.23256 -0.14826,-0.21403 -0.28199,-0.43824 -0.4288,-0.65301 -0.0948,-0.13881 -0.19986,-0.27071 -0.30596,-0.40117 -0.0272,-0.0334 -0.0741,-0.0556 -0.11665,-0.0687 -0.0178,-0.005 -0.0665,0.0236 -0.0683,0.0407 -0.008,0.0748 -0.009,0.15153 -0.004,0.22675 0.0469,0.61885 -0.0269,1.22243 -0.20968,1.81547 -0.11083,0.36012 -0.28707,0.67408 -0.57996,0.91682 -0.12282,0 -0.24528,0 -0.36811,0 -0.2322,-0.28853 -0.39282,-0.61811 -0.5389,-0.95497 -0.0669,-0.15444 -0.129,-0.31105 -0.19114,-0.46768 -0.19695,-0.49675 -0.55125,-0.83759 -1.03492,-1.05127 -0.19586,-0.0865 -0.391368,-0.17442 -0.587233,-0.26128 -0.300157,-0.13336 -0.319052,-0.11853 -0.290345,0.2322 0.0087,0.10686 0.02252,0.21331 0.0298,0.32015 0.03489,0.4902 0.03489,0.97932 -0.05451,1.46517 -0.05087,0.27726 -0.138812,0.53381 -0.369198,0.71768 -0.153348,0 -0.306698,0 -0.460046,0 -0.19223,-0.1726 -0.408444,-0.32196 -0.554161,-0.54107 -0.135543,-0.20386 -0.329954,-0.31542 -0.559614,-0.37429 -0.148261,-0.0378 -0.297611,-0.0709 -0.446963,-0.10356 -0.209309,-0.0457 -0.4208,-0.0825 -0.629019,-0.13404 -0.802354,-0.19913 -1.523674,-0.55416 -2.135251,-1.11886 -0.168973,-0.15626 -0.343034,-0.30634 -0.514553,-0.45969 -0.174061,-0.15589 -0.367381,-0.27435 -0.599222,-0.32487 -0.104655,-0.0229 -0.207492,-0.0534 -0.31033,-0.0835 -0.323413,-0.0945 -0.648278,-0.18496 -0.969147,-0.28817 -0.262727,-0.0846 -0.51746,-0.19187 -0.752934,-0.33867 -0.597405,-0.37283 -0.948798,-0.90229 -1.009484,-1.61052 -0.02362,-0.27508 -0.04252,-0.55052 -0.05124,-0.82633 -0.03016,-0.95062 -0.09485,-1.89834 -0.196591,-2.84386 -0.09375,-0.86958 -0.225663,-1.73263 -0.431701,-2.58258 -0.267088,-1.10178 -0.54326,-2.20138 -0.817253,-3.30135 -0.07412,-0.29724 -0.16098,-0.59159 -0.229296,-0.88993 -0.03852,-0.16861 -0.108294,-0.28272 -0.297612,-0.28562 -0.04542,-7.2e-4 -0.09121,-0.0124 -0.135901,-0.0218 -1.259129,-0.26926 -2.529523,-0.47784 -3.798826,-0.68971 -0.876484,-0.14643 -1.75515,-0.28016 -2.634542,-0.41025 -0.803443,-0.11853 -1.60834,-0.22821 -2.413602,-0.33395 -0.622842,-0.0817 -1.247501,-0.1519 -1.871432,-0.22675 -0.654457,-0.0784 -1.30855,-0.15699 -1.963005,-0.23439 -0.228207,-0.0269 -0.456776,-0.0505 -0.685345,-0.0742 -0.0556,-0.005 -0.129734,0.0466 -0.141356,0.0974 -0.01058,0.0448 -0.0229,0.0894 -0.02762,0.13487 -0.04107,0.41172 -0.08067,0.82379 -0.120285,1.23587 -0.04106,0.42734 -0.07849,0.85469 -0.122825,1.28167 -0.129363,1.24749 -0.04942,2.47937 0.25982,3.69598 0.10938,0.43062 0.215124,0.86196 0.321233,1.29365 0.226752,0.92373 0.400813,1.85727 0.524001,2.80025 0.07377,0.56579 0.06178,1.13122 -0.03125,1.69556 -0.03416,0.20785 -0.126822,0.37718 -0.275809,0.51636 -0.26309,0.24601 -0.571605,0.40845 -0.926995,0.47894 -0.242742,0.0479 -0.484755,0.0486 -0.731857,0.0269 -0.503651,-0.0444 -1.008757,-0.0897 -1.513862,-0.10136 -0.706056,-0.0163 -1.40848,0.0519 -2.10836,0.14827 -0.324502,0.0446 -0.625022,0.14099 -0.902648,0.31687 -0.418982,0.26599 -0.882661,0.41898 -1.361603,0.53781 -0.271448,0.0673 -0.543624,0.0916 -0.820523,0.0781 -0.275809,-0.0137 -0.551255,-0.0309 -0.826702,-0.0455 -0.107195,-0.005 -0.214396,-0.0156 -0.321595,-0.0137 -0.283076,0.007 -0.5389,0.0832 -0.761654,0.27326 -0.221302,0.18859 -0.454595,0.36448 -0.691521,0.53382 -0.211491,0.15116 -0.433519,0.28888 -0.654093,0.42697 -0.130462,0.0817 -0.27363,0.13808 -0.424435,0.17225 -0.163522,0.0367 -0.35321,-0.0538 -0.421889,-0.20568 -0.03125,-0.0691 -0.05705,-0.14245 -0.07377,-0.21622 -0.06432,-0.28634 -0.0803,-0.57523 -0.04179,-0.86813 0.02398,-0.18204 0.03307,-0.36592 0.04325,-0.54943 0.0055,-0.097 -0.07086,-0.16315 -0.176242,-0.16606 -0.01526,-3.6e-4 -0.03052,-7.3e-4 -0.04615,-7.3e-4 -0.47676,-7.3e-4 -0.948071,0.0621 -1.419745,0.11921 -0.07558,0.01 -0.148261,0.0382 -0.223118,0.0545 -0.12755,0.0283 -0.223482,0.0978 -0.285257,0.21257 -0.05814,0.10795 -0.116288,0.21586 -0.170428,0.3256 -0.183146,0.3721 -0.400451,0.72422 -0.631926,1.06763 -0.07704,0.11413 -0.161343,0.22457 -0.253643,0.32631 -0.06069,0.0669 -0.137724,0.1221 -0.215487,0.1697 -0.13373,0.0826 -0.325957,0.0396 -0.407718,-0.0905 -0.04833,-0.0766 -0.09666,-0.1599 -0.116645,-0.24674 -0.06613,-0.2849 -0.100659,-0.57415 -0.05778,-0.86704 0.03561,-0.24274 0.07268,-0.48512 0.110107,-0.72749 0.0298,-0.19369 -0.02035,-0.24746 -0.219121,-0.23984 -0.169338,0.007 -0.335042,0.0331 -0.497838,0.0806 -0.09229,0.0269 -0.167884,0.0742 -0.226388,0.14862 -0.06614,0.0843 -0.127907,0.17225 -0.193684,0.25728 -0.132274,0.17043 -0.284168,0.32123 -0.453868,0.45459 -0.122098,0.0956 -0.254733,0.16861 -0.406628,0.20641 -0.143174,0.0356 -0.328864,-0.0662 -0.360477,-0.21041 -0.01963,-0.089 -0.03526,-0.18242 -0.0287,-0.27217 0.01277,-0.18315 0.0338,-0.36666 0.06577,-0.54725 0.06432,-0.36267 0.162796,-0.71697 0.284894,-1.06437 0.530179,-1.50513 1.419746,-2.77589 2.543331,-3.89257 0.08649,-0.0861 0.185327,-0.16062 0.28344,-0.23366 0.07341,-0.0549 0.152622,-0.10287 0.232568,-0.14753 0.178785,-0.1 0.371015,-0.13624 0.575964,-0.12429 0.156256,0.01 0.302336,0.0516 0.441876,0.11632 0.138813,0.0643 0.273266,0.13882 0.408809,0.2104 0.05886,0.0313 0.116645,0.0324 0.173334,-0.001 0.405538,-0.24166 0.838329,-0.26709 1.288926,-0.16825 0.134458,0.0294 0.271812,0.0466 0.406991,0.0744 0.361205,0.0755 0.711871,0.18679 1.045822,0.3434 0.122097,0.0574 0.225299,0.0742 0.338311,-0.0214 0.08103,-0.0683 0.176242,-0.12319 0.272176,-0.1697 0.325956,-0.15844 0.660634,-0.25037 1.018568,-0.10355 0.01417,0.005 0.03089,0.005 0.04433,0.0124 0.135172,0.0687 0.270358,0.0393 0.402267,-0.005 0.130091,-0.045 0.258367,-0.0956 0.385552,-0.14936 0.567244,-0.23874 1.099602,-0.54253 1.608342,-0.88665 0.479304,-0.32414 0.39609,-0.21984 0.644281,-0.74312 0.51419,-1.08399 0.893564,-2.21484 1.177367,-3.37984 0.224935,-0.9241 0.387005,-1.85981 0.537447,-2.79806 0.03162,-0.1966 0.06032,-0.39392 0.0854,-0.59161 0.01526,-0.12141 0.02252,-0.24419 0.03089,-0.36629 0.004,-0.0578 -0.04542,-0.12608 -0.09847,-0.13954 -0.05924,-0.0152 -0.118458,-0.0331 -0.178785,-0.0404 -0.60867,-0.0731 -1.213706,-0.17371 -1.825645,-0.21948 -0.366656,-0.0272 -0.732584,-0.0691 -1.09815,-0.11015 -0.654819,-0.0738 -1.309276,-0.15118 -1.963732,-0.22967 -0.684617,-0.0821 -1.369234,-0.16643 -2.053489,-0.2511 -0.562882,-0.0698 -1.125402,-0.1399 -1.687922,-0.21293 -0.623206,-0.081 -1.246048,-0.16208 -1.868526,-0.2493 -0.6828,-0.096 -1.365236,-0.19694 -2.046948,-0.29906 -0.681709,-0.10218 -1.365236,-0.19805 -2.044403,-0.31505 -0.936079,-0.16098 -1.869252,-0.33904 -2.803877,-0.51055 -1.628692,-0.29871 -3.240668,-0.66863 -4.834111,-1.12069 -0.958246,-0.2718 -1.911767,-0.55924 -2.842396,-0.91682 -0.558524,-0.21476 -1.105054,-0.45604 -1.627602,-0.74857 -0.884842,-0.49602 -1.609432,-1.16791 -2.182853,-2.00407 -0.12174,-0.17732 -0.231113,-0.36119 -0.312874,-0.56105 -0.340128,-0.83435 -0.420074,-1.68684 -0.198409,-2.5666 0.13954,-0.55417 0.349213,-1.0778 0.622842,-1.57709 0.442966,-0.80817 0.948434,-1.57636 1.502233,-2.31186 1.587629,-2.10908 3.270102,-4.13713 5.128452,-6.0162 1.520403,-1.53712 3.067332,-3.04771 4.612809,-4.55975 2.313307,-2.2639 4.724367,-4.42094 7.178306,-6.53002 0.593044,-0.50947 1.204984,-0.99678 1.801662,-1.50224 0.268905,-0.22748 0.525091,-0.47095 0.781641,-0.7126 0.224935,-0.21185 0.397543,-0.45931 0.529452,-0.74312 0.433881,-0.93099 0.917547,-1.83691 1.415747,-2.7352 0.595225,-1.07308 1.230059,-2.1218 1.950287,-3.11712 0.188597,-0.26091 0.384099,-0.51672 0.577783,-0.77401 0.07813,-0.10355 0.145716,-0.20531 0.01417,-0.31723 -0.131904,-0.24528 -0.14935,-0.49638 -0.03162,-0.75075 0.04506,-0.097 0.09412,-0.19333 0.152984,-0.28272 0.109379,-0.16642 0.221665,-0.33141 0.342309,-0.48984 0.25982,-0.34158 0.528362,-0.67663 0.788182,-1.01857 0.120284,-0.15806 0.228932,-0.32522 0.341581,-0.48947 0.02581,-0.0375 0,-0.10067 -0.03924,-0.10727 -0.117743,-0.0192 -0.250008,0.0181 -0.346668,-0.0843 -0.08213,-0.0872 -0.157346,-0.0538 -0.240198,0.003 -0.08794,0.0596 -0.180239,0.11441 -0.275446,0.16098 -0.08321,0.0406 -0.195864,-0.0356 -0.200952,-0.12677 -0.01195,-0.21694 0.03234,-0.4248 0.08576,-0.63373 0.07886,-0.30962 0.239471,-0.56362 0.48948,-0.75767 0.156983,-0.12209 0.323777,-0.23183 0.487299,-0.34558 0.113005,-0.0786 0.227843,-0.15407 0.340855,-0.2322 0.03961,-0.0272 0.03453,-0.0799 -0.0091,-0.10397 -0.02689,-0.0146 -0.05851,-0.021 -0.08394,-0.0371 -0.187507,-0.11839 -0.207493,-0.27326 -0.05014,-0.40772 0.05778,-0.0494 0.12174,-0.0927 0.18678,-0.13267 0.117373,-0.0722 0.240198,-0.13624 0.35648,-0.21004 0.735492,-0.46659 1.279843,-1.08942 1.567644,-1.92158 0.120641,-0.34885 0.200952,-0.70678 0.237653,-1.07453 0.05632,-0.56434 0.115917,-1.12831 0.170064,-1.69265 0.02943,-0.30632 0.09884,-0.60394 0.172609,-0.90192 0.07958,-0.32086 0.231839,-0.59777 0.458592,-0.83651 0.115917,-0.1221 0.229295,-0.2471 0.342672,-0.37211 0.04288,-0.0472 0.04542,-0.11742 0.008,-0.16824 -0.209673,-0.28526 -0.445873,-0.54617 -0.715141,-0.77656 -0.240562,-0.20604 -0.51201,-0.33431 -0.834333,-0.33722 -0.107196,-0.001 -0.214397,-0.008 -0.321595,-0.004 -0.796903,0.0243 -1.593806,0.0505 -2.39071,0.0759 -0.582869,0.0185 -1.164648,0.0124 -1.746427,-0.0404 -0.827428,-0.0753 -1.541116,-0.38155 -2.102909,-1.00766 -0.133003,-0.14826 -0.267089,-0.29615 -0.395,-0.44878 -0.1181,-0.14098 -0.228205,-0.28852 -0.343398,-0.43207 -0.02835,-0.0356 -0.06251,-0.0665 -0.09412,-0.0996 -0.02581,-0.0269 -0.09847,-0.0139 -0.113376,0.0214 -0.06069,0.14063 -0.122454,0.28054 -0.180602,0.42226 -0.58505,1.42665 -1.359061,2.74501 -2.285329,3.97543 -0.156618,0.20786 -0.328499,0.40445 -0.49929,0.60104 -0.151895,0.17478 -0.334679,0.31505 -0.534539,0.43169 -0.238745,0.13919 -0.483666,0.26128 -0.7493,0.34558 -0.467677,0.14827 -0.921181,0.33541 -1.366329,0.54218 -0.254005,0.1177 -0.4724,0.27799 -0.658453,0.48984 -0.374285,0.42624 -0.760201,0.84232 -1.135577,1.26748 -0.751117,0.85068 -1.470256,1.72826 -2.175949,2.6171 -0.32414,0.40846 -0.65264,0.81326 -1.014571,1.18937 -0.126822,0.13226 -0.266362,0.25292 -0.405174,0.37283 -0.109379,0.0945 -0.243105,0.12759 -0.386279,0.11592 -0.229658,-0.019 -0.456775,-0.0538 -0.676985,-0.12361 -0.175152,-0.0556 -0.349214,-0.11523 -0.524365,-0.17151 -0.806351,-0.25802 -1.572004,-0.60504 -2.30059,-1.03602 -0.93826,-0.55525 -1.843451,-1.1592 -2.687232,-1.84999 -0.854317,-0.69915 -1.702095,-1.4063 -2.541151,-2.12325 -1.317997,-1.1265 -2.579307,-2.31296 -3.767575,-3.57754 -0.482938,-0.51382 -0.976414,-1.01893 -1.487697,-1.50441 -0.666449,-0.63265 -1.305643,-1.29837 -2.076019,-1.81293 -0.07813,-0.0519 -0.130462,-0.13226 -0.156618,-0.22203 -0.06359,-0.22057 -0.13954,-0.43968 -0.178059,-0.66499 -0.134088,-0.78563 -0.25219,-1.57382 -0.380101,-2.36018 -0.110835,-0.68062 -0.228933,-1.35978 -0.339765,-2.04041 -0.106111,-0.65155 -0.284894,-1.28602 -0.439332,-1.92631 -0.111564,-0.46294 -0.255823,-0.91463 -0.453505,-1.34815 -0.03815,-0.0836 -0.07268,-0.16897 -0.106468,-0.25437 -0.180602,-0.45605 -0.368471,-0.90919 -0.538535,-1.36887 -0.217669,-0.58904 -0.426615,-1.18173 -0.535266,-1.80385 -0.01709,-0.0981 -0.07487,-0.16498 -0.163888,-0.20676 0,-0.0305 0,-0.0614 0,-0.0919 0.05197,-0.0545 0.12755,-0.10026 0.151895,-0.16534 0.08975,-0.23983 0.254371,-0.41644 0.44224,-0.57742 0.279443,-0.23947 0.557796,-0.48004 0.841963,-0.71368 0.284894,-0.23475 0.546168,-0.49239 0.784548,-0.77402 0.287801,-0.33903 0.587593,-0.6679 0.864493,-1.01566 0.211489,-0.26564 0.452414,-0.42806 0.804897,-0.46223 0.457865,-0.0444 0.903375,-0.16498 1.320178,-0.37464 0.08103,-0.0407 0.172607,-0.0632 0.261637,-0.0839 0.05851,-0.0137 0.123182,-0.0207 0.181329,-0.01 0.21149,0.0386 0.419346,0.0949 0.608307,0.20059 0.05087,0.0283 0.09121,0.0788 0.130818,0.12388 0.03489,0.0395 0.02581,0.0919 -0.0018,0.12718 -0.0367,0.0468 -0.08213,0.0934 -0.13373,0.12031 -0.108652,0.0563 -0.224572,0.0981 -0.336495,0.14826 -0.116644,0.0519 -0.210762,0.1243 -0.226752,0.26454 -0.0051,0.0455 -0.02035,0.0894 -0.03162,0.13404 -0.100301,0.407 -0.366292,0.66282 -0.747846,0.80818 -0.128634,0.049 -0.260546,0.0897 -0.393182,0.12828 -0.41317,0.12031 -0.408081,0.1606 -0.538173,0.4942 -0.2362,0.60611 -0.629746,1.08106 -1.169736,1.43936 -0.102115,0.0676 -0.202769,0.13772 -0.29943,0.2133 -0.04942,0.0386 -0.07922,0.0996 -0.05959,0.16281 0.103927,0.33576 0.211853,0.67081 0.319778,1.00548 0.01085,0.0342 0.04579,0.0422 0.07341,0.0139 0.06396,-0.0651 0.126094,-0.13226 0.183508,-0.20313 0.337949,-0.41789 0.69879,-0.8147 1.102148,-1.17083 0.137723,-0.12141 0.281986,-0.2362 0.430975,-0.34375 0.328499,-0.23693 0.678439,-0.266 1.037463,-0.0755 0.175878,0.093 0.348123,0.19405 0.514189,0.30343 0.396817,0.26164 0.781278,0.54109 1.14539,0.84742 0.07631,0.064 0.157346,0.0897 0.254369,0.0687 0.08975,-0.02 0.178785,-0.0444 0.269632,-0.0574 0.242015,-0.0349 0.456412,0.0334 0.638103,0.19441 0.07995,0.0709 0.155894,0.14826 0.223846,0.23075 0.145718,0.17771 0.289981,0.35721 0.42516,0.5429 0.07741,0.10644 0.170791,0.17297 0.300156,0.18824 0.106468,0.0124 0.213308,0.0225 0.320143,0.0331 0.274719,0.0269 0.549438,0.0508 0.823793,0.0817 0.09048,0.01 0.180966,0.0309 0.267815,0.0585 0.111192,0.0353 0.176241,0.12209 0.197682,0.23366 0.01453,0.0744 0.01636,0.1519 0.01671,0.2282 0.0022,0.32305 0.03997,0.64065 0.10938,0.9568 0.08249,0.37573 0.194411,0.74131 0.344853,1.09415 0.09812,0.23038 0.144989,0.46622 0.137722,0.71587 -0.0051,0.1686 0.0073,0.33757 -0.0029,0.50583 -0.02217,0.37429 0.01599,0.73403 0.212218,1.06362 0.01563,0.0261 0.02762,0.0549 0.03742,0.0839 0.08357,0.24965 0.136999,0.50438 0.09157,0.7682 -0.01526,0.0887 -0.05197,0.17588 -0.09085,0.25799 -0.04361,0.0916 -0.209674,0.11592 -0.281988,0.0455 -0.05451,-0.053 -0.107923,-0.10863 -0.152257,-0.17007 -0.08903,-0.12457 -0.170065,-0.25473 -0.256913,-0.38119 -0.0556,-0.0806 -0.132631,-0.121 -0.233294,-0.12141 -0.183872,-3.6e-4 -0.368835,0.007 -0.550528,-0.0137 -0.244922,-0.0276 -0.42189,-0.16678 -0.533085,-0.38845 -0.04906,-0.0978 -0.07849,-0.20022 -0.08322,-0.30852 -0.01057,-0.22966 -0.01998,-0.45931 -0.02362,-0.68933 -0.0026,-0.16897 -0.0026,-0.33832 -0.04869,-0.50184 -0.02036,-0.0722 -0.04506,-0.14971 -0.0894,-0.20858 -0.129005,-0.17188 -0.281985,-0.32233 -0.461135,-0.44261 -0.01707,-0.011 -0.06904,-0.003 -0.07813,0.0124 -0.07086,0.1177 -0.140266,0.23691 -0.200226,0.36047 -0.212943,0.43752 -0.218393,0.4546 -0.101015,0.92299 0.138087,0.55054 0.257277,1.1036 0.316872,1.6694 0.02762,0.26127 0.03197,0.51819 -0.01744,0.77765 -0.117373,0.61702 -0.229296,1.23514 -0.341946,1.85325 -0.02471,0.13556 -0.04652,0.27146 -0.0654,0.40809 -0.0138,0.0978 0.01817,0.17661 0.09885,0.24055 0.349576,0.27654 0.655909,0.5996 0.972054,0.91211 0.327411,0.32304 0.661361,0.63919 0.993858,0.95715 0.260548,0.24928 0.570152,0.41208 0.917184,0.50365 0.147897,0.0393 0.296522,0.0803 0.447327,0.10245 0.621387,0.0912 1.243503,0.17878 1.865981,0.262 0.531633,0.0713 1.062901,0.14572 1.582905,0.28126 0.746756,0.19477 1.4579,0.47131 2.077472,0.94662 0.02435,0.0185 0.05051,0.0345 0.07631,0.0512 0.05378,0.0345 0.134815,0.0212 0.161343,-0.0272 0.02217,-0.04 0.04652,-0.0795 0.06504,-0.121 0.319416,-0.71405 0.692248,-1.40121 1.05854,-2.09165 0.222392,-0.41934 0.464043,-0.82887 0.708964,-1.23587 0.263092,-0.43715 0.60322,-0.80925 0.993132,-1.13849 0.492386,-0.41606 1.007666,-0.80125 1.538571,-1.16646 0.0883,-0.0607 0.178059,-0.1199 0.265998,-0.18133 0.176242,-0.1232 0.184963,-0.14681 0.131546,-0.3394 -0.0287,-0.10315 -0.05959,-0.20603 -0.08576,-0.30997 -0.168611,-0.67225 -0.266725,-1.35288 -0.244559,-2.04766 0.0058,-0.18388 0.01998,-0.36594 0.05996,-0.54727 0.10357,-0.47095 0.291797,-0.9041 0.571603,-1.29474 0.160253,-0.22384 0.330681,-0.4426 0.516007,-0.64646 0.329954,-0.36302 0.670082,-0.7166 1.01348,-1.0669 0.976779,-0.99604 1.984809,-1.96155 2.937241,-2.98157 0.272175,-0.29144 0.545077,-0.58178 0.812165,-0.87757 0.112649,-0.12498 0.214035,-0.26055 0.313602,-0.3961 0.04687,-0.064 0.05632,-0.14426 0.02544,-0.21948 -0.13954,-0.34013 -0.280897,-0.67953 -0.423343,-1.01856 -0.02435,-0.0574 -0.06469,-0.10397 -0.129362,-0.12059 -0.318688,-0.0814 -0.53563,-0.2838 -0.685344,-0.56943 -0.03561,-0.0676 -0.08249,-0.12897 -0.125366,-0.1926 -0.146082,-0.21839 -0.320506,-0.41061 -0.529816,-0.57015 -0.0854,-0.0651 -0.1697,-0.13116 -0.25546,-0.19586 -1.296557,-0.98041 -2.615281,-1.92885 -3.988512,-2.80025 -0.194048,-0.12319 -0.386642,-0.24927 -0.577419,-0.37755 -0.496384,-0.33395 -0.972782,-0.69516 -1.428103,-1.08325 -0.104655,-0.0894 -0.205312,-0.18423 -0.300883,-0.28345 -0.04106,-0.0426 -0.06796,-0.10067 -0.09375,-0.15515 -0.03888,-0.0821 0.0066,-0.20132 0.08867,-0.23366 0.05632,-0.0221 0.115916,-0.0479 0.174424,-0.0494 0.106468,-0.003 0.214035,0.01 0.320143,0.0214 0.565427,0.0654 1.113775,0.20858 1.659215,0.36411 1.090881,0.31142 2.160687,0.68571 3.219591,1.09234 0.200225,0.077 0.402266,0.14862 0.604309,0.2202 0.0843,0.0298 0.152984,-0.005 0.179148,-0.0883 0.07485,-0.23366 0.149716,-0.46695 0.222392,-0.70097 0.02725,-0.0876 0.04833,-0.17734 0.0705,-0.26636 0.01963,-0.0771 0.0084,-0.15263 -0.02252,-0.22457 -0.03016,-0.0702 -0.06613,-0.13809 -0.0992,-0.20714 -0.223482,-0.47058 -0.44224,-0.94334 -0.671535,-1.41102 -0.222756,-0.45387 -0.456775,-0.90228 -0.686071,-1.35289 -0.221302,-0.4346 -0.545077,-0.77436 -0.958247,-1.03127 -0.104298,-0.0647 -0.206038,-0.13295 -0.310693,-0.19696 -0.509466,-0.3136 -1.036737,-0.5945 -1.574548,-0.85614 -0.358297,-0.17443 -0.712598,-0.35684 -1.072712,-0.52727 -0.315055,-0.14899 -0.560703,-0.37138 -0.744939,-0.66317 -0.106468,-0.16825 -0.210763,-0.33868 -0.305244,-0.51383 -0.31251,-0.58033 -0.604671,-1.17083 -0.843779,-1.78604 -0.04433,-0.11372 -0.09666,-0.22457 -0.147898,-0.3354 -0.02652,-0.0574 -0.09848,-0.0727 -0.152622,-0.0378 -0.221301,0.14136 -0.412442,0.31869 -0.591954,0.50766 -0.496746,0.524 -0.948434,1.08505 -1.347431,1.68682 -0.101015,0.15263 -0.180602,0.31979 -0.266724,0.48185 -0.06723,0.12649 -0.07922,0.26382 -0.05851,0.40299 0.01346,0.0905 0.03307,0.18098 0.05924,0.2689 0.08249,0.27908 0.170064,0.55672 0.25328,0.83543 0.0654,0.22022 0.129362,0.44079 0.188597,0.66281 0.01126,0.0418 -3.64e-4,0.0905 -0.0051,0.13515 -0.0055,0.0497 -0.09956,0.10534 -0.142446,0.0839 -0.05414,-0.0269 -0.111192,-0.0508 -0.15989,-0.0857 -0.326682,-0.23437 -0.601039,-0.52217 -0.841599,-0.84304 -0.496747,-0.66282 -0.787819,-1.4103 -0.948072,-2.22028 -0.109008,-0.55089 -0.02943,-1.06509 0.196955,-1.56728 0.126464,-0.28018 0.282713,-0.54363 0.452777,-0.79909 0.39936,-0.60068 0.837239,-1.17228 1.310003,-1.71735 0.40263,-0.46441 0.840873,-0.89284 1.308913,-1.29039 0.397906,-0.3383 0.819796,-0.64355 1.273664,-0.90301 0.267089,-0.15262 0.543261,-0.28562 0.839783,-0.36846 0.132274,-0.0371 0.268177,-0.0683 0.404447,-0.0821 0.288891,-0.0298 0.547621,0.0512 0.760201,0.25292 0.09993,0.0949 0.194412,0.19624 0.281624,0.3027 0.292162,0.35503 0.579963,0.71369 0.869579,1.0709 0.192958,0.23837 0.380465,0.48111 0.579236,0.71442 0.511647,0.59994 1.105418,1.10395 1.786037,1.50368 0.238017,0.13954 0.473128,0.2838 0.713689,0.41899 0.654456,0.36846 1.308185,0.73766 1.967003,1.09814 0.504741,0.27617 0.942983,0.62721 1.29474,1.08434 0.07485,0.0974 0.153348,0.19151 0.230022,0.28708 0.06723,0.0835 0.138087,0.16461 0.200953,0.25146 0.08503,0.1177 0.187506,0.12869 0.322321,0.0938 1.31182,-0.33977 2.644717,-0.51964 4.000869,-0.51855 0.460045,3.5e-4 0.919727,7.3e-4 1.379773,0.003 0.368108,0.003 0.736217,0.003 1.099603,0.0738 0.05996,0.011 0.122097,0.0137 0.183146,0.0167 0.07922,0.004 0.14935,-0.0146 0.210399,-0.0704 0.236927,-0.21803 0.477852,-0.43134 0.712961,-0.65119 0.487299,-0.45496 1.041825,-0.80453 1.654128,-1.06471 0.267815,-0.11372 0.53672,-0.22603 0.805988,-0.33578 1.093063,-0.44514 2.169045,-0.92916 3.246845,-1.40883 1.073802,-0.47785 2.041133,-1.11814 2.90708,-1.91213 0.180602,-0.16571 0.355753,-0.33832 0.538173,-0.50184 0.422253,-0.37865 0.847049,-0.75475 1.272574,-1.12941 0.268904,-0.23691 0.571968,-0.41098 0.929901,-0.47494 0.06286,-0.0163 0.120285,-0.0334 0.156982,-0.089 z m -20.742376,63.79259 c -0.04941,0.12169 -0.164613,0.17805 -0.258367,0.25364 -1.944108,1.57091 -3.841341,3.1967 -5.676072,4.89443 -1.113775,1.03092 -2.224642,2.06475 -3.336237,3.09823 -1.460081,1.35797 -2.862746,2.77262 -4.196005,4.25596 -0.820161,0.91246 -1.607616,1.85217 -2.362003,2.81986 -0.566154,0.72642 -1.086158,1.48371 -1.54584,2.28242 -0.260547,0.45278 -0.481484,0.92337 -0.653002,1.41721 -0.08103,0.23329 -0.13336,0.47167 -0.139176,0.71914 -0.004,0.18387 -0.0033,0.36775 -0.008,0.55162 -0.0066,0.25146 0.06286,0.48184 0.171517,0.70713 0.196592,0.40773 0.473128,0.74967 0.816162,1.04147 0.422981,0.35976 0.889931,0.65155 1.384134,0.90083 0.534539,0.26963 1.092698,0.48221 1.658852,0.67517 0.754751,0.25692 1.5244,0.4615 2.295503,0.66172 0.845234,0.21949 1.689741,0.44189 2.545875,0.61448 1.727169,0.3485 3.465602,0.63448 5.202219,0.93136 0.800537,0.13707 1.6018,0.26636 2.403428,0.39573 1.073803,0.17334 2.147605,0.34558 3.222497,0.51347 0.893201,0.13954 1.78749,0.27108 2.681055,0.40808 0.938986,0.14389 1.87761,0.28924 2.815869,0.43569 0.696246,0.10864 1.392128,0.21985 2.088373,0.3296 0.272539,0.0429 0.544715,0.0861 0.817617,0.12498 0.129733,0.0185 0.194047,-0.0378 0.212944,-0.17698 0.02508,-0.18205 0.04979,-0.36447 0.07013,-0.54726 0.06614,-0.59377 0.141356,-1.18681 0.151895,-1.78604 0.0073,-0.40153 -0.02871,-0.7958 -0.1359,-1.18317 -0.04069,-0.14754 -0.0843,-0.29471 -0.129363,-0.44079 -0.139903,-0.45386 -0.278716,-0.90809 -0.424069,-1.35979 -0.06105,-0.18932 -0.128278,-0.37755 -0.20931,-0.55888 -0.172972,-0.38809 -0.44333,-0.69516 -0.807805,-0.91682 -0.353937,-0.21549 -0.721319,-0.403 -1.099967,-0.5727 -1.582178,-0.70786 -3.205418,-1.30709 -4.853005,-1.84127 -1.413205,-0.45823 -2.829679,-0.90701 -4.24252,-1.36742 -0.334313,-0.10905 -0.660997,-0.24347 -0.988044,-0.37283 -0.24383,-0.0967 -0.457865,-0.24382 -0.666084,-0.40336 -0.290344,-0.22203 -0.42407,-0.52036 -0.436788,-0.87321 -0.0077,-0.21331 0.0062,-0.42915 0.03234,-0.64137 0.03743,-0.30416 0.103199,-0.60395 0.196228,-0.89684 0.02398,-0.0755 0.02689,-0.15007 -0.004,-0.22385 -0.214033,-0.50983 -0.22857,-1.04037 -0.182056,-1.58181 0.06831,-0.79545 0.198045,-1.58036 0.365566,-2.36019 0.222027,-1.03454 0.511283,-2.05058 0.82343,-3.06115 0.65591,-2.12398 1.43101,-4.20508 2.276243,-6.2604 0.05233,-0.12759 0.106111,-0.25437 0.152985,-0.38409 0.02798,-0.0766 0.0077,-0.15007 -0.04396,-0.21258 l 0.01671,0.0163 z m 29.139838,10.14026 c 0.03052,-0.14027 -0.01563,-0.24783 -0.101743,-0.34558 -0.06068,-0.0691 -0.114461,-0.14354 -0.173334,-0.21441 -0.791453,-0.95642 -1.577454,-1.91721 -2.377264,-2.8671 -0.542898,-0.64464 -1.10142,-1.27657 -1.659579,-1.90814 -0.447691,-0.50656 -0.938988,-0.96768 -1.494604,-1.35687 -0.452413,-0.31651 -0.914639,-0.61775 -1.400121,-0.88085 -0.545804,-0.29579 -0.434245,-0.3165 -0.801991,0.141 -0.04797,0.0596 -0.09412,0.12141 -0.147171,0.17661 -0.148624,0.15407 -0.294341,0.31251 -0.45314,0.45604 -0.230387,0.20858 -0.506923,0.27798 -0.812166,0.22093 -0.08975,-0.0168 -0.178421,-0.0428 -0.265634,-0.0705 -0.264545,-0.0835 -0.51092,-0.20567 -0.748573,-0.34775 -0.0814,-0.0488 -0.101386,-0.0415 -0.192594,0.0411 -0.142083,0.12828 -0.270358,0.15299 -0.412079,0.0694 -0.07849,-0.0466 -0.155528,-0.0996 -0.222028,-0.16134 -0.0894,-0.0832 -0.168247,-0.17806 -0.251099,-0.26819 -0.08794,-0.0956 -0.1439,-0.10026 -0.226025,-0.0148 -0.254733,0.26526 -0.505832,0.53417 -0.764199,0.79617 -0.656999,0.66536 -1.31727,1.32709 -1.975723,1.99099 -0.734039,0.74022 -1.447,1.50042 -2.146516,2.27333 -0.720592,0.79619 -1.39249,1.63197 -2.050581,2.47974 -0.09993,0.12869 -0.139176,0.26164 -0.134458,0.42335 0.008,0.27762 0.06396,0.54762 0.106838,0.81979 0.09085,0.57488 0.175515,1.15085 0.276899,1.7239 0.109379,0.6203 0.28344,1.2228 0.543988,1.79875 0.912459,2.01752 2.297319,3.60515 4.249787,4.67713 0.01346,0.007 0.02579,0.0168 0.03961,0.0236 0.188962,0.096 0.308151,0.25183 0.367019,0.4506 0.04361,0.14644 0.07703,0.29652 0.102471,0.44733 0.09302,0.55234 0.06542,0.56433 -0.199498,0.94225 -0.01744,0.0251 -0.03561,0.0499 -0.05305,0.0753 -0.288164,0.41934 -0.52073,0.86667 -0.671536,1.3536 -0.08613,0.27763 -0.171153,0.55671 -0.235109,0.84015 -0.09085,0.40299 -0.159526,0.81108 -0.242378,1.21625 -0.178059,0.87067 -0.337948,1.74425 -0.472037,2.62291 -0.02325,0.15117 -0.03052,0.30489 -0.04396,0.45714 -0.004,0.0461 0.05996,0.12966 0.10574,0.13666 0.166431,0.0251 0.333588,0.0473 0.500018,0.0727 1.105417,0.1697 2.209381,0.34667 3.315887,0.50802 1.212616,0.17697 2.425958,0.34812 3.63494,0.55052 0.256912,0.0429 0.513826,0.096 0.77292,0.11125 0.628292,0.0367 1.249317,0.13267 1.872159,0.21112 0.926995,0.11661 1.851446,0.25402 2.77735,0.38157 0.04506,0.005 0.09231,0.0137 0.135914,0.004 0.02325,-0.004 0.05052,-0.0371 0.05851,-0.0625 0.02908,-0.0927 -0.0047,-0.18169 -0.02943,-0.26928 -0.574148,-2.05022 -1.181364,-4.09061 -1.83255,-6.11758 -0.262727,-0.81726 -0.575601,-1.61597 -1.014571,-2.35982 -0.07741,-0.13116 -0.139177,-0.2729 -0.199862,-0.41316 -0.158799,-0.3663 -0.157709,-0.74314 -0.0665,-1.12577 0.04107,-0.17226 0.131189,-0.3107 0.269632,-0.415 0.110107,-0.0828 0.228569,-0.15371 0.343762,-0.23002 0.42625,-0.28197 0.791452,-0.62539 1.087248,-1.04509 0.476762,-0.67734 0.935353,-1.36597 1.312546,-2.10436 0.250736,-0.49093 0.492023,-0.98695 0.731857,-1.48371 0.4615,-0.95605 0.795086,-1.95755 1.036375,-2.98993 0.110464,-0.47784 0.219848,-0.95679 0.229658,-1.4419 z m 21.615959,-56.7273 c -0.0117,0.0364 0,0.06 0.0334,0.0748 0.39173,0.17478 0.798,0.30341 1.21843,0.38627 0.0447,0.008 0.0909,0.008 0.13663,0.0124 0.0712,0.007 0.12501,-0.0461 0.1083,-0.10534 -0.008,-0.0294 -0.0156,-0.0589 -0.0258,-0.0876 -0.15044,-0.41608 -0.30088,-0.83216 -0.45278,-1.2475 -0.0153,-0.0426 -0.0396,-0.0814 -0.0607,-0.12168 -0.0254,-0.0486 -0.11991,-0.0625 -0.15843,-0.0185 -0.1003,0.1144 -0.20313,0.22711 -0.29289,0.34958 -0.16243,0.22129 -0.31651,0.44913 -0.4724,0.67516 -0.0167,0.0236 -0.0229,0.0545 -0.0338,0.0825 z"
       id="path826"
       style="display:inline;stroke-width:0.363384" />
  </g>
</svg>
