<?xml version="1.0" encoding="UTF-8" standalone="no"?>
<!-- Created with Inkscape (http://www.inkscape.org/) -->

<svg
   viewBox="0 0 96.587814 294.43927"
   version="1.1"
   id="svg9832"
   width="96.587814"
   height="294.43927"
   inkscape:version="1.1 (c68e22c387, 2021-05-23)"
   sodipodi:docname="man1.svg"
   xmlns:inkscape="http://www.inkscape.org/namespaces/inkscape"
   xmlns:sodipodi="http://sodipodi.sourceforge.net/DTD/sodipodi-0.dtd"
   xmlns="http://www.w3.org/2000/svg"
   xmlns:svg="http://www.w3.org/2000/svg">
  <sodipodi:namedview
     id="namedview9834"
     pagecolor="#ffffff"
     bordercolor="#666666"
     borderopacity="1.0"
     inkscape:pageshadow="2"
     inkscape:pageopacity="0.0"
     inkscape:pagecheckerboard="0"
     inkscape:document-units="mm"
     showgrid="false"
     fit-margin-top="0"
     fit-margin-left="0"
     fit-margin-right="0"
     fit-margin-bottom="0"
     inkscape:zoom="0.67081229"
     inkscape:cx="327.9606"
     inkscape:cy="538.89889"
     inkscape:window-width="1920"
     inkscape:window-height="1017"
     inkscape:window-x="1912"
     inkscape:window-y="-8"
     inkscape:window-maximized="1"
     inkscape:current-layer="layer1" />
  <defs
     id="defs9829" />
  <g
     inkscape:label="Layer 1"
     inkscape:groupmode="layer"
     id="layer1"
     transform="translate(-17.969049,-5.8162245)">
    <path
       style="fill:#000000;stroke-width:0.264583"
       d="m 90.879359,299.32944 c -1.16267,-0.50755 -2.13523,-0.92281 -2.16123,-0.92281 -0.026,0 -0.29018,-0.39301 -0.58706,-0.87337 -0.38276,-0.61933 -1.25489,-1.24589 -2.99814,-2.15397 -3.91831,-2.04107 -4.661968,-2.95132 -4.05604,-4.96467 0.21046,-0.69932 0.42944,-3.45069 0.54456,-6.84207 0.16252,-4.78803 0.12859,-5.86073 -0.21761,-6.88044 -0.520657,-1.53357 -1.727998,-8.77916 -2.043982,-12.26651 -0.132749,-1.46507 -0.311793,-6.95001 -0.39788,-12.18876 -0.137306,-8.35566 -0.236752,-10.02847 -0.810046,-13.62605 -0.628007,-3.94092 -0.655825,-4.64854 -0.712486,-18.12395 l -0.05896,-14.02292 -2.710775,-11.29057 c -1.490927,-6.20982 -2.710775,-11.49335 -2.710775,-11.74118 0,-0.4285 -3.671745,-9.86122 -4.363911,-11.2109 -0.307887,-0.60036 -0.347625,-0.53393 -0.633105,1.05833 -0.167529,0.9344 -0.600218,3.30625 -0.961531,5.27078 -0.487201,2.64901 -0.724889,5.21252 -0.919961,9.92187 -1.134314,27.38431 -1.335543,33.12215 -1.38258,39.42292 -0.05073,6.79591 0.61342,28.07616 0.99917,32.01458 0.09977,1.01865 0.830844,4.11427 1.624605,6.87917 1.67463,5.83319 3.987249,15.59568 4.218461,17.80781 0.129437,1.23835 0.04524,1.79781 -0.447178,2.9714 -0.876231,2.08833 -1.875485,3.50766 -2.773251,3.93909 -1.497028,0.71946 -2.776638,1.82441 -3.935058,3.39802 -1.314556,1.7857 -2.656163,2.44305 -4.986038,2.44305 -2.480848,0 -8.24484,-2.41757 -9.597938,-4.02563 -0.863928,-1.02674 -0.828276,-1.56488 0.271857,-4.10353 1.296852,-2.99257 1.244732,-3.67488 -0.538038,-7.04323 -1.288304,-2.43409 -1.495415,-3.04197 -1.725073,-5.06312 -0.143547,-1.26331 -0.490548,-3.86485 -0.771115,-5.78123 -0.980128,-6.69458 -1.10726,-8.29509 -1.201486,-15.12596 -0.0912,-6.61141 -0.622165,-15.23934 -1.717815,-27.91355 -0.283049,-3.27421 -1.117233,-14.62487 -1.853743,-25.22366 l -1.339106,-19.27055 -0.05702,-19.35862 -0.05702,-19.35862 0.717227,-2.64584 c 0.394478,-1.45521 0.960734,-3.35115 1.258353,-4.2132 0.546529,-1.58303 1.315067,-5.70073 1.880294,-10.0743 0.169259,-1.30968 0.531788,-2.82299 0.805621,-3.36289 0.284224,-0.56039 0.49788,-1.53272 0.49788,-2.26578 0,-1.72847 0.651473,-6.50102 1.308375,-9.58487 0.362553,-1.70203 0.536755,-3.52 0.539562,-5.63089 0.0044,-3.33208 -0.218397,-4.23886 -1.432935,-5.8312 -0.77202,-1.01217 -2.323119,-4.286178 -2.811426,-5.934262 -0.183245,-0.618464 -0.430329,-1.124479 -0.549079,-1.124479 -0.550754,0 -1.065707,1.900018 -1.555832,5.740551 -0.632494,4.95613 -1.117118,6.79138 -2.084202,7.89283 -1.491983,1.69928 -1.8073,2.5298 -2.25738,5.94578 -1.28133,9.72493 -2.286508,14.33797 -4.235059,19.43585 -2.956737,7.73553 -5.442857,16.32177 -5.442857,18.79782 0,0.69092 0.385564,1.58988 1.379537,3.21646 l 1.379538,2.25753 0.186322,3.7908 c 0.102479,2.08495 0.33155,4.94459 0.509048,6.35476 0.314341,2.49732 0.345847,2.5776 1.212265,3.0888 1.006504,0.59385 1.126014,1.24652 0.501796,2.74048 -0.303536,0.72647 -0.710825,1.07591 -1.875428,1.60909 -1.816161,0.83146 -2.914925,0.72497 -5.261274,-0.50993 -1.564687,-0.8235 -4.381804,-3.36252 -4.381804,-3.94924 0,-0.16166 -0.303752,-0.69216 -0.675002,-1.1789 -1.49215,-1.95631 -1.745978,-3.93399 -1.176092,-9.16342 0.837912,-7.68892 1.117103,-12.56941 1.319991,-23.07447 0.33293,-17.2386 0.663601,-19.2579 4.505523,-27.51396 1.500611,-3.22472 1.836327,-5.02796 1.84182,-9.89301 0.0064,-5.696194 0.535109,-8.861236 1.898788,-11.367491 1.859729,-3.417921 1.874231,-3.505969 1.374896,-8.34862 -0.359074,-3.482395 -0.383714,-4.646723 -0.134945,-6.376918 0.669232,-4.654526 2.063253,-8.408252 3.86194,-10.399186 1.099929,-1.217488 3.578159,-2.308294 7.026831,-3.092892 3.74596,-0.852236 4.633825,-1.191088 6.412158,-2.447187 0.980072,-0.692258 3.034914,-2.137502 4.566317,-3.211655 1.5314,-1.07415 3.319134,-2.423724 3.972737,-2.999047 l 1.188371,-1.046046 -0.01161,-2.160328 C 56.065426,47.260925 55.89583,45.964835 55.651249,45.332671 55.426047,44.750588 54.85298,43.01403 54.377767,41.473654 53.630155,39.050299 53.297976,38.401445 51.912216,36.657613 50.302814,34.63235 50.168194,34.313307 49.85752,31.788158 c -0.225176,-1.830236 -0.01124,-2.371497 1.079685,-2.731534 0.502372,-0.165796 0.913403,-0.419468 0.913403,-0.563711 0,-0.144245 -0.308745,-1.474464 -0.686102,-2.956044 -0.622231,-2.443006 -0.674452,-3.038615 -0.56097,-6.397948 0.06882,-2.037291 0.269188,-4.169073 0.44526,-4.737295 0.376626,-1.215467 2.26636,-3.29161 4.996442,-5.489308 4.362296,-3.511621 6.635226,-3.853762 12.90234,-1.942174 1.986002,0.605766 2.311934,0.809093 3.976404,2.48058 2.064025,2.07273 3.467986,4.244419 3.953184,6.114912 0.37586,1.448972 0.798449,4.96878 1.056386,8.798806 0.154557,2.294933 0.229101,2.579688 0.675326,2.579688 0.677314,0 1.549934,1.49675 1.551156,2.660605 0.0011,1.107911 -0.821446,3.648157 -1.665983,5.144603 -0.370819,0.657061 -0.974786,1.236662 -1.592932,1.528667 -0.547608,0.258686 -1.04027,0.615873 -1.094809,0.79375 -0.05454,0.17788 -0.164541,2.751857 -0.244453,5.71995 l -0.145299,5.396532 0.907637,0.831363 c 1.663835,1.524016 6.225734,4.039386 8.599334,4.741561 3.06954,0.908053 6.2165,1.66951 7.80521,1.888598 1.58294,0.218292 5.9475,1.57956 7.356331,2.294377 1.83276,0.929913 5.57649,7.466023 6.30084,11.000549 0.29599,1.444258 0.27717,1.963389 -0.14984,4.135179 -0.31097,1.581573 -0.42335,2.8899 -0.30943,3.602347 0.0984,0.61532 0.99539,3.636055 1.99333,6.712738 2.16051,6.660938 2.30869,7.349506 2.68005,12.453501 0.15803,2.172015 0.46491,4.4342 0.68196,5.02708 2.45491,6.70581 3.27488,10.22108 3.27488,14.03964 0,8.51699 -0.96735,22.87192 -1.97038,29.23937 -0.78471,4.98147 -0.79299,5.16177 -0.54066,11.77618 l 0.20195,5.29388 -0.86199,1.71758 c -0.4741,0.94466 -1.50414,2.70666 -2.28898,3.91553 -1.59412,2.4554 -1.8175,2.59824 -5.5355,3.53969 -2.23543,0.56604 -2.29443,0.56764 -3.1879,0.0865 -0.870991,-0.46907 -1.385131,-1.41318 -1.057911,-1.94264 0.0849,-0.13729 0.60208,-0.34246 1.149391,-0.45593 l 0.99511,-0.20631 -0.79375,-0.15682 -0.793751,-0.15682 -0.072,-5.13715 c -0.0586,-4.1772 0.009,-5.38807 0.360671,-6.47989 0.54001,-1.67577 1.89322,-4.16342 3.72542,-6.84855 0.80794,-1.18406 1.4099,-2.35855 1.4099,-2.75091 0,-0.37658 -0.4122,-2.60193 -0.916,-4.94523 -2.36303,-10.99114 -3.04988,-16.4259 -3.06205,-24.22868 -0.006,-4.15901 -0.12365,-6.48092 -0.38758,-7.68082 -0.20806,-0.94589 -0.38375,-2.37464 -0.39043,-3.175 -0.009,-1.12488 -0.25045,-1.96572 -1.061931,-3.70417 -0.57739,-1.23693 -1.66362,-4.153956 -2.41386,-6.482289 -1.76495,-5.477444 -1.84359,-5.688542 -2.119,-5.688542 -1.51135,6.856904 -3.66427,13.720251 -5.07955,19.882631 l 0.48683,3.61858 c 0.36331,2.70049 0.52508,6.10235 0.63759,13.40816 l 0.15077,9.78959 0.71024,1.05833 c 0.84924,1.26543 0.9355,1.73846 2.34007,12.83229 0.81601,6.44505 1.44371,10.18954 2.50597,14.94896 2.42602,10.86977 2.3329,9.90442 2.14383,22.225 -0.0916,5.96635 -0.29899,13.05057 -0.46095,15.74271 -0.29621,4.92371 -0.1848,12.29038 0.28811,19.05 0.43894,6.27423 0.32829,18.02293 -0.23425,24.87083 -0.28092,3.41974 -0.64634,8.24177 -0.81205,10.71563 -0.1657,2.47385 -0.59038,5.94032 -0.94373,7.70327 -0.72385,3.61149 -0.82745,7.31723 -0.37161,13.29279 0.33554,4.39854 1.34615,8.21563 3.09239,11.67998 1.024341,2.03216 1.263091,2.76301 1.246681,3.81627 -0.0179,1.14681 -0.1287,1.39388 -0.926041,2.06454 -1.14616,0.96404 -5.40496,3.11608 -6.15816,3.11179 -0.31263,-0.003 -1.5197,-0.41849 -2.68237,-0.92604 z M 26.357418,168.35741 c 0.08513,-0.22186 -0.06885,-1.02553 -0.342201,-1.78593 -0.593614,-1.65134 -1.257221,-1.83135 -2.008577,-0.54485 l -0.489249,0.83771 0.832557,0.94823 c 0.871786,0.99291 1.744625,1.22981 2.00747,0.54484 z m 77.846932,-2.70547 c -0.7378,-0.94077 -1.1515,-1.0711 -1.39401,-0.43914 -0.24163,0.62968 0.0443,0.90216 0.94661,0.90216 0.73388,0 0.77619,-0.0438 0.4474,-0.46302 z m 1.12255,-2.77812 c 0.0752,-0.81635 -0.1097,-1.42755 -0.57704,-1.90741 -0.50129,-0.51473 -0.50754,-0.51473 -0.89674,0 -0.48086,0.63595 -0.52798,1.88135 -0.078,2.06291 0.64233,0.25918 1.52174,0.17106 1.55182,-0.1555 z"
       id="path9141"
       sodipodi:nodetypes="ssssssssssscssssssssssscsssssssssscccsssssssssssssssscsssssssssssssssssssscsssssssssssssssscsssscssssssssscssscsssssscccssssssssssccsscssssssssssssscsssscsssssssssss" />
  </g>
</svg>
