<?xml version="1.0" encoding="UTF-8" standalone="no"?>
<!-- Created with Inkscape (http://www.inkscape.org/) -->

<svg
   width="63.266781mm"
   height="166.40796mm"
   viewBox="0 0 63.266782 166.40796"
   version="1.1"
   id="svg5"
   inkscape:version="1.1 (c68e22c387, 2021-05-23)"
   sodipodi:docname="Monk1.svg"
   xmlns:inkscape="http://www.inkscape.org/namespaces/inkscape"
   xmlns:sodipodi="http://sodipodi.sourceforge.net/DTD/sodipodi-0.dtd"
   xmlns:xlink="http://www.w3.org/1999/xlink"
   xmlns="http://www.w3.org/2000/svg"
   xmlns:svg="http://www.w3.org/2000/svg">
  <sodipodi:namedview
     id="namedview7"
     pagecolor="#ffffff"
     bordercolor="#666666"
     borderopacity="1.0"
     inkscape:pageshadow="2"
     inkscape:pageopacity="0.0"
     inkscape:pagecheckerboard="0"
     inkscape:document-units="mm"
     showgrid="false"
     inkscape:snap-global="false"
     inkscape:zoom="1.3416246"
     inkscape:cx="106.58719"
     inkscape:cy="307.46306"
     inkscape:window-width="1920"
     inkscape:window-height="1017"
     inkscape:window-x="1912"
     inkscape:window-y="-8"
     inkscape:window-maximized="1"
     inkscape:current-layer="layer2" />
  <defs
     id="defs2">
    <linearGradient
       inkscape:collect="always"
       id="linearGradient17480">
      <stop
         style="stop-color:#08090d;stop-opacity:0.92176038"
         offset="0"
         id="stop17476" />
      <stop
         style="stop-color:#101119;stop-opacity:0.74117647;"
         offset="0.88239777"
         id="stop17816" />
      <stop
         style="stop-color:#181925;stop-opacity:0.1002445"
         offset="1"
         id="stop17478" />
    </linearGradient>
    <linearGradient
       inkscape:collect="always"
       id="linearGradient9640">
      <stop
         style="stop-color:#722a2a;stop-opacity:1"
         offset="0"
         id="stop9636" />
      <stop
         style="stop-color:#2d161d;stop-opacity:1"
         offset="1"
         id="stop9638" />
    </linearGradient>
    <linearGradient
       inkscape:collect="always"
       id="linearGradient9634">
      <stop
         style="stop-color:#533f22;stop-opacity:1"
         offset="0"
         id="stop9630" />
      <stop
         style="stop-color:#2d161d;stop-opacity:1"
         offset="1"
         id="stop9632" />
    </linearGradient>
    <linearGradient
       inkscape:collect="always"
       id="linearGradient7566">
      <stop
         style="stop-color:#d8d4d4;stop-opacity:1"
         offset="0"
         id="stop8155" />
      <stop
         style="stop-color:#0d0b0b;stop-opacity:1"
         offset="1"
         id="stop8157" />
    </linearGradient>
    <linearGradient
       inkscape:collect="always"
       id="linearGradient7566-9">
      <stop
         style="stop-color:#0b0909;stop-opacity:1"
         offset="0"
         id="stop7562" />
      <stop
         style="stop-color:#0b0909;stop-opacity:1"
         offset="1"
         id="stop7564" />
    </linearGradient>
    <linearGradient
       inkscape:collect="always"
       id="linearGradient4843">
      <stop
         style="stop-color:#533f22;stop-opacity:1"
         offset="0"
         id="stop4841" />
      <stop
         style="stop-color:#503049;stop-opacity:1"
         offset="1"
         id="stop4839" />
    </linearGradient>
    <radialGradient
       inkscape:collect="always"
       xlink:href="#linearGradient9640"
       id="radialGradient4591"
       cx="96.156532"
       cy="135.50728"
       fx="96.156532"
       fy="135.50728"
       r="13.130786"
       gradientTransform="matrix(0.318545,-0.39102791,1.2465779,1.0155066,-119.21876,38.46853)"
       gradientUnits="userSpaceOnUse" />
    <radialGradient
       inkscape:collect="always"
       xlink:href="#linearGradient9640"
       id="radialGradient4837"
       cx="477.806"
       cy="81.941437"
       fx="477.806"
       fy="81.941437"
       r="11.033652"
       gradientTransform="matrix(-0.4549887,-0.30332455,0.77002277,-1.1550403,225.78341,344.9757)"
       gradientUnits="userSpaceOnUse" />
    <radialGradient
       inkscape:collect="always"
       xlink:href="#linearGradient4843"
       id="radialGradient6948"
       gradientUnits="userSpaceOnUse"
       gradientTransform="matrix(0.31528659,-0.02158916,0.02581929,0.37706303,49.761443,77.175039)"
       cx="80.880585"
       cy="118.31724"
       fx="80.880585"
       fy="118.31724"
       r="11.033652" />
    <radialGradient
       inkscape:collect="always"
       xlink:href="#linearGradient9640"
       id="radialGradient7308"
       cx="96.071709"
       cy="80.339737"
       fx="96.071709"
       fy="80.339737"
       r="14.509521"
       gradientTransform="matrix(1,0,0,1.1498442,0,-13.310521)"
       gradientUnits="userSpaceOnUse" />
    <radialGradient
       inkscape:collect="always"
       xlink:href="#linearGradient7566-9"
       id="radialGradient7568"
       cx="89.226471"
       cy="92.170181"
       fx="89.226471"
       fy="92.170181"
       r="6.2119298"
       gradientTransform="matrix(1,0,0,1.2346057,0,-21.888641)"
       gradientUnits="userSpaceOnUse" />
    <radialGradient
       inkscape:collect="always"
       xlink:href="#linearGradient4843"
       id="radialGradient7926"
       cx="87.844193"
       cy="88.829102"
       fx="87.844193"
       fy="88.829102"
       r="14.509521"
       gradientTransform="matrix(1,0,0,1.1498442,0,-13.310521)"
       gradientUnits="userSpaceOnUse" />
    <radialGradient
       inkscape:collect="always"
       xlink:href="#linearGradient4843"
       id="radialGradient7934"
       cx="96.156456"
       cy="135.50723"
       fx="96.156456"
       fy="135.50723"
       r="13.130786"
       gradientTransform="matrix(0.31854517,-0.3910278,1.2465784,1.015507,-119.21876,38.468483)"
       gradientUnits="userSpaceOnUse" />
    <radialGradient
       inkscape:collect="always"
       xlink:href="#linearGradient7566-9"
       id="radialGradient8145"
       cx="80.586678"
       cy="148.75455"
       fx="80.586678"
       fy="148.75455"
       r="8.6392584"
       gradientTransform="matrix(1,0,0,1.1444111,0,-21.48181)"
       gradientUnits="userSpaceOnUse" />
    <radialGradient
       inkscape:collect="always"
       xlink:href="#linearGradient7566"
       id="radialGradient8318"
       gradientUnits="userSpaceOnUse"
       gradientTransform="matrix(0.49450858,-0.00355825,0.00112411,0.15622303,30.750428,200.38756)"
       cx="59.732124"
       cy="231.47475"
       fx="59.732124"
       fy="231.47475"
       r="9.3523846" />
    <radialGradient
       inkscape:collect="always"
       xlink:href="#linearGradient9634"
       id="radialGradient9078"
       cx="161.10265"
       cy="132.23834"
       fx="161.10265"
       fy="132.23834"
       r="29.376854"
       gradientTransform="matrix(0.28309589,-0.04615157,0.19636411,1.2045067,30.40696,-30.097552)"
       gradientUnits="userSpaceOnUse" />
    <radialGradient
       inkscape:collect="always"
       xlink:href="#linearGradient9640"
       id="radialGradient9086"
       cx="161.10265"
       cy="132.23834"
       fx="161.10265"
       fy="132.23834"
       r="29.376854"
       gradientTransform="matrix(0.28309589,-0.04615157,0.19636411,1.2045067,30.40696,-30.097551)"
       gradientUnits="userSpaceOnUse" />
    <radialGradient
       inkscape:collect="always"
       xlink:href="#linearGradient4843"
       id="radialGradient15377"
       cx="335.32938"
       cy="605.84344"
       fx="335.32935"
       fy="605.84344"
       r="65.890938"
       gradientTransform="matrix(0.3834825,-0.00565597,0.01388669,0.9415365,229.05815,38.880515)"
       gradientUnits="userSpaceOnUse" />
    <radialGradient
       inkscape:collect="always"
       xlink:href="#linearGradient7566-9"
       id="radialGradient15423"
       gradientUnits="userSpaceOnUse"
       gradientTransform="matrix(0.38348254,-0.00565595,0.01388664,0.94153718,229.05816,38.880081)"
       cx="335.32938"
       cy="605.84351"
       fx="335.32938"
       fy="605.84351"
       r="65.890938" />
    <radialGradient
       inkscape:collect="always"
       xlink:href="#linearGradient9640"
       id="radialGradient15938"
       cx="75.777977"
       cy="198.53273"
       fx="75.777977"
       fy="198.53273"
       r="2.852864"
       gradientTransform="matrix(1,0,0,11.105195,0,-2007.8614)"
       gradientUnits="userSpaceOnUse" />
    <radialGradient
       inkscape:collect="always"
       xlink:href="#linearGradient17480"
       id="radialGradient17482"
       cx="90.474152"
       cy="237.56862"
       fx="90.474152"
       fy="237.56862"
       r="26.919321"
       gradientTransform="matrix(1.1785256,-0.04761719,0.01465202,0.36263744,-23.084009,152.27427)"
       gradientUnits="userSpaceOnUse" />
  </defs>
  <g
     inkscape:groupmode="layer"
     id="layer2"
     inkscape:label="Layer 2"
     style="display:inline"
     transform="translate(-54.285905,-75.461059)">
    <ellipse
       style="fill:url(#radialGradient17482);fill-opacity:1;fill-rule:evenodd;stroke:none;stroke-width:0.613879;stroke-miterlimit:4;stroke-dasharray:none;stroke-opacity:1;paint-order:fill markers stroke;stop-color:#000000"
       id="path17452"
       cx="87.022957"
       cy="234.11742"
       rx="31.750994"
       ry="7.0009961" />
    <use
       x="0"
       y="0"
       xlink:href="#path4236"
       id="use9031"
       width="100%"
       height="100%"
       transform="matrix(-1,0,0,1,169.48636,-0.41834804)" />
    <g
       id="g9034"
       inkscape:label="ShoeR">
      <path
         style="font-variation-settings:normal;opacity:1;vector-effect:none;fill:url(#radialGradient8318);fill-opacity:1;stroke:none;stroke-width:0.322003;stroke-linecap:butt;stroke-linejoin:miter;stroke-miterlimit:4;stroke-dasharray:none;stroke-dashoffset:0;stroke-opacity:0.766129;-inkscape-stroke:none;stop-color:#000000;stop-opacity:1"
         d="m 63.304779,224.32769 c -1.970081,1.63201 -1.175455,5.11641 -2.662349,7.1982 -1.208372,1.69183 -3.776533,2.15283 -4.831675,3.94423 -1.033963,1.75544 -2.169321,6.11354 -1.084659,6.01494 1.084659,-0.0986 9.151232,1.29492 13.015936,-0.69024 2.246497,-1.15394 4.291853,-3.30353 3.648407,-5.71913 -1.027176,-3.85618 3.249672,-9.6798 0.0986,-12.12848 -2.184562,-1.69762 -6.053723,-0.38446 -8.184264,1.38048 z"
         id="path4236"
         sodipodi:nodetypes="ssssssss" />
    </g>
    <path
       style="font-variation-settings:normal;opacity:1;vector-effect:none;fill:url(#radialGradient9086);fill-opacity:1;stroke:url(#radialGradient9078);stroke-width:0.322003;stroke-linecap:butt;stroke-linejoin:miter;stroke-miterlimit:4;stroke-dasharray:none;stroke-dashoffset:0;stroke-opacity:0.766129;-inkscape-stroke:none;stop-color:#000000;stop-opacity:1"
       d="m 65.276891,184.78685 c -1.793155,11.51265 -5.342179,29.7011 -6.310757,42.20319 -0.371577,4.7962 23.466507,2.37028 23.665338,4.33864 0.705446,6.9837 36.074358,1.85157 34.709158,-2.36653 -3.66179,-11.31391 -6.90238,-41.01992 -6.90238,-41.80877 0,-0.78884 -0.24359,-24.95961 -6.31077,-35.49801 -3.69306,-6.41468 7.22096,-37.6228 1.77491,-44.17529 -9.195901,-11.064189 -21.080233,-11.653278 -31.982044,-2.08184 -4.995454,4.38585 -1.249771,16.34515 -1.543854,22.98622 -0.372527,8.41252 3.448003,14.38799 -0.986054,25.24303 -5.036562,12.33003 -4.106094,18.27084 -6.113547,31.15936 z"
       id="path987"
       sodipodi:nodetypes="sssssssssss" />
    <path
       id="path12021"
       style="font-variation-settings:normal;opacity:1;vector-effect:none;fill:url(#radialGradient15377);fill-opacity:1;stroke:url(#radialGradient15423);stroke-width:1.21702;stroke-linecap:butt;stroke-linejoin:miter;stroke-miterlimit:4;stroke-dasharray:none;stroke-dashoffset:0;stroke-opacity:0.766129;-inkscape-stroke:none;stop-color:#000000;stop-opacity:1"
       d="m 274.53608,567.36477 c -3.0597,-3.74205 -9.75336,10.32549 -5.30316,12.21239 8.66209,3.67276 38.91463,7.80522 59.64794,9.14159 3.47326,0.22387 11.56087,-3.98669 10.41797,-0.69922 -3.80871,10.95549 -5.94465,54.99336 -8.00692,82.23792 -0.26291,3.47334 11.89527,5.32133 11.9424,1.66568 0.20172,-15.64377 1.87982,-72.58294 3.66761,-79.62724 2.58766,-10.19597 -2.73106,79.19494 6.59007,96.57809 1.55125,2.89295 11.18868,-0.61417 10.23365,-3.75477 -9.37882,-30.84184 -3.97783,-87.51828 -7.48246,-97.10742 -1.81397,-4.96327 31.31679,0.34884 42.33097,-8.50937 1.84216,-1.48156 0.98917,-14.89827 -2.23609,-13.54846 -17.63993,7.38249 -38.62509,10.66958 -62.0533,8.25668 -27.98582,-2.88229 -54.09211,0.0722 -59.74868,-6.84587 z"
       transform="scale(0.26458333)"
       sodipodi:nodetypes="ssssssssssssss" />
    <use
       x="0"
       y="0"
       xlink:href="#g10220"
       id="use10337"
       width="100%"
       height="100%"
       transform="matrix(-1,0,0,1,176.5604,-1.4860914)" />
    <g
       id="g10220"
       inkscape:label="ArmR">
      <path
         style="font-variation-settings:normal;opacity:1;vector-effect:none;fill:url(#radialGradient8145);fill-opacity:1;stroke:none;stroke-width:0.322003;stroke-linecap:butt;stroke-linejoin:miter;stroke-miterlimit:4;stroke-dasharray:none;stroke-dashoffset:0;stroke-opacity:0.766129;-inkscape-stroke:none;stop-color:#000000;stop-opacity:1"
         d="m 75.581544,153.11538 c 2.477866,4.09431 3.993853,9.50229 4.741277,8.50641 5.879245,-7.83362 9.912737,-21.30015 4.880729,-22.59079 -6.909057,-1.77208 -13.31504,7.98218 -9.622006,14.08438 z"
         id="path8061"
         sodipodi:nodetypes="ssss" />
      <path
         style="font-variation-settings:normal;opacity:1;fill:url(#radialGradient4591);fill-opacity:1;stroke:url(#radialGradient7934);stroke-width:0.6;stroke-linecap:butt;stroke-linejoin:miter;stroke-miterlimit:4;stroke-dasharray:none;stroke-dashoffset:0;stroke-opacity:0.766129;stop-color:#000000;stop-opacity:1"
         d="m 70.840266,105.9815 c -7.69228,5.0392 -11.921637,23.15409 -10.693853,29.24231 1.874323,9.29423 23.068888,33.41186 20.725997,27.10514 -4.877174,-13.12865 9.334629,-0.86289 6.566434,-24.96144 -0.317483,-2.76385 -18.462885,-6.24041 -16.761952,-7.58803 1.971818,-1.56224 8.011608,-8.29106 7.972537,-13.47873 -0.03249,-4.31355 -4.200822,-12.68307 -7.809163,-10.31925 z"
         id="path985"
         sodipodi:nodetypes="sssssss" />
    </g>
    <path
       style="font-variation-settings:normal;opacity:1;fill:url(#radialGradient4837);fill-opacity:1;stroke:url(#radialGradient6948);stroke-width:1.522;stroke-linecap:butt;stroke-linejoin:miter;stroke-miterlimit:4;stroke-dasharray:none;stroke-dashoffset:0;stroke-opacity:0.766129;stop-color:#000000;stop-opacity:1"
       d="m 64.079027,105.49137 c 5.669737,-1.55389 9.817673,-6.301931 15.584489,-5.19756 3.099062,0.59348 8.193601,4.14181 8.271258,11.42663 0.09094,8.53137 -4.412562,9.91899 -5.366748,18.42955 -1.137432,10.14495 -20.15484,-24.20206 -18.488999,-24.65862 z"
       id="path870"
       sodipodi:nodetypes="sssss" />
    <use
       x="0"
       y="0"
       xlink:href="#path870"
       id="use10419"
       width="100%"
       height="100%"
       transform="matrix(-1,0,0,1,176.13755,0.18730075)" />
    <path
       style="font-variation-settings:normal;opacity:1;fill:url(#radialGradient7308);fill-opacity:1;stroke:url(#radialGradient7926);stroke-width:0.6;stroke-linecap:butt;stroke-linejoin:miter;stroke-miterlimit:4;stroke-dasharray:none;stroke-dashoffset:0;stroke-opacity:0.766129;stop-color:#000000;stop-opacity:1"
       d="m 88.350595,75.804963 c -7.069172,0.77011 -9.841239,11.206402 -9.990096,14.555685 -0.394422,8.874503 -10.276694,14.564142 -5.430313,15.766982 1.937194,0.4808 10.942497,-4.92468 15.75707,-4.67941 4.686647,0.23875 16.967594,7.31402 17.012114,2.62151 0.0814,-8.573958 -6.788538,-10.351931 -5.27104,-15.055724 1.97062,-6.108367 -5.697111,-13.904142 -12.077735,-13.209043 z"
       id="path3178"
       sodipodi:nodetypes="sssssss" />
    <path
       style="font-variation-settings:normal;opacity:1;vector-effect:none;fill:url(#radialGradient7568);fill-opacity:1;stroke:none;stroke-width:0.322003;stroke-linecap:butt;stroke-linejoin:miter;stroke-miterlimit:4;stroke-dasharray:none;stroke-dashoffset:0;stroke-opacity:0.766129;-inkscape-stroke:none;stop-color:#000000;stop-opacity:1"
       d="m 95.450198,89.385956 c 0.983887,-2.611844 -12.968369,-2.821235 -12.890503,0.661959 0.04267,1.908989 1.276885,5.540009 0.272009,7.365318 -1.004876,1.825309 -4.248839,1.844907 -2.118685,2.841807 2.935128,1.37362 12.93447,-0.19976 15.506203,0.33666 4.017238,0.83794 -2.371366,-6.952138 -0.769024,-11.205744 z"
       id="path3650"
       sodipodi:nodetypes="ssssss" />
    <path
       style="font-variation-settings:normal;opacity:1;vector-effect:none;fill:url(#radialGradient15938);fill-opacity:1;stroke:none;stroke-width:0.322003;stroke-linecap:butt;stroke-linejoin:miter;stroke-miterlimit:4;stroke-dasharray:none;stroke-dashoffset:0;stroke-opacity:0.766129;-inkscape-stroke:none;stop-color:#000000;stop-opacity:1"
       d="m 77.60259,168.41833 c -1.246583,7.04249 -3.686757,56.18698 -5.028885,59.06473 -0.800004,1.71534 5.844856,4.28919 5.324699,1.97212 -2.169321,-9.66335 1.743653,-72.55868 -0.295814,-61.03685 z"
       id="path15699"
       sodipodi:nodetypes="ssss" />
    <use
       x="0"
       y="0"
       xlink:href="#path15699"
       id="use16178"
       width="100%"
       height="100%"
       transform="matrix(-0.90223905,0,0,0.55323897,158.41255,103.89987)" />
    <use
       x="0"
       y="0"
       xlink:href="#path15699"
       id="use16180"
       width="100%"
       height="100%"
       transform="matrix(-0.56007573,0,0,0.78872385,147.82723,37.517341)" />
  </g>
</svg>
