<?xml version="1.0" encoding="UTF-8" standalone="no"?>
<!-- Created with Inkscape (http://www.inkscape.org/) -->

<svg
   width="48.833084mm"
   height="61.05629mm"
   viewBox="0 0 48.833085 61.05629"
   version="1.1"
   id="svg5"
   inkscape:version="1.1 (c68e22c387, 2021-05-23)"
   sodipodi:docname="rose1.svg"
   xmlns:inkscape="http://www.inkscape.org/namespaces/inkscape"
   xmlns:sodipodi="http://sodipodi.sourceforge.net/DTD/sodipodi-0.dtd"
   xmlns:xlink="http://www.w3.org/1999/xlink"
   xmlns="http://www.w3.org/2000/svg"
   xmlns:svg="http://www.w3.org/2000/svg">
  <sodipodi:namedview
     id="namedview7"
     pagecolor="#ffffff"
     bordercolor="#666666"
     borderopacity="1.0"
     inkscape:pageshadow="2"
     inkscape:pageopacity="0.0"
     inkscape:pagecheckerboard="0"
     inkscape:document-units="mm"
     showgrid="false"
     inkscape:snap-global="false"
     showguides="false"
     inkscape:zoom="2"
     inkscape:cx="3.5"
     inkscape:cy="143.75"
     inkscape:window-width="1920"
     inkscape:window-height="1017"
     inkscape:window-x="1912"
     inkscape:window-y="-8"
     inkscape:window-maximized="1"
     inkscape:current-layer="layer2" />
  <defs
     id="defs2">
    <linearGradient
       inkscape:collect="always"
       id="linearGradient21111">
      <stop
         style="stop-color:#0b2210;stop-opacity:1;"
         offset="0"
         id="stop21107" />
      <stop
         style="stop-color:#1a1713;stop-opacity:1"
         offset="1"
         id="stop21109" />
    </linearGradient>
    <linearGradient
       inkscape:collect="always"
       id="linearGradient20921">
      <stop
         style="stop-color:#1b5428;stop-opacity:1;"
         offset="0"
         id="stop20917" />
      <stop
         style="stop-color:#0b2210;stop-opacity:1"
         offset="1"
         id="stop20919" />
    </linearGradient>
    <linearGradient
       inkscape:collect="always"
       id="linearGradient18183-2">
      <stop
         style="stop-color:#e02332;stop-opacity:1"
         offset="0"
         id="stop18181" />
      <stop
         style="stop-color:#3e1c22;stop-opacity:1"
         offset="1"
         id="stop18179" />
    </linearGradient>
    <linearGradient
       inkscape:collect="always"
       xlink:href="#linearGradient18183-2"
       id="linearGradient16762"
       x1="67.902145"
       y1="21.054361"
       x2="67.978401"
       y2="22.559507"
       gradientUnits="userSpaceOnUse"
       gradientTransform="rotate(26.403809,56.987026,21.605481)" />
    <radialGradient
       inkscape:collect="always"
       xlink:href="#linearGradient18183-2"
       id="radialGradient18511"
       cx="66.790649"
       cy="4.95785"
       fx="66.790649"
       fy="4.95785"
       r="5.4754505"
       gradientUnits="userSpaceOnUse" />
    <radialGradient
       inkscape:collect="always"
       xlink:href="#linearGradient18183-2"
       id="radialGradient19512"
       cx="252.43712"
       cy="18.738331"
       fx="252.43712"
       fy="18.738331"
       r="20.694616"
       gradientUnits="userSpaceOnUse"
       gradientTransform="matrix(1.2436953,0.36408901,-0.36640267,1.3900728,-54.651957,-99.218894)" />
    <radialGradient
       inkscape:collect="always"
       xlink:href="#linearGradient18183-2"
       id="radialGradient19865"
       gradientUnits="userSpaceOnUse"
       gradientTransform="matrix(0.86428921,0.01013359,-0.00166928,0.75775401,34.289725,1.9811947)"
       cx="252.43712"
       cy="18.738331"
       fx="252.43712"
       fy="18.738331"
       r="20.694616" />
    <linearGradient
       inkscape:collect="always"
       xlink:href="#linearGradient20921"
       id="linearGradient20923"
       x1="71.470924"
       y1="18.614021"
       x2="75.323975"
       y2="20.522835"
       gradientUnits="userSpaceOnUse" />
    <linearGradient
       inkscape:collect="always"
       xlink:href="#linearGradient21111"
       id="linearGradient21151"
       x1="73.492447"
       y1="20.157845"
       x2="75.191666"
       y2="20.157845"
       gradientUnits="userSpaceOnUse" />
    <radialGradient
       inkscape:collect="always"
       xlink:href="#linearGradient18183-2"
       id="radialGradient21590"
       gradientUnits="userSpaceOnUse"
       gradientTransform="matrix(1.2436953,0.36408901,-0.36640267,1.3900728,-54.651957,-99.218894)"
       cx="252.43712"
       cy="18.738331"
       fx="252.43712"
       fy="18.738331"
       r="20.694616" />
  </defs>
  <g
     inkscape:groupmode="layer"
     id="layer2"
     inkscape:label="Layer 2"
     transform="translate(-57.091674,2.1916329)">
    <g
       id="g13204">
      <path
         id="path8196"
         style="fill:#000000;fill-opacity:1;fill-rule:evenodd;stroke-width:0.159952;stroke-linecap:round;stroke-linejoin:bevel;paint-order:fill markers stroke;stop-color:#000000"
         d="m 79.797971,1.065025 c -2.398102,-0.10792735 2.719711,3.5213645 2.901981,7.2575799 0.483995,1.553954 1.503198,4.0638871 2.237549,5.8204591 -0.328619,2.638026 2.447694,4.364273 0.17533,6.445618 -4.261232,4.468523 -8.504393,9.116467 -10.933373,14.400106 -1.228056,3.493618 -3.347035,1.979029 -3.494462,-0.459951 -1.898139,-5.592092 -3.033699,-5.088974 -5.909997,-9.255966 -1.519371,-2.144179 -2.025592,-4.847285 -4.02883,-8.06539 -1.45746,5.773342 6.896767,14.872765 7.515062,15.970852 0.730913,2.364975 1.201289,5.174414 2.375469,7.253343 0.688373,2.743958 -2.537041,5.536056 -2.667037,8.566681 -4.43584,9.077399 -6.726243,10.346169 -0.963778,9.73676 4.693072,0.600511 -0.05064,-3.395859 2.432416,-2.051988 2.217278,-0.582178 5.403306,-1.216685 6.957946,-1.473206 2.48834,-0.282697 4.883718,0.571493 7.279666,0.843032 2.193387,1.560355 1.386514,2.597847 2.571004,0.173978 1.462001,-0.116829 4.524129,0.07678 6.167083,-1.094044 2.506715,-0.319321 4.432955,-2.015529 6.168566,-3.679941 3.276654,-5.120323 -0.89165,-0.998381 -3.09615,-7.08e-4 -0.02399,1.205143 -6.333651,2.668649 -7.763643,2.158125 -1.464562,0.05805 -3.428068,-0.331695 -5.266837,-0.529146 1.481282,-0.614013 6.416623,-8.639322 5.743725,-9.4791 -3.708719,3.19263 -2.370436,5.435994 -7.925541,8.315266 -0.664276,1.179284 -3.637053,0.270274 -5.440056,0.892915 -1.466716,0.213354 -4.974886,1.429913 -5.114506,0.238179 1.129972,-3.627598 2.869147,-7.025277 4.174246,-10.587068 1.341577,-2.373598 2.518821,-4.966574 3.426879,-6.860864 1.502308,-2.00286 2.719214,-5.244105 4.62642,-6.380006 2.301501,-0.105952 3.603103,-1.301761 5.850464,-2.06095 0.875556,0.06958 6.107928,-2.278267 8.125717,-2.820577 6.397926,-2.351003 12.219876,-7.734456 6.488116,-4.576951 -4.661414,1.958482 -6.726056,3.001971 -10.376672,3.636871 -2.78043,0.649371 -5.331698,2.112457 -8.186507,2.435136 1.536967,-1.954074 2.956351,-3.628266 4.665644,-5.432082 2.582257,-3.548649 7.436148,-9.240017 10.900381,-11.9143811 2.472454,-4.1432059 4.276944,-6.1590105 -2.705137,-0.662847 -1.097051,0.821213 -3.504306,3.5743631 -4.753858,5.4189531 -1.595075,1.084635 -2.506815,3.458758 -4.163449,3.422012 C 86.666419,14.020048 85.864271,11.230953 84.811898,8.5767269 84.00637,5.7965026 80.797599,3.5106765 79.797971,1.065025 Z m 3.312908,2.4557486 0.03868,0.088236 z"
         sodipodi:nodetypes="ccccccccccccccccccccccccccccccccccccccccccc" />
    </g>
    <g
       id="g17285"
       inkscape:label="Flower"
       style="fill:url(#radialGradient18511);fill-opacity:1"
       transform="translate(12.909118,-2.3386084)">
      <path
         sodipodi:type="star"
         style="fill:url(#radialGradient19865);fill-opacity:1;fill-rule:evenodd;stroke-width:0.377953;stroke-linecap:round;stroke-linejoin:bevel;paint-order:fill markers stroke;stop-color:#000000"
         id="path13433-8"
         inkscape:flatsided="false"
         sodipodi:sides="4"
         sodipodi:cx="252.43712"
         sodipodi:cy="18.738331"
         sodipodi:r1="19.40913"
         sodipodi:r2="9.3248091"
         sodipodi:arg1="1.188238"
         sodipodi:arg2="1.6110168"
         inkscape:rounded="0.2"
         inkscape:randomized="0"
         transform="scale(0.26458333)"
         d="m 259.68245,36.744427 c -1.6987,1.567483 -5.49393,-7.782614 -7.62028,-8.688828 -3.26624,-1.392017 -15.22337,0.537397 -17.63115,-2.071935 -1.56748,-1.698697 7.78262,-5.493933 8.68883,-7.62028 1.39202,-3.266237 -0.5374,-15.2233702 2.07194,-17.6311489 1.69869,-1.56748377 5.49393,7.7826134 7.62028,8.688828 3.26623,1.3920169 15.22337,-0.5373972 17.63114,2.0719349 1.56749,1.698697 -7.78261,5.493933 -8.68882,7.62028 -1.39202,3.266236 0.53739,15.22337 -2.07194,17.631149 z" />
      <path
         sodipodi:type="star"
         style="fill:url(#radialGradient19512);fill-opacity:1;fill-rule:evenodd;stroke-width:0.377953;stroke-linecap:round;stroke-linejoin:bevel;paint-order:fill markers stroke;stop-color:#000000"
         id="path19771"
         inkscape:flatsided="false"
         sodipodi:sides="4"
         sodipodi:cx="252.43712"
         sodipodi:cy="18.738331"
         sodipodi:r1="13.619599"
         sodipodi:r2="6.2875113"
         sodipodi:arg1="1.6999895"
         sodipodi:arg2="2.2377905"
         inkscape:rounded="0.2"
         inkscape:randomized="0"
         transform="scale(0.26458333)"
         d="m 250.68245,32.244427 c -1.75326,0.208627 -1.05774,-7.167148 -2.13496,-8.566095 -1.42975,-1.856776 -9.33956,-4.367627 -9.61647,-6.69467 -0.20863,-1.753258 7.16715,-1.057743 8.5661,-2.134956 1.85677,-1.42975 4.36762,-9.3395662 6.69467,-9.616471 1.75326,-0.2086277 1.05774,7.167148 2.13495,8.566094 1.42975,1.856777 9.33957,4.367628 9.61647,6.69467 0.20863,1.753259 -7.16714,1.057744 -8.56609,2.134957 -1.85678,1.42975 -4.36763,9.339566 -6.69467,9.616471 z" />
      <path
         sodipodi:type="star"
         style="fill:url(#radialGradient21590);fill-opacity:1;fill-rule:evenodd;stroke-width:0.377953;stroke-linecap:round;stroke-linejoin:bevel;paint-order:fill markers stroke;stop-color:#000000"
         id="path21588"
         inkscape:flatsided="false"
         sodipodi:sides="4"
         sodipodi:cx="252.43712"
         sodipodi:cy="18.738331"
         sodipodi:r1="13.619599"
         sodipodi:r2="6.623117"
         sodipodi:arg1="1.6999895"
         sodipodi:arg2="2.1080599"
         inkscape:rounded="0.2"
         inkscape:randomized="0"
         transform="matrix(0.08680204,0.02936963,-0.02936963,0.08680204,45.428934,-4.0826605)"
         d="m 250.68245,32.244427 c -1.54812,0.392307 -0.6606,-6.550705 -1.63496,-7.816094 -1.53262,-1.990408 -9.49938,-5.009542 -10.11647,-7.444671 -0.3923,-1.548118 6.55071,-0.660603 7.8161,-1.634956 1.9904,-1.53262 5.00954,-9.4993869 7.44467,-10.116471 1.54812,-0.3923075 0.6606,6.550704 1.63495,7.816094 1.53262,1.990407 9.49939,5.009542 10.11647,7.44467 0.39231,1.548119 -6.5507,0.660603 -7.81609,1.634957 -1.99041,1.53262 -5.00954,9.499387 -7.44467,10.116471 z" />
    </g>
    <g
       id="g15152"
       inkscape:label="Leave1"
       transform="rotate(35.050186,67.874065,8.4566396)">
      <path
         style="fill:url(#linearGradient20923);fill-opacity:1;fill-rule:evenodd;stroke-width:0.1;stroke-linecap:round;stroke-linejoin:bevel;paint-order:fill markers stroke;stop-color:#000000"
         d="m 75.490278,15.902537 c -3.439553,1.878707 -5.37714,7.378836 -1.777344,7.951268 3.727659,-3.058505 2.413944,-5.028014 1.777344,-7.951268 z"
         id="path13891"
         sodipodi:nodetypes="ccc" />
      <path
         style="fill:none;fill-opacity:1;fill-rule:evenodd;stroke:url(#linearGradient21151);stroke-width:0.1;stroke-linecap:round;stroke-linejoin:bevel;stroke-miterlimit:4;stroke-dasharray:none;stroke-opacity:1;paint-order:fill markers stroke;stop-color:#000000"
         d="m 73.597666,23.64694 c 0,0 -0.189991,-3.009735 0.135046,-4.185825 0.296419,-1.072539 1.408955,-2.792365 1.408955,-2.792365"
         id="path15187"
         sodipodi:nodetypes="csc" />
    </g>
    <path
       style="fill:url(#linearGradient16762);fill-opacity:1;fill-rule:evenodd;stroke:none;stroke-width:0.1;stroke-linecap:round;stroke-linejoin:bevel;stroke-miterlimit:4;stroke-dasharray:none;stroke-opacity:1;paint-order:fill markers stroke;stop-color:#000000"
       d="m 67.694043,25.69296 c 0,0 -1.503062,0.722254 -2.185012,1.426056 -0.238187,0.245819 0.509321,0.898819 0.771025,0.678204 0.475579,-0.400911 1.413987,-2.10426 1.413987,-2.10426 z"
       id="path16450"
       sodipodi:nodetypes="cssc" />
    <use
       x="0"
       y="0"
       xlink:href="#g15152"
       id="use16977"
       width="100%"
       height="100%"
       transform="rotate(-82.40209,71.000592,-2.4551554)" />
    <use
       x="0"
       y="0"
       xlink:href="#use16977"
       id="use16979"
       width="100%"
       height="100%"
       transform="rotate(47.75489,83.414767,18.360546)" />
    <use
       x="0"
       y="0"
       xlink:href="#g15152"
       id="use16981"
       width="100%"
       height="100%"
       transform="matrix(-0.736567,0,0,0.65892495,143.94726,6.1848781)" />
    <use
       x="0"
       y="0"
       xlink:href="#path16450"
       id="use16983"
       width="100%"
       height="100%"
       transform="matrix(1,0.48436042,0,1,3.1088542,-28.025815)" />
    <use
       x="0"
       y="0"
       xlink:href="#path16450"
       id="use16985"
       width="100%"
       height="100%"
       transform="matrix(-0.70056777,-0.47462897,0.30714405,-1.1795854,107.65475,100.24936)" />
    <use
       x="0"
       y="0"
       xlink:href="#path16450"
       id="use16987"
       width="100%"
       height="100%"
       transform="translate(18.322396,-18.719271)" />
    <use
       x="0"
       y="0"
       xlink:href="#path16450"
       id="use16989"
       width="100%"
       height="100%"
       transform="rotate(-57.195142,75.270563,3.7700362)" />
    <use
       x="0"
       y="0"
       xlink:href="#path16450"
       id="use16991"
       width="100%"
       height="100%"
       transform="rotate(103.62395,80.972323,36.924674)" />
    <use
       x="0"
       y="0"
       xlink:href="#path16450"
       id="use16993"
       width="100%"
       height="100%"
       transform="rotate(-141.48734,73.278257,17.176378)" />
    <use
       x="0"
       y="0"
       xlink:href="#path16450"
       id="use16995"
       width="100%"
       height="100%"
       transform="rotate(-27.911413,131.05022,-3.4457912)" />
    <use
       x="0"
       y="0"
       xlink:href="#path16450"
       id="use16997"
       width="100%"
       height="100%"
       transform="matrix(-0.08221134,-1.3144876,1.2081106,-0.08945024,41.524295,135.52859)" />
    <use
       x="0"
       y="0"
       xlink:href="#path16450"
       id="use16999"
       width="100%"
       height="100%"
       transform="matrix(0.01936942,-1.2391694,1.0634817,0.02256925,46.79002,111.71625)" />
    <use
       x="0"
       y="0"
       xlink:href="#path16450"
       id="use17001"
       width="100%"
       height="100%"
       transform="rotate(104.12165,88.782679,30.690664)" />
    <use
       x="0"
       y="0"
       xlink:href="#path16450"
       id="use17003"
       width="100%"
       height="100%"
       transform="rotate(-156.57395,63.285351,25.224975)" />
    <use
       x="0"
       y="0"
       xlink:href="#path16450"
       id="use17005"
       width="100%"
       height="100%"
       transform="matrix(0.64065721,-1.1742942,1.3644231,0.28583684,-2.653946,122.92387)" />
    <use
       x="0"
       y="0"
       xlink:href="#path16450"
       id="use17007"
       width="100%"
       height="100%"
       transform="rotate(80.728513,59.990744,39.468477)"
       inkscape:transform-center-x="0.066145833"
       inkscape:transform-center-y="-1.7859375" />
    <use
       x="0"
       y="0"
       xlink:href="#path16450"
       id="use17009"
       transform="rotate(-80.283493,87.82703,26.324439)"
       width="100%"
       height="100%" />
    <use
       x="0"
       y="0"
       xlink:href="#g15152"
       id="use17257"
       width="100%"
       height="100%"
       transform="matrix(-0.47134842,-0.70732729,0.47164253,-0.70688621,82.673479,88.717594)" />
    <use
       x="0"
       y="0"
       xlink:href="#g15152"
       id="use17259"
       width="100%"
       height="100%"
       transform="translate(26.524479,29.170313)" />
    <use
       x="0"
       y="0"
       xlink:href="#g15152"
       id="use17261"
       width="100%"
       height="100%"
       transform="matrix(0.05718842,0.80808685,-1.1958027,0.58906337,124.54825,-57.761194)" />
    <use
       x="0"
       y="0"
       xlink:href="#g15152"
       id="use17263"
       width="100%"
       height="100%"
       transform="matrix(0.03957078,0.9891819,-0.99921677,0.29296505,119.58195,-46.581328)" />
    <use
       x="0"
       y="0"
       xlink:href="#g17285"
       id="use21584"
       width="100%"
       height="100%"
       transform="matrix(1.0061609,0.3845057,-0.23445839,0.90427823,9.3839678,9.6426774)" />
    <use
       x="0"
       y="0"
       xlink:href="#g17285"
       id="use21586"
       width="100%"
       height="100%"
       transform="matrix(0.66424999,0.4204096,-0.43080836,0.6806801,9.2722677,-17.890168)" />
    <use
       x="0"
       y="0"
       xlink:href="#path16450"
       id="use21790"
       width="100%"
       height="100%"
       transform="rotate(-98.770571,72.464667,18.505675)" />
    <use
       x="0"
       y="0"
       xlink:href="#path16450"
       id="use21792"
       width="100%"
       height="100%"
       transform="rotate(95.52436,67.398906,36.563018)" />
    <use
       x="0"
       y="0"
       xlink:href="#g15152"
       id="use21794"
       width="100%"
       height="100%"
       transform="matrix(0.84809922,0.0901407,0.09330196,-0.76612384,37.07586,66.74059)" />
  </g>
</svg>
