<?xml version="1.0" encoding="UTF-8" standalone="no"?>
<!-- Created with Inkscape (http://www.inkscape.org/) -->

<svg
   width="277.26709"
   height="194.07503"
   viewBox="0 0 73.360253 51.349018"
   version="1.1"
   id="svg5"
   inkscape:version="1.1 (c68e22c387, 2021-05-23)"
   sodipodi:docname="slug1.svg"
   xmlns:inkscape="http://www.inkscape.org/namespaces/inkscape"
   xmlns:sodipodi="http://sodipodi.sourceforge.net/DTD/sodipodi-0.dtd"
   xmlns="http://www.w3.org/2000/svg"
   xmlns:svg="http://www.w3.org/2000/svg">
  <sodipodi:namedview
     id="namedview7"
     pagecolor="#ffffff"
     bordercolor="#666666"
     borderopacity="1.0"
     inkscape:pageshadow="2"
     inkscape:pageopacity="0.0"
     inkscape:pagecheckerboard="0"
     inkscape:document-units="px"
     showgrid="false"
     inkscape:snap-nodes="false"
     inkscape:snap-others="false"
     inkscape:zoom="2"
     inkscape:cx="92.5"
     inkscape:cy="7.25"
     inkscape:window-width="1920"
     inkscape:window-height="1017"
     inkscape:window-x="1912"
     inkscape:window-y="-8"
     inkscape:window-maximized="1"
     inkscape:current-layer="layer1" />
  <defs
     id="defs2" />
  <g
     inkscape:label="Layer 1"
     inkscape:groupmode="layer"
     id="layer1">
    <path
       style="fill:#000000;stroke:#ffffff;stroke-width:0.157237;stroke-opacity:1"
       d="m 32.751336,51.341072 c -3.64268,-0.28078 -6.69351,-0.86926 -8.8794,-1.71278 -0.73892,-0.28514 -4.7203,-0.15127 -5.75154,-0.73766 -3.27274,-1.86096 -2.78193,-4.40786 -4.63903,-6.81692 -2.737949,-3.55172 -4.3080492,-7.24478 -4.9909592,-11.73924 -0.16451,-1.08265 -0.40175,-2.64168 -0.52723,-3.46449 -0.41719,-2.73605 0.35285,-6.68793 -0.14263,-7.17288 -0.24747,-0.24222 -0.78478,-1.04785 -1.19402,-1.790296 -0.85615,-1.553259 -2.18621,-2.684288 -3.75876,-3.196334 -1.93323998,-0.629487 -1.88782998,-0.598399 -1.88782998,-1.292309 0,-1.161941 1.13591998,-1.32492 2.07581998,-0.297832 0.59139,0.646255 1.45979,1.073614 2.48913,1.224963 1.07197,0.09244 1.6821,-0.522409 1.00577,-1.113185 -0.66257,-0.564628 -0.56955,-1.344222 -0.0527,-1.529341 0.78792,-0.282201 1.76071,0.705711 1.76071,0.705711 l -1.68684,-1.779541 c -0.83407,-0.8799124 -2.63894,-3.79234 -3.61199,-4.808797 -0.44949,-0.469547 -1.08287,-0.980016 -1.40749,-1.134376 -0.67394998,-0.320454 -1.37643,-1.274262 -1.37754,-1.870366 -0.001,-0.889311 1.24544,-1.293224 2.16477,-0.701133 0.24309,0.15656 0.54396,0.635893 0.66859,1.065181 0.48598,1.673892 4.54388,6.3306446 6.6292595,7.607595 0.27396,0.167761 0.7841007,0.30502 1.1336107,0.30502 0.5669,0 0.67928,-0.09499 1.04111,-0.879933 0.59911,-1.299748 0.85281,-2.640486 0.85281,-4.506989 0,-1.367514 -0.0917,-1.864032 -0.51506,-2.78893 -0.34506,-0.753841 -0.47429,-1.295936 -0.39152,-1.64245 0.29707,-1.24368595 1.700579,-1.48393198 2.381639,-0.40767895 0.34549,0.54596595 0.36197,0.72663995 0.1547,1.69539595 -0.52467,2.452166 -0.2434,6.5197776 0.6276,9.076215 0.24884,0.730344 1.29947,2.168903 2.37504,3.251974 1.06702,1.074452 1.28316,1.449128 2.64222,4.579866 3.7885,8.72727 1.48318,11.34556 5.58983,13.42315 2.55102,1.29058 5.03927,1.62016 10.28337,1.36207 4.23407,-0.20837 9.79444,-0.10148 12.3476,0.23735 4.39691,0.58354 8.66759,2.04648 13.80868,4.73022 3.92242,2.04757 8.66825,5.19044 10.69481,7.08251 1.13306,1.05771 0.85282,1.38103 -0.38016,2.00337 -1.13817,0.56211 -2.48717,0.49589 -6.01331,-0.29519 -4.10605,-0.92117 -5.77498,-1.34487 -8.88381,-1.34602 -3.30815,-10e-4 -3.48566,0.42845 -7.52249,1.89167 -3.42543,1.24161 -6.86389,2.13459 -9.49838,2.46676 -1.9958,0.25165 -6.1894,0.42549 -7.6144,0.31565 z"
       id="path946"
       sodipodi:nodetypes="sssssssssssccscssscsssssssssssssssssccscssss" />
  </g>
</svg>
