<?xml version="1.0" encoding="UTF-8" standalone="no"?>
<!-- Created with Inkscape (http://www.inkscape.org/) -->

<svg
   width="109.20149mm"
   height="143.90123mm"
   viewBox="0 0 109.20149 143.90123"
   version="1.1"
   id="svg29859"
   inkscape:version="1.1 (c68e22c387, 2021-05-23)"
   sodipodi:docname="succubus2.svg"
   xmlns:inkscape="http://www.inkscape.org/namespaces/inkscape"
   xmlns:sodipodi="http://sodipodi.sourceforge.net/DTD/sodipodi-0.dtd"
   xmlns="http://www.w3.org/2000/svg"
   xmlns:svg="http://www.w3.org/2000/svg">
  <sodipodi:namedview
     id="namedview29861"
     pagecolor="#ffffff"
     bordercolor="#666666"
     borderopacity="1.0"
     inkscape:pageshadow="2"
     inkscape:pageopacity="0.0"
     inkscape:pagecheckerboard="0"
     inkscape:document-units="mm"
     showgrid="false"
     inkscape:zoom="1"
     inkscape:cx="346"
     inkscape:cy="193.5"
     inkscape:window-width="1920"
     inkscape:window-height="1017"
     inkscape:window-x="1912"
     inkscape:window-y="-8"
     inkscape:window-maximized="1"
     inkscape:current-layer="layer1"
     width="263.85101mm"
     inkscape:lockguides="false"
     fit-margin-top="10"
     fit-margin-right="10"
     fit-margin-left="5"
     fit-margin-bottom="10" />
  <defs
     id="defs29856">
    <style
       id="style996"><![CDATA[
.class1 {
  fill:#000000;
  stroke:#ffffff;
  stroke-dasharray:none;
  stroke-miterlimit:4;
  stroke-opacity:1;
  stroke-width:1;
}
]]></style>
  </defs>
  <g
     inkscape:label="Layer 1"
     inkscape:groupmode="layer"
     id="layer1"
     transform="translate(32.447805,65.738096)">
    <path
       d="m 25.284856,65.527993 c -1.43084,-0.58811 -3.000412,-1.37727 -4.14205,-1.99062 -2.642683,-1.42096 -4.099851,-2.44377 -6.468094,-4.54006 -0.492742,-0.43616 -0.93799,-0.79301 -0.98944,-0.79301 -0.05145,0 -0.51025,0.38915 -1.019554,0.86479 -0.971011,0.90681 -1.395793,1.16434 -2.334786,1.41548 -0.6810717,0.18216 -1.0977907,0.0959 -1.6069237,-0.33246 -0.7325595,-0.61641 -0.7877924,-2.4057 -0.1330094,-4.30886 0.6273044,-1.82329 1.4377381,-2.58906 4.1622581,-3.93285 2.464777,-1.21568 3.301951,-1.86113 4.295538,-3.3118 0.418176,-0.61055 0.965127,-1.27951 1.215447,-1.48657 0.490507,-0.40574 1.450652,-0.74709 2.101392,-0.74709 0.354516,0 1.197634,-0.48499 0.872747,-0.50203 -6.609309,-0.19509 -13.5908425,-1.4426 -18.1002267,-5.77659 -0.9548909,-0.93707 -1.3172606,-1.21544 -1.582233,-1.21544 -0.3984752,0 -0.4415878,-0.0689 -0.3275246,-0.52335 0.1191633,-0.47479 -0.29215877,-1.21653 -0.62616847,-1.12918 -0.6695639,0.17509 -2.53792693,-0.59146 -2.84638293,-1.16781 -0.247803,-0.46302 0.27191,-1.07366 1.569267,-1.84382 0.167436,-0.0994 0.198753,-0.2216 0.133235,-0.5199 -0.07934,-0.36123 -0.132109,-0.39443 -0.71619,-0.45055 -0.894979,-0.086 -0.979489,-0.24752 -0.305598,-0.58408 0.311209,-0.15542 0.589217,-0.32176 0.617794,-0.36964 0.02858,-0.0479 0.09115,-0.73585 0.139056,-1.52883 0.443867,-6.28707 4.2687476,-10.11772 9.1035479,-13.98027 0.9871381,-0.77629 1.7976348,-1.44966 1.8011058,-1.49636 0.169998,-2.70422 -0.1857227,-5.26036 0.243927,-8.10604 l 0.159519,-0.96788 -0.5339467,-1.67708 c -1.278479,-3.88433 -2.7771826,-8.30159 -3.9708031,-11.59569 -0.07818,-0.1951 -0.00239,-0.22042 0.6598602,-0.22042 0.4115034,0 0.774163,-0.026 0.8059114,-0.0577 0.031747,-0.0318 0.010629,-0.60129 -0.046922,-1.26565 -0.096201,-1.11045 -0.1546344,-1.30148 -0.7241265,-2.36732 -0.7352365,-1.37604 -1.0573251,-2.51414 -0.9789573,-3.45916 0.05295,-0.63849 0.033864,-0.69408 -0.3328005,-0.96935 -0.9146874,-0.68668 -2.9417539,-1.5593 -4.40564507,-1.89657 -3.91024213,-0.77548 -7.50949543,1.08353 -9.78816343,3.43661 -0.874231,0.92087 -2.170114,2.70641 -2.517394,3.4686 -0.08511,0.18681 -0.194124,0.33965 -0.242239,0.33965 -0.04812,0 -0.317374,-0.3259 -0.59835,-0.72421 -1.029509,-1.23835 -2.022384,-2.90097 -3.654976,-3.30292 -6.051869,0.0153 -9.074764,9.63681 -10.544436,13.42279 -0.396256,1.03231 -0.750061,1.90526 -0.786233,1.9399 -0.03617,0.0346 -0.02738,-0.67384 0.01955,-1.57439 0.362593,-6.95895 2.20449,-14.56063 4.914194,-20.28133 4.698301,-9.91899 11.56156,-16.94766 21.2829663,-21.79591 1.58663083,-0.79128 2.964887,-1.43869 3.0627898,-1.43869 -1.0045546,2.70253 -2.8431628,5.86779 -2.7000318,9.22728 0.82438503,3.26576 2.6021919,9.78094 6.4835714,10.42101 0.070929,0 0.1493294,-0.70765 0.1848902,-1.66884 0.076246,-2.0609 0.3157482,-2.83202 1.3070964,-4.20844 1.227182,-1.70384 1.432143,-2.39793 1.807223,-6.12012 0.283945,-2.81775 0.544469,-4.26975 1.1626487,-6.47986 l 0.394653,-1.41096 c -0.7814137,-1.96357 -1.4678497,-4.11748 -1.7230137,-6.00341 -0.243086,-1.878 -0.4109005,-5.5827 -0.244928,-5.40709 1.2169277,1.98001 2.3971367,5.25703 4.0835217,6.6845 1.571987,-1.15319 3.138822,-2.42303 4.732563,-3.15206 5.793489,-2.21295 10.186729,1.35425 12.916501,5.4656 1.740927,-1.44819 3.878677,-3.43706 4.92857,-5.37696 0.11613,-0.22514 0.257176,-0.40934 0.313443,-0.40934 0.136613,0 -0.168394,2.03017 -0.534856,3.5601 l -0.294628,1.23001 0.265895,0.0602 c 0.146241,0.0331 0.822826,0.17791 1.503523,0.32182 4.541865,1.03861 9.085062,2.61538 12.994789,5.15582 6.050444,4.02906 10.727,10.39035 13.699382,15.99577 1.26869,2.41513 3.246074,7.09012 3.072389,7.2638 -0.02924,0.0292 -0.270554,-0.24705 -0.536249,-0.61399 -2.414737,-3.33494 -6.069773,-7.20039 -7.749902,-8.19604 -1.050389,-0.62247 -2.29302,-1.00898 -2.90937,-0.90493 -1.649857,0.44713 -1.821611,1.83152 -2.246218,3.14388 -0.290165,0.90055 -0.553753,1.68241 -0.585757,1.73747 -0.03199,0.055 -0.471145,-0.29218 -0.975889,-0.77164 -1.784773,-1.59563 -3.426569,-2.65682 -5.484016,-2.76393 -1.966278,-0.0967 -3.388249,0.40654 -5.179009,1.83278 -1.279379,1.01896 -1.305353,1.05646 -1.060137,1.53066 0.110039,0.21279 0.218085,0.3869 0.240096,0.3869 0.543803,-0.15965 0.959274,-0.32953 1.530064,-0.5038 0.01414,0 0.06072,0.29555 0.103502,0.65678 1.604247,3.86994 2.861668,5.18493 4.832537,7.82204 l 0.313208,-0.68131 c 0.792853,-1.72465 2.055045,-3.17367 3.399423,-3.90258 1.256979,-0.58825 2.660706,-0.64856 3.738894,-0.0567 1.338852,0.74155 2.477435,2.44095 3.55187,5.30137 0.418823,1.11505 1.924195,6.85767 2.200404,8.39405 0.058,0.32262 0.212844,0.56561 0.500014,0.78464 0.310416,0.23676 0.485187,0.53147 0.688609,1.1611 0.43099,1.33409 0.695146,1.76582 1.177877,1.92513 0.233876,0.0772 0.558137,0.28183 0.720602,0.45476 0.276726,0.29456 0.293414,0.39959 0.264245,1.66319 -0.02531,1.09735 -0.08715,1.47829 -0.331655,2.04351 -0.165285,0.38209 -0.338707,0.83641 -0.38537,1.00959 -0.04667,0.17319 -0.272342,0.51325 -0.501535,0.75571 -0.229181,0.24245 -0.477164,0.67023 -0.551072,0.95062 -0.07392,0.28039 -0.310205,0.67714 -0.525088,0.88166 -0.214886,0.20452 -0.440965,0.46445 -0.502406,0.57763 -0.100131,0.18443 -1.269507,6.96564 -1.843246,10.68895 -0.306139,1.98666 -0.29571,7.23587 0.02053,10.32795 0.238525,3.74359 0.510335,9.22819 -1.31873,12.0031 l -0.604901,0.90112 0.953154,0.47903 c 2.741618,1.37785 4.481199,3.37091 4.829413,5.5331 0.07642,6.79786 -7.163045,10.74213 -12.091719,13.08313 -5.289501,2.44614 -11.109652,3.50266 -16.305574,3.51738 -3.360304,-10e-4 -5.871784,-0.26675 -9.124902,-0.96361 -0.505987,-0.10838 -0.945132,-0.17191 -0.975879,-0.14116 -0.119172,0.11918 0.750617,1.25229 1.478688,1.92636 0.832822,0.77104 3.068193,2.48413 4.762457,3.64974 1.216296,0.83677 1.36173,0.95089 1.190233,0.9339 -1.965813,-0.66419 -3.961242,-1.48372 -5.897326,-2.36265 z m 10.451041,-5.1829 c 5.201716,-0.40455 9.838361,-1.62887 14.133143,-3.73188 6.345129,-3.10701 10.398962,-7.35712 9.854944,-10.33213 -3.323166,-6.79502 -14.845083,-5.02719 -19.876391,-4.06209 -2.509245,0.49617 -7.13635,1.76737 -7.77746,2.1367 -1.312686,0.75619 -2.766161,2.11164 -7.305134,6.81242 -1.421754,1.47244 -2.043874,2.01179 -3.211742,2.78447 -1.500903,0.99301 -2.992645,1.78836 -4.204908,2.24193 -0.386307,0.14453 -0.729285,0.30633 -0.762175,0.35954 -0.06676,0.10802 1.514935,0.32828 3.707578,0.51629 3.777482,0.54253 7.669465,-0.3302 11.429081,-0.0724 -1.584889,1.02741 -3.634718,1.90641 -5.486872,2.36716 -1.55481,0.37454 -1.515716,0.35861 -1.18888,0.48466 3.499576,0.68339 7.140802,0.75014 10.688816,0.49536 z m -10.946271,-18.21757 0.654385,-0.0756 1.949665,-2.59811 c 2.288536,-3.04969 3.106027,-4.04914 5.093276,-6.22696 2.540228,-2.78382 5.502432,-5.39391 7.989895,-7.04015 0.744951,-0.49302 1.354457,-0.93766 1.354457,-0.98809 0,-0.0504 -0.467592,-0.21674 -1.039093,-0.36958 -0.571501,-0.15283 -2.654408,-0.80638 -4.628683,-1.45234 -2.750284,-0.89985 -3.928261,-1.22334 -5.038024,-1.38352 -0.796637,-0.11498 -1.695984,-0.31756 -1.998549,-0.45019 -0.473205,-0.20742 -0.538555,-0.28083 -0.467414,-0.52504 0.04549,-0.15616 0.115041,-0.46065 0.154564,-0.67665 0.06845,-0.37413 0.04882,-0.39686 -0.414243,-0.47971 -2.41579,-0.43219 -5.405666,-2.56436 -6.768513,-4.82682 -0.260799,-0.43296 -0.55698,-0.78719 -0.658176,-0.78719 -1.956989,0.82166 -2.752305,1.35331 -4.699778,2.43759 l -0.203609,0.89088 c -0.378579,1.65643 -2.073564,13.1541 -2.073564,14.06569 0,0.33754 -0.08084,0.53483 -0.287139,0.70073 -0.16793,0.13505 -0.413969,0.61755 -0.592642,1.16221 -0.228989,0.69805 -0.456116,1.09609 -0.906859,1.58927 -0.934256,1.02223 -2.084244,1.41686 -4.9517173,1.69924 -0.8312738,0.0819 -1.5351085,0.17201 -1.5640758,0.20033 -0.1365582,0.13351 0.3757006,0.77311 1.1020704,1.37602 1.8769145,1.55792 5.7529597,3.15763 8.7117697,3.59551 2.214334,0.3277 7.110769,0.41343 9.281997,0.16251 z m 18.61606,-3.45985 c 1.596514,-0.1402 6.803542,-0.0833 8.401323,0.0917 l 0.718331,0.0787 -0.376854,-0.89695 c -0.603951,-1.43745 -1.494401,-5.24105 -1.499896,-6.40691 -3.57e-4,-0.0866 -0.0521,-0.15744 -0.114862,-0.15744 -2.265293,1.6327 -4.601513,3.51854 -6.845806,5.2064 -1.644595,1.23561 -2.990173,2.27744 -2.990173,2.31518 0.875687,0.0122 1.894148,-0.15878 2.707937,-0.23071 z M 6.4741927,31.127633 c 1.092983,-0.065 2.0493813,-0.15655 2.1253295,-0.20349 0.2251791,-0.13917 0.8149771,-1.55074 1.1001971,-2.63311 0.4517337,-1.71428 0.6607757,-3.31206 0.7332877,-5.6048 0.06792,-2.14764 0.06363,-2.19908 -0.167259,-2.00688 -1.852417,1.62714 -4.2626052,3.51135 -5.6499324,5.60041 -0.7810988,1.32325 -1.4423847,2.77927 -1.4506423,4.26444 l -7.498e-4,0.86771 0.6612405,-0.0831 c 0.3636824,-0.0457 1.5554989,-0.13624 2.6484819,-0.20121 z M 53.002997,16.923993 c -0.223101,-1.44724 -0.821079,-6.4167 -1.049201,-5.44736 -0.357496,1.63877 -0.558366,3.23076 -0.694621,4.87934 0.575311,0.26506 1.097121,0.71334 1.701954,0.90561 0.06003,0.005 0.07887,-0.14709 0.04187,-0.33759 z M 18.13935,10.513443 c 0.734648,-0.39121 1.35319,-0.7251197 1.374537,-0.7420397 0.02135,-0.0169 0.05695,-0.8162203 0.07912,-1.7762403 0.0476,-2.06159 0.151271,-2.5625 0.827808,-3.99982 0.280086,-0.59504 0.599848,-1.43647 0.710583,-1.86982 0.193942,-0.75899 0.191445,-0.8138 -0.06804,-1.49273 -0.484589,-0.95751 -2.729067,-5.04392 -3.601256,-4.75189 -0.267923,2.64163 -0.212546,5.2749 -0.603695,7.97571 -0.125291,2.71749 -0.663389,4.77504 -0.12172,7.36811 0.03682,0 0.668022,-0.32007 1.402669,-0.71128 z m 23.293507,-13.6156 c 0.379903,-1.50574 0.664831,-2.89916 1.173346,-4.42828 l 0.356211,-1.0591 -0.465404,-0.57825 c -0.777829,-0.96645 -4.361057,-4.55437 -4.446461,-4.45229 -0.04395,0.0525 -0.155731,0.33704 -0.248397,0.63223 -0.217142,0.69173 -0.830483,1.40144 -1.823581,2.1101 -0.463009,0.3304 -0.85785,0.72368 -0.95007,0.94632 -0.223519,0.53962 -0.08034,1.3473 0.437538,2.46818 1.052775,2.27859 2.734386,3.93985 4.663286,4.60685 0.985387,0.34074 1.169087,0.30611 1.303532,-0.24576 z m -5.221206,-26.86773 c 2.818211,-4.86646 2.950197,-10.27589 0.335857,-13.76536 -0.531157,-0.70895 -2.109691,-2.30397 -2.191671,-2.21455 -0.396609,0.93609 -1.806855,2.59898 -1.565359,3.27554 0.252752,4.14627 0.0639,5.82376 -0.09057,10.13728 l -0.404092,0.81561 c -0.222252,0.44859 -0.671822,1.11995 -0.999043,1.4919 l -0.594954,0.67628 0.432265,-0.1095 c 1.900621,-0.56836 3.166707,0.55306 4.336736,0.77456 0.06927,-0.011 0.402657,-0.49777 0.740853,-1.08176 z"
       id="path29950"
       sodipodi:nodetypes="ccssssssssssccssssssssscccccccsscsssccsscccscsscccsssscccccccsscscccscsccsccssccccsccssscsscssssssscccscccssssccssccssssscccccsscsssssssssscsccsssssssssscscsccccccssssccccssscccccsssssccccscccsssssssccscccssccccc"
       class="class1"
       style="fill:#000000;fill-opacity:1;stroke:#ffffff;stroke-width:0.535538;stroke-miterlimit:4;stroke-dasharray:none;stroke-opacity:1" />
  </g>
</svg>
