<?xml version="1.0" encoding="UTF-8" standalone="no"?>
<!-- Created with Inkscape (http://www.inkscape.org/) -->

<svg
   viewBox="0 0 210 297"
   version="1.1"
   id="svg5"
   inkscape:version="1.1 (c68e22c387, 2021-05-23)"
   sodipodi:docname="Tentacle1.svg"
   xmlns:inkscape="http://www.inkscape.org/namespaces/inkscape"
   xmlns:sodipodi="http://sodipodi.sourceforge.net/DTD/sodipodi-0.dtd"
   xmlns:xlink="http://www.w3.org/1999/xlink"
   xmlns="http://www.w3.org/2000/svg"
   xmlns:svg="http://www.w3.org/2000/svg">
  <sodipodi:namedview
     id="namedview7"
     pagecolor="#ffffff"
     bordercolor="#666666"
     borderopacity="1.0"
     inkscape:pageshadow="2"
     inkscape:pageopacity="0.0"
     inkscape:pagecheckerboard="0"
     inkscape:document-units="mm"
     showgrid="false"
     inkscape:snap-global="false"
     inkscape:zoom="0.35355339"
     inkscape:cx="-121.62237"
     inkscape:cy="-4.2426407"
     inkscape:window-width="1284"
     inkscape:window-height="1003"
     inkscape:window-x="798"
     inkscape:window-y="64"
     inkscape:window-maximized="0"
     inkscape:current-layer="layer1" />
  <defs
     id="defs2">
    <linearGradient
       inkscape:collect="always"
       id="linearGradient2662">
      <stop
         style="stop-color:#5e27ac;stop-opacity:0"
         offset="0"
         id="stop3412" />
      <stop
         style="stop-color:#5e27ac;stop-opacity:0.92420542"
         offset="1"
         id="stop3410" />
    </linearGradient>
    <linearGradient
       inkscape:collect="always"
       id="linearGradient2662-8">
      <stop
         style="stop-color:#250f8f;stop-opacity:0.82745099"
         offset="0"
         id="stop2658" />
      <stop
         style="stop-color:#4a18bc;stop-opacity:0.82745099"
         offset="0.63719243"
         id="stop7097" />
      <stop
         style="stop-color:#652ab8;stop-opacity:0.66014671"
         offset="0.76153934"
         id="stop6341" />
      <stop
         style="stop-color:#5e27ac;stop-opacity:0.1002445"
         offset="1"
         id="stop2660" />
    </linearGradient>
    <radialGradient
       inkscape:collect="always"
       xlink:href="#linearGradient2662-8"
       id="radialGradient2664"
       cx="93.5"
       cy="201.5"
       fx="93.5"
       fy="201.5"
       r="42.775349"
       gradientTransform="matrix(1.0430736,-0.0581702,0.01540232,1.1178717,-7.1309478,-18.312233)"
       gradientUnits="userSpaceOnUse" />
    <radialGradient
       inkscape:collect="always"
       xlink:href="#linearGradient2662"
       id="radialGradient3408"
       gradientUnits="userSpaceOnUse"
       gradientTransform="matrix(1.0284218,0.4981908,-0.93657221,1.9333781,117.70852,-129.37488)"
       cx="99.373756"
       cy="118.39882"
       fx="99.373756"
       fy="118.39882"
       r="30.392738" />
    <radialGradient
       inkscape:collect="always"
       xlink:href="#linearGradient2662"
       id="radialGradient4570"
       gradientUnits="userSpaceOnUse"
       gradientTransform="matrix(-1.1261143,0.45937042,0.82780413,2.0293036,122.32105,-130.38958)"
       cx="102.04654"
       cy="119.77228"
       fx="102.04654"
       fy="119.77228"
       r="30.392738" />
    <radialGradient
       inkscape:collect="always"
       xlink:href="#linearGradient2662"
       id="radialGradient7611"
       gradientUnits="userSpaceOnUse"
       gradientTransform="matrix(0.63658695,0.19220317,-0.65929574,1.7969262,124.73175,-41.271295)"
       cx="112.35831"
       cy="112.94037"
       fx="112.35831"
       fy="112.94037"
       r="30.392738" />
  </defs>
  <g
     inkscape:label="Layer 1"
     inkscape:groupmode="layer"
     id="layer1">
    <path
       sodipodi:type="star"
       style="fill:url(#radialGradient2664);fill-opacity:1;fill-rule:evenodd;stroke-width:3.77953;stroke-linecap:round;stroke-linejoin:round;stroke-opacity:0.766129;paint-order:stroke markers fill;stop-color:#000000"
       id="path2496"
       inkscape:flatsided="false"
       sodipodi:sides="7"
       sodipodi:cx="93.5"
       sodipodi:cy="201.5"
       sodipodi:r1="38.653065"
       sodipodi:r2="45.496624"
       sodipodi:arg1="0.78592716"
       sodipodi:arg2="1.2347261"
       inkscape:rounded="-3"
       inkscape:randomized="0"
       d="m 120.81738,228.8463 c 42.19036,-42.14575 -68.612073,35.27144 -12.31352,15.60515 56.29856,-19.6663 -78.608083,-11.25203 -19.351948,-4.54372 59.256128,6.70831 -70.355255,-31.6517 -19.87795,0.10255 50.477308,31.75425 -40.214151,-68.4738 -8.513321,-17.96293 31.700828,50.51088 -19.119493,-74.74046 -12.47388,-15.47726 6.645613,59.2632 28.461862,-74.13341 8.736014,-17.85569 -19.725847,56.27772 46.513635,-61.54813 4.323276,-19.40238 -42.190363,42.14574 75.705509,-23.96905 19.406953,-4.30275 -56.298557,19.66629 77.121046,-2.00881 17.864917,-8.71712 -59.256135,-6.70831 65.941369,44.2445 15.464059,12.49025 -50.477304,-31.75425 49.65474,59.04319 17.95391,8.53232 -31.70083,-50.51088 6.52203,79.14103 -0.12358,19.87783 -6.64562,-59.2632 -15.20261,75.63447 4.52324,19.35675 19.72585,-56.27772 -57.808531,54.44275 -15.61817,12.297 z"
       inkscape:transform-center-x="3.1689327"
       inkscape:transform-center-y="0.084715311"
       transform="matrix(1.584829,0,0,0.74572215,-48.658046,85.999704)" />
    <path
       style="font-variation-settings:normal;opacity:1;vector-effect:none;fill:url(#radialGradient3408);fill-opacity:1;stroke:none;stroke-width:1.21702;stroke-linecap:butt;stroke-linejoin:miter;stroke-miterlimit:4;stroke-dasharray:none;stroke-dashoffset:0;stroke-opacity:0.766129;-inkscape-stroke:none;stop-color:#000000;stop-opacity:1"
       d="m 59,148.5 c -6.119762,32.11584 9.43775,74.76803 24,87.5 14.56225,12.73197 39.5,-2 34.5,-6 -5,-4 -29.21886,-36.46818 -32.5,-63 -3.281143,-26.53182 27.29639,-56.12618 28,-81 0.70361,-24.873821 -47.880238,30.38416 -54,62.5 z"
       id="path857"
       sodipodi:nodetypes="zzzzzz" />
    <path
       style="font-variation-settings:normal;opacity:1;vector-effect:none;fill:url(#radialGradient4570);fill-opacity:1;stroke:none;stroke-width:1.21702;stroke-linecap:butt;stroke-linejoin:miter;stroke-miterlimit:4;stroke-dasharray:none;stroke-dashoffset:0;stroke-opacity:0.766129;-inkscape-stroke:none;stop-color:#000000;stop-opacity:1"
       d="m 154.57058,183 c -1.33894,17.80571 -0.43775,48.26803 -15,61 -14.56225,12.73197 -41.000001,2.5 -36,-1.5 5,-4 26.21886,-31.96818 29.5,-58.5 3.28114,-26.53182 3.83041,-40.71913 9.5,-55 5.66959,-14.28087 13.33894,36.19429 12,54 z"
       id="path4568"
       sodipodi:nodetypes="zzzzzz" />
    <path
       style="font-variation-settings:normal;opacity:1;vector-effect:none;fill:url(#radialGradient7611);fill-opacity:1;stroke:none;stroke-width:1.08493;stroke-linecap:butt;stroke-linejoin:miter;stroke-miterlimit:4;stroke-dasharray:none;stroke-dashoffset:0;stroke-opacity:0.766129;-inkscape-stroke:none;stop-color:#000000;stop-opacity:1"
       d="m 85.41189,193.82002 c -5.85878,26.65966 -28.14488,47.92477 -14.20365,58.49371 13.941236,10.56893 26.10227,6.59462 31.3155,-2.72582 5.21323,-9.32044 9.42058,-21.38655 6.27937,-43.41087 -3.14122,-22.02432 23.13232,-63.59088 20.30592,-84.23888 -2.8264,-20.648 -37.83836,45.22219 -43.69714,71.88186 z"
       id="path7609"
       sodipodi:nodetypes="zzzzzz" />
  </g>
</svg>
