<?xml version="1.0" encoding="UTF-8" standalone="no"?>
<!-- Created with Inkscape (http://www.inkscape.org/) -->

<svg
   width="74.170418mm"
   height="64.457939mm"
   viewBox="0 0 74.170417 64.457939"
   version="1.1"
   id="svg5"
   inkscape:version="1.1 (c68e22c387, 2021-05-23)"
   sodipodi:docname="tome_1.svg"
   xmlns:inkscape="http://www.inkscape.org/namespaces/inkscape"
   xmlns:sodipodi="http://sodipodi.sourceforge.net/DTD/sodipodi-0.dtd"
   xmlns:xlink="http://www.w3.org/1999/xlink"
   xmlns="http://www.w3.org/2000/svg"
   xmlns:svg="http://www.w3.org/2000/svg">
  <sodipodi:namedview
     id="namedview7"
     pagecolor="#ffffff"
     bordercolor="#666666"
     borderopacity="1.0"
     inkscape:pageshadow="2"
     inkscape:pageopacity="0.0"
     inkscape:pagecheckerboard="0"
     inkscape:document-units="mm"
     showgrid="false"
     inkscape:snap-global="false"
     inkscape:zoom="11.313708"
     inkscape:cx="74.864931"
     inkscape:cy="97.271377"
     inkscape:window-width="1920"
     inkscape:window-height="1017"
     inkscape:window-x="1912"
     inkscape:window-y="-8"
     inkscape:window-maximized="1"
     inkscape:current-layer="layer1"
     fit-margin-top="10"
     fit-margin-left="10"
     fit-margin-right="10"
     fit-margin-bottom="20" />
  <defs
     id="defs2">
    <linearGradient
       inkscape:collect="always"
       id="linearGradient14680">
      <stop
         style="stop-color:#6be582;stop-opacity:0.79706603"
         offset="0"
         id="stop3966" />
      <stop
         style="stop-color:#6de88b;stop-opacity:0"
         offset="1"
         id="stop3968" />
    </linearGradient>
    <linearGradient
       inkscape:collect="always"
       id="linearGradient17569">
      <stop
         style="stop-color:#dba092;stop-opacity:1;"
         offset="0"
         id="stop17565" />
      <stop
         style="stop-color:#dba092;stop-opacity:0;"
         offset="1"
         id="stop17567" />
    </linearGradient>
    <linearGradient
       inkscape:collect="always"
       id="linearGradient14680-1">
      <stop
         style="stop-color:#a09cc2;stop-opacity:1;"
         offset="0"
         id="stop14676" />
      <stop
         style="stop-color:#a09cc2;stop-opacity:0;"
         offset="1"
         id="stop14678" />
    </linearGradient>
    <linearGradient
       inkscape:collect="always"
       id="linearGradient4176">
      <stop
         style="stop-color:#4a1b17;stop-opacity:1"
         offset="0"
         id="stop5090" />
      <stop
         style="stop-color:#352825;stop-opacity:1"
         offset="1"
         id="stop5088" />
    </linearGradient>
    <linearGradient
       inkscape:collect="always"
       id="linearGradient4376">
      <stop
         style="stop-color:#9cc2a7;stop-opacity:1"
         offset="0"
         id="stop4372" />
      <stop
         style="stop-color:#a4a77e;stop-opacity:1"
         offset="1"
         id="stop4374" />
    </linearGradient>
    <linearGradient
       inkscape:collect="always"
       id="linearGradient4176-6">
      <stop
         style="stop-color:#ae2c54;stop-opacity:1"
         offset="0"
         id="stop4172" />
      <stop
         style="stop-color:#7c2643;stop-opacity:1"
         offset="1"
         id="stop4174" />
    </linearGradient>
    <linearGradient
       inkscape:collect="always"
       id="linearGradient4080">
      <stop
         style="stop-color:#8ddfe2;stop-opacity:1"
         offset="0"
         id="stop4078" />
      <stop
         style="stop-color:#789bcb;stop-opacity:1"
         offset="1"
         id="stop4076" />
    </linearGradient>
    <radialGradient
       inkscape:collect="always"
       xlink:href="#linearGradient4376"
       id="radialGradient4082"
       cx="16.20153"
       cy="25.375532"
       fx="16.20153"
       fy="25.375532"
       r="15.564212"
       gradientTransform="matrix(0.42626786,0.34848911,-0.55841636,0.68304844,27.366994,2.4491179)"
       gradientUnits="userSpaceOnUse" />
    <radialGradient
       inkscape:collect="always"
       xlink:href="#linearGradient4376"
       id="radialGradient4156"
       cx="33.082863"
       cy="31.912127"
       fx="33.082863"
       fy="31.912127"
       r="16.250246"
       gradientTransform="matrix(1,0,0,0.76837452,0,7.01281)"
       gradientUnits="userSpaceOnUse" />
    <radialGradient
       inkscape:collect="always"
       xlink:href="#linearGradient4176-6"
       id="radialGradient4178"
       cx="9.2555161"
       cy="43.090202"
       fx="9.2555161"
       fy="43.090202"
       r="3.9539587"
       gradientTransform="matrix(0.58177457,0.05018704,-0.14318972,1.6598734,10.040966,-29.057245)"
       gradientUnits="userSpaceOnUse" />
    <radialGradient
       inkscape:collect="always"
       xlink:href="#linearGradient4080"
       id="radialGradient4378"
       cx="18.79056"
       cy="39.630791"
       fx="18.79056"
       fy="39.630791"
       r="18.798347"
       gradientTransform="matrix(1,0,0,0.36807103,0,25.270971)"
       gradientUnits="userSpaceOnUse" />
    <radialGradient
       inkscape:collect="always"
       xlink:href="#linearGradient4080"
       id="radialGradient4544"
       cx="44.710785"
       cy="35.329517"
       fx="44.710785"
       fy="35.329517"
       r="8.3512659"
       gradientTransform="matrix(0.5005526,0.39202262,-1.5599465,1.9918118,77.442842,-51.348034)"
       gradientUnits="userSpaceOnUse" />
    <radialGradient
       inkscape:collect="always"
       xlink:href="#linearGradient4176"
       id="radialGradient5086"
       cx="29.004948"
       cy="51.114712"
       fx="29.004948"
       fy="51.114712"
       r="27.152864"
       gradientTransform="matrix(1,0,0,0.54323994,0,15.227238)"
       gradientUnits="userSpaceOnUse" />
    <radialGradient
       inkscape:collect="always"
       xlink:href="#linearGradient4176"
       id="radialGradient7985"
       cx="53.729942"
       cy="41.215523"
       fx="53.729942"
       fy="41.215523"
       r="5.6964507"
       gradientTransform="matrix(0.87718605,-0.48015062,0.39479987,0.72125895,-9.6523803,38.421228)"
       gradientUnits="userSpaceOnUse" />
    <radialGradient
       inkscape:collect="always"
       xlink:href="#linearGradient14680-1"
       id="radialGradient14682"
       cx="33.906139"
       cy="-10.267199"
       fx="33.906139"
       fy="-10.267199"
       r="6.6982169"
       gradientTransform="matrix(3.0456739,-0.60137304,0.40970913,1.4972381,-65.154341,25.495478)"
       gradientUnits="userSpaceOnUse" />
    <radialGradient
       inkscape:collect="always"
       xlink:href="#linearGradient4176-6"
       id="radialGradient16225"
       gradientUnits="userSpaceOnUse"
       gradientTransform="matrix(-0.36318691,0.35746005,0.65207402,0.54381536,23.364605,14.19744)"
       cx="9.2555161"
       cy="43.090202"
       fx="9.2555161"
       fy="43.090202"
       r="3.9539587" />
    <radialGradient
       inkscape:collect="always"
       xlink:href="#linearGradient14680-1"
       id="radialGradient16263"
       cx="32.148109"
       cy="-1.0780892"
       fx="32.148109"
       fy="-1.0780892"
       r="4.268651"
       gradientTransform="matrix(2.5749473,0.07518017,0.05840805,1.311779,-50.568606,-2.0807746)"
       gradientUnits="userSpaceOnUse" />
    <radialGradient
       inkscape:collect="always"
       xlink:href="#linearGradient4080"
       id="radialGradient16893"
       cx="136.98985"
       cy="28.724651"
       fx="136.98985"
       fy="28.724651"
       r="17.78791"
       gradientTransform="matrix(0.84120844,0.40387252,-0.40528488,0.6424183,34.459828,-41.810395)"
       gradientUnits="userSpaceOnUse" />
    <radialGradient
       inkscape:collect="always"
       xlink:href="#linearGradient17569"
       id="radialGradient17515"
       cx="49.065464"
       cy="0.50005817"
       fx="49.065464"
       fy="0.50005817"
       r="2.6127603"
       gradientTransform="matrix(1.1890759,0.21340786,-1.0854556,5.8259105,-7.6085875,-11.267871)"
       gradientUnits="userSpaceOnUse" />
    <radialGradient
       inkscape:collect="always"
       xlink:href="#linearGradient17569"
       id="radialGradient17571"
       cx="-101.70349"
       cy="9.3621969"
       fx="-101.70349"
       fy="9.3621969"
       r="11.913977"
       gradientTransform="matrix(2.3032825,0.41284251,-0.36068342,2.0122827,135.92517,32.510334)"
       gradientUnits="userSpaceOnUse" />
    <radialGradient
       inkscape:collect="always"
       xlink:href="#linearGradient14680"
       id="radialGradient3884"
       gradientUnits="userSpaceOnUse"
       gradientTransform="matrix(2.0136393,0.24116719,-0.17794175,2.8487747,-20.180228,-53.916323)"
       cx="32.546005"
       cy="22.904499"
       fx="32.546005"
       fy="22.904499"
       r="8.7312498" />
  </defs>
  <g
     inkscape:groupmode="layer"
     id="layer1"
     inkscape:label="Layer 1"
     transform="translate(6.018334,-5.2969249)">
    <ellipse
       style="fill:url(#radialGradient3884);fill-opacity:1;fill-rule:evenodd;stroke-width:0.380438;stroke-linecap:round;stroke-linejoin:round;stroke-opacity:0.766129;paint-order:fill markers stroke;stop-color:#000000"
       id="path3222"
       cx="39.508785"
       cy="17.843384"
       rx="19.322739"
       ry="25.330729"
       transform="matrix(0.93383545,0.35770287,-0.32163605,0.94686337,0,0)" />
    <path
       style="font-variation-settings:normal;opacity:1;vector-effect:none;fill:url(#radialGradient7985);fill-opacity:1;stroke:none;stroke-width:0.322003;stroke-linecap:butt;stroke-linejoin:miter;stroke-miterlimit:4;stroke-dasharray:none;stroke-dashoffset:0;stroke-opacity:0.766129;-inkscape-stroke:none;stop-color:#000000;stop-opacity:1"
       d="m 49.67552,33.866666 c 1.772987,-0.83897 3.039708,-0.563405 4.828646,0.79375 1.788938,1.357155 1.722653,6.769915 0.33073,8.202083 -1.391924,1.432168 -3.373438,3.307292 -3.505729,1.91823 -0.132292,-1.389062 1.540488,-3.873183 0.264582,-5.622397 -1.275906,-1.749214 -5.55625,0.992188 -5.357812,0.661459 0.198438,-0.330729 1.666596,-5.114155 3.439583,-5.953125 z"
       id="path7890"
       sodipodi:nodetypes="zzzzzzz" />
    <path
       style="font-variation-settings:normal;opacity:1;vector-effect:none;fill:url(#radialGradient5086);fill-opacity:1;stroke:none;stroke-width:0.322003;stroke-linecap:butt;stroke-linejoin:miter;stroke-miterlimit:4;stroke-dasharray:none;stroke-dashoffset:0;stroke-opacity:0.766129;-inkscape-stroke:none;stop-color:#000000;stop-opacity:1"
       d="M 20.108333,18.586979 C 13.104007,19.91044 5.161592,37.649124 4.0348958,39.422916 c -1.1266962,1.773792 15.9919212,3.213272 17.3302082,3.96875 1.338287,0.755477 1.366964,2.463025 2.645834,2.38125 1.278869,-0.08178 3.043231,-1.704383 4.233333,-1.785937 1.190101,-0.08156 13.10093,4.543597 13.890624,4.101041 0.789694,-0.442556 15.517816,-18.697896 16.007292,-19.645312 0.489476,-0.947416 -17.316146,0.439784 -23.746354,-1.521354 -6.430208,-1.961138 -7.283174,-9.657836 -14.2875,-8.334375 z"
       id="path5013"
       sodipodi:nodetypes="zzzzzzzzz" />
    <path
       style="font-variation-settings:normal;opacity:1;vector-effect:none;fill:url(#radialGradient4378);fill-opacity:1;stroke:none;stroke-width:0.322003;stroke-linecap:butt;stroke-linejoin:miter;stroke-miterlimit:4;stroke-dasharray:none;stroke-dashoffset:0;stroke-opacity:0.766129;-inkscape-stroke:none;stop-color:#000000;stop-opacity:1"
       d="m 5.007946,33.107241 c -0.4348218,0.664207 1.3386269,0.125233 1.3530687,3.187961 0.014442,3.062728 -1.8714431,2.074876 -1.8708866,2.99342 5.565e-4,0.918544 13.4065959,1.725876 16.8379799,3.367595 3.431384,1.641719 1.021284,2.265204 2.619242,2.61924 1.597958,0.354036 1.812194,-2.238748 4.909701,-1.760318 3.097507,0.478431 12.695491,3.921049 13.137708,3.325122 0.442217,-0.595927 -0.857244,-0.582028 -0.765212,-2.507702 0.09203,-1.925675 0.595534,-0.788986 0.479877,-1.993775 -0.115656,-1.20479 -36.2666563,-9.89575 -36.701478,-9.231543 z"
       id="path1060"
       sodipodi:nodetypes="zzzzzzzzzz" />
    <path
       style="font-variation-settings:normal;opacity:1;vector-effect:none;fill:url(#radialGradient4082);fill-opacity:1;stroke:none;stroke-width:0.322003;stroke-linecap:butt;stroke-linejoin:miter;stroke-miterlimit:4;stroke-dasharray:none;stroke-dashoffset:0;stroke-opacity:0.766129;-inkscape-stroke:none;stop-color:#000000;stop-opacity:1"
       d="m 16.276714,15.528359 c 0.469602,-0.79047 8.010726,0.564138 11.22532,2.245064 3.214593,1.680927 9.791211,4.672826 7.857724,7.670636 C 33.227924,28.7494 25.309452,41.767352 25.090632,42.393581 24.871812,43.01981 21.70019,36.95994 13.470384,34.798492 5.2405782,32.637044 3.955268,34.422031 5.4255714,31.992162 9.3061565,25.578987 13.961668,19.425221 16.276714,15.528359 Z"
       id="path1056"
       sodipodi:nodetypes="szszzss" />
    <path
       style="font-variation-settings:normal;opacity:1;vector-effect:none;fill:url(#radialGradient4156);fill-opacity:1;stroke:none;stroke-width:0.322003;stroke-linecap:butt;stroke-linejoin:miter;stroke-miterlimit:4;stroke-dasharray:none;stroke-dashoffset:0;stroke-opacity:0.766129;-inkscape-stroke:none;stop-color:#000000;stop-opacity:1"
       d="m 35.921024,23.94735 c 0.398494,-1.830415 0.834965,-2.09915 3.180508,-3.367596 2.345543,-1.268446 6.975806,-2.759032 10.102786,-2.619242 3.12698,0.13979 9.159902,1.355918 7.857726,2.80633 -1.302176,1.450412 -13.493195,18.465405 -14.780006,20.766843 -1.286811,2.301438 -2.634256,-0.520011 -8.606078,-0.748355 -5.971822,-0.228344 -9.498953,3.444946 -8.41899,0.935442 1.079963,-2.509504 10.265561,-15.943008 10.664054,-17.773422 z"
       id="path1058"
       sodipodi:nodetypes="zzzzzzzz" />
    <path
       style="font-variation-settings:normal;opacity:1;vector-effect:none;fill:url(#radialGradient4178);fill-opacity:1;stroke:none;stroke-width:0.322003;stroke-linecap:butt;stroke-linejoin:miter;stroke-miterlimit:4;stroke-dasharray:none;stroke-dashoffset:0;stroke-opacity:0.766129;-inkscape-stroke:none;stop-color:#000000;stop-opacity:1"
       d="m 10.517187,36.909375 c 0.641029,0.189385 4.697738,0.913889 5.159376,1.25677 0.461638,0.342881 -1.107453,1.163671 -1.653647,2.248959 -0.546194,1.085288 -1.576242,3.120459 -1.322916,4.299479 0.253326,1.17902 2.10107,4.865631 0.859895,4.828646 -1.241174,-0.03699 -2.583102,-3.691112 -2.778124,-3.175 -0.195022,0.516112 -0.465964,2.492793 -1.1244795,3.307291 C 8.998776,50.490018 7.997713,44.816398 8.2020832,42.597916 8.4064534,40.379434 9.8761582,36.71999 10.517187,36.909375 Z"
       id="path2869"
       sodipodi:nodetypes="zzzzzzzzz" />
    <path
       style="font-variation-settings:normal;opacity:1;vector-effect:none;fill:url(#radialGradient4544);fill-opacity:1;stroke:none;stroke-width:0.322003;stroke-linecap:butt;stroke-linejoin:miter;stroke-miterlimit:4;stroke-dasharray:none;stroke-dashoffset:0;stroke-opacity:0.766129;-inkscape-stroke:none;stop-color:#000000;stop-opacity:1"
       d="m 41.407291,42.597916 c 0.758709,-1.979642 15.291069,-22.789181 15.875,-22.621874 0.583931,0.167307 -1.964882,3.345634 -1.852083,4.894791 0.112799,1.549157 2.39785,3.395571 1.984375,3.571875 -0.413475,0.176304 -14.652951,18.713741 -15.345834,18.322396 -0.692883,-0.391345 -1.420168,-2.187546 -0.661458,-4.167188 z"
       id="path3531"
       sodipodi:nodetypes="zzzzzz" />
    <ellipse
       style="fill:url(#radialGradient16263);fill-opacity:1;fill-rule:evenodd;stroke:none;stroke-width:0.0849844;stroke-linecap:round;stroke-linejoin:round;stroke-opacity:0.766129;paint-order:fill markers stroke;stop-color:#000000"
       id="ellipse11528"
       cx="32.148109"
       cy="-1.0780892"
       rx="4.268651"
       ry="4.332109"
       transform="matrix(0.43529092,0.90028985,-0.88599237,0.46369981,0,0)" />
    <ellipse
       style="fill:url(#radialGradient14682);fill-opacity:1;fill-rule:evenodd;stroke:none;stroke-width:0.133987;stroke-linecap:round;stroke-linejoin:round;stroke-opacity:0.766129;paint-order:fill markers stroke;stop-color:#000000"
       id="path8665"
       cx="33.906139"
       cy="-10.267199"
       rx="6.6982169"
       ry="6.8624201"
       transform="matrix(0.44091396,0.89754938,-0.88898584,0.45793468,0,0)" />
    <path
       sodipodi:type="star"
       style="fill:#9cbcc2;fill-opacity:1;fill-rule:evenodd;stroke:none;stroke-width:0.56315;stroke-linecap:round;stroke-linejoin:round;stroke-opacity:0.766129;paint-order:fill markers stroke;stop-color:#000000"
       id="path8641"
       inkscape:flatsided="false"
       sodipodi:sides="5"
       sodipodi:cx="-124"
       sodipodi:cy="84.5"
       sodipodi:r1="22.824628"
       sodipodi:r2="11.39425"
       sodipodi:arg1="1.4102744"
       sodipodi:arg2="2.117719"
       inkscape:rounded="0.174241"
       inkscape:randomized="0"
       d="m -120.35186,107.0312 c -2.77577,0.22638 -7.08806,-11.543254 -9.57385,-12.799041 -2.23834,-1.130777 -13.40915,3.014076 -14.37539,0.69995 -1.07307,-2.56996 8.78795,-10.308201 9.21412,-13.06039 0.38375,-2.478215 -7.01021,-11.821458 -5.10793,-13.455517 2.11258,-1.814709 12.51931,5.172432 15.26849,4.727272 2.47551,-0.400844 9.0766,-10.320139 11.21852,-9.015916 2.37871,1.448408 -1.0506,13.504938 0.22232,15.982004 1.1462,2.230479 12.61986,5.443261 12.04136,7.883374 -0.64246,2.709874 -13.16861,3.17408 -15.13109,5.15015 -1.76712,1.779357 -1.2771,13.684264 -3.77655,13.888114 z"
       transform="matrix(0.26045652,0.04654827,-0.04654827,0.26045652,60.703897,9.4279934)"
       inkscape:transform-center-x="0.029306709"
       inkscape:transform-center-y="0.57497686" />
    <circle
       id="path9947"
       style="fill:#0000ff;stroke:#5ea230;stroke-width:0.264583"
       cx="35.85104"
       cy="27.119791"
       r="0.0088106189" />
    <circle
       id="path9949"
       style="fill:#0000ff;stroke:#5ea230;stroke-width:0.264583"
       cx="35.85104"
       cy="27.119791"
       r="0.0088106189" />
    <circle
       id="path9951"
       style="fill:#0000ff;stroke:#5ea230;stroke-width:0.264583"
       cx="39.81979"
       cy="23.547916"
       r="0.0088106189" />
    <circle
       id="path9953"
       style="fill:#0000ff;stroke:#5ea230;stroke-width:0.264583"
       cx="39.81979"
       cy="23.547916"
       r="0.0088106189" />
    <path
       style="font-variation-settings:normal;opacity:1;vector-effect:none;fill:none;fill-opacity:1;stroke:#000000;stroke-width:0.207925;stroke-linecap:butt;stroke-linejoin:miter;stroke-miterlimit:4;stroke-dasharray:none;stroke-dashoffset:0;stroke-opacity:0.766129;-inkscape-stroke:none;stop-color:#000000;stop-opacity:1"
       d="m 37.513293,25.131945 c 0,0 0.388931,-2.886452 1.218058,-2.683931 0.829126,0.202519 0.342578,0.383418 0.342578,0.766837 0,0.383418 -0.905054,2.011458 -0.03807,2.108803 0.86699,0.09734 1.351283,-4.409316 1.370315,-3.834187 0.01903,0.575128 -0.437739,2.61204 -0.228386,3.450768 0.209354,0.838729 2.157509,-3.608169 2.055472,-2.779786 -0.102037,0.828384 -1.625985,1.808414 -1.141929,2.396367 0.484056,0.587953 1.54169,-1.609347 1.218057,-0.862691 -0.323632,0.746654 0.456772,1.605564 0.456772,1.605564"
       id="path10207"
       sodipodi:nodetypes="czzzzzzzzc" />
    <use
       x="0"
       y="0"
       xlink:href="#path10207"
       id="use11436"
       width="100%"
       height="100%"
       transform="matrix(-0.37764678,0.86503845,0.73715536,0.6528415,14.928119,-30.433681)" />
    <use
       x="0"
       y="0"
       xlink:href="#use11520"
       id="use11522"
       width="100%"
       height="100%"
       transform="rotate(-17.091152,49.720481,82.53209)" />
    <use
       x="0"
       y="0"
       xlink:href="#path10207"
       id="use11524"
       width="100%"
       height="100%"
       transform="rotate(18.937683,-3.6648766,24.775848)" />
    <use
       x="0"
       y="0"
       xlink:href="#path10207"
       id="use11526"
       width="100%"
       height="100%"
       transform="matrix(-1.1042234,0.33657201,0.21393099,0.64242956,72.123127,9.0518871)" />
    <path
       sodipodi:type="star"
       style="fill:url(#radialGradient17571);fill-opacity:1;fill-rule:evenodd;stroke:none;stroke-width:0.56315;stroke-linecap:round;stroke-linejoin:round;stroke-opacity:0.766129;paint-order:fill markers stroke;stop-color:#000000"
       id="path11634"
       inkscape:flatsided="false"
       sodipodi:sides="5"
       sodipodi:cx="-102"
       sodipodi:cy="8.5"
       sodipodi:r1="13.709438"
       sodipodi:r2="5.1987425"
       sodipodi:arg1="1.5195122"
       sodipodi:arg2="1.7136895"
       inkscape:rounded="0.174241"
       inkscape:randomized="0"
       d="m -101.29723,22.191414 c -1.3356,0.70466 -0.17755,-7.721815 -1.44311,-8.545657 -1.762,-1.147009 -10.55612,1.218824 -12.0638,-0.246505 -1.08289,-1.052474 7.28902,-2.555029 7.68146,-4.0132301 0.54638,-2.0302099 -4.42119,-9.66283157 -3.49348,-11.5495315 0.66633,-1.3551246 4.6824,6.1427203 6.19051,6.0653438 2.09968,-0.107729 7.823673,-7.1907817 9.90471,-6.8914977 1.494707,0.2149612 -4.395131,6.3514393 -3.855513,7.7618188 0.751295,1.9636298 9.256489,5.2186841 9.614929,7.2903517 0.25745,1.487978 -7.398748,-2.2173149 -8.573347,-1.268276 -1.63536,1.321319 -2.102851,10.416106 -3.962359,11.397183 z"
       transform="matrix(0.25401536,0.07403065,-0.07403065,0.25401536,41.223203,33.702414)"
       inkscape:transform-center-x="0.19887975"
       inkscape:transform-center-y="0.10837582" />
    <path
       style="font-variation-settings:normal;opacity:1;vector-effect:none;fill:url(#radialGradient16225);fill-opacity:1;stroke:none;stroke-width:0.214225;stroke-linecap:butt;stroke-linejoin:miter;stroke-miterlimit:4;stroke-dasharray:none;stroke-dashoffset:0;stroke-opacity:0.766129;-inkscape-stroke:none;stop-color:#000000;stop-opacity:1"
       d="m 45.250485,39.397841 c -0.355057,0.44453 -2.761527,3.078604 -2.947741,3.47675 -0.186214,0.398144 1.115063,-0.204703 1.83708,-0.11246 0.722015,0.09224 2.079759,0.261845 2.310987,0.854693 0.231228,0.59285 0.264596,3.060802 1.063012,2.324666 0.79841,-0.736142 0.445528,-2.897513 0.746602,-2.815988 0.301074,0.08152 1.14321,0.670705 1.847488,0.595287 0.704279,-0.07542 -0.550831,-2.801466 -1.430841,-3.520735 -0.880008,-0.719271 -3.071529,-1.246741 -3.426587,-0.802213 z"
       id="path16223"
       sodipodi:nodetypes="zzzzzzzzz" />
    <path
       sodipodi:type="star"
       style="fill:url(#radialGradient16893);fill-opacity:1;fill-rule:evenodd;stroke:none;stroke-width:0.56315;stroke-linecap:round;stroke-linejoin:round;stroke-opacity:0.766129;paint-order:fill markers stroke;stop-color:#000000"
       id="path16885"
       inkscape:flatsided="true"
       sodipodi:sides="5"
       sodipodi:cx="138"
       sodipodi:cy="33.5"
       sodipodi:r1="18.527006"
       sodipodi:r2="14.988664"
       sodipodi:arg1="1.5167948"
       sodipodi:arg2="2.1451134"
       inkscape:rounded="0.174241"
       inkscape:randomized="0"
       d="m 139,51.999999 c -3.7894,0.204832 -16.91973,-8.291489 -18.28553,-11.832128 -1.36579,-3.540639 2.65719,-18.653831 5.60249,-21.046899 2.94529,-2.393068 18.56196,-3.237213 21.74805,-1.175571 3.18609,2.061642 8.81473,16.653123 7.83855,20.320356 C 154.92738,41.93299 142.7894,51.795166 139,51.999999 Z"
       transform="matrix(0.27441072,0,-0.08288756,0.2608277,4.56943,21.626557)"
       inkscape:transform-center-x="0.24496571"
       inkscape:transform-center-y="0.23244172" />
    <rect
       style="font-variation-settings:normal;opacity:1;vector-effect:none;fill:url(#radialGradient17515);fill-opacity:1;fill-rule:evenodd;stroke:none;stroke-width:0.316849;stroke-linecap:butt;stroke-linejoin:miter;stroke-miterlimit:4;stroke-dasharray:none;stroke-dashoffset:0;stroke-opacity:0.766129;-inkscape-stroke:none;stop-color:#000000;stop-opacity:1"
       id="rect17427"
       width="5.9967465"
       height="6.3564658"
       x="47.19281"
       y="-1.0618536"
       transform="matrix(0.81543568,0.5788477,-0.63287519,0.77425383,0,0)" />
    <use
       x="0"
       y="0"
       xlink:href="#use11522"
       id="use17973"
       width="100%"
       height="100%"
       transform="matrix(0.60667624,0.63089687,-0.73945306,0.6580218,31.037741,-4.7347232)" />
    <use
       x="0"
       y="0"
       xlink:href="#path10207"
       id="use17975"
       width="100%"
       height="100%"
       transform="matrix(-0.98426945,0,0,1.0003808,84.748454,-0.07505004)" />
    <use
       x="0"
       y="0"
       xlink:href="#path10207"
       id="use11520"
       width="100%"
       height="100%"
       transform="matrix(-1.060028,-0.04439543,-0.04448641,-0.96739363,83.049941,54.999359)" />
  </g>
</svg>
