<?xml version="1.0" encoding="UTF-8" standalone="no"?>
<!-- Created with Inkscape (http://www.inkscape.org/) -->

<svg
   viewBox="0 0 124.98088 167.76485"
   version="1.1"
   id="svg5"
   inkscape:version="1.1 (c68e22c387, 2021-05-23)"
   sodipodi:docname="unknown.svg"
   width="124.98088"
   height="167.76485"
   xmlns:inkscape="http://www.inkscape.org/namespaces/inkscape"
   xmlns:sodipodi="http://sodipodi.sourceforge.net/DTD/sodipodi-0.dtd"
   xmlns:xlink="http://www.w3.org/1999/xlink"
   xmlns="http://www.w3.org/2000/svg"
   xmlns:svg="http://www.w3.org/2000/svg">
  <sodipodi:namedview
     id="namedview7"
     pagecolor="#ffffff"
     bordercolor="#666666"
     borderopacity="1.0"
     inkscape:pageshadow="2"
     inkscape:pageopacity="0.0"
     inkscape:pagecheckerboard="0"
     inkscape:document-units="mm"
     showgrid="false"
     inkscape:zoom="0.37059484"
     inkscape:cx="582.84676"
     inkscape:cy="427.69079"
     inkscape:window-width="1920"
     inkscape:window-height="1017"
     inkscape:window-x="1912"
     inkscape:window-y="-8"
     inkscape:window-maximized="1"
     inkscape:current-layer="layer1"
     fit-margin-top="10"
     fit-margin-left="10"
     fit-margin-right="10"
     fit-margin-bottom="10" />
  <defs
     id="defs2">
    <linearGradient
       inkscape:collect="always"
       id="linearGradient1276">
      <stop
         style="stop-color:#ac3434;stop-opacity:1"
         offset="0"
         id="stop1272" />
      <stop
         style="stop-color:#ac3434;stop-opacity:1"
         offset="1"
         id="stop1274" />
    </linearGradient>
    <linearGradient
       inkscape:collect="always"
       xlink:href="#linearGradient1276"
       id="linearGradient1278"
       x1="142.60973"
       y1="486.5495"
       x2="830.49103"
       y2="486.5495"
       gradientUnits="userSpaceOnUse" />
    <linearGradient
       inkscape:collect="always"
       xlink:href="#linearGradient1276"
       id="linearGradient1464"
       gradientUnits="userSpaceOnUse"
       x1="142.60973"
       y1="486.5495"
       x2="830.49103"
       y2="486.5495"
       gradientTransform="matrix(0.15,0,0,0.15,413.57151,413.56707)" />
    <linearGradient
       inkscape:collect="always"
       xlink:href="#linearGradient1276"
       id="linearGradient1466"
       gradientUnits="userSpaceOnUse"
       x1="142.60973"
       y1="486.5495"
       x2="830.49103"
       y2="486.5495"
       gradientTransform="matrix(0.15,0,0,0.15,413.57151,413.56707)" />
  </defs>
  <g
     inkscape:label="Layer 1"
     inkscape:groupmode="layer"
     id="layer1"
     style="display:inline"
     transform="translate(-424.06428,-402.66707)">
    <g
       id="g828"
       style="display:inline;stroke:url(#linearGradient1278);stroke-width:12;stroke-miterlimit:4;stroke-dasharray:none">
      <path
         d="m 488.91501,531.79692 h -7.05 c -4.965,0 -9,4.035 -9,9 v 9.735 c 0,4.965 4.035,9 9,9 h 7.05 c 4.96515,0 9,-4.035 9,-9 v -9.735 c 0,-4.97985 -4.03485,-9 -9,-9 z"
         id="path824"
         style="display:inline;stroke:url(#linearGradient1464);stroke-width:1.8;stroke-miterlimit:4;stroke-dasharray:none" />
      <path
         d="m 439.20501,456.43707 13.005,1.62 c 4.125,0.51 8.04,-1.86 9.525,-5.745 1.875,-4.905 4.485,-8.775 7.83,-11.595 4.74015,-3.98999 10.635,-6 17.685,-6 7.305,0 13.125,1.92 17.445,5.745 4.32,3.84 6.465,8.43 6.465,13.815 0,3.87 -1.215,7.41 -3.645,10.62 -1.575,2.04 -6.42,6.33001 -14.505,12.885 -8.1,6.555 -13.48485,12.46485 -16.18485,17.71485 -2.76,5.37015 -3.72,11.325 -3.96,17.29515 -0.20985,5.115 3.87,9.375 9,9.375 h 7.35 c 4.68,0 8.55,-3.58499 8.97,-8.23499 0.3,-3.34486 0.855,-5.87985 1.69515,-7.60486 1.40985,-2.95515 5.05485,-6.85514 10.90485,-11.71499 11.32485,-9.37516 18.70485,-16.78516 22.17,-22.24516 3.45,-5.445 5.19,-11.22 5.19,-17.325 0,-11.025 -4.695,-20.7 -14.1,-29.01 -9.39,-8.31 -22.05,-12.465 -37.95,-12.465 -15.12,0 -27.315,4.09501 -36.615,12.3 -7.92,6.99 -12.735,15.27 -14.43,24.825 -0.52515,2.79 1.37985,5.4 4.15485,5.745 z"
         id="path826"
         style="display:inline;stroke:url(#linearGradient1466);stroke-width:1.8" />
    </g>
  </g>
</svg>
