<?xml version="1.0" encoding="UTF-8" standalone="no"?>
<!-- Created with Inkscape (http://www.inkscape.org/) -->

<svg
   width="135.55261mm"
   height="179.61713mm"
   viewBox="0 0 135.5526 179.61715"
   version="1.1"
   id="svg5"
   inkscape:version="1.1 (c68e22c387, 2021-05-23)"
   sodipodi:docname="WaspHive.svg"
   xmlns:inkscape="http://www.inkscape.org/namespaces/inkscape"
   xmlns:sodipodi="http://sodipodi.sourceforge.net/DTD/sodipodi-0.dtd"
   xmlns:xlink="http://www.w3.org/1999/xlink"
   xmlns="http://www.w3.org/2000/svg"
   xmlns:svg="http://www.w3.org/2000/svg">
  <sodipodi:namedview
     id="namedview7"
     pagecolor="#ffffff"
     bordercolor="#666666"
     borderopacity="1.0"
     inkscape:pageshadow="2"
     inkscape:pageopacity="0.0"
     inkscape:pagecheckerboard="0"
     inkscape:document-units="mm"
     showgrid="false"
     inkscape:snap-global="false"
     inkscape:zoom="0.94867184"
     inkscape:cx="36.893685"
     inkscape:cy="433.76432"
     inkscape:window-width="1920"
     inkscape:window-height="1017"
     inkscape:window-x="1912"
     inkscape:window-y="-8"
     inkscape:window-maximized="1"
     inkscape:current-layer="layer1"
     fit-margin-top="40"
     fit-margin-left="4"
     fit-margin-right="4"
     fit-margin-bottom="4" />
  <defs
     id="defs2">
    <linearGradient
       inkscape:collect="always"
       id="linearGradient22240">
      <stop
         style="stop-color:#f06e0f;stop-opacity:1"
         offset="0"
         id="stop22234" />
      <stop
         style="stop-color:#876a6a;stop-opacity:1"
         offset="0.24379846"
         id="stop22236" />
      <stop
         style="stop-color:#251500;stop-opacity:1"
         offset="1"
         id="stop22238" />
    </linearGradient>
    <linearGradient
       inkscape:collect="always"
       id="linearGradient10343">
      <stop
         style="stop-color:#080702;stop-opacity:0.45882356"
         offset="0"
         id="stop10341" />
      <stop
         style="stop-color:#171305;stop-opacity:0.56862748"
         offset="0.35471272"
         id="stop10345" />
      <stop
         style="stop-color:#110f0b;stop-opacity:0.86797065"
         offset="1"
         id="stop10339" />
    </linearGradient>
    <radialGradient
       inkscape:collect="always"
       xlink:href="#linearGradient22240"
       id="radialGradient1594"
       cx="12.850457"
       cy="-14.024805"
       fx="12.850457"
       fy="-14.024805"
       r="56.876129"
       gradientTransform="matrix(-0.66945145,2.6550849,-0.53478557,-0.13485049,93.988946,96.712797)"
       gradientUnits="userSpaceOnUse" />
    <radialGradient
       inkscape:collect="always"
       xlink:href="#linearGradient22240"
       id="radialGradient1100"
       cx="91.999992"
       cy="70.133919"
       fx="91.999992"
       fy="70.133919"
       r="24.602961"
       gradientTransform="matrix(0.45119299,-0.08939722,0.26168329,1.320731,6.7857337,-18.811507)"
       gradientUnits="userSpaceOnUse" />
    <radialGradient
       inkscape:collect="always"
       xlink:href="#linearGradient10343"
       id="radialGradient1716"
       cx="164.34386"
       cy="215.34393"
       fx="164.34386"
       fy="215.34393"
       r="112.09204"
       gradientTransform="matrix(0.68052303,0.25260328,-0.20145396,0.70179974,151.33515,49.240082)"
       gradientUnits="userSpaceOnUse" />
    <radialGradient
       inkscape:collect="always"
       xlink:href="#linearGradient22240"
       id="radialGradient3181"
       cx="99.197281"
       cy="77.503799"
       fx="99.197281"
       fy="77.503799"
       r="22.900202"
       gradientTransform="matrix(1,0,0,1.1551513,0,-11.309643)"
       gradientUnits="userSpaceOnUse" />
    <radialGradient
       inkscape:collect="always"
       xlink:href="#linearGradient22240"
       id="radialGradient4036"
       cx="31.083233"
       cy="75.857193"
       fx="31.083233"
       fy="75.857193"
       r="24.454184"
       gradientTransform="matrix(0.54887245,0.38649222,-0.42659701,0.60582683,53.558687,21.604955)"
       gradientUnits="userSpaceOnUse" />
    <radialGradient
       inkscape:collect="always"
       xlink:href="#linearGradient22240"
       id="radialGradient4925"
       cx="61.434635"
       cy="106.73447"
       fx="61.434635"
       fy="106.73447"
       r="26.06805"
       gradientTransform="matrix(1,0,0,1.0368955,0,-3.4908579)"
       gradientUnits="userSpaceOnUse" />
    <radialGradient
       inkscape:collect="always"
       xlink:href="#linearGradient22240"
       id="radialGradient5070"
       cx="42.370647"
       cy="104.79827"
       fx="42.370647"
       fy="104.79827"
       r="24.454184"
       gradientTransform="matrix(0.80442705,0.74700849,-0.43932763,0.47309641,62.24553,32.06689)"
       gradientUnits="userSpaceOnUse" />
    <radialGradient
       inkscape:collect="always"
       xlink:href="#linearGradient22240"
       id="radialGradient6329"
       cx="77.346893"
       cy="122.63373"
       fx="77.346893"
       fy="122.63373"
       r="27.133501"
       gradientTransform="matrix(0.99158652,0.12944562,-0.18897265,1.4475788,25.252453,-68.114338)"
       gradientUnits="userSpaceOnUse" />
    <radialGradient
       inkscape:collect="always"
       xlink:href="#linearGradient22240"
       id="radialGradient6977"
       cx="93.13665"
       cy="102.16644"
       fx="93.13665"
       fy="102.16644"
       r="31.854549"
       gradientTransform="matrix(0.28185486,0.28381047,-0.88661125,0.880502,157.1237,-15.645832)"
       gradientUnits="userSpaceOnUse" />
  </defs>
  <g
     inkscape:label="Layer 1"
     inkscape:groupmode="layer"
     id="layer1"
     transform="translate(-6.7023066,-6.0966456)">
    <path
       style="font-variation-settings:normal;opacity:1;vector-effect:none;fill:url(#radialGradient1594);fill-opacity:1;stroke:none;stroke-width:0.322003;stroke-linecap:butt;stroke-linejoin:miter;stroke-miterlimit:4;stroke-dasharray:none;stroke-dashoffset:0;stroke-opacity:0.766129;-inkscape-stroke:none;stop-color:#000000;stop-opacity:1"
       d="m 14.790837,107.67729 c -0.225838,13.12046 20.338302,13.43227 28.792828,23.46813 4.888078,5.80235 5.521913,9.86056 5.521913,12.22709 0,2.36653 -9.81852,17.64752 -5.719124,25.83466 5.199052,10.38333 24.322079,16.54664 33.525896,9.46614 6.565808,-5.05108 -2.853455,-16.93809 -0.394422,-24.84861 2.826453,-9.09249 6.202327,-8.73776 14.001992,-14.1992 8.491677,-5.946 15.19748,0.43687 19.3267,-9.07171 C 116.28827,115.72025 108.5484,84.494343 93.872511,77.701195 66.22989,64.906036 15.061743,91.938531 14.790837,107.67729 Z"
       id="path1567"
       sodipodi:nodetypes="ssssssssss" />
    <g
       id="g22250">
      <path
         style="font-variation-settings:normal;opacity:1;vector-effect:none;fill:url(#radialGradient3181);fill-opacity:1;stroke:#5ea230;stroke-width:0.322003;stroke-linecap:butt;stroke-linejoin:miter;stroke-miterlimit:4;stroke-dasharray:none;stroke-dashoffset:0;stroke-opacity:0.766129;-inkscape-stroke:none;stop-color:#000000;stop-opacity:1"
         d="m 74.151393,52.260954 c 0.119488,-3.625268 11.80529,-5.311738 23.227877,-5.99223 6.11426,-0.364253 19.52154,8.530249 19.96136,10.922511 1.29986,7.07021 -0.8063,10.572987 -3.35259,16.171314 -4.55229,10.008762 -11.94018,11.641811 -15.382464,22.48207 -2.562514,8.069741 -25.045817,-4.535856 -26.426294,-7.296812 -1.380479,-2.760956 1.581525,-24.436466 1.972111,-36.286853 z"
         id="path2888"
         sodipodi:nodetypes="sssssss" />
      <path
         style="font-variation-settings:normal;opacity:1;vector-effect:none;fill:url(#radialGradient1100);fill-opacity:1;stroke:#5ea230;stroke-width:0.322003;stroke-linecap:butt;stroke-linejoin:miter;stroke-miterlimit:4;stroke-dasharray:none;stroke-dashoffset:0;stroke-opacity:0.766129;-inkscape-stroke:none;stop-color:#000000;stop-opacity:1"
         d="m 71.784859,51.2749 c 1.52116,-5.227978 -12.383024,-4.808615 -15.18526,-4.930279 -7.573461,-0.328817 -11.897466,3.021245 -16.960157,5.521912 -4.008298,1.97986 -10.409577,10.51319 -6.70518,13.015937 2.001397,1.352174 5.121652,4.692479 7.296812,6.902389 6.785398,6.893799 3.996987,17.528267 12.818725,21.496015 5.608976,2.522746 14.15674,1.330487 18.143426,-3.352588 C 80.698126,78.763081 69.464769,59.248671 71.784859,51.2749 Z"
         id="path1035"
         sodipodi:nodetypes="ssssssss" />
      <path
         style="font-variation-settings:normal;opacity:1;vector-effect:none;fill:url(#radialGradient4036);fill-opacity:1;stroke:none;stroke-width:0.322003;stroke-linecap:butt;stroke-linejoin:miter;stroke-miterlimit:4;stroke-dasharray:none;stroke-dashoffset:0;stroke-opacity:0.766129;-inkscape-stroke:none;stop-color:#000000;stop-opacity:1"
         d="m 28.003983,64.290835 c -3.251042,0.285331 -14.180968,10.555508 -15.776892,14.396415 -1.579063,3.800328 -1.852389,19.800278 -1.183266,20.707172 2.189927,2.968118 11.271253,8.554078 16.960159,8.085658 4.802666,-0.39544 10.033874,8.11903 16.960159,6.90239 6.151871,-1.08061 16.437087,-6.3957 14.199203,-12.22709 C 54.072543,88.889967 43.189241,73.559759 42.203185,71.78486 40.914673,69.465542 33.483269,63.809939 28.003983,64.290835 Z"
         id="path3995"
         sodipodi:nodetypes="ssssssss" />
      <path
         style="font-variation-settings:normal;opacity:1;vector-effect:none;fill:url(#radialGradient4925);fill-opacity:1;stroke:none;stroke-width:0.322003;stroke-linecap:butt;stroke-linejoin:miter;stroke-miterlimit:4;stroke-dasharray:none;stroke-dashoffset:0;stroke-opacity:0.766129;-inkscape-stroke:none;stop-color:#000000;stop-opacity:1"
         d="m 70.996016,67.643426 c 3.740141,0.729185 18.13003,9.142827 20.904381,11.635456 3.188658,2.864865 -1.723224,11.694989 -2.958168,18.340638 -1.360331,7.3204 -2.583685,18.52714 -5.3247,21.69323 -5.249989,6.06416 -21.735361,-1.80369 -26.031873,-0.19722 -1.562446,0.5842 -14.50723,-22.141942 -16.171314,-26.229078 -2.484968,-6.1033 3.531641,-15.763722 5.719124,-18.537847 2.002759,-2.53986 20.567011,-7.347683 23.86255,-6.705179 z"
         id="path4271"
         sodipodi:nodetypes="ssssssss" />
      <path
         style="font-variation-settings:normal;opacity:1;vector-effect:none;fill:url(#radialGradient5070);fill-opacity:1;stroke:none;stroke-width:0.322003;stroke-linecap:butt;stroke-linejoin:miter;stroke-miterlimit:4;stroke-dasharray:none;stroke-dashoffset:0;stroke-opacity:0.766129;-inkscape-stroke:none;stop-color:#000000;stop-opacity:1"
         d="m 32.934263,99.394421 c -2.55371,0.814649 -12.887457,10.747419 -13.213147,13.015939 -0.447432,3.11649 1.682057,14.0598 2.760956,15.38246 2.991299,3.66716 15.106177,3.94822 21.693225,8.08566 7.879145,4.94904 6.840426,12.14654 12.621516,11.43825 5.564186,-0.68172 12.841218,-7.95279 10.057768,-12.81872 -5.76815,-10.08369 -14.92345,-30.83444 -17.157372,-32.14542 -2.080261,-1.22081 -13.469054,-4.008943 -16.762946,-2.958169 z"
         id="path5024"
         sodipodi:nodetypes="ssssssss" />
      <path
         style="font-variation-settings:normal;opacity:1;vector-effect:none;fill:url(#radialGradient6977);fill-opacity:1;stroke:none;stroke-width:0.322003;stroke-linecap:butt;stroke-linejoin:miter;stroke-miterlimit:4;stroke-dasharray:none;stroke-dashoffset:0;stroke-opacity:0.766129;-inkscape-stroke:none;stop-color:#000000;stop-opacity:1"
         d="m 107.8745,77.10956 c 2.14959,-1.450371 20.40472,2.780427 21.69323,4.535858 2.17161,2.958528 8.98196,17.350806 8.67728,21.890442 -0.25354,3.77781 -8.24951,19.97748 -15.9741,20.31274 -10.86988,0.47177 -32.949642,14.94643 -38.061747,16.17132 -4.313574,1.03355 -9.663346,-17.94622 -9.663346,-19.12949 0,-5.5219 29.912753,-41.476076 33.328683,-43.78087 z"
         id="path6475"
         sodipodi:nodetypes="sssssss" />
      <path
         style="font-variation-settings:normal;display:inline;opacity:1;vector-effect:none;fill:url(#radialGradient6329);fill-opacity:1;stroke:none;stroke-width:0.322003;stroke-linecap:butt;stroke-linejoin:miter;stroke-miterlimit:4;stroke-dasharray:none;stroke-dashoffset:0;stroke-opacity:0.766129;-inkscape-stroke:none;stop-color:#000000;stop-opacity:1"
         d="m 61.135458,110.24103 c 3.327379,-2.44465 23.608752,-5.93429 26.820715,-4.53585 2.709091,1.1795 16.155867,14.48001 17.551797,18.53785 1.13155,3.28934 -2.50547,21.20489 -10.254979,23.27091 -5.292187,1.4109 -16.252041,7.64881 -20.509964,10.64941 -5.213099,3.67372 -17.900538,-4.43805 -22.482072,-8.87451 -2.034966,-1.97053 0.366859,-12.77848 0.394423,-16.56573 0.02873,-3.94713 5.847209,-20.54769 8.48008,-22.48208 z"
         id="path5447"
         sodipodi:nodetypes="ssssssss" />
    </g>
    <path
       id="path846"
       style="fill:url(#radialGradient1716);fill-opacity:1;fill-rule:evenodd;stroke-width:2.26772;paint-order:fill markers stroke;stop-color:#000000"
       inkscape:transform-center-x="0.019453944"
       inkscape:transform-center-y="-0.012717107"
       transform="matrix(0.23819281,0,0,0.2094652,27.296469,77.942662)"
       d="m 294.3244,320.81574 c -14.53758,7.93717 -96.27835,34.12022 -107.66216,27.5956 -13.317,-7.63262 -71.76146,-76.07771 -74.09751,-89.80613 -2.49128,-14.6407 25.70327,-90.96685 36.77323,-100.93899 9.06109,-8.16249 91.11417,-25.809 102.94489,-19.12758 13.69266,7.73295 70.81449,70.77271 71.70555,82.26224 1.27238,16.40636 -17.53523,93.39284 -29.664,100.01486 z"
       sodipodi:nodetypes="sssssss" />
    <use
       x="0"
       y="0"
       xlink:href="#path846"
       inkscape:transform-center-x="-3.9925782"
       inkscape:transform-center-y="1.0262054"
       id="use960"
       width="100%"
       height="100%"
       transform="matrix(-0.70600196,0.23216056,0.54028293,0.53635736,82.869082,-26.914377)" />
    <use
       x="0"
       y="0"
       xlink:href="#path846"
       inkscape:transform-center-x="0.90293467"
       inkscape:transform-center-y="-1.3912725"
       id="use962"
       width="100%"
       height="100%"
       transform="matrix(0.56708005,-0.55078133,0.60045563,0.77725354,-5.0738614,43.441497)" />
    <use
       x="0"
       y="0"
       xlink:href="#path846"
       inkscape:transform-center-x="0.47479208"
       inkscape:transform-center-y="-1.0392213"
       id="use964"
       transform="matrix(0.56080284,-0.39897563,0.33798933,0.5129538,-51.823891,80.868015)"
       width="100%"
       height="100%" />
    <use
       x="0"
       y="0"
       xlink:href="#path846"
       inkscape:transform-center-x="-0.21341704"
       inkscape:transform-center-y="0.036851248"
       id="use966"
       width="100%"
       height="100%"
       transform="matrix(0.98827727,-0.11586504,0.15266972,0.75002944,-31.356055,-1.0717032)" />
    <use
       x="0"
       y="0"
       xlink:href="#path846"
       inkscape:transform-center-x="-0.13593496"
       inkscape:transform-center-y="0.077861726"
       id="use968"
       width="100%"
       height="100%"
       transform="matrix(0.71910418,-0.21501932,0.11098571,0.35505409,-19.235243,27.622876)" />
    <use
       x="0"
       y="0"
       xlink:href="#path846"
       inkscape:transform-center-x="-0.18950051"
       inkscape:transform-center-y="0.14466295"
       id="use970"
       width="100%"
       height="100%"
       transform="matrix(0.59213869,-0.40426437,0.14937693,0.74265129,-39.884376,21.799873)" />
  </g>
</svg>
