<?xml version="1.0" encoding="UTF-8" standalone="no"?>
<!-- Created with Inkscape (http://www.inkscape.org/) -->

<svg
   width="67.872292mm"
   height="69.870285mm"
   viewBox="0 0 67.872292 69.870285"
   version="1.1"
   id="svg5"
   inkscape:version="1.1 (c68e22c387, 2021-05-23)"
   sodipodi:docname="Plug_Large.svg"
   xmlns:inkscape="http://www.inkscape.org/namespaces/inkscape"
   xmlns:sodipodi="http://sodipodi.sourceforge.net/DTD/sodipodi-0.dtd"
   xmlns:xlink="http://www.w3.org/1999/xlink"
   xmlns="http://www.w3.org/2000/svg"
   xmlns:svg="http://www.w3.org/2000/svg">
  <sodipodi:namedview
     id="namedview7"
     pagecolor="#ffffff"
     bordercolor="#666666"
     borderopacity="1.0"
     inkscape:pageshadow="2"
     inkscape:pageopacity="0.0"
     inkscape:pagecheckerboard="0"
     inkscape:document-units="mm"
     showgrid="false"
     fit-margin-top="4"
     fit-margin-left="4"
     fit-margin-right="4"
     fit-margin-bottom="4"
     inkscape:zoom="2.6832492"
     inkscape:cx="119.2584"
     inkscape:cy="99.319886"
     inkscape:window-width="1920"
     inkscape:window-height="1017"
     inkscape:window-x="1912"
     inkscape:window-y="-8"
     inkscape:window-maximized="1"
     inkscape:current-layer="g869" />
  <defs
     id="defs2">
    <linearGradient
       id="innoGrad2">
      <stop
         stop-color="#ffd5d5"
         offset="0"
         id="stop824" />
      <stop
         stop-color="#ffd5d5"
         stop-opacity="0"
         offset="1"
         id="stop826" />
    </linearGradient>
    <linearGradient
       id="linearGradient896"
       x1="-220.75"
       x2="-219.12"
       y1="241.89999"
       y2="-1.6271"
       gradientTransform="matrix(0.79652,-0.75865,0.75865,0.79652,196.22,-146.91)"
       gradientUnits="userSpaceOnUse">
      <stop
         stop-color="#ff8080"
         offset="0"
         id="stop829" />
      <stop
         stop-color="#f55"
         offset=".097973"
         id="stop831" />
      <stop
         stop-color="#f55"
         offset=".1723"
         id="stop833" />
      <stop
         stop-color="#ff8080"
         offset=".27027"
         id="stop835" />
      <stop
         stop-color="#ff8080"
         offset=".43468"
         id="stop837" />
      <stop
         stop-color="#f55"
         offset=".48986"
         id="stop839" />
      <stop
         stop-color="#f55"
         offset=".52703"
         id="stop841" />
      <stop
         stop-color="#ff8080"
         offset=".59685"
         id="stop843" />
      <stop
         stop-color="#ff8080"
         offset=".68694"
         id="stop845" />
      <stop
         stop-color="#f55"
         offset=".73206"
         id="stop847" />
      <stop
         stop-color="#f55"
         offset=".76812"
         id="stop849" />
      <stop
         stop-color="#ff8080"
         offset=".84252"
         id="stop851" />
      <stop
         stop-color="#ff8080"
         offset="1"
         id="stop853" />
    </linearGradient>
    <radialGradient
       id="radialGradient944"
       cx="165.39"
       cy="173.25999"
       r="7.5743999"
       gradientTransform="matrix(1.4719,1.7747e-8,-3.3604e-8,2.6018,-340,-270.6)"
       gradientUnits="userSpaceOnUse"
       xlink:href="#innoGrad2" />
    <radialGradient
       id="radialGradient944-1"
       cx="165.39"
       cy="173.25999"
       r="7.5743999"
       gradientTransform="matrix(1.3217,1.2221e-8,-3.861e-8,2.2302,-282.79,-269.11)"
       gradientUnits="userSpaceOnUse"
       xlink:href="#innoGrad2" />
    <radialGradient
       id="radialGradient944-4"
       cx="165.39"
       cy="173.25999"
       r="7.5743999"
       gradientTransform="matrix(1.1452,1.7934e-8,-3.5472e-8,1.91,-220.58,-268.05)"
       gradientUnits="userSpaceOnUse"
       xlink:href="#innoGrad2" />
  </defs>
  <g
     inkscape:label="Layer 1"
     inkscape:groupmode="layer"
     id="layer1"
     transform="translate(-10.239154,-29.750115)">
    <g
       id="g869"
       transform="matrix(0.26458333,0,0,0.26458333,10.489983,30.654355)">
      <path
         d="m 170.2,243.61 c -9.0732,-8.5726 15.055,-28.737 -1.8494,-46.594 -14.401,-15.212 -27.909,3.0166 -48.49,-18.338 -9.5222,-9.8802 -5.1991,-35.317 -15.779,-46.248 -11.202,-11.575 -22.389,-2.7885 -33.67,-14.777 C 58.4166,104.906 67.9672,94.068 57.5796,83.317 47.6951,73.087 42.6256,78.1218 34.2516,70.069 23.8666,60.0822 32.5205,50.592 22.7586,39.478 16.4347,32.2781 10.8546,21.39 17.6245,14.802 c 6.9093,-6.4412 17.513,-0.3378 24.397,6.329 10.626,10.291 20.526,2.1093 29.996,12.968 7.636,8.7565 2.36,13.575 12.097,23.946 10.232,10.898 21.523,1.8866 33.671,14.488 11.425,11.851 2.1051,22.597 13.121,34.349 10.403,11.099 36.02,8.019 45.425,18.011 20.328,21.596 1.4637,34.201 15.957,49.325 17.013,17.754 38.328,-5.3648 46.449,4.1149 5.9219,6.9128 -8.5845,26.158 -25.516,41.829 -16.476,16.149 -36.405,29.701 -43.021,23.45 z"
         fill="url(#linearGradient896)"
         stroke="#000000"
         stroke-linecap="round"
         stroke-linejoin="round"
         stroke-width="0.75"
         id="path861"
         style="fill:url(#linearGradient896)" />
      <ellipse
         transform="matrix(0.19864,-0.98007,0.9776,0.21049,0,0)"
         cx="-96.553001"
         cy="180.17999"
         rx="11.149"
         ry="19.707001"
         fill="url(#radialGradient944)"
         id="ellipse863"
         style="display:inline;fill:url(#radialGradient944)" />
      <ellipse
         transform="matrix(0.25709,-0.96639,0.98881,0.14919,0,0)"
         cx="-64.192001"
         cy="117.29"
         rx="10.011"
         ry="16.893"
         fill="url(#radialGradient944-1)"
         id="ellipse865"
         style="display:inline;fill:url(#radialGradient944-1)" />
      <ellipse
         transform="matrix(0.27137,-0.96248,0.99111,0.13307,0,0)"
         cx="-31.166"
         cy="62.867001"
         rx="8.6745996"
         ry="14.467"
         fill="url(#radialGradient944-4)"
         id="ellipse867"
         style="display:inline;fill:url(#radialGradient944-4)" />
    </g>
  </g>
</svg>
