<?xml version="1.0" encoding="UTF-8" standalone="no"?>
<!-- Created with Inkscape (http://www.inkscape.org/) -->

<svg
   width="56.712395mm"
   height="71.656746mm"
   viewBox="0 0 56.712395 71.656746"
   version="1.1"
   id="svg1633"
   inkscape:version="1.1 (c68e22c387, 2021-05-23)"
   sodipodi:docname="bp_X_Rags.svg"
   xmlns:inkscape="http://www.inkscape.org/namespaces/inkscape"
   xmlns:sodipodi="http://sodipodi.sourceforge.net/DTD/sodipodi-0.dtd"
   xmlns:xlink="http://www.w3.org/1999/xlink"
   xmlns="http://www.w3.org/2000/svg"
   xmlns:svg="http://www.w3.org/2000/svg">
  <sodipodi:namedview
     id="namedview1635"
     pagecolor="#ffffff"
     bordercolor="#666666"
     borderopacity="1.0"
     inkscape:pageshadow="2"
     inkscape:pageopacity="0.0"
     inkscape:pagecheckerboard="0"
     inkscape:document-units="mm"
     showgrid="false"
     fit-margin-top="4"
     fit-margin-left="4"
     fit-margin-right="4"
     fit-margin-bottom="4"
     inkscape:zoom="0.67081229"
     inkscape:cx="308.58111"
     inkscape:cy="254.16946"
     inkscape:window-width="1920"
     inkscape:window-height="1017"
     inkscape:window-x="1912"
     inkscape:window-y="-8"
     inkscape:window-maximized="1"
     inkscape:current-layer="layer1" />
  <defs
     id="defs1630">
    <linearGradient
       id="innoGrad1">
      <stop
         offset="0"
         stop-color="#ff8080"
         id="stop1694" />
      <stop
         offset="1"
         stop-color="#faa"
         id="stop1696" />
    </linearGradient>
    <linearGradient
       id="innoGrad2">
      <stop
         offset="0"
         stop-color="#ff2a2a"
         id="stop1699" />
      <stop
         offset="1"
         stop-color="#f55"
         id="stop1701" />
    </linearGradient>
    <linearGradient
       id="linearGradient1049"
       x1="526.64398"
       x2="502.237"
       y1="157.28799"
       y2="79.728996"
       gradientTransform="matrix(1.21,0,0,1.21,-476.182,-48.71)"
       gradientUnits="userSpaceOnUse"
       xlink:href="#innoGrad1" />
    <linearGradient
       id="linearGradient1057"
       x1="484.63199"
       x2="489.444"
       y1="82.075996"
       y2="54.144001"
       gradientTransform="matrix(1.21,0,0,1.21,-476.182,-48.71)"
       gradientUnits="userSpaceOnUse"
       xlink:href="#innoGrad2" />
  </defs>
  <g
     inkscape:label="Layer 1"
     inkscape:groupmode="layer"
     id="layer1"
     transform="translate(-23.313125,-81.315054)">
    <g
       id="g1744"
       transform="matrix(0.26458333,0,0,0.26458333,17.424894,82.668551)">
      <path
         fill="url(#linearGradient1057)"
         fill-rule="evenodd"
         stroke="#000000"
         stroke-width="1.21"
         d="M 59.007,13.473 C 82.349,2.003 195.566,27.366 205.027,49.239 150.95,48.367 94.359,51.988 54.085,26.434 c 0.32,-4.43 -0.4,-8.948 4.922,-12.961 z"
         id="path1708"
         style="fill:url(#linearGradient1057)" />
      <path
         fill="url(#linearGradient1049)"
         fill-rule="evenodd"
         stroke="#000000"
         stroke-width="1.21"
         d="m 59.335,13.247 c -6.37,2.926 -12.017,6.193 -10.209,12.993 -1.767,2.28 -1.28,5.202 0,8.352 0.29,2.768 -2.246,3.114 0.929,8.354 -4.677,3.83 -7.512,8.848 -7.397,17.47 -5.4,9.345 -5.023,32.17 -4.205,48.425 0.559,11.088 3.097,20.098 6.892,27.788 1.206,2.445 3.196,10.663 5.454,15.654 0.636,-3.106 1.194,-4.823 2.638,-3.001 3.856,4.866 8.188,9.228 12.679,13.423 2.345,2.191 5.39,7.126 10.4,14.197 -0.425,-5.205 0.46,-4.339 2.305,-2.626 3.208,2.977 6.343,6.03 9.287,9.278 4.194,4.628 8.075,8.847 11.658,12.79 3.53,3.885 8.412,12.422 14.003,29.347 -1.686,-10.265 2.466,-10.238 5.26,-6.265 6.397,9.094 10.84,18.236 13.627,30.024 a 563.346,563.346 0 0 1 14.277,-12.694 c 4.734,-4.073 8.716,-8.475 7.784,1.064 4.999,-10.835 13.015,-18.44 16.406,-21.289 5.982,-5.022 11.29,-9.678 16.002,-14.472 2.451,-2.495 4.972,-5.723 3.398,3.932 2.913,-6.395 7.319,-16.597 9.052,-19.294 a 85.493,85.493 0 0 0 4.953,-8.824 c 12.498,-25.664 10.655,-37.355 13.107,-54.618 3.78,-26.612 -0.44,-64.758 -14.442,-74.741 C 164.463,29.267 55.671,34.232 56.823,20.1 Z m 25.755,147.8 c 11.013,10.198 18.219,18.574 23.669,30.627 l -15.083,-16.937 9.512,18.098 C 97.35,185.713 88.918,173.993 79.059,162.672 l 9.513,6.265 z m 100.237,11.369 -15.546,23.668 4.641,-0.697 c -4.69,5.839 -10.357,12.043 -19.955,19.722 l 3.481,-7.657 -9.049,3.48 c 9.647,-7.087 17.134,-16.461 24.363,-27.61 l -2.784,7.89 z"
         id="path1710"
         style="fill:url(#linearGradient1049)" />
      <path
         d="m 48.671,25.285 -0.438,0.418 c 3.8,3.985 9.271,7.797 17.96,9.885 6.464,1.554 13.44,1.902 21.286,2.007 8.024,0.107 15.005,-0.004 22.27,0.746 9.631,0.995 16.062,3.257 20.956,5.976 -4.906,-2.725 -11.27,-5.066 -20.93,-6.213 C 102.495,37.239 95.513,37.234 87.492,36.99 79.642,36.751 72.761,36.28 66.427,34.646 57.964,32.462 52.759,28.697 49.109,24.868 Z m 0.656,8.86 -0.41,0.444 c 0.94,0.872 2.5,1.936 4.569,2.86 2.025,0.902 3.9,1.406 5.03,1.782 -1.088,-0.362 -2.955,-1.184 -4.745,-2.316 -1.943,-1.23 -3.088,-2.339 -4.033,-3.214 l -0.41,0.444 z m 0.328,8.039 -0.4,0.453 c 2.846,2.524 6.838,4.812 13.04,6.397 5.583,1.427 11.413,2.095 14.268,2.666 -1.884,-0.376 -9.592,-1.837 -14.103,-3.248 -6.095,-1.905 -9.659,-4.287 -12.403,-6.72 z m -6.89,18.212 0.184,0.576 c 1.317,-0.422 2.703,-0.791 5.309,-0.942 1.451,-0.084 5.356,-0.126 5.663,-0.126 -1.12,0 -3.381,-0.306 -5.658,-0.48 -2.521,-0.19 -4.325,-0.04 -5.683,0.396 z m 39.048,75.635 c 7.386,-0.67 18.294,-2.344 30.893,-5.956 12.515,-3.587 22.58,-7.873 29.607,-11.01 l 1.75,-0.785 c 6.504,-2.92 14.905,-6.73 26.216,-13.062 10.488,-5.87 19.831,-11.924 24.905,-15.454 -5.281,3.674 -13.901,9.878 -24.36,16.378 -10.69,6.644 -19.696,11.318 -25.882,14.095 -0.54,0.242 -1.132,0.503 -1.773,0.78 -7.043,3.036 -17.59,6.962 -30.208,10.023 -12.997,3.152 -23.57,4.303 -31.148,4.991 z M 96.25,98.952 c 6.1,-0.38 14.985,-1.07 27.03,-3.403 11.674,-2.26 21.865,-5.236 28.264,-7.406 0.24,-0.08 0.47,-0.16 0.691,-0.236 6.024,-2.08 15.494,-5.841 25.889,-10.988 10.595,-5.246 17.868,-9.768 22.638,-12.75 -4.558,2.85 -12.494,7.245 -23.027,11.921 -10.848,4.816 -19.824,7.92 -26.097,10.086 l -0.686,0.237 c -6.515,2.25 -16.15,5.513 -27.857,8.268 -11.683,2.748 -20.956,3.905 -26.844,4.27 z"
         id="path1712" />
      <path
         fill="#ff2a2a"
         fill-rule="evenodd"
         stroke="#000000"
         stroke-width="1.21"
         d="m 169.085,122.299 c 9.47,-5.795 14.295,-12.434 20.65,-18.794 0,0 -4.756,7.54 -8.005,12.877 2.205,-1.044 3.476,-2.685 6.381,-3.364 -2.89,5.345 -25.516,25.65 -26.219,23.666 3.867,-4.63 7.96,-8.575 9.63,-11.833 -3.094,1.012 -10.48,4.677 -13.574,6.265 5.535,-6.562 11.18,-13.053 19.142,-18.098 -1.778,2.38 -3.242,4.51 -8.005,9.28 z"
         id="path1714" />
      <path
         fill="#ffaaaa"
         fill-rule="evenodd"
         stroke="#000000"
         d="m 205.265,49.56 c -1.388,26.402 -1.592,52.926 0.69,79.709 l 1.659,-5.838 c 1.852,2.707 3.567,4.173 5.24,5.264 -3.499,-26.569 -4.754,-53.138 -5.52,-79.708 z"
         id="path1716" />
      <path
         fill="#ffd5d5"
         fill-rule="evenodd"
         stroke="#000000"
         d="m 205.035,48.987 c 3.532,20.166 9.564,40.332 10.349,60.498 l 1.464,-2.696 4.055,0.69 c -2.487,-19.88 -8.236,-39.76 -13.339,-59.639 -1.233,-0.083 -1.78,0.404 -2.53,1.147 z"
         id="path1718" />
      <path
         fill="#ffd5d5"
         fill-rule="evenodd"
         stroke="#000000"
         d="m 205.36,46.73 c -0.9,3.395 0.173,6.511 1.4,9.733 0,0 -5.197,-3.735 -5.184,-6.337 0.01,-1.824 3.783,-3.396 3.783,-3.396 z"
         id="path1720" />
      <path
         fill="#ffaaaa"
         fill-rule="evenodd"
         stroke="#000000"
         d="m 207.076,56.563 c -0.151,-3.62 -0.678,-6.972 -2.532,-9.738 0,0 4.783,-0.521 4.764,2.08 -0.014,1.826 -2.232,7.658 -2.232,7.658 z"
         id="path1722" />
    </g>
  </g>
</svg>
