<?xml version="1.0" encoding="UTF-8" standalone="no"?>
<!-- Created with Inkscape (http://www.inkscape.org/) -->

<svg
   width="42.85078mm"
   height="56.978596mm"
   viewBox="0 0 42.85078 56.978596"
   version="1.1"
   id="svg5"
   inkscape:version="1.1 (c68e22c387, 2021-05-23)"
   sodipodi:docname="Shirt_X_Plain.svg"
   xmlns:inkscape="http://www.inkscape.org/namespaces/inkscape"
   xmlns:sodipodi="http://sodipodi.sourceforge.net/DTD/sodipodi-0.dtd"
   xmlns:xlink="http://www.w3.org/1999/xlink"
   xmlns="http://www.w3.org/2000/svg"
   xmlns:svg="http://www.w3.org/2000/svg">
  <sodipodi:namedview
     id="namedview7"
     pagecolor="#ffffff"
     bordercolor="#666666"
     borderopacity="1.0"
     inkscape:pageshadow="2"
     inkscape:pageopacity="0.0"
     inkscape:pagecheckerboard="0"
     inkscape:document-units="mm"
     showgrid="false"
     inkscape:snap-global="false"
     inkscape:zoom="5.6568542"
     inkscape:cx="104.12147"
     inkscape:cy="94.840697"
     inkscape:window-width="1920"
     inkscape:window-height="1017"
     inkscape:window-x="1912"
     inkscape:window-y="-8"
     inkscape:window-maximized="1"
     inkscape:current-layer="layer1"
     fit-margin-top="2"
     fit-margin-left="2"
     fit-margin-bottom="2"
     fit-margin-right="2" />
  <defs
     id="defs2">
    <linearGradient
       id="innoGrad1">
      <stop
         offset="0"
         stop-color="#faa"
         id="stop824" />
      <stop
         offset="1"
         stop-color="#ffd5d5"
         id="stop826" />
    </linearGradient>
    <linearGradient
       id="innoGrad2">
      <stop
         offset="0"
         stop-color="#ff8080"
         id="stop829"
         style="stop-color:#f7a976;stop-opacity:1" />
      <stop
         offset="1"
         stop-color="#faa"
         id="stop831"
         style="stop-color:#ffd0aa;stop-opacity:1" />
    </linearGradient>
    <linearGradient
       id="innoGrad3">
      <stop
         offset="0"
         stop-color="#ff2a2a"
         id="stop834"
         style="stop-color:#ff822a;stop-opacity:1" />
      <stop
         offset="1"
         stop-color="#ff8080"
         id="stop836"
         style="stop-color:#ffb880;stop-opacity:1" />
    </linearGradient>
    <linearGradient
       id="linearGradient1019"
       x1="119.964"
       x2="129.916"
       y1="89.793999"
       y2="39.313999"
       gradientTransform="translate(-4.602,-4.986)"
       gradientUnits="userSpaceOnUse"
       xlink:href="#innoGrad3" />
    <linearGradient
       id="linearGradient1031"
       x1="127.34"
       x2="119.086"
       y1="47.612"
       y2="28.724001"
       gradientTransform="translate(-4.602,-4.986)"
       gradientUnits="userSpaceOnUse"
       xlink:href="#innoGrad2" />
    <linearGradient
       id="linearGradient1039"
       x1="195.797"
       x2="204.47501"
       y1="133.69501"
       y2="105.763"
       gradientTransform="translate(-4.602,-4.986)"
       gradientUnits="userSpaceOnUse"
       xlink:href="#innoGrad2" />
    <linearGradient
       id="linearGradient1049"
       x1="68.068001"
       x2="69.966003"
       y1="132.881"
       y2="108.203"
       gradientTransform="translate(-4.602,-4.986)"
       gradientUnits="userSpaceOnUse"
       xlink:href="#innoGrad2" />
    <linearGradient
       id="linearGradient1059"
       x1="109.017"
       x2="123.39"
       y1="92.203003"
       y2="75.119003"
       gradientTransform="translate(-4.602,-4.986)"
       gradientUnits="userSpaceOnUse"
       xlink:href="#innoGrad2" />
    <linearGradient
       id="linearGradient1063"
       x1="113.085"
       x2="106.576"
       y1="56.678001"
       y2="79.728996"
       gradientTransform="translate(-4.602,-4.986)"
       gradientUnits="userSpaceOnUse"
       xlink:href="#innoGrad2" />
    <linearGradient
       id="linearGradient1071"
       x1="70.779999"
       x2="102.237"
       y1="264.13599"
       y2="61.287998"
       gradientTransform="translate(-4.602,-4.986)"
       gradientUnits="userSpaceOnUse"
       xlink:href="#innoGrad2" />
    <linearGradient
       id="linearGradient1081"
       x1="178.39011"
       x2="133.74994"
       y1="222.55557"
       y2="108.22316"
       gradientTransform="translate(-48.265585,-3.9751421)"
       gradientUnits="userSpaceOnUse"
       xlink:href="#innoGrad2" />
    <linearGradient
       id="linearGradient1089"
       x1="158.967"
       x2="144.394"
       y1="41.998001"
       y2="21.864"
       gradientTransform="translate(-4.602,-4.986)"
       gradientUnits="userSpaceOnUse"
       xlink:href="#innoGrad1" />
  </defs>
  <g
     inkscape:label="Layer 1"
     inkscape:groupmode="layer"
     id="layer1"
     transform="translate(-3.5960409,-5.4875014)">
    <g
       id="g983"
       transform="matrix(-0.26458333,0,0,0.26458333,61.59552,0.26745614)">
      <path
         fill="url(#linearGradient1019)"
         fill-rule="evenodd"
         stroke="#000000"
         d="M 110.069,75.077 C 101.241,56.04 84.134889,46.438668 100.98784,33.87 c 9.5919,-7.153489 52.74814,-7.762796 57.87979,-5.200579 C 177.07381,37.759709 139.123,61.062 110.069,75.077 Z"
         id="path850"
         style="fill:url(#linearGradient1019);stroke:none"
         sodipodi:nodetypes="cssc" />
      <path
         id="path854"
         style="fill:url(#linearGradient1081)"
         d="m 112.81171,28.771194 c -12.09,7.003 -38.485422,34.488143 -47.413272,29.146775 C 55.701866,52.116689 59.872402,47.390063 57.777344,34.1875 L 33.513672,46.056641 c -3.976,1.945 -6.645031,9.8955 -7.582031,15.0625 -2.566,14.152999 -4.33525,24.127797 -4.78125,38.841797 2.5,3.223002 4.060734,7.109402 11.427734,6.316402 0.915,7.194 4.007969,10.02461 5.542969,19.47461 1.702,10.479 3.182093,21.45472 2.371094,32.26172 -1.64,21.837 -5.294138,30.76023 -9.277138,49.12223 6.157,10.273 14.468595,16.89779 28.574595,19.94379 14.852,0.377 29.054453,3.68461 45.064445,-1.15039 12.308,-4.468 23.86963,-10.4268 34.51563,-18.2168 -2.153,-23.238 -9.04469,-27.15803 -12.66869,-43.82503 -2.608,-11.996 -3.9195,-21.27258 -0.6815,-29.04958 3.334,-8.006 3.32654,-26.14617 5.44454,-32.85717 0,0 3.46556,9.38791 4.75175,7.90035 6.19507,-7.16495 31.77217,-21.13169 31.77217,-21.13169 L 155.95703,54.130859 c -1.663,-6.375 -4.93601,-12.254609 -13.04101,-15.724609 -9.124,-3.907 -20.62031,-6.628056 -30.10431,-9.635056 z"
         transform="translate(43.663586,-1.0108579)"
         sodipodi:nodetypes="csccccccccccccccscccc" />
      <path
         fill="none"
         stroke="#000000"
         stroke-width="0.25"
         d="M 166.43252,211.022 C 158.1061,166.37842 149.36663,182.53816 154.38263,151.73116 M 172.076,88.71 c 2.45,-34.29 8.43,-44.305 14.915,-50.848 M 75.744,46.409 C 72.14,63.097 70.952316,81.494211 75.529316,97.415211"
         id="path872"
         sodipodi:nodetypes="cccccc" />
    </g>
  </g>
</svg>
