<?xml version="1.0" encoding="UTF-8" standalone="no"?>
<!-- Created with Inkscape (http://www.inkscape.org/) -->

<svg
   viewBox="0 0 149.18731 101.25022"
   version="1.1"
   id="svg5"
   inkscape:version="1.1 (c68e22c387, 2021-05-23)"
   sodipodi:docname="tattoo_womb_lewdsign.svg"
   xmlns:inkscape="http://www.inkscape.org/namespaces/inkscape"
   xmlns:sodipodi="http://sodipodi.sourceforge.net/DTD/sodipodi-0.dtd"
   xmlns:xlink="http://www.w3.org/1999/xlink"
   xmlns="http://www.w3.org/2000/svg"
   xmlns:svg="http://www.w3.org/2000/svg">
  <sodipodi:namedview
     id="namedview7"
     pagecolor="#ffffff"
     bordercolor="#666666"
     borderopacity="1.0"
     inkscape:pageshadow="2"
     inkscape:pageopacity="0.0"
     inkscape:pagecheckerboard="0"
     inkscape:document-units="mm"
     showgrid="false"
     fit-margin-top="10"
     fit-margin-left="10"
     fit-margin-right="10"
     fit-margin-bottom="10"
     inkscape:zoom="1"
     inkscape:cx="194"
     inkscape:cy="198.5"
     inkscape:window-width="1920"
     inkscape:window-height="1017"
     inkscape:window-x="1912"
     inkscape:window-y="-8"
     inkscape:window-maximized="1"
     inkscape:current-layer="layer1" />
  <defs
     id="defs2">
    <linearGradient
       inkscape:collect="always"
       id="linearGradient3225">
      <stop
         style="stop-color:#c80097;stop-opacity:1;"
         offset="0"
         id="stop3221" />
      <stop
         style="stop-color:#c80097;stop-opacity:1"
         offset="1"
         id="stop3223" />
    </linearGradient>
    <radialGradient
       inkscape:collect="always"
       xlink:href="#linearGradient3225"
       id="radialGradient3227"
       cx="106.46731"
       cy="104.67152"
       fx="106.46731"
       fy="104.67152"
       r="158.56332"
       gradientTransform="matrix(0.5107267,-0.01722642,0.00863676,0.25606166,-14.337864,29.74585)"
       gradientUnits="userSpaceOnUse" />
  </defs>
  <g
     inkscape:label="Layer 1"
     inkscape:groupmode="layer"
     id="layer1"
     transform="translate(33.651802,-4.08905)">
    <path
       style="fill:url(#radialGradient3227);fill-opacity:1;stroke-width:0.407368"
       d="m 35.7463,95.339238 c -0.02446,-3.46043 -3.265162,-10.004428 -2.800172,-10.935922 4.621854,3.251702 -0.323054,-5.746158 -1.729328,-7.212728 -1.714326,-1.916106 -4.461442,-5.311244 -0.474262,-2.329796 6.311548,3.52387 0.851206,-5.694218 -0.699386,-7.995858 -2.80655,-2.85329 5.21905,1.277136 4.423696,-3.290594 C 33.738118,58.262344 29.05334,54.552382 25.801,50.595132 21.314034,45.40291 15.530234,41.623104 9.152176,39.17051 6.567172,38.360178 4.178048,37.174356 8.460886,38.008724 c 4.7529,0.798726 9.15076,3.443604 13.250758,5.40178 -0.10296,-4.285738 -5.092238,-8.12757 -8.14211,-11.337186 -5.012948,-4.33897 -9.757106,-9.746734 -16.701868,-10.72421 -5.02469,-1.087268 -11.917424,-2.336106 -15.229894,2.740778 -3.930319,4.880728 6.980438,9.596006 6.022582,2.723398 -2.850906,-4.705582 5.412282,-0.454958 2.47105,2.882964 -2.630364,5.503426 -11.323542,2.064428 -13.099922,-2.700766 -2.098447,-2.50428 1.385223,-10.481504 0.543052,-3.564542 0.392711,2.355426 1.71885,4.818992 1.588152,1.121986 1.745104,-6.081392 9.191618,-6.307802 14.399762,-5.83936 10.980466,0.6813 20.02815,7.537768 28.917138,13.270602 2.836378,3.293576 6.856014,-1.06062 8.676784,-2.000012 -5.02165,-2.15956 -6.742388,-10.831796 -1.071216,-12.838054 -1.074954,4.170624 -2.12547,10.485864 3.107492,12.611802 4.652234,-1.237268 9.652634,-1.380458 14.313104,-0.1063 4.689904,-2.258736 4.12664,-8.227154 2.678098,-12.349104 4.834284,0.814692 4.681994,9.543368 0.238996,11.740222 -4.09748,1.73467 4.41141,2.970884 5.35123,4.581648 10.657986,-4.74252 19.44023,-14.275098 31.67822,-14.848576 5.215066,-0.360922 12.233952,-0.774798 14.941506,4.763938 0.47578,5.932118 2.39073,-0.985876 1.81326,-3.37899 3.78061,4.649644 -1.14956,12.023878 -6.746654,12.02624 -6.203522,2.768828 -8.173148,-9.05245 -2.598626,-7.068232 -4.095444,5.833234 7.64453,7.062422 5.95871,0.511756 -1.625372,-5.372334 -8.464828,-6.073762 -13.221222,-5.668826 -10.444322,0.690282 -17.92218,8.986952 -24.298766,16.395412 -2.749764,1.576826 -5.873652,10.376218 -0.381058,5.692172 2.998816,-2.358832 12.102026,-4.101362 12.904902,-3.42435 -9.43884,1.909394 -17.216888,8.07014 -23.217084,15.34599 -2.795054,2.730134 -8.792488,11.589838 -1.552782,12.076106 3.400634,-1.402234 -2.726238,5.376534 -2.984664,7.697056 -2.029346,6.21267 9.39257,-4.423632 3.590334,2.032616 -1.551814,1.987822 -6.828642,8.844912 -3.916424,9.469086 3.37774,-2.730874 -2.075802,6.231198 -1.593368,9.115522 -1.473716,2.600164 0.508632,-6.135472 -0.556668,-7.573492 -2.216112,-4.093546 4.369146,-8.217766 0.441142,-11.785384 -0.10154,-3.46348 5.304156,-7.0985 0.1492,-8.477176 -2.750388,-5.2767 2.222144,-10.623492 5.657986,-14.223994 3.83018,-3.323026 7.588626,-10.223072 2.14923,-13.91024 C 49.13456,34.442878 43.61623,41.248744 39.758532,40.50791 35.8885,37.930062 29.0148,34.924566 25.837314,40.056622 c -3.197776,5.02463 1.565988,9.874618 4.987712,13.185058 3.148766,3.422384 7.7191,9.113922 4.315174,13.710572 -6.29331,0.945994 4.494198,7.617664 -0.87607,10.76734 0.882154,3.464604 3.460042,7.08758 1.525912,10.398218 0.08034,1.952182 0.392442,6.473956 -0.04374,7.221458 z M 41.094554,40.19179 c 2.780856,-1.474442 3.300472,-9.59784 -0.26159,-9.576144 -3.953664,-0.49975 -2.364808,6.536182 -1.390098,8.718746 0.482968,0.26258 0.965868,1.260234 1.651688,0.857398 z m 0.306334,-1.81578 c 0.09432,-0.48582 0.09432,0.485822 0,0 z m -1.788456,-0.527628 c 0.214142,-0.52483 0.451924,0.36063 0,0 z m 2.045498,-0.11158 c -0.0233,-0.774308 0.677974,0.600748 0,0 z m -0.859714,-0.231928 c -1.434796,-2.50943 0.252862,-7.40961 0.692594,-2.523984 -0.24094,0.685174 -0.16678,2.35453 -0.692594,2.523984 z m -1.785568,-1.32683 c 0.452332,-0.721182 0.39718,0.525186 0,0 z m 2.96863,-0.489108 c -0.0233,-0.774322 0.677976,0.600748 0,0 z M 39.07223,34.505082 c 0.03448,-0.52747 0.487204,0.205058 0,0 z m 2.874068,-0.995898 c 0.426396,-0.491406 0.363816,0.413916 0,0 z M 39.49767,32.124658 c 0.275376,-0.386672 0.27538,0.38666 0,0 z m 2.228666,-0.07224 c 0.819604,-0.95706 -0.02652,0.684182 0,0 z m -2.10292,-0.322916 c -0.331968,-0.48813 0.474226,0.09216 0,0 z m -16.41549,8.255522 c -0.898662,-5.307522 -7.549166,-8.421912 -11.754518,-11.5924 -4.691612,-3.15427 2.693598,3.050952 3.87607,4.432478 2.789394,2.040356 4.729788,6.385664 7.878448,7.159922 z m 36.038592,-0.13282 c 2.753748,-4.10267 6.207118,-7.669746 9.785308,-11.068782 -3.254672,3.163422 -11.677028,6.8924 -10.35098,11.361722 z M 38.0426,37.629974 c -0.670886,-3.2849 1.931062,-9.263014 -3.887342,-6.271434 -4.118102,0.574562 -8.159092,4.16224 -1.806898,4.790812 1.520454,-0.07804 5.200874,2.91941 5.69424,1.480622 z m 6.73643,0.222594 c 1.778412,-1.644426 9.8637,-1.343246 6.650894,-4.571362 -2.986228,-1.39064 -10.518284,-5.168374 -7.843036,1.403754 0.436004,0.785388 -0.949768,5.038364 1.192142,3.167608 z m 8.44487,-2.936156 c 0.946776,-1.372322 -1.672812,-0.234848 2e-5,0 z M 28.1512,34.399138 c -0.598734,-0.830776 -0.70251,0.991198 0,0 z M 17.186622,83.464096 c -5.445456,0.735352 -7.515318,-8.90933 -1.83102,-8.653418 -2.812944,3.801318 2.911394,9.136742 4.884806,3.862512 C 20.032094,71.901422 15.135178,66.39772 10.824554,61.608718 6.453844,56.573444 -0.07557804,52.142958 -0.75344204,44.98675 0.37357196,38.163822 9.44594,40.221306 13.78511,42.446222 18.571294,44.740004 23.182396,48.030648 25.931402,52.657236 20.003054,47.461014 12.785598,42.44626 4.590176,42.540378 c -6.97455,1.823056 0.2132,9.64583 3.075032,12.45315 5.984822,6.270008 13.45468,12.829906 14.035352,22.076518 0.312036,2.18806 -2.18287,5.990064 0.44899,1.874268 2.40506,-3.900122 -1.784498,-12.012482 -1.312214,-12.72891 3.895936,4.430934 5.783626,12.86815 0.15638,16.715846 -1.114664,0.753682 -2.539236,0.610574 -3.807088,0.532846 z m 44.080552,-0.12996 C 55.56789,81.061736 56.071664,73.208734 58.71326,68.75168 59.597156,66.731568 62.550678,63.9643 60.148548,67.883702 57.951564,71.8933 57.80017,79.614574 61.19553,81.623856 57.775822,77.44787 60.546532,71.628038 62.798752,67.557446 67.182026,59.908352 75.422442,55.221574 79.297686,47.272646 81.592296,40.403422 71.325642,42.367198 67.908192,44.397106 63.323968,46.34077 59.1788,49.199552 55.548118,52.58706 59.37396,46.258842 66.366466,42.004704 73.55705,40.513846 79.013156,38.499958 84.79189,44.198124 80.861882,49.309224 76.034178,57.850262 66.89206,63.1155 62.73451,72.168886 c -3.250848,3.099932 -1.26814,12.162246 3.613284,7.380518 0.13528,-2.311952 -1.178562,-7.443826 2.356906,-3.533256 3.033304,4.914468 -3.199924,8.50101 -7.437526,7.317988 z M 16.7616,78.770594 c -0.572036,-4.248512 3.543702,1.139074 0,0 z m 46.41319,-0.0106 c -0.911026,-3.45487 3.316584,0.601752 0,0 z m -49.3808,-19.02088 c -3.408924,-3.42785 -8.873938,-7.120788 -8.275766,-12.545338 3.100814,-4.175644 9.085132,-1.023736 12.665936,0.93011 2.604426,0.925618 9.613702,8.474388 3.513848,3.494776 -4.083724,-2.22716 -9.513706,-5.874448 -14.142522,-3.686946 -0.227418,4.872028 4.333232,8.658134 7.08133,12.316396 1.451132,1.571992 -1.006072,-0.740608 -0.842826,-0.508998 z m 52.960752,0.39902 c 2.51153,-3.546964 8.45635,-8.255744 6.337296,-12.733466 -4.990044,-0.785994 -9.895446,1.988538 -14.010358,4.567812 -5.379526,4.319676 2.230032,-3.615674 4.612664,-4.179354 3.340118,-2.92727 14.156298,-4.739522 11.838698,2.588054 -1.7028,3.721848 -6.31189,8.195436 -8.7783,9.756954 z M 40.437684,54.516488 C 38.180788,50.310406 27.70744,46.171014 34.457886,41.117304 c 3.923016,-1.97203 6.229456,4.60497 9.472112,-0.11278 6.10931,-2.737888 7.520218,6.65754 2.327922,8.67015 -2.153824,0.646914 -4.581288,5.380532 -5.820236,4.841864 z M 24.623636,30.67906 c -3.53151,-2.887228 4.398644,-3.59827 1.0731,-0.06114 l -0.56504,0.19648 z m 30.265268,-0.490178 c -2.854536,-6.167944 6.613508,-0.07712 0,0 z m -70.306592,-1.702118 c -1.806794,-3.73973 3.736028,-0.08662 0,0 z M 96.684294,27.960428 c -0.740768,-3.723802 3.758636,0.934506 0,0 z M 19.207124,25.865626 C 8.322548,21.825314 -2.191154,14.280544 -14.383066,15.941278 c -2.146886,-0.38901 -8.179728,4.487836 -4.325498,0.555624 6.062592,-4.086084 13.939172,-1.860574 20.29861,0.344956 6.7678,2.329888 12.591766,6.752568 19.261192,9.222116 -0.554564,0.03408 -1.109682,-0.05296 -1.644114,-0.19834 z m 42.25001,0.10644 c 9.179102,-4.187858 17.77847,-10.361412 28.075688,-11.549652 3.774674,-1.227326 12.057538,1.146022 11.774658,3.668576 -5.884448,-4.12801 -13.778544,-2.230052 -20.123834,-0.204422 -6.895918,2.110146 -12.938078,6.59451 -19.956802,8.184396 -0.448402,0.02206 0.10188,-0.06048 0.23029,-0.0989 z"
       id="path1052" />
  </g>
</svg>
