<?xml version="1.0" encoding="UTF-8" standalone="no"?>
<!-- Created with Inkscape (http://www.inkscape.org/) -->

<svg
   width="38.284225mm"
   height="73.617783mm"
   viewBox="0 0 38.284225 73.617783"
   version="1.1"
   id="svg1770"
   inkscape:version="1.1 (c68e22c387, 2021-05-23)"
   sodipodi:docname="lg_F_Thighs.svg"
   xmlns:inkscape="http://www.inkscape.org/namespaces/inkscape"
   xmlns:sodipodi="http://sodipodi.sourceforge.net/DTD/sodipodi-0.dtd"
   xmlns="http://www.w3.org/2000/svg"
   xmlns:svg="http://www.w3.org/2000/svg">
  <sodipodi:namedview
     id="namedview1772"
     pagecolor="#ffffff"
     bordercolor="#666666"
     borderopacity="1.0"
     inkscape:pageshadow="2"
     inkscape:pageopacity="0.0"
     inkscape:pagecheckerboard="0"
     inkscape:document-units="mm"
     showgrid="false"
     fit-margin-top="4"
     fit-margin-left="4"
     fit-margin-right="4"
     fit-margin-bottom="4"
     inkscape:zoom="0.67081229"
     inkscape:cx="229.57242"
     inkscape:cy="297.40063"
     inkscape:window-width="1920"
     inkscape:window-height="1017"
     inkscape:window-x="1912"
     inkscape:window-y="-8"
     inkscape:window-maximized="1"
     inkscape:current-layer="layer1" />
  <defs
     id="defs1767">
    <linearGradient
       id="linearGradient4205-5"
       x1="142.94"
       x2="160.11"
       y1="990.73999"
       y2="849.83002"
       gradientTransform="matrix(1.1025,0,0,1.1025,-10.654,-900.41)"
       gradientUnits="userSpaceOnUse">
      <stop
         stop-color="#ff8080"
         offset="0"
         id="stop1833" />
      <stop
         stop-color="#faa"
         offset="1"
         id="stop1835" />
    </linearGradient>
  </defs>
  <g
     inkscape:label="Layer 1"
     inkscape:groupmode="layer"
     id="layer1"
     transform="translate(-44.359879,-69.685134)">
    <g
       id="g1871"
       transform="matrix(0.26458333,0,0,0.26458333,28.733969,72.756827)">
      <path
         d="m 174.35,4.156 c -13.291,-0.022 -31.701,4.504 -33.262,12.875 0.418,7.86 3.254,12.943 3.342,16.428 0.501,19.923 4.791,29.33 2.854,35.22 -15.603,47.433 -10.707,55.926 -10.928,87.563 -2.206,32.066 -15.556,26.482 -14.987,39.596 0.313,7.199 8.697,11.213 9.354,21.045 0.524,7.833 -3.34,13.322 -2.354,22.918 a 40.534,40.534 0 0 0 -1.8,-1.05 c -0.818,-1.24 -3.212,-5.026 -3.174,-6.323 0.302,-10.318 -3.804,-36.51 -5.686,-39.943 -11.777,-21.486 -6.202,-62.528 -4.133,-117.93 0.132,-2.295 2.183,-4.193 3.211,-8.01 0.966,-3.583 0.888,-9.09 1.649,-11.242 2.23,-6.307 3.31,-6.796 4.787,-14.02 1.182,-5.778 0.787,-35.24 0.787,-35.24 -16.052,0.584 -37.848,-1.184 -46.66,2.361 1.118,15.88 4.836,30.344 3.348,47.645 -1.32,15.339 -4.74,29.492 -6.104,46.068 -1.776,21.595 8.754,47.883 14.47,71.662 1.423,5.915 3.335,12.821 0.262,21.754 -1.75,5.09 -5.493,11.7 -0.656,17.326 7.05,8.202 7.796,17.872 9.057,27.563 0.526,4.045 4.839,9.36 11.123,10.63 9.155,-0.459 20.56,0.671 27.465,-1.376 0.97,-0.288 1.298,-0.84 1.164,-1.555 3.295,0.332 6.853,0.624 8.834,0.58 4.08,-0.089 16.19,1.05 11.76,-5.592 -4.076,-7.007 -7.692,-12.42 -7.649,-22.154 0.026,-5.938 1.066,-13.84 2.149,-21.21 4.34,-29.543 15.04,-49.748 21.73,-77.553 3.331,-13.844 5.023,-27.854 7.436,-41.682 1.895,-10.86 6.64,-16.704 5.945,-32.477 -0.769,-17.439 0.547,-25.51 -0.445,-40.963 -1.863,-1.956 -6.848,-2.905 -12.89,-2.916 z"
         fill="url(#linearGradient4205-5)"
         fill-rule="evenodd"
         id="path1840"
         style="fill:url(#linearGradient4205-5)" />
      <g
         id="g1854">
        <g
           fill="none"
           stroke="#000000"
           id="g1848">
          <path
             d="m 134.515,244.09 c 0.202,0.082 1.672,2.202 3.634,3.846 2.15,0.886 6.696,0.71 8.496,0.671 4.081,-0.089 16.191,1.049 11.76,-5.592 -4.075,-7.008 -7.69,-12.422 -7.648,-22.155 0.026,-5.939 1.067,-13.839 2.15,-21.21 4.34,-29.542 15.038,-49.747 21.728,-77.553 3.331,-13.843 5.023,-27.853 7.436,-41.681 1.895,-10.86 6.64,-16.705 5.946,-32.478 -0.769,-17.438 0.548,-25.508 -0.445,-40.962 -5.962,-6.259 -43.88,-2.217 -46.15,9.959 0.418,7.86 3.253,12.942 3.34,16.427 0.502,19.923 4.792,29.33 2.854,35.22 -15.602,47.433 -10.707,55.927 -10.928,87.565 -2.205,32.065 -15.555,26.48 -14.985,39.594 0.312,7.198 8.695,11.213 9.352,21.045 0.506,7.557 -3.074,12.932 -2.44,21.919 0.175,2.488 3.198,2.916 5.9,5.386 z"
             stroke-width="1.102"
             id="path1842" />
          <path
             d="m 136.648,249.581 c -6.905,2.047 -18.31,0.919 -27.464,1.378 -6.284,-1.27 -10.597,-6.586 -11.123,-10.631 -1.261,-9.691 -2.006,-19.361 -9.057,-27.563 -4.837,-5.626 -1.095,-12.237 0.656,-17.327 3.072,-8.933 1.16,-15.837 -0.262,-21.752 -5.716,-23.78 -16.246,-50.068 -14.47,-71.663 1.363,-16.576 4.783,-30.73 6.103,-46.068 C 82.519,38.654 78.8,24.19 77.684,8.31 c 8.812,-3.545 30.608,-1.78 46.66,-2.363 0,0 0.394,29.463 -0.788,35.24 -1.478,7.224 -2.557,7.714 -4.787,14.021 -0.76,2.152 -0.683,7.66 -1.648,11.242 -1.028,3.817 -3.08,5.715 -3.212,8.01 -2.07,55.4 -7.643,96.442 4.134,117.928 1.882,3.433 5.988,29.625 5.685,39.942 -0.038,1.298 2.357,5.084 3.175,6.324 5.34,2.881 14.149,9.62 9.745,10.926 z"
             stroke-width="1.102"
             id="path1844" />
          <path
             d="m 79.512,19.82 c 11.204,-3.46 32.597,-0.487 44.889,-1.737"
             stroke-width="0.551"
             id="path1846" />
        </g>
        <path
           d="m 127.657,238.444 c -2.346,-0.205 -5.718,-0.121 -9.03,0.24 -3.324,0.361 -6.613,1.005 -8.79,1.93 2.23,-0.747 5.53,-1.202 8.834,-1.377 3.312,-0.175 6.62,-0.067 8.846,0.309 z m 28.905,1.333 c -3.787,-0.016 -7.537,-0.125 -11.35,0.058 3.804,0.184 7.516,0.66 11.291,1.043 z"
           fill-rule="evenodd"
           id="path1850" />
        <path
           d="m 143.37,27.585 c 10.956,-8.396 42.49,-10.349 44.548,-5.778"
           fill="none"
           stroke="#000000"
           stroke-width="0.551"
           id="path1852" />
      </g>
    </g>
  </g>
</svg>
