<?xml version="1.0" encoding="UTF-8" standalone="no"?>
<!-- Created with Inkscape (http://www.inkscape.org/) -->

<svg
   width="170.614mm"
   height="84.166618mm"
   viewBox="0 0 170.614 84.166618"
   version="1.1"
   id="svg5"
   inkscape:version="1.1 (c68e22c387, 2021-05-23)"
   sodipodi:docname="toys.svg"
   xmlns:inkscape="http://www.inkscape.org/namespaces/inkscape"
   xmlns:sodipodi="http://sodipodi.sourceforge.net/DTD/sodipodi-0.dtd"
   xmlns:xlink="http://www.w3.org/1999/xlink"
   xmlns="http://www.w3.org/2000/svg"
   xmlns:svg="http://www.w3.org/2000/svg">
  <sodipodi:namedview
     id="namedview7"
     pagecolor="#ffffff"
     bordercolor="#666666"
     borderopacity="1.0"
     inkscape:pageshadow="2"
     inkscape:pageopacity="0.0"
     inkscape:pagecheckerboard="0"
     inkscape:document-units="mm"
     showgrid="false"
     inkscape:snap-global="false"
     inkscape:zoom="3.7946874"
     inkscape:cx="417.42569"
     inkscape:cy="192.24245"
     inkscape:window-width="1920"
     inkscape:window-height="1017"
     inkscape:window-x="1912"
     inkscape:window-y="-8"
     inkscape:window-maximized="1"
     inkscape:current-layer="layer1"
     showguides="false" />
  <defs
     id="defs2">
    <linearGradient
       inkscape:collect="always"
       id="linearGradient54081">
      <stop
         style="stop-color:#2f1a1f;stop-opacity:1"
         offset="0"
         id="stop54077" />
      <stop
         style="stop-color:#110b0d;stop-opacity:1"
         offset="1"
         id="stop54079" />
    </linearGradient>
    <linearGradient
       inkscape:collect="always"
       id="linearGradient46487">
      <stop
         style="stop-color:#9f3ae5;stop-opacity:1"
         offset="0"
         id="stop46483" />
      <stop
         style="stop-color:#190c51;stop-opacity:1"
         offset="1"
         id="stop46485" />
    </linearGradient>
    <linearGradient
       inkscape:collect="always"
       id="linearGradient18296-3">
      <stop
         style="stop-color:#154018;stop-opacity:1"
         offset="0"
         id="stop41609" />
      <stop
         style="stop-color:#0f1e11;stop-opacity:1"
         offset="1"
         id="stop41611" />
    </linearGradient>
    <linearGradient
       inkscape:collect="always"
       id="linearGradient37101">
      <stop
         style="stop-color:#f9704a;stop-opacity:1"
         offset="0"
         id="stop37099" />
      <stop
         style="stop-color:#db5a5a;stop-opacity:1"
         offset="1"
         id="stop37097" />
    </linearGradient>
    <inkscape:path-effect
       effect="mirror_symmetry"
       start_point="51.107251,96.433014"
       end_point="51.107251,180.08935"
       center_point="51.107251,138.26118"
       id="path-effect34129"
       is_visible="true"
       lpeversion="1.1"
       mode="free"
       discard_orig_path="false"
       fuse_paths="false"
       oposite_fuse="false"
       split_items="false"
       split_open="false" />
    <linearGradient
       inkscape:collect="always"
       id="linearGradient29959">
      <stop
         style="stop-color:#333333;stop-opacity:0;"
         offset="0"
         id="stop29957" />
      <stop
         style="stop-color:#141414;stop-opacity:1"
         offset="1"
         id="stop29955" />
    </linearGradient>
    <linearGradient
       inkscape:collect="always"
       id="linearGradient4245-0">
      <stop
         style="stop-color:#141414;stop-opacity:1"
         offset="0"
         id="stop29652" />
      <stop
         style="stop-color:#333333;stop-opacity:0;"
         offset="1"
         id="stop29654" />
    </linearGradient>
    <linearGradient
       inkscape:collect="always"
       id="linearGradient19910">
      <stop
         style="stop-color:#5418b8;stop-opacity:1"
         offset="0"
         id="stop19906" />
      <stop
         style="stop-color:#190c51;stop-opacity:1"
         offset="1"
         id="stop19908" />
    </linearGradient>
    <linearGradient
       inkscape:collect="always"
       id="linearGradient18296-3-2">
      <stop
         style="stop-color:#51303a;stop-opacity:1"
         offset="0"
         id="stop18292" />
      <stop
         style="stop-color:#1c1114;stop-opacity:1"
         offset="1"
         id="stop18294" />
    </linearGradient>
    <linearGradient
       inkscape:collect="always"
       id="linearGradient12229-3">
      <stop
         style="stop-color:#0d0d0d;stop-opacity:0.79215693"
         offset="0"
         id="stop12225" />
      <stop
         style="stop-color:#333333;stop-opacity:0.81418091"
         offset="1"
         id="stop12227" />
    </linearGradient>
    <linearGradient
       inkscape:collect="always"
       id="linearGradient10446">
      <stop
         style="stop-color:#9f1e1e;stop-opacity:1"
         offset="0"
         id="stop10442" />
      <stop
         style="stop-color:#4f0f0f;stop-opacity:1"
         offset="1"
         id="stop10444" />
    </linearGradient>
    <inkscape:path-effect
       effect="mirror_symmetry"
       start_point="85.834807,91.892472"
       end_point="85.834807,180.41938"
       center_point="85.834807,136.15593"
       id="path-effect7478"
       is_visible="true"
       lpeversion="1.1"
       mode="X"
       discard_orig_path="false"
       fuse_paths="true"
       oposite_fuse="false"
       split_items="false"
       split_open="false" />
    <inkscape:path-effect
       effect="mirror_symmetry"
       start_point="85.603174,92.450919"
       end_point="85.603174,180.41938"
       center_point="85.742623,136.2957"
       id="path-effect7474"
       is_visible="false"
       lpeversion="1.1"
       mode="X"
       discard_orig_path="false"
       fuse_paths="true"
       oposite_fuse="false"
       split_items="false"
       split_open="false" />
    <linearGradient
       inkscape:collect="always"
       id="linearGradient4245-0-5">
      <stop
         style="stop-color:#333333;stop-opacity:1;"
         offset="0"
         id="stop4241" />
      <stop
         style="stop-color:#333333;stop-opacity:0;"
         offset="1"
         id="stop4243" />
    </linearGradient>
    <inkscape:path-effect
       effect="mirror_symmetry"
       start_point="85.834807,91.892472"
       end_point="85.834807,180.41938"
       center_point="85.834807,136.15593"
       id="path-effect3821"
       is_visible="true"
       lpeversion="1.1"
       mode="X"
       discard_orig_path="false"
       fuse_paths="true"
       oposite_fuse="false"
       split_items="false"
       split_open="false" />
    <inkscape:path-effect
       effect="mirror_symmetry"
       start_point="85.603174,92.450919"
       end_point="85.603174,180.41938"
       center_point="85.742623,136.2957"
       id="path-effect977"
       is_visible="false"
       lpeversion="1.1"
       mode="X"
       discard_orig_path="false"
       fuse_paths="true"
       oposite_fuse="false"
       split_items="false"
       split_open="false" />
    <radialGradient
       inkscape:collect="always"
       xlink:href="#linearGradient10446"
       id="radialGradient9330"
       cx="85.678917"
       cy="107.44624"
       fx="85.678917"
       fy="107.44624"
       r="10.667875"
       gradientTransform="matrix(0.41684182,-0.14813429,0.43828473,1.2333093,-10.92047,-18.800032)"
       gradientUnits="userSpaceOnUse" />
    <radialGradient
       inkscape:collect="always"
       xlink:href="#linearGradient10446"
       id="radialGradient10448"
       cx="63.097618"
       cy="89.288467"
       fx="63.097618"
       fy="89.288467"
       r="6.8330169"
       gradientTransform="matrix(1.1292827,0.41871581,-0.41175148,1.1104999,29.656313,-36.257499)"
       gradientUnits="userSpaceOnUse" />
    <radialGradient
       inkscape:collect="always"
       xlink:href="#linearGradient10446"
       id="radialGradient11155"
       gradientUnits="userSpaceOnUse"
       gradientTransform="matrix(0.37254929,-0.03921569,0.22510638,2.1385118,22.101826,-126.93402)"
       cx="78.778946"
       cy="115.86954"
       fx="78.778946"
       fy="115.86954"
       r="10.667875" />
    <radialGradient
       inkscape:collect="always"
       xlink:href="#linearGradient10446"
       id="radialGradient12189"
       gradientUnits="userSpaceOnUse"
       gradientTransform="matrix(-0.77465999,0.98673016,-1.4847629,-1.1656545,250.01035,130.21839)"
       cx="66.921982"
       cy="91.110115"
       fx="66.921982"
       fy="91.110115"
       r="5.8568711" />
    <radialGradient
       inkscape:collect="always"
       xlink:href="#linearGradient12229-3"
       id="radialGradient12193"
       gradientUnits="userSpaceOnUse"
       gradientTransform="matrix(0.52194012,0.22451839,-0.29636491,0.68896242,55.550383,14.599349)"
       cx="60.939365"
       cy="91.374184"
       fx="60.939365"
       fy="91.374184"
       r="1.533941" />
    <radialGradient
       inkscape:collect="always"
       xlink:href="#linearGradient54081"
       id="radialGradient14503"
       gradientUnits="userSpaceOnUse"
       gradientTransform="matrix(0.56547363,-0.07483651,0.28677447,2.166902,-0.02609801,-118.22459)"
       cx="79.721848"
       cy="119.09264"
       fx="79.721848"
       fy="119.09264"
       r="10.667875" />
    <radialGradient
       inkscape:collect="always"
       xlink:href="#linearGradient54081"
       id="radialGradient16007"
       cx="53.412189"
       cy="138.6682"
       fx="53.412189"
       fy="138.6682"
       r="7.3908153"
       gradientTransform="matrix(-0.74418239,-6.7592068,3.3018337,-0.38893171,-140.67846,941.83621)"
       gradientUnits="userSpaceOnUse" />
    <radialGradient
       inkscape:collect="always"
       xlink:href="#linearGradient46487"
       id="radialGradient19869"
       cx="70.669052"
       cy="121.35682"
       fx="70.669052"
       fy="121.35682"
       r="10.279965"
       gradientTransform="matrix(0.46567024,-0.1098452,0.41558452,1.7618005,-8.5099445,-84.448619)"
       gradientUnits="userSpaceOnUse" />
    <radialGradient
       inkscape:collect="always"
       xlink:href="#linearGradient10446"
       id="radialGradient21929"
       cx="85.058167"
       cy="143.48764"
       fx="85.058167"
       fy="143.48764"
       r="14.128073"
       gradientTransform="matrix(1,0,0,0.87809126,0,17.492397)"
       gradientUnits="userSpaceOnUse" />
    <radialGradient
       inkscape:collect="always"
       xlink:href="#linearGradient18296-3-2"
       id="radialGradient22607"
       gradientUnits="userSpaceOnUse"
       gradientTransform="matrix(0.25196598,0.04483752,-0.15384015,0.86450996,80.595515,15.972059)"
       cx="76.832146"
       cy="144.59541"
       fx="76.832146"
       fy="144.59541"
       r="14.128073" />
    <radialGradient
       inkscape:collect="always"
       xlink:href="#linearGradient19910"
       id="radialGradient24181"
       cx="66.523827"
       cy="101.22569"
       fx="66.523827"
       fy="101.22569"
       r="0.59265971"
       gradientTransform="matrix(1.495993,-1.2479673,1.3433679,1.5069381,-249.09896,51.767263)"
       gradientUnits="userSpaceOnUse" />
    <radialGradient
       inkscape:collect="always"
       xlink:href="#linearGradient10446"
       id="radialGradient25477"
       cx="67.966888"
       cy="109.90099"
       fx="67.966888"
       fy="109.90099"
       r="13.410358"
       gradientTransform="matrix(0.4888242,-0.02544396,0.09827234,1.8879876,21.812656,-97.28308)"
       gradientUnits="userSpaceOnUse" />
    <radialGradient
       inkscape:collect="always"
       xlink:href="#linearGradient18296-3-2"
       id="radialGradient25550"
       cx="45.127701"
       cy="127.14108"
       fx="45.127701"
       fy="127.14108"
       r="5.7191234"
       gradientTransform="matrix(-0.75293429,0.55688055,0.66938296,1.0394805,19.603412,-8.6137785)"
       gradientUnits="userSpaceOnUse" />
    <radialGradient
       inkscape:collect="always"
       xlink:href="#linearGradient10446"
       id="radialGradient26608"
       cx="67.556168"
       cy="113.76043"
       fx="67.556168"
       fy="113.76043"
       r="13.996384"
       gradientTransform="matrix(0.62235852,0.08642092,-0.05395183,0.38853307,31.546067,71.637353)"
       gradientUnits="userSpaceOnUse" />
    <radialGradient
       inkscape:collect="always"
       xlink:href="#linearGradient29959"
       id="radialGradient27388"
       cx="61.970585"
       cy="90.404755"
       fx="61.970585"
       fy="90.404755"
       r="0.87155843"
       gradientTransform="matrix(0.84135725,-0.00758296,0.00877024,2.046452,-31.936131,-77.975839)"
       gradientUnits="userSpaceOnUse" />
    <radialGradient
       inkscape:collect="always"
       xlink:href="#linearGradient4245-0"
       id="radialGradient28529"
       cx="62.847496"
       cy="100.70561"
       fx="62.847496"
       fy="100.70561"
       r="4.5321035"
       gradientTransform="matrix(-1.5251171,0.3044714,-0.05509333,-0.27596616,164.69057,106.81099)"
       gradientUnits="userSpaceOnUse" />
    <radialGradient
       inkscape:collect="always"
       xlink:href="#linearGradient18296-3-2"
       id="radialGradient30544"
       cx="53.625397"
       cy="143.18327"
       fx="53.625397"
       fy="143.18327"
       r="9.9873505"
       gradientTransform="matrix(-0.51379753,0.06737277,-0.10344196,-0.78886795,109.88247,249.25429)"
       gradientUnits="userSpaceOnUse" />
    <radialGradient
       inkscape:collect="always"
       xlink:href="#linearGradient37101"
       id="radialGradient34127"
       gradientUnits="userSpaceOnUse"
       gradientTransform="matrix(1.5836265,-0.05647402,0.204914,5.7461349,-299.09212,-234.29021)"
       cx="252.74304"
       cy="131.31177"
       fx="252.74304"
       fy="131.31177"
       r="23.610765" />
    <radialGradient
       inkscape:collect="always"
       xlink:href="#linearGradient4245-0-5"
       id="radialGradient34356"
       gradientUnits="userSpaceOnUse"
       gradientTransform="matrix(1.6643516,-0.05799875,0.01213571,0.34825058,-111.42763,72.718737)"
       cx="82.605751"
       cy="115.29392"
       fx="82.605751"
       fy="115.29392"
       r="9.3507204" />
    <radialGradient
       inkscape:collect="always"
       xlink:href="#linearGradient37101"
       id="radialGradient25550-1"
       cx="52.394577"
       cy="127.11463"
       fx="52.394577"
       fy="127.11463"
       r="5.7191234"
       gradientTransform="matrix(-0.36552134,2.8544897,6.420232,1.7132692,-759.49635,-199.47384)"
       gradientUnits="userSpaceOnUse" />
    <radialGradient
       inkscape:collect="always"
       xlink:href="#linearGradient46487"
       id="radialGradient39885"
       gradientUnits="userSpaceOnUse"
       gradientTransform="matrix(0.38894287,-0.25209312,0.98453509,1.5189938,-67.913154,-47.506913)"
       cx="66.235214"
       cy="113.34071"
       fx="66.235214"
       fy="113.34071"
       r="10.279965" />
    <radialGradient
       inkscape:collect="always"
       xlink:href="#linearGradient10446"
       id="radialGradient39887"
       gradientUnits="userSpaceOnUse"
       gradientTransform="matrix(0.47991621,0.30555844,-0.17049548,0.26778343,64.440615,80.862718)"
       cx="66.54184"
       cy="137.19922"
       fx="66.54184"
       fy="137.19922"
       r="14.128073" />
    <radialGradient
       inkscape:collect="always"
       xlink:href="#linearGradient19910"
       id="radialGradient39889"
       gradientUnits="userSpaceOnUse"
       gradientTransform="matrix(1.495993,-1.2479673,1.3433679,1.5069381,-248.16575,55.361862)"
       cx="66.523827"
       cy="101.22569"
       fx="66.523827"
       fy="101.22569"
       r="0.59265971" />
    <radialGradient
       inkscape:collect="always"
       xlink:href="#linearGradient46487"
       id="radialGradient40901"
       gradientUnits="userSpaceOnUse"
       gradientTransform="matrix(0.47849286,-0.27562879,0.80518967,1.0343725,-51.61264,15.836068)"
       cx="66.235214"
       cy="113.34071"
       fx="66.235214"
       fy="113.34071"
       r="10.279965" />
    <radialGradient
       inkscape:collect="always"
       xlink:href="#linearGradient18296-3"
       id="radialGradient44024"
       cx="177.53107"
       cy="146.77281"
       fx="177.53107"
       fy="146.77281"
       r="18.044821"
       gradientTransform="matrix(-0.43655438,0.2010504,0.10120893,0.21194588,146.22,77.331872)"
       gradientUnits="userSpaceOnUse" />
    <radialGradient
       inkscape:collect="always"
       xlink:href="#linearGradient18296-3"
       id="radialGradient45294"
       gradientUnits="userSpaceOnUse"
       gradientTransform="matrix(0.66587247,0.21111676,-0.0462951,0.26751661,-32.206935,67.906981)"
       cx="168.34174"
       cy="145.6763"
       fx="168.34174"
       fy="145.6763"
       r="18.044821" />
    <radialGradient
       inkscape:collect="always"
       xlink:href="#linearGradient46487"
       id="radialGradient49717"
       cx="53.418884"
       cy="39.0853"
       fx="53.418884"
       fy="39.0853"
       r="11.016497"
       gradientTransform="matrix(-0.36244617,0.93200471,-0.45569626,-0.17721516,96.559531,-2.1699276)"
       gradientUnits="userSpaceOnUse" />
    <radialGradient
       inkscape:collect="always"
       xlink:href="#linearGradient46487"
       id="radialGradient49972"
       gradientUnits="userSpaceOnUse"
       gradientTransform="matrix(0.4309897,-0.20253171,-0.36608414,-0.77903108,37.198921,81.339291)"
       cx="62.542728"
       cy="34.8452"
       fx="62.542728"
       fy="34.8452"
       r="11.016497" />
    <radialGradient
       inkscape:collect="always"
       xlink:href="#linearGradient46487"
       id="radialGradient50129"
       cx="54.085602"
       cy="46.822151"
       fx="54.085602"
       fy="46.822151"
       r="16.089853"
       gradientTransform="matrix(0.12576737,-0.27209249,0.38985222,0.18019862,32.172616,38.579569)"
       gradientUnits="userSpaceOnUse" />
    <radialGradient
       inkscape:collect="always"
       xlink:href="#linearGradient46487"
       id="radialGradient50785"
       gradientUnits="userSpaceOnUse"
       gradientTransform="matrix(-1,0,0,-0.86075956,104.85731,77.680046)"
       cx="56.06842"
       cy="33.901066"
       fx="56.06842"
       fy="33.901066"
       r="11.016497" />
    <radialGradient
       inkscape:collect="always"
       xlink:href="#linearGradient10446"
       id="radialGradient51200"
       cx="59.064686"
       cy="37.661442"
       fx="59.064686"
       fy="37.661442"
       r="6.2054958"
       gradientTransform="matrix(0.83583697,0.40597623,-0.3887025,0.80027327,24.616132,-17.229328)"
       gradientUnits="userSpaceOnUse" />
    <radialGradient
       inkscape:collect="always"
       xlink:href="#linearGradient18296-3-2"
       id="radialGradient53066"
       cx="55.388611"
       cy="40.018188"
       fx="55.388611"
       fy="40.018188"
       r="14.495575"
       gradientTransform="matrix(0.59161748,0.05455253,-0.1320105,1.4316425,33.771842,-20.285867)"
       gradientUnits="userSpaceOnUse" />
  </defs>
  <g
     inkscape:label="Layer 1"
     inkscape:groupmode="layer"
     id="layer1"
     transform="translate(-20.22994,-90.507247)">
    <g
       id="g2295"
       inkscape:label="Human"
       style="display:inline;stroke:none"
       transform="matrix(0.5310687,0,0,0.54615778,17.501533,59.178133)">
      <path
         id="path34125"
         style="font-variation-settings:normal;opacity:1;vector-effect:none;fill:url(#radialGradient34127);fill-opacity:1;stroke:none;stroke-width:1.21702;stroke-linecap:butt;stroke-linejoin:miter;stroke-miterlimit:4;stroke-dasharray:none;stroke-dashoffset:0;stroke-opacity:0.766129;-inkscape-stroke:none;stop-color:#000000;stop-opacity:1"
         d="m 104.46461,366.85133 c -2.15502,-16.74773 -28.86585,11.79742 -32.792473,28.35765 -1.063139,4.48373 -3.360517,3.33679 -2.978778,7.07032 0.27326,2.67269 -2.126975,1.7316 1.261719,7.65234 3.693343,6.45301 1.875245,25.26666 1.039063,31.91602 -1.804275,14.34765 -6.539285,61.90481 -5.15625,82.18164 2.49312,36.552 7.974444,61.70455 -3.886719,89.88086 -8.675747,20.60931 -24.141918,23.54204 -20.460938,41.83007 2.892261,14.36947 41.058599,23.32313 64.352536,23.3231 23.29394,-2e-5 61.46028,-8.95363 64.35254,-23.3231 3.68098,-18.28803 -11.78519,-21.22076 -20.46093,-41.83007 -11.86117,-28.17631 -6.37984,-53.32886 -3.88672,-89.88086 1.38303,-20.27683 -3.35198,-67.83399 -5.15625,-82.18164 -0.83619,-6.64936 -2.65428,-25.46301 1.03906,-31.91602 3.38869,-5.92074 0.98846,-4.97965 1.26172,-7.65234 0.38174,-3.73353 -2.28833,-2.58659 -3.35147,-7.07032 -5.02607,-21.1971 -33.18369,-43.24098 -35.26094,-28.81973 -0.33993,2.35996 0.27203,1.91688 0.0848,0.46208 z"
         sodipodi:nodetypes="sssssssssssssssssss"
         transform="scale(0.26458333)" />
      <path
         style="font-variation-settings:normal;opacity:1;vector-effect:none;fill:url(#radialGradient34356);fill-opacity:1;stroke:none;stroke-width:0.322003;stroke-linecap:butt;stroke-linejoin:miter;stroke-miterlimit:4;stroke-dasharray:none;stroke-dashoffset:0;stroke-opacity:0.766129;-inkscape-stroke:none;stop-color:#000000;stop-opacity:1"
         d="m 18.536611,104.82298 c -0.844849,-0.88596 1.120192,3.36748 3.980474,4.67579 1.94725,0.89068 3.97084,1.07297 5.0371,1.19335 1.06627,-0.12038 3.09182,-0.30267 5.03907,-1.19335 2.86027,-1.3083 4.82532,-5.56175 3.98047,-4.67579 -3.97644,5.10455 -8.04962,4.98649 -9.01954,5.1211 -0.96991,-0.13461 -5.04113,-0.0165 -9.017574,-5.1211 z"
         id="path34274"
         sodipodi:nodetypes="ssscs"
         inkscape:original-d="m 85.970322,107.64297 c 0.220765,0.0663 0.475302,0.79098 -0.125774,0.72295 -1.063634,-0.12038 -3.094982,-0.30019 -5.048178,-1.19359 -2.860277,-1.3083 -4.825058,-5.56287 -3.980209,-4.67691 4.204172,5.39688 8.515483,4.95563 9.154161,5.14755 z" />
      <path
         id="path25542-4"
         style="fill:url(#radialGradient25550-1);fill-opacity:1;fill-rule:evenodd;stroke-width:6.55678;stroke-linecap:square;stroke-linejoin:bevel;paint-order:fill markers stroke;stop-color:#000000"
         d="m 37.190992,162.00022 c 6.555589,-0.002 11.87,5.88953 11.869776,13.15489 -2.07e-4,7.26502 -4.97293,13.97136 -11.528212,13.97109 -3.956549,-1.5e-4 -6.798986,1.08297 -9.002963,-2.55863 -2.10478,4.12683 -7.245767,2.59554 -11.523132,2.59625 -6.554934,9.7e-4 -11.8686765,-5.88939 -11.8688831,-13.15404 -2.197e-4,-7.26497 5.3136451,-13.15652 11.8688831,-13.15489 3.956624,9.6e-4 7.651977,2.18981 9.854191,5.83282 2.103853,-4.13008 6.050879,-6.6865 10.33034,-6.68749 z"
         sodipodi:nodetypes="ssscssscs" />
    </g>
    <g
       id="g9054"
       inkscape:label="Horse"
       style="display:inline"
       transform="matrix(1.0611043,0,0,1.2435046,54.40517,-16.539193)">
      <path
         style="font-variation-settings:normal;opacity:1;vector-effect:none;fill:url(#radialGradient9330);fill-opacity:1;stroke:none;stroke-width:0.322003;stroke-linecap:butt;stroke-linejoin:miter;stroke-miterlimit:4;stroke-dasharray:none;stroke-dashoffset:0;stroke-opacity:0.766129;-inkscape-stroke:none;stop-color:#000000;stop-opacity:1"
         d="m 56.476983,95.243901 c 8.278444,6.088819 6.229155,12.619909 7.948614,18.407309 1.664873,5.60368 0.716834,4.1439 1.812842,11.99265 0.507184,3.63206 13.258334,0.99098 12.899064,-1.46422 -0.980874,-6.70319 0.05664,-4.30489 -2.579813,-13.87521 C 74.938343,104.4262 69.896038,99.181293 68.673847,89.665928 68.110483,85.279861 52.829379,92.56108 56.476983,95.243901 Z"
         id="path9284"
         sodipodi:nodetypes="sssssss" />
      <path
         id="path9051"
         style="fill:url(#radialGradient10448);fill-opacity:1;fill-rule:evenodd;stroke-width:6.64571;stroke-linecap:square;stroke-linejoin:bevel;paint-order:fill markers stroke;stop-color:#000000"
         d="m 69.027425,90.711802 c 0,2.811075 -4.287179,6.902743 -8.715584,6.902742 -4.428405,0 -4.95045,-3.115522 -4.95045,-5.926597 0,-2.811075 2.474336,-5.508249 6.902741,-5.508249 4.428405,0 6.763293,1.721029 6.763293,4.532104 z"
         sodipodi:nodetypes="sssss" />
      <path
         style="font-variation-settings:normal;opacity:1;vector-effect:none;fill:url(#radialGradient11155);fill-opacity:1;stroke:none;stroke-width:0.322003;stroke-linecap:butt;stroke-linejoin:miter;stroke-miterlimit:4;stroke-dasharray:none;stroke-dashoffset:0;stroke-opacity:0.766129;-inkscape-stroke:none;stop-color:#000000;stop-opacity:1"
         d="m 65.401742,114.69709 c -3.096745,-1.39938 2.08364,9.14823 0.278894,15.68805 -0.514118,1.863 9.826612,5.62046 12.899066,3.06788 2.125835,-1.76614 1.482867,-9.23454 -10e-7,-15.40916 -0.842524,-3.50824 -0.700318,-7.80036 -1.812841,-6.48437 -3.152169,3.72867 -4.939673,6.04117 -11.365118,3.1376 z"
         id="path10830"
         sodipodi:nodetypes="ssssss" />
      <path
         id="path12107"
         style="fill:url(#radialGradient12189);fill-opacity:1;fill-rule:evenodd;stroke-width:5.20397;stroke-linecap:square;stroke-linejoin:bevel;paint-order:fill markers stroke;stop-color:#000000"
         d="m 67.49348,90.60764 c 0,2.313994 -2.91461,5.75186 -6.21332,5.75186 -3.29871,0 -5.500421,-1.867361 -5.500421,-4.181355 0,-2.313995 2.610099,-5.649824 5.908809,-5.649824 3.298712,0 5.804932,1.765324 5.804932,4.079319 z"
         sodipodi:nodetypes="sssss" />
      <path
         id="path12191"
         style="fill:url(#radialGradient12193);fill-opacity:1;fill-rule:evenodd;stroke-width:1.06468;stroke-linecap:square;stroke-linejoin:bevel;paint-order:fill markers stroke;stop-color:#000000"
         d="m 61.171852,91.360037 c -0.223515,0.519608 -1.051183,1.059843 -1.570059,0.836642 -0.518877,-0.2232 -0.332323,-0.825395 -0.108807,-1.345004 0.223516,-0.519609 0.727893,-0.893452 1.246769,-0.670251 0.518877,0.2232 0.655613,0.659004 0.432097,1.178613 z"
         sodipodi:nodetypes="sssss" />
      <path
         style="font-variation-settings:normal;opacity:1;vector-effect:none;fill:url(#radialGradient14503);fill-opacity:1.0;stroke:none;stroke-width:0.322003;stroke-linecap:butt;stroke-linejoin:miter;stroke-miterlimit:4;stroke-dasharray:none;stroke-dashoffset:0;stroke-opacity:0.766129;-inkscape-stroke:none;stop-color:#000000;stop-opacity:1"
         d="m 66.447612,128.2934 c -2.49262,-0.63037 -0.775061,1.94622 -0.697246,7.66971 0.02628,1.93322 -0.587092,3.05627 -1.115594,6.41467 -0.483418,3.07191 4.415867,3.69191 7.111915,3.90459 3.840285,0.30294 11.534851,-0.10895 10.87705,-3.90459 -1.15682,-6.67507 -1.06797,-2.50715 -1.743117,-12.411 -0.224853,-3.29841 -0.301674,-5.25934 -1.255043,-4.25318 -4.264832,4.50099 -6.187525,4.34766 -13.177965,2.5798 z"
         id="path14421"
         sodipodi:nodetypes="ssssssss" />
      <path
         id="path15919"
         style="fill:url(#radialGradient16007);fill-opacity:1;fill-rule:evenodd;stroke:none;stroke-width:18.7056;stroke-linecap:square;stroke-linejoin:bevel;paint-order:fill markers stroke;stop-color:#000000"
         d="m 238.86914,517.1543 c -10.39245,0.0202 -20.47133,6.47878 -25.93164,16.61718 -7.84971,14.57537 -3.83524,32.05419 8.9668,39.04102 7.94965,4.32922 17.83775,3.72185 26.20117,-1.60938 2.21922,2.76188 4.93988,5.04323 8.01953,6.72461 13.53678,7.38743 30.77363,1.7482 38.5,-12.5957 7.72635,-14.34446 3.01594,-31.9624 -10.52148,-39.34961 -8.12411,-4.43324 -8.14279,-0.9071 -13.33014,-3.79275 -7.25197,-4.03417 -5.07172,-24.50452 -14.67262,-27.30075 -12.03428,-3.50494 -2.78027,20.52077 -5.00269,21.89477 -5.86926,3.62867 -8.16504,0.36271 -12.22893,0.37061 z"
         transform="scale(0.26458333)"
         sodipodi:nodetypes="scccccsssss" />
    </g>
    <g
       id="g22485"
       inkscape:label="Slick"
       style="display:inline"
       transform="matrix(1.173372,0.18873341,-0.18873341,1.173372,24.021973,-31.724042)">
      <path
         style="font-variation-settings:normal;opacity:1;vector-effect:none;fill:url(#radialGradient21929);fill-opacity:1;stroke:none;stroke-width:0.322003;stroke-linecap:butt;stroke-linejoin:miter;stroke-miterlimit:4;stroke-dasharray:none;stroke-dashoffset:0;stroke-opacity:0.766129;-inkscape-stroke:none;stop-color:#000000;stop-opacity:1"
         d="m 90.01455,132.82549 c -2.166835,0.51304 -4.774502,3.6692 -6.902741,5.02019 -3.164274,2.00866 -4.298572,2.36945 -6.55412,4.60183 -1.660129,1.64308 -0.906509,2.98946 -1.255042,5.29906 -0.385436,2.55414 8.793464,-0.62312 11.086222,-1.81284 3.215073,-1.66831 4.642633,-3.39693 6.693566,-5.71742 2.579173,-2.91815 -1.763303,-7.6997 -3.067885,-7.39082 z"
         id="path21690"
         sodipodi:nodetypes="sssssss" />
      <path
         style="font-variation-settings:normal;opacity:1;vector-effect:none;fill:url(#radialGradient19869);fill-opacity:1;stroke:none;stroke-width:0.322003;stroke-linecap:butt;stroke-linejoin:miter;stroke-miterlimit:4;stroke-dasharray:none;stroke-dashoffset:0;stroke-opacity:0.766129;-inkscape-stroke:none;stop-color:#000000;stop-opacity:1"
         d="m 73.768703,112.32644 c 0.947825,2.89588 -1.454253,4.8766 -0.697247,10.94677 0.74131,5.94431 4.808644,6.94565 5.089902,10.45871 0.258856,3.23325 -1.754044,6.63049 -0.209175,9.48256 1.943488,3.58798 5.223037,4.31396 9.203656,3.41651 3.739586,-0.8431 5.52344,-2.45085 5.787148,-6.27522 0.156889,-2.27525 -0.262882,-5.08196 -2.664738,-7.04081 -2.401856,-1.95885 -6.297724,-7.88084 -7.096713,-10.39036 -1.771497,-5.56403 -0.298409,-10.51042 -3.765136,-15.89723 -2.985597,-4.6392 -12.047155,-9.57235 -13.90455,-6.41309 -1.711927,2.91183 6.836188,7.37163 8.256853,11.71216 z"
         id="path19804"
         sodipodi:nodetypes="sssssssssss" />
      <path
         style="font-variation-settings:normal;opacity:1;vector-effect:none;fill:url(#radialGradient22607);fill-opacity:1;stroke:none;stroke-width:0.322003;stroke-linecap:butt;stroke-linejoin:miter;stroke-miterlimit:4;stroke-dasharray:none;stroke-dashoffset:0;stroke-opacity:0.766129;-inkscape-stroke:none;stop-color:#000000;stop-opacity:1"
         d="m 90.920971,133.17411 c -0.07509,4.20844 -0.945918,5.39005 -2.649536,7.73945 -2.407786,3.32049 -9.109575,3.27588 -11.225673,1.9523 -1.980278,-1.23864 -1.882654,6.40596 -2.231187,8.71556 -0.385436,2.55414 7.461956,1.86576 9.831178,0.8367 5.446262,-2.36556 7.919692,-3.18776 10.667872,-8.57613 1.769465,-3.4694 -4.368735,-12.00832 -4.392654,-10.66788 z"
         id="path22482"
         sodipodi:nodetypes="sssssss" />
      <ellipse
         style="fill:url(#radialGradient24181);fill-opacity:1;fill-rule:evenodd;stroke:none;stroke-width:19.3829;stroke-linecap:square;stroke-linejoin:bevel;paint-order:fill markers stroke;stop-color:#000000"
         id="path24173"
         cx="-13.97345"
         cy="120.95323"
         rx="0.92654449"
         ry="0.62763876"
         transform="matrix(0.81574604,-0.57841023,0.64381275,0.76518308,0,0)" />
    </g>
    <g
       id="g25540"
       inkscape:label="Dog"
       transform="matrix(0.86002478,0,0,0.89106352,5.3630104,25.328038)">
      <path
         style="font-variation-settings:normal;opacity:1;vector-effect:none;fill:url(#radialGradient25477);fill-opacity:1;stroke:none;stroke-width:0.322003;stroke-linecap:butt;stroke-linejoin:miter;stroke-miterlimit:4;stroke-dasharray:none;stroke-dashoffset:0;stroke-opacity:0.766129;-inkscape-stroke:none;stop-color:#000000;stop-opacity:1"
         d="m 60.543823,89.238046 c -1.176937,0.668638 -0.397261,1.506743 -1.57769,3.549801 -1.037777,1.79616 -1.695421,1.830301 -2.318681,3.160333 -1.197204,2.554825 1.743265,1.211409 1.727049,2.756001 -0.02613,2.488339 -1.744069,5.467519 -2.000991,8.999089 -0.302618,4.15968 2.641192,8.35733 1.339632,12.31971 -1.505812,4.5842 0.825745,15.67409 0.564807,21.00437 -0.220839,4.51118 8.504433,3.34484 9.779721,1.10756 3.308441,-5.80411 1.704619,-18.75615 0.107664,-22.44756 -1.398413,-3.23247 1.469635,-8.18721 1.351597,-12.40448 -0.103638,-3.70279 -1.017215,-6.29493 -2.239046,-9.791863 -0.429,-1.227818 2.149018,-0.550328 0.950167,-2.057727 -1.132228,-1.423631 -2.456292,-1.753897 -3.600556,-3.270902 -1.007294,-1.335417 -2.616938,-3.757609 -4.083673,-2.924332 z"
         id="path25412"
         sodipodi:nodetypes="ssssssssssssss" />
      <path
         style="font-variation-settings:normal;opacity:1;vector-effect:none;fill:url(#radialGradient30544);fill-opacity:1;stroke:none;stroke-width:0.322003;stroke-linecap:butt;stroke-linejoin:miter;stroke-miterlimit:4;stroke-dasharray:none;stroke-dashoffset:0;stroke-opacity:0.766129;-inkscape-stroke:none;stop-color:#000000;stop-opacity:1"
         d="m 57.045804,137.63955 c 0.915098,-1.64667 2.327881,1.41742 4.089654,2.08455 2.501932,0.94741 4.70996,0.20455 6.705178,-1.57768 1.052922,-0.94053 2.002706,-2.73687 2.692257,-1.5049 2.209849,3.94818 0.59769,8.67067 -0.229169,12.15344 -0.622069,2.62018 -4.697776,4.23573 -7.383455,4.43435 -3.445696,0.25483 -6.380643,-0.93525 -6.739866,-4.37163 -0.348895,-3.33757 -0.95698,-7.93887 0.865401,-11.21813 z"
         id="path30479"
         sodipodi:nodetypes="ssssssss" />
      <path
         style="font-variation-settings:normal;opacity:1;vector-effect:none;fill:url(#radialGradient28529);fill-opacity:1;stroke:none;stroke-width:0.322003;stroke-linecap:butt;stroke-linejoin:miter;stroke-miterlimit:4;stroke-dasharray:none;stroke-dashoffset:0;stroke-opacity:0.766129;-inkscape-stroke:none;stop-color:#000000;stop-opacity:1"
         d="m 63.240276,98.52096 c 1.381771,-0.224208 2.951605,-1.278289 3.85229,-1.533942 0.908446,-0.257855 -2.370724,1.841735 -3.747702,2.039448 -1.863633,0.267589 -6.700472,-1.14194 -4.93302,-1.04587 1.631406,0.08867 3.144458,0.813608 4.828432,0.540364 z"
         id="path28255"
         sodipodi:nodetypes="sssss" />
      <ellipse
         style="fill:url(#radialGradient27388);fill-opacity:1;fill-rule:evenodd;stroke:none;stroke-width:4.2191;stroke-linecap:square;stroke-linejoin:bevel;paint-order:fill markers stroke;stop-color:#000000"
         id="path27380"
         cx="20.922848"
         cy="107.32057"
         rx="0.73333269"
         ry="1.0030718"
         transform="matrix(0.91713259,-0.39858224,0.39300388,0.91953681,0,0)" />
      <path
         style="font-variation-settings:normal;opacity:1;vector-effect:none;fill:url(#radialGradient26608);fill-opacity:1;stroke:none;stroke-width:0.322003;stroke-linecap:butt;stroke-linejoin:miter;stroke-miterlimit:4;stroke-dasharray:none;stroke-dashoffset:0;stroke-opacity:0.766129;-inkscape-stroke:none;stop-color:#000000;stop-opacity:1"
         d="m 56.224796,119.7311 c -5.016447,3.57522 -3.200483,10.34817 -0.142461,13.31683 3.065292,2.97572 3.813995,-0.42689 7.146868,-0.42499 3.509069,0.002 4.577368,2.92253 7.646797,0.31693 4.169506,-3.53943 4.674728,-10.92373 -1.149895,-13.30533 -2.192608,-0.89652 -2.897465,2.07567 -6.180756,2.16245 -3.457094,0.0914 -4.712191,-3.92487 -7.320553,-2.06589 z"
         id="path26220"
         sodipodi:nodetypes="sssssss" />
      <path
         id="path25542"
         style="fill:url(#radialGradient25550);fill-rule:evenodd;stroke-width:3.87019;stroke-linecap:square;stroke-linejoin:bevel;paint-order:fill markers stroke;stop-color:#000000"
         d="m 69.500986,145.34167 c 3.785042,-1.6e-4 6.853457,3.5539 6.853327,7.93801 -1.19e-4,4.38391 -3.068463,7.93766 -6.853327,7.9375 -2.284418,-9e-5 -3.728363,1.14652 -5.000887,-1.05092 -1.21525,2.49024 -4.183534,1.56539 -6.653183,1.56665 -3.784664,-1.7e-4 -6.852693,-3.55382 -6.852812,-7.9375 -1.27e-4,-4.38387 3.067973,-7.93784 6.852812,-7.93801 2.28446,0.002 4.41807,1.32139 5.689576,3.51968 1.214715,-2.4922 3.493635,-4.03405 5.964494,-4.03541 z"
         sodipodi:nodetypes="cssccsccc" />
    </g>
    <g
       id="g39801"
       inkscape:label="Dragon"
       style="display:inline"
       transform="matrix(-1.1092861,0.61040056,0.52862107,1.2808964,192.87388,-82.688414)">
      <use
         x="0"
         y="0"
         xlink:href="#path40899"
         id="use40985"
         width="100%"
         height="100%"
         transform="matrix(0.99025476,0.78726002,-1.2429977,0.87547733,149.81115,-22.610729)" />
      <path
         style="font-variation-settings:normal;opacity:1;vector-effect:none;fill:url(#radialGradient39887);fill-opacity:1;stroke:none;stroke-width:0.322003;stroke-linecap:butt;stroke-linejoin:miter;stroke-miterlimit:4;stroke-dasharray:none;stroke-dashoffset:0;stroke-opacity:0.766129;-inkscape-stroke:none;stop-color:#000000;stop-opacity:1"
         d="m 90.850928,138.75539 c -0.353703,-2.17306 -4.209336,3.33714 -9.402955,3.84738 -3.586597,0.35236 -6.442901,-0.43482 -8.471908,-3.11568 -1.342922,-1.77436 -0.583264,2.38185 0.636342,5.17867 1.324102,3.03646 2.804393,5.30168 6.072768,6.11825 5.56497,1.39035 14.919877,-1.85997 14.894064,-5.39723 -0.02297,-3.14756 -3.455286,-4.95399 -3.728311,-6.63139 z"
         id="path39797"
         sodipodi:nodetypes="sssssss" />
      <use
         x="0"
         y="0"
         xlink:href="#path40899"
         id="use40987"
         width="100%"
         height="100%"
         transform="matrix(1.2511878,0.15900783,-0.57542831,1.0863316,52.039048,-4.4316123)" />
      <use
         x="0"
         y="0"
         xlink:href="#path40899"
         id="use41071"
         width="100%"
         height="100%"
         transform="matrix(1.2387428,0.1491123,-0.3857359,1.121926,30.530426,-12.555155)" />
      <use
         x="0"
         y="0"
         xlink:href="#path40899"
         id="use41073"
         width="100%"
         height="100%"
         transform="matrix(1.1304194,-0.04395579,-0.04395579,1.059127,-2.0735359,4.9275663)" />
      <use
         x="0"
         y="0"
         xlink:href="#path40899"
         id="use41075"
         width="100%"
         height="100%"
         transform="matrix(1.0762284,-0.03908186,-0.03908186,1.0128411,0.2586558,5.6630934)" />
      <path
         style="font-variation-settings:normal;opacity:1;vector-effect:none;fill:url(#radialGradient40901);fill-opacity:1;stroke:none;stroke-width:0.297647;stroke-linecap:butt;stroke-linejoin:miter;stroke-miterlimit:4;stroke-dasharray:none;stroke-dashoffset:0;stroke-opacity:0.766129;-inkscape-stroke:none;stop-color:#000000;stop-opacity:1"
         d="m 71.638898,117.64166 c 0.739088,4.27143 6.07165,4.46497 11.411064,-0.8192 3.167047,-3.13429 -10.892271,-9.88265 -11.577406,-8.46011 -1.580306,3.28116 -0.433317,5.81369 0.166342,9.27931 z"
         id="path40899"
         sodipodi:nodetypes="ssss" />
      <use
         x="0"
         y="0"
         xlink:href="#path40899"
         id="use46201"
         width="100%"
         height="100%"
         transform="matrix(0.94672309,-0.00127637,-0.00127637,0.94465294,3.4032782,3.3416272)" />
      <path
         style="font-variation-settings:normal;opacity:1;vector-effect:none;fill:url(#radialGradient39885);fill-opacity:1;stroke:none;stroke-width:0.322003;stroke-linecap:butt;stroke-linejoin:miter;stroke-miterlimit:4;stroke-dasharray:none;stroke-dashoffset:0;stroke-opacity:0.766129;-inkscape-stroke:none;stop-color:#000000;stop-opacity:1"
         d="m 70.338628,111.68971 c 0.451093,3.96142 3.992293,3.88446 8.529326,0.32195 5.904725,-4.63642 -7.828519,-12.910734 -10.355493,-9.15094 -1.8842,2.80343 1.309442,4.29121 1.826167,8.82899 z"
         id="path39795"
         sodipodi:nodetypes="ssss" />
      <ellipse
         style="fill:url(#radialGradient39889);fill-opacity:1;fill-rule:evenodd;stroke:none;stroke-width:19.3829;stroke-linecap:square;stroke-linejoin:bevel;paint-order:fill markers stroke;stop-color:#000000"
         id="ellipse39799"
         cx="-13.04024"
         cy="124.54783"
         rx="0.92654449"
         ry="0.62763876"
         transform="matrix(0.81574604,-0.57841023,0.64381275,0.76518308,0,0)" />
      <path
         style="font-variation-settings:normal;opacity:1;vector-effect:none;fill:url(#radialGradient44024);fill-opacity:1;stroke:none;stroke-width:0.248603;stroke-linecap:butt;stroke-linejoin:miter;stroke-miterlimit:4;stroke-dasharray:none;stroke-dashoffset:0;stroke-opacity:0.766129;-inkscape-stroke:none;stop-color:#000000;stop-opacity:1"
         d="m 92.977993,139.47362 c -1.893663,-2.77521 -3.787577,3.67286 -9.933248,4.22498 -1.873885,0.16835 0.05037,5.41988 0.917377,8.38061 0.638537,2.18055 16.558648,-1.35594 16.246028,-5.13993 -0.345325,-4.17987 -3.721841,-2.32412 -7.230161,-7.46566 -10e-7,0 5e-6,0 4e-6,0 z"
         id="path43976"
         sodipodi:nodetypes="ssssss" />
      <path
         style="font-variation-settings:normal;opacity:1;vector-effect:none;fill:url(#radialGradient45294);fill-opacity:1;stroke:none;stroke-width:0.268297;stroke-linecap:butt;stroke-linejoin:miter;stroke-miterlimit:4;stroke-dasharray:none;stroke-dashoffset:0;stroke-opacity:0.766129;-inkscape-stroke:none;stop-color:#000000;stop-opacity:1"
         d="m 71.2974,141.4745 c -0.534106,-4.51039 1.621904,0.7008 4.725167,1.89291 2.089727,0.80276 4.478512,-0.25852 5.952822,1.43913 1.42426,1.64002 2.639927,5.61121 1.83704,7.51506 -0.598172,1.41842 -6.979579,1.89928 -10.957791,-3.4735 -1.229533,-1.66051 -1.161863,-4.03475 -1.557238,-7.3736 z"
         id="path45212"
         sodipodi:nodetypes="ssssss" />
    </g>
    <g
       id="g51203"
       inkscape:label="CuntDog">
      <path
         id="rect53058"
         style="opacity:1;vector-effect:none;fill:url(#radialGradient53066);fill-rule:evenodd;stroke:#5ea230;stroke-width:0.264583;stroke-opacity:0.766129;stop-color:#000000;stop-opacity:1"
         d="m 48.500708,23.480469 c 4.874307,-5.177217 14.635523,-4.265145 18.466327,1.725462 5.523053,8.636942 3.696615,24.599782 -3.330905,32.06402 -4.874306,5.177216 -14.496074,5.10184 -18.326878,-0.888766 C 39.7862,47.744243 41.473189,30.944707 48.500708,23.480469 Z"
         sodipodi:nodetypes="sssss" />
      <rect
         style="font-variation-settings:normal;opacity:1;vector-effect:none;fill:url(#radialGradient51200);fill-opacity:1;fill-rule:evenodd;stroke:none;stroke-width:0.264583;stroke-linecap:butt;stroke-linejoin:miter;stroke-miterlimit:4;stroke-dasharray:none;stroke-dashoffset:0;stroke-opacity:0.766129;-inkscape-stroke:none;stop-color:#000000;stop-opacity:1"
         id="rect51170"
         width="12.410992"
         height="21.05685"
         x="50.072098"
         y="30.265131" />
      <path
         style="font-variation-settings:normal;opacity:1;vector-effect:none;fill:url(#radialGradient50129);fill-opacity:1;stroke:none;stroke-width:0.273203;stroke-linecap:butt;stroke-linejoin:miter;stroke-miterlimit:4;stroke-dasharray:none;stroke-dashoffset:0;stroke-opacity:0.766129;-inkscape-stroke:none;stop-color:#000000;stop-opacity:1"
         d="M 67.309386,40.690215 C 68.918323,39.88914 66.988648,36.746997 66.667537,34.414996 65.791795,28.05512 63.024538,23.355076 58.363806,23.259048 52.589453,23.140076 44.232503,29.83268 46.931348,36.925083 c 1.71145,4.497587 7.111914,-3.888113 10.741135,-3.207335 3.58931,0.673292 6.227396,8.670029 9.636903,6.972467 z"
         id="path50102"
         sodipodi:nodetypes="ssssss" />
      <path
         style="font-variation-settings:normal;opacity:1;vector-effect:none;fill:url(#radialGradient49972);fill-opacity:1;stroke:none;stroke-width:0.263865;stroke-linecap:butt;stroke-linejoin:miter;stroke-miterlimit:4;stroke-dasharray:none;stroke-dashoffset:0;stroke-opacity:0.766129;-inkscape-stroke:none;stop-color:#000000;stop-opacity:1"
         d="m 54.47252,56.866339 c 2.458144,-2.259058 2.220388,-8.413727 1.460614,-13.666035 -0.600147,-4.148813 -3.274922,-8.442989 -6.648417,-9.064209 -4.536532,-0.83539 -4.247603,3.025486 -4.377588,6.55412 -0.321539,8.728667 4.569942,20.766986 9.565391,16.176124 z"
         id="path49970"
         sodipodi:nodetypes="sssss" />
      <path
         style="font-variation-settings:normal;opacity:1;vector-effect:none;fill:url(#radialGradient50785);fill-opacity:1;stroke:none;stroke-width:0.322003;stroke-linecap:butt;stroke-linejoin:miter;stroke-miterlimit:4;stroke-dasharray:none;stroke-dashoffset:0;stroke-opacity:0.766129;-inkscape-stroke:none;stop-color:#000000;stop-opacity:1"
         d="m 53.948517,57.005788 c -3.012818,-1.421967 -2.484671,-7.588085 1.255042,-6.693569 4.821249,1.153213 1.741273,8.107748 -1.255042,6.693569 z"
         id="path50783"
         sodipodi:nodetypes="sss" />
      <path
         style="font-variation-settings:normal;opacity:1;vector-effect:none;fill:url(#radialGradient49717);fill-opacity:1;stroke:none;stroke-width:0.322003;stroke-linecap:butt;stroke-linejoin:miter;stroke-miterlimit:4;stroke-dasharray:none;stroke-dashoffset:0;stroke-opacity:0.766129;-inkscape-stroke:none;stop-color:#000000;stop-opacity:1"
         d="m 55.48246,56.308542 c -1.037147,-4.135013 1.378623,-5.903639 2.510087,-11.155947 0.893746,-4.148813 0.637554,-11.072781 5.438524,-9.900905 3.433144,0.838002 4.268804,1.352094 4.462379,4.880728 0.47884,8.728667 -11.119405,21.325565 -12.41099,16.176124 z"
         id="path49593"
         sodipodi:nodetypes="sssss" />
    </g>
  </g>
</svg>
