<?xml version="1.0" encoding="UTF-8" standalone="no"?>
<!-- Created with Inkscape (http://www.inkscape.org/) -->

<svg
   width="100"
   height="100"
   viewBox="25 0 50 50"
   version="1.1"
   id="svg5"
   inkscape:version="1.1 (c68e22c387, 2021-05-23)"
   sodipodi:docname="daynight.svg"
   xmlns:inkscape="http://www.inkscape.org/namespaces/inkscape"
   xmlns:sodipodi="http://sodipodi.sourceforge.net/DTD/sodipodi-0.dtd"
   xmlns:xlink="http://www.w3.org/1999/xlink"
   xmlns="http://www.w3.org/2000/svg"
   xmlns:svg="http://www.w3.org/2000/svg">
  <sodipodi:namedview
     id="namedview7"
     pagecolor="#ffffff"
     bordercolor="#666666"
     borderopacity="1.0"
     inkscape:pageshadow="2"
     inkscape:pageopacity="0.0"
     inkscape:pagecheckerboard="0"
     inkscape:document-units="px"
     showgrid="false"
     inkscape:snap-bbox="true"
     inkscape:bbox-nodes="true"
     inkscape:snap-bbox-edge-midpoints="true"
     inkscape:snap-bbox-midpoints="true"
     inkscape:bbox-paths="true"
     inkscape:snap-global="true"
     inkscape:zoom="5.6474939"
     inkscape:cx="116.51186"
     inkscape:cy="85.613196"
     inkscape:window-width="1920"
     inkscape:window-height="1017"
     inkscape:window-x="1912"
     inkscape:window-y="-8"
     inkscape:window-maximized="1"
     inkscape:current-layer="wheel"
     fit-margin-top="0"
     fit-margin-left="0"
     fit-margin-right="0"
     fit-margin-bottom="0"
     units="px"
     inkscape:object-paths="false"
     inkscape:snap-page="true" />
  <defs
     id="defs2">
    <linearGradient
       inkscape:collect="always"
       id="linearGradient10010">
      <stop
         style="stop-color:#d8d82c;stop-opacity:1"
         offset="0"
         id="stop10004" />
      <stop
         style="stop-color:#d8d82c;stop-opacity:1"
         offset="0.44488591"
         id="stop10006" />
      <stop
         style="stop-color:#c9ac24;stop-opacity:0.51833743"
         offset="1"
         id="stop10008" />
    </linearGradient>
    <linearGradient
       inkscape:collect="always"
       id="linearGradient6689">
      <stop
         style="stop-color:#dadaff;stop-opacity:1"
         offset="0"
         id="stop6685" />
      <stop
         style="stop-color:#c9c9d1;stop-opacity:0.46943769"
         offset="1"
         id="stop6687" />
    </linearGradient>
    <linearGradient
       inkscape:collect="always"
       id="linearGradient5938">
      <stop
         style="stop-color:#d8d82c;stop-opacity:1"
         offset="0"
         id="stop5932" />
      <stop
         style="stop-color:#d8d82c;stop-opacity:1"
         offset="0.5039978"
         id="stop5934" />
      <stop
         style="stop-color:#c9ac24;stop-opacity:0.51833743"
         offset="1"
         id="stop5936" />
    </linearGradient>
    <linearGradient
       inkscape:collect="always"
       id="linearGradient4584">
      <stop
         style="stop-color:#f8fadf;stop-opacity:1"
         offset="0"
         id="stop5451" />
      <stop
         style="stop-color:#f2f0d2;stop-opacity:1"
         offset="1"
         id="stop5453" />
    </linearGradient>
    <linearGradient
       inkscape:collect="always"
       id="linearGradient4584-5">
      <stop
         style="stop-color:#dadaff;stop-opacity:1"
         offset="0"
         id="stop4580" />
      <stop
         style="stop-color:#c9c9d1;stop-opacity:0.66503668"
         offset="1"
         id="stop4582" />
    </linearGradient>
    <linearGradient
       inkscape:collect="always"
       id="linearGradient951-2">
      <stop
         style="stop-color:#40dccd;stop-opacity:1"
         offset="0"
         id="stop1170" />
      <stop
         style="stop-color:#2b91a7;stop-opacity:1;"
         offset="0.67375273"
         id="stop2279" />
      <stop
         style="stop-color:#174681;stop-opacity:1"
         offset="1"
         id="stop1172" />
    </linearGradient>
    <linearGradient
       inkscape:collect="always"
       id="linearGradient951-4">
      <stop
         style="stop-color:#040414;stop-opacity:1"
         offset="0"
         id="stop947" />
      <stop
         style="stop-color:#071529;stop-opacity:1"
         offset="0.7000531"
         id="stop2085" />
      <stop
         style="stop-color:#174681;stop-opacity:1"
         offset="1"
         id="stop949" />
    </linearGradient>
    <radialGradient
       inkscape:collect="always"
       xlink:href="#linearGradient951-4"
       id="radialGradient953"
       cx="61.289635"
       cy="110.13518"
       fx="61.289635"
       fy="110.13518"
       r="32.278839"
       gradientTransform="matrix(-1.7507413,-0.01139256,0.00760852,-1.1692481,156.90849,207.18647)"
       gradientUnits="userSpaceOnUse" />
    <radialGradient
       inkscape:collect="always"
       xlink:href="#linearGradient951-2"
       id="radialGradient1069"
       gradientUnits="userSpaceOnUse"
       gradientTransform="matrix(1.5489091,0.01551318,0.01346694,-1.3446009,-48.186795,205.01479)"
       cx="61.300739"
       cy="143.53136"
       fx="61.300739"
       fy="143.53136"
       r="32.278839" />
    <radialGradient
       inkscape:collect="always"
       xlink:href="#linearGradient10010"
       id="radialGradient3063"
       cx="222.73865"
       cy="353.55338"
       fx="222.73865"
       fy="353.55338"
       r="26.870113"
       gradientUnits="userSpaceOnUse"
       gradientTransform="matrix(1.0445774,0.00116599,-4.237143e-4,1.0000186,-9.7793145,-0.2663007)" />
    <radialGradient
       inkscape:collect="always"
       xlink:href="#linearGradient4584-5"
       id="radialGradient4620"
       gradientUnits="userSpaceOnUse"
       gradientTransform="matrix(1.1145216,-0.43996976,0.13827566,0.43470313,-59.508197,9.2649778)"
       cx="64.237381"
       cy="107.02308"
       fx="64.237381"
       fy="107.02308"
       r="12.748557" />
    <radialGradient
       inkscape:collect="always"
       xlink:href="#linearGradient6689"
       id="radialGradient4960"
       gradientUnits="userSpaceOnUse"
       gradientTransform="matrix(-0.8240211,-0.43996976,-0.10223405,0.43470313,140.23999,13.591195)"
       cx="64.237381"
       cy="107.02308"
       fx="64.237381"
       fy="107.02308"
       r="12.748557" />
    <radialGradient
       inkscape:collect="always"
       xlink:href="#linearGradient4584"
       id="radialGradient5449"
       cx="158.47137"
       cy="455.56143"
       fx="158.47137"
       fy="455.56143"
       r="9.5471277"
       gradientUnits="userSpaceOnUse"
       gradientTransform="matrix(0.90746426,-0.01029586,0.01230992,0.99993017,9.0839756,1.6662202)" />
    <radialGradient
       inkscape:collect="always"
       xlink:href="#linearGradient5938"
       id="radialGradient5930"
       cx="70.199242"
       cy="131.70502"
       fx="70.199242"
       fy="131.70502"
       r="5.4551663"
       gradientTransform="matrix(1.5840205,0,0,2.6835994,-49.168315,-281.23927)"
       gradientUnits="userSpaceOnUse" />
    <radialGradient
       inkscape:collect="always"
       xlink:href="#linearGradient6689"
       id="radialGradient6406"
       gradientUnits="userSpaceOnUse"
       gradientTransform="matrix(-0.18783832,0.19535555,-0.21560495,-0.21805357,133.35637,144.38711)"
       cx="31.918358"
       cy="91.453705"
       fx="31.918358"
       fy="91.453705"
       r="12.748557" />
  </defs>
  <g
     inkscape:label="Layer 1"
     inkscape:groupmode="layer"
     id="layer1">
    <g
       id="wheel">
      <path
         id="path846"
         style="fill:url(#radialGradient953);fill-rule:evenodd;stroke-width:4.64694;stroke-linecap:round;paint-order:fill markers stroke;stop-color:#000000"
         d="M 99.999309,49.880362 C 100.09316,67.77463 90.616363,84.212185 75.150742,93.213574 59.68513,102.21497 40.588193,102.26507 25.07557,93.344928 9.5629556,84.424781 1.4729482e-6,67.894537 0,50.000028"
         sodipodi:nodetypes="cssc" />
      <path
         id="circle1067"
         style="fill:url(#radialGradient1069);fill-rule:evenodd;stroke-width:4.64695;stroke-linecap:round;paint-order:fill markers stroke;stop-color:#000000"
         d="M 100,49.970922 C 99.983949,22.362369 77.594032,-0.00802445 49.985468,2.1294521e-6 22.376904,0.00802832 -2.5658046e-6,22.733501 0,50.342059"
         sodipodi:nodetypes="csc" />
      <path
         id="path6404"
         style="opacity:1;vector-effect:none;fill:url(#radialGradient6406);fill-opacity:1;fill-rule:evenodd;stroke:none;stroke-width:0.29993;stroke-opacity:0.766129;stop-color:#000000;stop-opacity:1"
         d="m 59.300576,69.392331 c -3.062329,-1.089371 -3.983827,-2.013744 -6.410003,-1.776346 -2.426196,0.237475 -3.722131,1.649763 -6.59003,1.242271 -2.867919,-0.40743 -3.174516,1.017653 -5.841538,-0.0522 -2.666987,-1.069916 -2.07436,1.260782 -3.601107,-2.056574 -1.526734,-3.317386 3.327968,-4.257249 6.326818,-4.584457 2.998849,-0.327208 5.927332,-0.858727 9.842007,0.795745 3.914714,1.65438 8.827086,-3.032358 12.377654,0.07683 3.550579,3.109141 -3.041517,7.444119 -6.103801,6.354748 z"
         sodipodi:nodetypes="zzzzzzzzzz" />
      <use
         x="0"
         y="0"
         xlink:href="#path5361"
         inkscape:transform-center-x="-1.5601466e-06"
         id="use6402"
         width="100%"
         height="100%"
         transform="matrix(0.99124645,-0.13280762,0.13124605,0.99124645,57.01889,12.345118)" />
      <use
         x="0"
         y="0"
         xlink:href="#path5361"
         id="use6400"
         width="100%"
         height="100%"
         transform="matrix(0.96090528,-0.27851959,0.27524472,0.96090528,0.03079123,32.718258)" />
      <path
         sodipodi:type="star"
         style="fill:url(#radialGradient3063);fill-opacity:1;fill-rule:evenodd;stroke-width:11.3386;stroke-linecap:round;paint-order:fill markers stroke;stop-color:#000000"
         id="path2975"
         inkscape:flatsided="false"
         sodipodi:sides="8"
         sodipodi:cx="222.73865"
         sodipodi:cy="353.55338"
         sodipodi:r1="26.872383"
         sodipodi:r2="12.543878"
         sodipodi:arg1="1.5576392"
         sodipodi:arg2="1.9754146"
         inkscape:rounded="0.17424104"
         inkscape:randomized="0"
         d="m 223.0922,380.42343 c -2.82706,-0.0337 -2.66561,-14.29158 -5.29167,-15.33906 -2.56074,-1.02142 -11.88583,9.69156 -13.81188,7.719 -1.9752,-2.02287 8.2208,-11.99054 7.10457,-14.58813 -1.08845,-2.53296 -15.25751,-1.55158 -15.22463,-4.30831 0.0337,-2.82707 14.29158,-2.66561 15.33906,-5.29168 1.02142,-2.56073 -9.69155,-11.88582 -7.719,-13.81187 2.02288,-1.9752 11.99054,8.2208 14.58813,7.10457 2.53297,-1.08846 1.55158,-15.25751 4.30831,-15.22463 2.82707,0.0337 2.66561,14.29158 5.29168,15.33906 2.56073,1.02142 11.88582,-9.69156 13.81188,-7.719 1.97519,2.02287 -8.22081,11.99054 -7.10458,14.58813 1.08846,2.53296 15.25751,1.55158 15.22463,4.30831 -0.0337,2.82707 -14.29158,2.66561 -15.33906,5.29168 -1.02142,2.56073 9.69156,11.88582 7.71901,13.81188 -2.02288,1.97519 -11.99055,-8.22081 -14.58814,-7.10458 -2.53296,1.08846 -1.55158,15.25751 -4.30831,15.22463 z"
         transform="matrix(0.61374906,-0.17195684,0.18449797,0.62683522,-150.59076,-165.24223)"
         inkscape:transform-center-x="-0.0071342092"
         inkscape:transform-center-y="-0.00084267432" />
      <path
         style="font-variation-settings:normal;opacity:1;vector-effect:none;fill:url(#radialGradient5930);fill-opacity:1;stroke:none;stroke-width:0.428448;stroke-linecap:butt;stroke-linejoin:miter;stroke-miterlimit:4;stroke-dasharray:none;stroke-dashoffset:0;stroke-opacity:0.766129;-inkscape-stroke:none;stop-color:#000000;stop-opacity:1"
         d="m 48.770286,59.230221 c 3.377461,0.381546 14.232802,2.682643 14.104175,13.331708 -0.128624,10.649065 -9.258244,14.361444 -13.100732,14.904735 -3.842487,0.543292 4.091848,-5.717836 3.917788,-14.644737 -0.17406,-8.926918 -8.298694,-13.973268 -4.921231,-13.591706 z"
         id="path5728"
         sodipodi:nodetypes="zzzzz" />
      <path
         sodipodi:type="star"
         style="fill:url(#radialGradient5449);fill-opacity:1;fill-rule:evenodd;stroke:none;stroke-width:11.3386;stroke-linecap:round;paint-order:fill markers stroke;stop-color:#000000"
         id="path5361"
         inkscape:flatsided="false"
         sodipodi:sides="4"
         sodipodi:cx="158.74547"
         sodipodi:cy="455.37677"
         sodipodi:r1="9.5459414"
         sodipodi:r2="2.906631"
         sodipodi:arg1="1.5707963"
         sodipodi:arg2="2.4279118"
         inkscape:rounded="0.174241"
         inkscape:randomized="0"
         d="m 158.74547,464.92271 c -1.38214,-0.0993 -1.21745,-6.66336 -2.19729,-7.6432 -0.93527,-0.93526 -7.44344,-0.58348 -7.34865,-1.90274 0.0993,-1.38214 6.66336,-1.21745 7.6432,-2.19729 0.93526,-0.93526 0.58348,-7.44344 1.90274,-7.34865 1.38213,0.0993 1.21745,6.66336 2.19729,7.6432 0.93526,0.93526 7.44343,0.58348 7.34865,1.90274 -0.0993,1.38214 -6.66337,1.21745 -7.6432,2.19729 -0.93526,0.93526 -0.58348,7.44344 -1.90274,7.34865 z"
         transform="matrix(0.35447181,0.07464831,-0.07729971,0.37142954,-2.8648409,-123.74881)"
         inkscape:transform-center-x="-1.2694411e-06" />
      <path
         id="path4958"
         style="opacity:1;vector-effect:none;fill:url(#radialGradient4960);fill-opacity:1;fill-rule:evenodd;stroke:none;stroke-width:0.283926;stroke-opacity:0.766129;stop-color:#000000;stop-opacity:1"
         d="m 84.830386,32.727512 c -3.205033,-0.229823 -3.515,-0.756649 -5.615046,-1.849521 -2.100038,-1.092902 -1.369903,-3.311345 -4.126919,-4.033684 -2.757014,-0.722354 -2.01935,0.839148 -4.858984,0.739207 -2.839635,-0.09991 -1.373361,-1.809809 -4.078434,0.371587 -2.705075,2.181437 1.311546,4.752879 3.89381,6.131631 2.582264,1.378738 11.713547,7.657554 13.460623,6.402658 1.747076,-1.254895 2.981679,1.774968 4.533647,-0.247528 1.551969,-2.022496 -0.0037,-7.284542 -3.208697,-7.51435 z"
         sodipodi:nodetypes="zzzzzzzzz" />
      <path
         id="rect3316"
         style="opacity:1;vector-effect:none;fill:url(#radialGradient4620);fill-opacity:1;fill-rule:evenodd;stroke:none;stroke-width:0.330203;stroke-opacity:0.766129;stop-color:#000000;stop-opacity:1"
         d="m 15.240683,26.227795 c 1.607371,-1.678792 4.949003,1.416842 7.7894,0.32397 2.840387,-1.092903 1.85285,-3.311341 5.581824,-4.03368 3.728972,-0.722349 2.731252,0.839147 6.571972,0.739209 3.840719,-0.09994 1.857524,-1.809812 5.516246,0.371591 3.658722,2.181427 -1.77392,4.752868 -5.266536,6.131621 -3.492616,1.378738 -15.843043,7.657554 -18.206032,6.402658 -2.362991,-1.254896 -4.422498,-1.412799 -4.378507,-3.435311 0.04399,-2.022496 0.784262,-4.821251 2.391633,-6.500058 z"
         sodipodi:nodetypes="zzzzzzzzz" />
    </g>
    <path
       id="rect10272"
       style="display:none;opacity:1;vector-effect:none;fill:#ffffff;fill-opacity:1;fill-rule:evenodd;stroke:none;stroke-width:0.266393;stroke-opacity:0.766129;stop-color:#000000;stop-opacity:1"
       d="M 15.983607,0 H 47.95082 L 39.959016,29.303279 H 23.97541 Z"
       sodipodi:nodetypes="ccccc" />
  </g>
</svg>
