<?xml version="1.0" encoding="UTF-8" standalone="no"?>
<!-- Created with Inkscape (http://www.inkscape.org/) -->

<svg
   width="40"
   height="40"
   viewBox="0 0 10.583333 10.583334"
   version="1.1"
   id="svg5"
   inkscape:version="1.1 (c68e22c387, 2021-05-23)"
   sodipodi:docname="ic_stun.svg"
   xmlns:inkscape="http://www.inkscape.org/namespaces/inkscape"
   xmlns:sodipodi="http://sodipodi.sourceforge.net/DTD/sodipodi-0.dtd"
   xmlns="http://www.w3.org/2000/svg"
   xmlns:svg="http://www.w3.org/2000/svg">
  <sodipodi:namedview
     id="namedview7"
     pagecolor="#ffffff"
     bordercolor="#666666"
     borderopacity="1.0"
     inkscape:pageshadow="2"
     inkscape:pageopacity="0.0"
     inkscape:pagecheckerboard="0"
     inkscape:document-units="mm"
     showgrid="false"
     inkscape:snap-global="false"
     fit-margin-top="0"
     fit-margin-left="0"
     fit-margin-right="0"
     fit-margin-bottom="0"
     inkscape:zoom="10.732997"
     inkscape:cx="24.364118"
     inkscape:cy="31.538256"
     inkscape:window-width="1920"
     inkscape:window-height="1017"
     inkscape:window-x="1912"
     inkscape:window-y="-8"
     inkscape:window-maximized="1"
     inkscape:current-layer="layer1"
     units="px" />
  <defs
     id="defs2">
    <linearGradient
       id="linearGradient1676"
       inkscape:swatch="solid">
      <stop
         style="stop-color:#000000;stop-opacity:1;"
         offset="0"
         id="stop1674" />
    </linearGradient>
    <linearGradient
       id="linearGradient1540"
       inkscape:swatch="gradient">
      <stop
         style="stop-color:#000000;stop-opacity:1;"
         offset="0"
         id="stop1536" />
      <stop
         style="stop-color:#000000;stop-opacity:0;"
         offset="1"
         id="stop1538" />
    </linearGradient>
    <linearGradient
       id="linearGradient1505"
       inkscape:swatch="solid">
      <stop
         style="stop-color:#000000;stop-opacity:1;"
         offset="0"
         id="stop1503" />
    </linearGradient>
  </defs>
  <g
     inkscape:label="Layer 1"
     inkscape:groupmode="layer"
     id="layer1"
     transform="translate(-60.709981,-99.881649)">
    <path
       sodipodi:type="star"
       style="fill:#000000;fill-opacity:1;fill-rule:evenodd;stroke:none;stroke-width:0.839055;stroke-opacity:1;stop-color:#000000"
       id="path1513"
       inkscape:flatsided="false"
       sodipodi:sides="5"
       sodipodi:cx="59.04934"
       sodipodi:cy="139.02125"
       sodipodi:r1="21.807562"
       sodipodi:r2="36.345936"
       sodipodi:arg1="1.0193038"
       sodipodi:arg2="1.6476223"
       inkscape:rounded="0.1"
       inkscape:randomized="0"
       d="m 70.47561,157.5957 c -1.931255,1.18803 -11.95511,17.8383 -14.215836,17.66428 -2.260726,-0.17403 -9.618196,-18.16227 -11.344872,-19.63188 -1.726677,-1.46961 -20.659568,-5.85765 -21.192663,-8.0615 -0.533095,-2.20386 14.301158,-14.7599 15.165268,-16.8562 0.864111,-2.0963 -0.813206,-21.45853 1.11805,-22.64656 1.931255,-1.18803 18.456797,9.04015 20.717523,9.21417 2.260726,0.17403 20.156979,-7.40445 21.883656,-5.93484 1.726676,1.46961 -2.89423,20.34702 -2.361135,22.55087 0.533096,2.20386 13.270904,16.88233 12.406794,18.97863 -0.864111,2.0963 -20.24553,3.535 -22.176785,4.72303 z"
       transform="matrix(0.04242247,0,0,0.04513315,64.392958,97.309495)" />
    <path
       sodipodi:type="star"
       style="fill:#000000;fill-opacity:1;fill-rule:evenodd;stroke:none;stroke-width:0.839055;stroke-opacity:1;stop-color:#000000"
       id="path1513-4"
       inkscape:flatsided="false"
       sodipodi:sides="5"
       sodipodi:cx="59.049339"
       sodipodi:cy="139.02126"
       sodipodi:r1="21.807562"
       sodipodi:r2="36.345936"
       sodipodi:arg1="1.0193038"
       sodipodi:arg2="1.6476223"
       inkscape:rounded="0.1"
       inkscape:randomized="0"
       transform="matrix(0.05267912,0.02275457,-0.02261701,0.05299954,65.084847,98.227443)"
       d="m 70.475609,157.5957 c -1.931255,1.18804 -11.955109,17.83831 -14.215836,17.66428 -2.260726,-0.17402 -9.618195,-18.16227 -11.344872,-19.63188 -1.726677,-1.46961 -20.659568,-5.85764 -21.192663,-8.0615 -0.533095,-2.20385 14.301158,-14.75989 15.165268,-16.8562 0.864111,-2.0963 -0.813205,-21.45852 1.11805,-22.64656 1.931255,-1.18803 18.456797,9.04015 20.717524,9.21418 2.260726,0.17402 20.156979,-7.40446 21.883655,-5.93485 1.726677,1.46962 -2.89423,20.34702 -2.361134,22.55088 0.533095,2.20385 13.270903,16.88232 12.406793,18.97862 -0.864111,2.0963 -20.24553,3.535 -22.176785,4.72303 z" />
    <path
       style="font-variation-settings:normal;opacity:1;vector-effect:none;fill:#000000;fill-opacity:1;stroke:none;stroke-width:0.0532529;stroke-linecap:butt;stroke-linejoin:miter;stroke-miterlimit:4;stroke-dasharray:none;stroke-dashoffset:0;stroke-opacity:0.766129;-inkscape-stroke:none;stop-color:#000000;stop-opacity:1"
       d="m 62.641048,106.44589 c 0.01266,0.31852 0.05901,0.85479 0.119509,1.19123 0.03975,0.22104 -1.602005,-1.36795 -1.649627,-2.28044 -0.07201,-1.3797 -0.167664,-3.09625 1.582702,-3.85308 2.694938,-1.16525 5.127027,-0.10815 5.791431,0.13274 0.776771,0.28164 2.677135,2.11033 2.398348,3.49846 -0.315836,1.57259 -3.864654,1.15451 -3.892216,1.53079 -0.03566,0.48674 0.0018,0.6754 0.02868,1.03332 0.0177,0.23592 3.700435,-0.11284 3.965325,-1.66612 0.241765,-1.41765 -1.21141,-2.89272 -2.433213,-3.51418 -1.791814,-0.9114 -4.456267,-0.97656 -6.127351,0.16531 -0.608531,0.41582 -1.191864,0.93397 -1.083854,1.97798 0.102725,0.99293 1.282,1.32456 1.300264,1.78399 z"
       id="path1754"
       sodipodi:nodetypes="sssssssssssss" />
  </g>
</svg>
