<?xml version="1.0" encoding="UTF-8" standalone="no"?>
<!-- Created with Inkscape (http://www.inkscape.org/) -->

<svg
   width="104.98088"
   height="147.76485"
   viewBox="0 0 27.776192 39.096116"
   version="1.1"
   id="svg5"
   inkscape:version="1.1 (c68e22c387, 2021-05-23)"
   sodipodi:docname="ic_unknown.svg"
   xmlns:inkscape="http://www.inkscape.org/namespaces/inkscape"
   xmlns:sodipodi="http://sodipodi.sourceforge.net/DTD/sodipodi-0.dtd"
   xmlns="http://www.w3.org/2000/svg"
   xmlns:svg="http://www.w3.org/2000/svg">
  <sodipodi:namedview
     id="namedview7"
     pagecolor="#ffffff"
     bordercolor="#666666"
     borderopacity="1.0"
     inkscape:pageshadow="2"
     inkscape:pageopacity="0.0"
     inkscape:pagecheckerboard="0"
     inkscape:document-units="mm"
     showgrid="false"
     inkscape:snap-global="false"
     fit-margin-top="0"
     fit-margin-left="0"
     fit-margin-right="0"
     fit-margin-bottom="0"
     inkscape:zoom="1.3416246"
     inkscape:cx="178.14223"
     inkscape:cy="147.95495"
     inkscape:window-width="1453"
     inkscape:window-height="1003"
     inkscape:window-x="2103"
     inkscape:window-y="42"
     inkscape:window-maximized="0"
     inkscape:current-layer="layer1"
     units="px" />
  <defs
     id="defs2">
    <linearGradient
       id="linearGradient1676"
       inkscape:swatch="solid">
      <stop
         style="stop-color:#000000;stop-opacity:1;"
         offset="0"
         id="stop1674" />
    </linearGradient>
    <linearGradient
       id="linearGradient1540"
       inkscape:swatch="gradient">
      <stop
         style="stop-color:#000000;stop-opacity:1;"
         offset="0"
         id="stop1536" />
      <stop
         style="stop-color:#000000;stop-opacity:0;"
         offset="1"
         id="stop1538" />
    </linearGradient>
    <linearGradient
       id="linearGradient1505"
       inkscape:swatch="solid">
      <stop
         style="stop-color:#000000;stop-opacity:1;"
         offset="0"
         id="stop1503" />
    </linearGradient>
  </defs>
  <g
     inkscape:label="Layer 1"
     inkscape:groupmode="layer"
     id="layer1"
     transform="translate(-75.918719,-104.73227)">
    <g
       id="g828"
       style="display:inline;stroke:none;stroke-width:12;stroke-miterlimit:4;stroke-dasharray:none"
       transform="matrix(0.26458333,0,0,0.26458333,-38.927452,-4.4525538)">
      <path
         d="m 488.91501,531.79692 h -7.05 c -4.965,0 -9,4.035 -9,9 v 9.735 c 0,4.965 4.035,9 9,9 h 7.05 c 4.96515,0 9,-4.035 9,-9 v -9.735 c 0,-4.97985 -4.03485,-9 -9,-9 z"
         id="path824"
         style="display:inline;stroke:none;stroke-width:1.8;stroke-miterlimit:4;stroke-dasharray:none" />
      <path
         d="m 439.20501,456.43707 13.005,1.62 c 4.125,0.51 8.04,-1.86 9.525,-5.745 1.875,-4.905 4.485,-8.775 7.83,-11.595 4.74015,-3.98999 10.635,-6 17.685,-6 7.305,0 13.125,1.92 17.445,5.745 4.32,3.84 6.465,8.43 6.465,13.815 0,3.87 -1.215,7.41 -3.645,10.62 -1.575,2.04 -6.42,6.33001 -14.505,12.885 -8.1,6.555 -13.48485,12.46485 -16.18485,17.71485 -2.76,5.37015 -3.72,11.325 -3.96,17.29515 -0.20985,5.115 3.87,9.375 9,9.375 h 7.35 c 4.68,0 8.55,-3.58499 8.97,-8.23499 0.3,-3.34486 0.855,-5.87985 1.69515,-7.60486 1.40985,-2.95515 5.05485,-6.85514 10.90485,-11.71499 11.32485,-9.37516 18.70485,-16.78516 22.17,-22.24516 3.45,-5.445 5.19,-11.22 5.19,-17.325 0,-11.025 -4.695,-20.7 -14.1,-29.01 -9.39,-8.31 -22.05,-12.465 -37.95,-12.465 -15.12,0 -27.315,4.09501 -36.615,12.3 -7.92,6.99 -12.735,15.27 -14.43,24.825 -0.52515,2.79 1.37985,5.4 4.15485,5.745 z"
         id="path826"
         style="display:inline;stroke:none;stroke-width:1.8" />
    </g>
  </g>
</svg>
