<?xml version="1.0" encoding="UTF-8" standalone="no"?>
<!-- Created with Inkscape (http://www.inkscape.org/) -->

<svg
   width="28.123959mm"
   height="33.498306mm"
   viewBox="0 0 28.123959 33.498306"
   version="1.1"
   id="svg5"
   inkscape:version="1.1 (c68e22c387, 2021-05-23)"
   sodipodi:docname="Drink_S_Blue.svg"
   xmlns:inkscape="http://www.inkscape.org/namespaces/inkscape"
   xmlns:sodipodi="http://sodipodi.sourceforge.net/DTD/sodipodi-0.dtd"
   xmlns:xlink="http://www.w3.org/1999/xlink"
   xmlns="http://www.w3.org/2000/svg"
   xmlns:svg="http://www.w3.org/2000/svg">
  <sodipodi:namedview
     id="namedview7"
     pagecolor="#ffffff"
     bordercolor="#666666"
     borderopacity="1.0"
     inkscape:pageshadow="2"
     inkscape:pageopacity="0.0"
     inkscape:pagecheckerboard="0"
     inkscape:document-units="mm"
     showgrid="false"
     inkscape:snap-global="false"
     inkscape:zoom="4"
     inkscape:cx="49.25"
     inkscape:cy="68.625"
     inkscape:window-width="1920"
     inkscape:window-height="1017"
     inkscape:window-x="1912"
     inkscape:window-y="-8"
     inkscape:window-maximized="1"
     inkscape:current-layer="layer1"
     fit-margin-top="5"
     fit-margin-left="5"
     fit-margin-right="5"
     fit-margin-bottom="5" />
  <defs
     id="defs2">
    <linearGradient
       inkscape:collect="always"
       id="linearGradient14233">
      <stop
         style="stop-color:#2a251a;stop-opacity:1"
         offset="0"
         id="stop14231" />
      <stop
         style="stop-color:#635234;stop-opacity:1"
         offset="1"
         id="stop14229" />
    </linearGradient>
    <linearGradient
       inkscape:collect="always"
       id="linearGradient7882-5">
      <stop
         style="stop-color:#2f5976;stop-opacity:0"
         offset="0"
         id="stop7878" />
      <stop
         style="stop-color:#2f5976;stop-opacity:0.36470588;"
         offset="0.99138099"
         id="stop8936" />
      <stop
         style="stop-color:#2f5976;stop-opacity:0.36674815"
         offset="1"
         id="stop7880" />
    </linearGradient>
    <linearGradient
       inkscape:collect="always"
       id="linearGradient4792">
      <stop
         style="stop-color:#c80097;stop-opacity:1;"
         offset="0"
         id="stop4788" />
      <stop
         style="stop-color:#c80097;stop-opacity:1"
         offset="1"
         id="stop4790" />
    </linearGradient>
    <radialGradient
       inkscape:collect="always"
       xlink:href="#linearGradient7882-5"
       id="radialGradient9667"
       cx="149.14984"
       cy="51.997055"
       fx="149.14984"
       fy="51.997055"
       r="8.3012934"
       gradientTransform="matrix(2.6293404,-0.38471058,0.52977027,3.6207644,-247.19074,-70.760256)"
       gradientUnits="userSpaceOnUse" />
    <radialGradient
       inkscape:collect="always"
       xlink:href="#linearGradient4792"
       id="radialGradient12559"
       cx="166.17593"
       cy="84.6866"
       fx="166.17593"
       fy="84.6866"
       r="28.529236"
       gradientTransform="matrix(0.240379,0.00489129,-0.00296972,0.13240404,106.12733,46.541248)"
       gradientUnits="userSpaceOnUse" />
    <radialGradient
       inkscape:collect="always"
       xlink:href="#linearGradient14233"
       id="radialGradient14235"
       cx="193.85532"
       cy="47.061882"
       fx="193.85532"
       fy="47.061882"
       r="13.371601"
       gradientTransform="matrix(-0.24710554,-0.03533979,0.07948037,-0.43028007,194.45478,73.008854)"
       gradientUnits="userSpaceOnUse" />
    <radialGradient
       inkscape:collect="always"
       xlink:href="#linearGradient14233"
       id="radialGradient17304"
       cx="148.98416"
       cy="46.361507"
       fx="148.98416"
       fy="46.361507"
       r="3.0013673"
       gradientTransform="matrix(1.6446369,-0.2232379,0.07738693,0.57012391,-98.82681,51.219082)"
       gradientUnits="userSpaceOnUse" />
    <radialGradient
       inkscape:collect="always"
       xlink:href="#linearGradient7882-5"
       id="radialGradient19577"
       gradientUnits="userSpaceOnUse"
       gradientTransform="matrix(1,0,0,1.2166813,0,-15.130567)"
       cx="169.5"
       cy="69.828667"
       fx="169.5"
       fy="69.828667"
       r="34.25" />
  </defs>
  <g
     inkscape:label="Layer 1"
     inkscape:groupmode="layer"
     id="layer1"
     transform="translate(-134.2438,-37.217431)">
    <path
       id="rect9710"
       style="font-variation-settings:normal;opacity:1;vector-effect:none;fill:url(#radialGradient12559);fill-opacity:1;fill-rule:evenodd;stroke:none;stroke-width:0.278586;stroke-linecap:butt;stroke-linejoin:miter;stroke-miterlimit:4;stroke-dasharray:none;stroke-dashoffset:0;stroke-opacity:0.766129;-inkscape-stroke:none;stop-color:#000000;stop-opacity:1"
       d="m 144.38544,52.420705 c -2.35867,0.03399 -2.35203,0.2542 -3.0329,1.257473 -0.65898,0.970998 -1.24885,1.397436 -1.24885,2.345018 v 7.069037 c 0,0.90375 1.20945,1.631317 2.71178,1.631317 h 9.27712 c 2.57277,0 2.63065,-0.736863 3.28268,-1.393416 0.79971,-0.805252 0.96428,-1.024172 0.99907,-2.209075 0.0242,-0.824411 0,-4.64472 0,-7.001066 0,-0.90375 0.14644,-1.631316 -0.42817,-1.631316 -3.09237,0 -8.46871,-0.112524 -11.56073,-0.06797 z"
       sodipodi:nodetypes="sssssssssss" />
    <path
       id="rect9556"
       style="font-variation-settings:normal;display:inline;opacity:1;vector-effect:none;fill:url(#radialGradient19577);fill-opacity:1;fill-rule:evenodd;stroke:none;stroke-width:0.999999;stroke-linecap:butt;stroke-linejoin:miter;stroke-miterlimit:4;stroke-dasharray:none;stroke-dashoffset:0;stroke-opacity:0.766129;-inkscape-stroke:none;stop-color:#000000;stop-opacity:1"
       d="m 157.25,34.439453 c 0,0 0,6.078203 0,10.310547 0,0.618718 -4,0 -6,0 -4.44972,0 -5.85812,0.557661 -8.79102,3.660156 C 139.61822,51.415188 135.25,56.667119 135.25,61 c 0,13.75 0,27.5 0,41.25 0,5.12449 4.12551,9.25 9.25,9.25 14.41667,0 28.83333,0 43.25,0 4.44972,0 9.93855,-1.37638 11.91602,-5.16016 2.04143,-3.90616 4.08398,-6.756959 4.08398,-11.08984 0,-13.75 0,-27.5 0,-41.25 0,-5.124493 -0.12551,-9.25 -5.25,-9.25 -4.91667,0 -14.72054,0.559793 -14.75,0 -0.18064,-3.432099 0,-6.873698 0,-10.310547 0,-4.57786 -4.93653,-6.228198 -10.62895,-6.277842 C 166.7125,28.105722 157.25,28.513989 157.25,34.439453 Z"
       sodipodi:nodetypes="ssssssssssssssss"
       transform="matrix(0.26458333,0,0,0.26458333,103.4589,36.214696)" />
    <path
       id="ellipse11716"
       style="fill:url(#radialGradient14235);fill-opacity:1;fill-rule:evenodd;stroke:none;stroke-width:0.156781;stroke-miterlimit:4;stroke-dasharray:none;stroke-opacity:0.325183;paint-order:stroke markers fill;stop-color:#000000"
       d="m 148.51837,42.222598 c -1.60278,5.9e-5 -3.2049,0.666033 -3.02703,1.47548 0.11644,0.529915 0.60017,3.900251 1.27292,4.235268 1.10895,0.552228 2.66918,0.351414 3.59441,0.03509 0.66287,-0.226632 1.15503,-3.854817 1.19606,-4.155445 0.11844,-0.867897 -1.35957,-1.590453 -3.03636,-1.590386 z"
       sodipodi:nodetypes="ssssss" />
    <path
       id="path15683"
       style="font-variation-settings:normal;display:inline;opacity:1;vector-effect:none;fill:url(#radialGradient9667);fill-opacity:1;fill-rule:evenodd;stroke:none;stroke-width:0.999999;stroke-linecap:butt;stroke-linejoin:miter;stroke-miterlimit:4;stroke-dasharray:none;stroke-dashoffset:0;stroke-opacity:0.766129;-inkscape-stroke:none;stop-color:#000000;stop-opacity:1"
       d="M 157.25,34.439453 V 48.5 c 0,9.751209 26.5,9.975926 26.5,0 V 34.439453 c 0.125,-0.82786 -2.46663,6.28092 -13.26467,6.002173 C 159.68729,40.162879 157.25,34.439453 157.25,34.439453 Z"
       transform="matrix(0.26458333,0,0,0.26458333,103.4589,36.214696)"
       sodipodi:nodetypes="cssczc" />
    <ellipse
       style="fill:url(#radialGradient17304);fill-opacity:1;fill-rule:evenodd;stroke:none;stroke-width:0.211018;stroke-miterlimit:4;stroke-dasharray:none;stroke-opacity:0.325183;paint-order:stroke markers fill;stop-color:#000000"
       id="path17216"
       cx="148.5125"
       cy="43.631298"
       rx="3.0013673"
       ry="1.4138672" />
  </g>
</svg>
