<?xml version="1.0" encoding="UTF-8" standalone="no"?>
<!-- Created with Inkscape (http://www.inkscape.org/) -->

<svg
   version="1.1"
   id="svg2"
   xml:space="preserve"
   width="624.35071"
   height="616.40802"
   viewBox="0 0 624.3507 616.40801"
   sodipodi:docname="Food_Raw.svg"
   inkscape:version="1.1 (c68e22c387, 2021-05-23)"
   xmlns:inkscape="http://www.inkscape.org/namespaces/inkscape"
   xmlns:sodipodi="http://sodipodi.sourceforge.net/DTD/sodipodi-0.dtd"
   xmlns="http://www.w3.org/2000/svg"
   xmlns:svg="http://www.w3.org/2000/svg"><defs
     id="defs6" /><sodipodi:namedview
     id="namedview4"
     pagecolor="#ffffff"
     bordercolor="#666666"
     borderopacity="1.0"
     inkscape:pageshadow="2"
     inkscape:pageopacity="0.0"
     inkscape:pagecheckerboard="0"
     showgrid="false"
     inkscape:snap-global="false"
     inkscape:zoom="0.79867708"
     inkscape:cx="507.71458"
     inkscape:cy="253.54427"
     inkscape:window-width="1920"
     inkscape:window-height="1017"
     inkscape:window-x="-8"
     inkscape:window-y="-8"
     inkscape:window-maximized="1"
     inkscape:current-layer="layer1"
     fit-margin-top="0"
     fit-margin-left="0"
     fit-margin-right="0"
     fit-margin-bottom="0" /><g
     inkscape:groupmode="layer"
     id="layer1"
     inkscape:label="Layer1"
     transform="translate(-83.716257,-145.50937)"><g
       id="g1437"
       transform="matrix(0.03089449,0,0,-0.03089449,-48.022096,529.05987)"
       inkscape:label="Crab"><path
         d="m 6381.17,4268.2 c 69.51,-129.6 203.4,-237.2 446.39,-252.1 l 206.31,171.9 c -10.68,21.5 -101.84,64.6 -189.03,117 -76.38,45.9 -149.85,98.9 -163.7,150.6 -18.74,70.3 -33.38,152.5 -50.26,213.2 35.09,13.7 66.88,30.1 93.39,46 98.28,16.7 224.52,57.7 319.36,97 292.19,-131.9 538.21,19.6 586.75,301.4 0,0 -245.09,-124.3 -353.66,119.7 56.99,137.5 309.87,151.1 314.22,213.8 -228.87,166.6 -577.91,54.2 -738.32,-235.2 -93.52,-46.8 -188.9,-119.8 -255.38,-174.7 -18.6,-6.6 -38.92,-14.6 -61.6,-24.4 -148.01,-63.8 -217.79,-317.1 -215.42,-334.1 l 5.01,-1.6 c -19.26,-101.8 -19.52,-268.2 55.94,-408.5"
         style="fill:#dc4d3d;fill-opacity:1;fill-rule:nonzero;stroke:none"
         id="path310" /><path
         d="m 6381.17,4268.2 c 69.51,-129.6 203.4,-237.2 446.39,-252.1 l 206.31,171.9 c -10.68,21.5 -101.84,64.6 -189.03,117 -127.16,-126.1 -338.62,-130.5 -463.67,-36.8"
         style="fill:#c64238;fill-opacity:1;fill-rule:nonzero;stroke:none"
         id="path312" /><path
         d="m 5782.7,2739.8 c -3.13,11 -2.45,22.9 3.61,35.8 26,55.3 347.31,165.5 478.53,208.5 6.91,22.2 22.63,42.2 51.46,57.2 125.93,65.8 699.42,163.6 699.42,163.6 l 53.98,-140.4 c 0,0 -545.17,-230.9 -692.63,-268.6 0,0 -376.31,-183.2 -448.32,-169.1 C 5887.5,2496 5803.4,2241.4 5762.8,2204 c -2.86,-2.6 -6,-4.9 -9.3,-6.8 41.48,-211 102.06,-329.4 88.52,-330.8 -58.27,-5.9 -238.31,287.6 -277.96,405 -2.81,5.8 -4.59,11.5 -5.16,17.1 -5.15,51 172.67,362.9 223.8,451.3"
         style="fill:#dc4d3d;fill-opacity:1;fill-rule:nonzero;stroke:none"
         id="path314" /><path
         d="m 5143.28,4186.6 c 3.94,1.6 8.62,3.4 13.58,5.4 13.98,173.8 213.28,446.5 238.75,441.4 22.27,-4.6 -60.09,-327.4 -83.33,-416.7 9.7,-40 80.64,-375 112.38,-507.8 9.59,-1.5 19.56,-5.3 29.85,-12.2 72.11,-48.7 354.03,-208.6 439.95,-257.1 1.7,11.1 4.28,19.5 7.9,23.9 23.59,28.9 686.45,29.7 686.45,29.7 l 44.83,-181.1 c 0,0 -677.16,-121.5 -706.06,-97.9 -5.56,4.5 -10.78,15.5 -15.43,30.4 -335.75,42 -601.93,305.5 -604.52,331.1 -0.79,7.8 4.35,26.8 14.15,48 -45.88,114.3 -216.7,547.3 -178.5,562.9"
         style="fill:#dc4d3d;fill-opacity:1;fill-rule:nonzero;stroke:none"
         id="path316" /><path
         d="m 6278.62,3724.6 c -2.9,4.3 -4.17,13.1 -4.21,24.6 -225.32,101.5 -354.46,342.6 -350.76,361.1 1.12,5.6 8.78,17.7 20.19,30.4 -7.44,89.5 -33.6,428.6 -3.56,431.3 3.09,0.2 6.75,0.5 10.64,0.8 47.13,118.3 244.88,265.8 261.54,256.8 14.58,-8 -112.32,-215.6 -147.74,-272.9 -1.83,-30 -24.36,-279.2 -30.76,-378.7 6.39,-3 12.52,-7.9 18.21,-14.9 39.88,-49.5 202.45,-221.9 251.88,-274.1 3.55,7.3 7.13,12.7 10.59,15 22.68,15.2 485.51,-126.9 485.51,-126.9 l -7.65,-136 c 0,0 -498.78,60.8 -513.88,83.5"
         style="fill:#dc4d3d;fill-opacity:1;fill-rule:nonzero;stroke:none"
         id="path318" /><path
         d="m 6560.01,2480.8 v 0 c 0.6,13.2 3,27.2 7.57,42.3 49.69,164.2 322.65,218.3 459.06,311.6 136.4,93.4 166.48,189.2 166.48,189.2 0,0 216.63,-44.4 223.27,-110 6.63,-65.6 -597.97,-511.2 -646.49,-555.9 -3.18,-3 -7.07,-5.5 -11.48,-7.6 -2.08,-98.8 -4.91,-247.8 -5.16,-336 92.4,-88.1 262.84,-252.3 310.43,-309.3 103.91,-31.4 273.51,-87.2 329.26,-132.7 28.9,-23.6 -419,1.9 -419,1.9 v 0 c -10.63,-1.2 -21.56,0.3 -32.54,5.5 -59.61,28 -294,270.6 -360.1,339.6 -12.56,8.7 -20.97,19.8 -22.28,32.7 -6.32,62.6 0.29,485.9 0.93,525.5 0.02,1.1 0,2.1 0.05,3.2"
         style="fill:#dc4d3d;fill-opacity:1;fill-rule:nonzero;stroke:none"
         id="path320" /><path
         d="m 7466.28,4941.5 c -105.53,-158.3 -342.97,-132 -395.74,-66 -52.76,66 158.3,-52.8 263.83,39.6 105.53,92.3 131.91,26.4 131.91,26.4"
         style="fill:#e5544a;fill-opacity:1;fill-rule:nonzero;stroke:none"
         id="path322" /><path
         d="M 9381.41,4268.2 C 9311.89,4138.6 9178,4031 8935.02,4016.1 L 8728.7,4188 c 10.69,21.5 101.84,64.6 189.03,117 76.38,45.9 149.86,98.9 163.71,150.6 18.73,70.3 33.37,152.5 50.26,213.2 -35.09,13.7 -66.88,30.1 -93.4,46 -98.27,16.7 -224.51,57.7 -319.36,97 -292.19,-131.9 -538.21,19.6 -586.75,301.4 0,0 245.1,-124.3 353.66,119.7 -56.99,137.5 -309.86,151.1 -314.22,213.8 228.87,166.6 577.91,54.2 738.32,-235.2 93.53,-46.8 188.9,-119.8 255.39,-174.7 18.59,-6.6 38.91,-14.6 61.6,-24.4 148.01,-63.8 217.79,-317.1 215.41,-334.1 l -5.01,-1.6 c 19.26,-101.8 19.52,-268.2 -55.93,-408.5"
         style="fill:#dc4d3d;fill-opacity:1;fill-rule:nonzero;stroke:none"
         id="path324" /><path
         d="M 9381.41,4268.2 C 9311.89,4138.6 9178,4031 8935.02,4016.1 L 8728.7,4188 c 10.69,21.5 101.84,64.6 189.03,117 127.17,-126.1 338.63,-130.5 463.68,-36.8"
         style="fill:#c64238;fill-opacity:1;fill-rule:nonzero;stroke:none"
         id="path326" /><path
         d="m 9979.87,2739.8 c 3.14,11 2.45,22.9 -3.6,35.8 -26,55.3 -347.31,165.5 -478.53,208.5 -6.92,22.2 -22.63,42.2 -51.46,57.2 -125.94,65.8 -699.43,163.6 -699.43,163.6 l -53.97,-140.4 c 0,0 545.16,-230.9 692.62,-268.6 0,0 376.31,-183.2 448.32,-169.1 41.25,-130.8 125.36,-385.4 165.96,-422.8 2.82,-2.6 6.02,-4.9 9.32,-6.8 -41.51,-211 -102.09,-329.4 -88.54,-330.8 58.26,-5.9 238.34,287.6 277.94,405 2.8,5.8 4.6,11.5 5.2,17.1 5.1,51 -172.7,362.9 -223.83,451.3"
         style="fill:#dc4d3d;fill-opacity:1;fill-rule:nonzero;stroke:none"
         id="path328" /><path
         d="m 10619.3,4186.6 c -3.9,1.6 -8.6,3.4 -13.6,5.4 -14,173.8 -213.3,446.5 -238.7,441.4 -22.3,-4.6 60.1,-327.4 83.3,-416.7 -9.7,-40 -80.6,-375 -112.4,-507.8 -9.6,-1.5 -19.5,-5.3 -29.8,-12.2 -72.1,-48.7 -354.07,-208.6 -439.99,-257.1 -1.69,11.1 -4.28,19.5 -7.89,23.9 -23.6,28.9 -686.45,29.7 -686.45,29.7 l -44.84,-181.1 c 0,0 677.16,-121.5 706.07,-97.9 5.56,4.5 10.78,15.5 15.43,30.4 335.77,42 601.97,305.5 604.47,331.1 0.8,7.8 -4.3,26.8 -14.1,48 45.9,114.3 216.7,547.3 178.5,562.9"
         style="fill:#dc4d3d;fill-opacity:1;fill-rule:nonzero;stroke:none"
         id="path330" /><path
         d="m 9483.95,3724.6 c 2.91,4.3 4.17,13.1 4.21,24.6 225.33,101.5 354.46,342.6 350.77,361.1 -1.13,5.6 -8.79,17.7 -20.19,30.4 7.43,89.5 33.59,428.6 3.56,431.3 -3.1,0.2 -6.76,0.5 -10.65,0.8 -47.12,118.3 -244.88,265.8 -261.54,256.8 -14.57,-8 112.33,-215.6 147.75,-272.9 1.83,-30 24.36,-279.2 30.75,-378.7 -6.38,-3 -12.52,-7.9 -18.2,-14.9 -39.89,-49.5 -202.45,-221.9 -251.89,-274.1 -3.54,7.3 -7.13,12.7 -10.58,15 -22.68,15.2 -485.51,-126.9 -485.51,-126.9 l 7.65,-136 c 0,0 498.77,60.8 513.87,83.5"
         style="fill:#dc4d3d;fill-opacity:1;fill-rule:nonzero;stroke:none"
         id="path332" /><path
         d="m 9202.56,2480.8 v 0 c -0.6,13.2 -2.99,27.2 -7.56,42.3 -49.7,164.2 -322.66,218.3 -459.06,311.6 -136.41,93.4 -166.49,189.2 -166.49,189.2 0,0 -216.63,-44.4 -223.26,-110 -6.64,-65.6 597.97,-511.2 646.48,-555.9 3.19,-3 7.08,-5.5 11.49,-7.6 2.07,-98.8 4.9,-247.8 5.15,-336 -92.4,-88.1 -262.83,-252.3 -310.42,-309.3 -103.91,-31.4 -273.52,-87.2 -329.26,-132.7 -28.91,-23.6 418.99,1.9 418.99,1.9 v 0 c 10.63,-1.2 21.57,0.3 32.55,5.5 59.61,28 293.99,270.6 360.1,339.6 12.55,8.7 20.97,19.8 22.27,32.7 6.33,62.6 -0.29,485.9 -0.92,525.5 -0.03,1.1 0,2.1 -0.06,3.2"
         style="fill:#dc4d3d;fill-opacity:1;fill-rule:nonzero;stroke:none"
         id="path334" /><path
         d="m 8784.37,2923.2 c -313.95,-368.1 -769.85,-318.6 -923.39,-289 -153.55,-29.6 -609.44,-79.1 -923.4,289 -330.57,387.5 -503.51,460 -450.74,761.8 8.17,47.5 22.03,100.6 41.81,161.6 140.89,435.6 742.02,609.8 1332.33,595.3 590.31,14.5 1191.44,-159.7 1332.32,-595.3 7.12,-21.9 13.46,-42.8 18.86,-62.7 108.97,-389.4 -63.84,-434.1 -427.79,-860.7"
         style="fill:#dc4d3d;fill-opacity:1;fill-rule:nonzero;stroke:none"
         id="path336" /><path
         d="m 8784.37,2923.2 c -313.95,-368.1 -769.85,-318.6 -923.39,-289 -153.55,-29.6 -609.44,-79.1 -923.4,289 -330.57,387.5 -503.51,460 -450.74,761.8 81.52,-415.3 595.85,-761.8 595.85,-761.8 0,0 435.31,-303.4 778.29,-105.5 184.67,-171.5 712.33,92.3 844.24,263.8 101.18,131.5 536.1,201 506.94,702.4 108.97,-389.4 -63.84,-434.1 -427.79,-860.7"
         style="fill:#c64238;fill-opacity:1;fill-rule:nonzero;stroke:none"
         id="path338" /><path
         d="m 6792.48,3701.5 c -145.59,339.7 606.8,514.4 817.86,422.1 211.06,-92.3 1028.93,171.5 1187.22,-158.3 158.3,-329.8 -52.76,-316.6 -303.4,-105.5 -250.63,211 -408.93,118.7 -778.29,105.5 -369.36,-13.2 -593.61,52.8 -659.56,-66 -65.96,-118.7 -224.26,-290.2 -263.83,-197.8"
         style="fill:#e5544a;fill-opacity:1;fill-rule:nonzero;stroke:none"
         id="path340" /><path
         d="m 7280.56,4585.3 c -58.28,0 -105.53,-47.3 -105.53,-105.5 0,-58.3 47.25,-105.6 105.53,-105.6 58.28,0 105.53,47.3 105.53,105.6 0,58.2 -47.25,105.5 -105.53,105.5"
         style="fill:#001630;fill-opacity:1;fill-rule:nonzero;stroke:none"
         id="path342" /><path
         d="m 8349.06,4585.3 c -58.29,0 -105.53,-47.3 -105.53,-105.5 0,-58.3 47.24,-105.6 105.53,-105.6 58.28,0 105.53,47.3 105.53,105.6 0,58.2 -47.25,105.5 -105.53,105.5"
         style="fill:#001630;fill-opacity:1;fill-rule:nonzero;stroke:none"
         id="path344" /><path
         d="m 8296.29,4941.5 c 105.53,-158.3 342.98,-132 395.74,-66 52.77,66 -158.3,-52.8 -263.83,39.6 -105.53,92.3 -131.91,26.4 -131.91,26.4"
         style="fill:#e5544a;fill-opacity:1;fill-rule:nonzero;stroke:none"
         id="path346" /></g><g
       id="g1416"
       transform="matrix(0.03089449,0,0,-0.03089449,82.377894,353.61753)"
       inkscape:label="Fish2"><path
         d="m 18315.2,3046.9 c 77.5,-63.8 140.1,-123.4 191.5,-179.4 28.8,-31.4 54.2,-61.8 76.7,-91.2 53.6,-69.9 91.3,-134.2 122.5,-195.1 13.6,-26.4 25.8,-52 37.7,-77.2 32.9,-69.6 62.3,-135.3 104.7,-200.3 13.3,-20.6 27.9,-40.9 44.2,-61.4 26.5,-33 57.5,-66.2 95.4,-99.8 -1113.9,-364 -1511,441.2 -1511,441.2 l 50.9,793.4 c 230.7,-95.4 376.1,977.1 1367.8,926.6 36.9,-1.9 75,-5.3 114.4,-10.4 -2.3,-16.5 -4.9,-32.9 -7.5,-49 -16,-98.8 -36.1,-190 -59.3,-274.1 -6.8,-24.9 -13.8,-49 -21.2,-72.5 -41.5,-133.7 -90.7,-247.9 -143,-345.1 -7.2,-13.4 -14.4,-26.6 -21.7,-39.3 -203.9,-356.9 -442.1,-466.4 -442.1,-466.4"
         style="fill:#dc4d3d;fill-opacity:1;fill-rule:nonzero;stroke:none"
         id="path244" /><path
         d="m 16691,3978.1 -3098.6,603.3 c 16.2,47.8 555.8,1147.2 1034.2,1208.3 232.8,71.6 266.1,-14.3 253.8,-107.8 -3.9,-29.5 -12.2,-59.7 -20.4,-86.1 -10.1,-32.5 -19.6,-59.2 -19.6,-70.8 0,-18.2 49.3,-89.6 158.8,-189.6 10.6,-9.8 21.9,-19.9 33.7,-30.2 66.2,-57.7 150.8,-123.3 255.6,-192.6 12.6,-8.4 25.5,-16.9 38.8,-25.4 83,-53.4 177.8,-108.5 285,-164 11.1,-5.7 22.3,-11.5 33.7,-17.2 105,-53.1 221.6,-106.2 350.3,-157.7 11.8,-4.7 23.8,-9.5 35.8,-14.1 64.6,-25.3 132.2,-50.2 202.9,-74.5 34.6,-15.3 67.4,-30.7 98.3,-46.8 6.4,-3.2 12.8,-6.6 19,-10.1 83.1,-44.9 151.8,-95.5 205.2,-165.2 5.9,-7.6 11.6,-15.6 17,-23.7 66.7,-98.5 106.1,-233.3 116.5,-435.8"
         style="fill:#dc4d3d;fill-opacity:1;fill-rule:nonzero;stroke:none"
         id="path246" /><path
         d="m 17039.1,2206.5 c 0,0 -69,-43.8 -168.2,-105.8 -23.8,-15 -49.3,-30.8 -76.1,-47.5 -33,-20.6 -68,-42.3 -103.8,-64.3 -18.9,-11.7 -38.1,-23.5 -57.3,-35.3 -44.6,-27.5 -89.8,-55.1 -133.5,-81.4 -22.1,-13.4 -44,-26.5 -65.3,-39.2 -43.6,-26.1 -84.6,-50.1 -120.9,-71 -21.7,-12.4 -41.8,-23.7 -59.7,-33.5 -49.8,-27.1 -83.3,-43 -90.6,-41.2 -40.7,10.2 -600.6,325.8 -743.1,417.4 l 1516.8,397 101.7,-295.2"
         style="fill:#dc4d3d;fill-opacity:1;fill-rule:nonzero;stroke:none"
         id="path248" /><path
         d="m 17905.8,2706.8 c -581.6,-469.8 -1099.8,-273 -2519.2,-749 -1401,-469.7 -3515.1,-17.1 -3856.5,1132 -4.6,15.3 -8.9,30.7 -12.7,46.2 12.2,6.7 24.3,13.7 36.4,21 63.2,38.1 124.6,84 185.8,135.9 197.3,167.4 393.2,397.3 647.9,631.7 170,156.3 352.7,291.1 544.6,404.2 49.4,29.2 99.3,56.8 149.9,83 233.6,121.4 479,212.1 730.3,272.2 1015.4,242.7 2126.6,-13.9 2945.2,-765.2 5,-4.5 9.9,-9.1 14.8,-13.6 363,-334.3 713.8,-516.6 871.3,-588.6 v -0.1 c 55.1,-25.1 86.5,-36.8 86.5,-36.8 214,-4.2 334.1,-445 175.7,-572.9"
         style="fill:#ff7764;fill-opacity:1;fill-rule:nonzero;stroke:none"
         id="path250" /><path
         d="m 17905.8,2706.8 c -581.6,-469.8 -1099.8,-273 -2519.2,-749 -1401,-469.7 -3515.1,-17.1 -3856.5,1132 -4.6,15.3 -8.9,30.7 -12.7,46.2 12.2,6.7 24.3,13.7 36.4,21 63.2,38.1 124.6,84 185.8,135.9 19.4,-104.9 86.2,-205.9 189.9,-301.1 27.5,-25.2 57.6,-50.1 90.2,-74.4 l 0.9,-0.6 c 778.2,-581.8 2931.1,-906.7 3847.9,-476.2 1112,522.1 2113.8,107.4 1775.1,875.9 55.1,-25.1 86.5,-36.8 86.5,-36.8 214,-4.2 334.1,-445 175.7,-572.9"
         style="fill:#e2675a;fill-opacity:1;fill-rule:nonzero;stroke:none"
         id="path252" /><path
         d="m 12875.7,3529.7 c 0,-86.3 -69.9,-156.2 -156.1,-156.2 -86.3,0 -156.2,69.9 -156.2,156.2 0,86.2 69.9,156.1 156.2,156.1 86.2,0 156.1,-69.9 156.1,-156.1"
         style="fill:#001630;fill-opacity:1;fill-rule:nonzero;stroke:none"
         id="path254" /><path
         d="m 13120,2023.2 c 0,0 522.2,1212.9 -187.9,2305.6 49.4,29.2 99.3,56.8 149.9,83 313.3,-565.6 542.5,-1627.9 38,-2388.6"
         style="fill:#dc4d3d;fill-opacity:1;fill-rule:nonzero;stroke:none"
         id="path256" /><path
         d="m 15676.2,2598.7 c -2.1,-1.6 -4.2,-3.2 -6.3,-4.6 -48,-35 -95.5,-67.8 -142.2,-98.3 -33.6,-22.1 -66.8,-42.9 -99.8,-62.6 -141,-84.8 -276.3,-150.2 -405.2,-199.8 -95.5,-36.7 -187.4,-64.8 -275.6,-85.4 -782.4,-183.6 -1268.3,208.3 -1268.3,208.3 400.9,471.8 1378.3,386.1 1883.6,303.9 190.4,-30.9 313.8,-61.5 313.8,-61.5"
         style="fill:#e2675a;fill-opacity:1;fill-rule:nonzero;stroke:none"
         id="path258" /><path
         d="m 15532.6,2705.3 c -2,-1.7 -3.9,-3.4 -5.8,-4.9 -44.1,-37.6 -87.8,-72.9 -130.9,-106 -31.1,-23.9 -61.8,-46.6 -92.4,-68.2 -85.5,-60.7 -169.2,-113 -251,-158.2 -19.2,-10.6 -38.4,-20.9 -57.5,-30.7 -23.6,-12.2 -47.2,-23.8 -70.5,-34.9 -90.1,-42.8 -177.4,-76.8 -261.6,-103.3 -746.7,-235.9 -1247.7,109.2 -1247.7,109.2 333.4,458.3 1197.7,476.1 1713,441 14.2,-1 27.9,-1.9 41.5,-3 18.3,-1.3 36.1,-2.8 53.4,-4.3 79.4,-6.8 147,-14.4 198.6,-21 70.3,-8.9 110.9,-15.7 110.9,-15.7"
         style="fill:#dc4d3d;fill-opacity:1;fill-rule:nonzero;stroke:none"
         id="path260" /><path
         d="m 14182.6,2377.8 c -32.1,-5.5 -51.5,-8.5 -54.8,-8.5 -3.9,0 16.4,3.1 54.8,8.5"
         style="fill:#c64238;fill-opacity:1;fill-rule:nonzero;stroke:none"
         id="path262" /><path
         d="m 16314,1762 c -21.7,-12.4 -41.8,-23.7 -59.7,-33.5 -124.7,72.4 -368.1,218.8 -375.6,264.2 -6.7,40.2 255.2,-117.8 435.3,-230.7"
         style="fill:#c64238;fill-opacity:1;fill-rule:nonzero;stroke:none"
         id="path264" /><path
         d="m 16500.2,1872.2 c -22.1,-13.4 -44,-26.5 -65.3,-39.2 -108.1,85.3 -257.7,206.9 -250.8,241.1 7,35.2 198.3,-109.1 316.1,-201.9"
         style="fill:#c64238;fill-opacity:1;fill-rule:nonzero;stroke:none"
         id="path266" /><path
         d="m 16691,1988.9 c -18.9,-11.7 -38.1,-23.5 -57.3,-35.3 -60.4,74.8 -136.4,176.9 -123.9,202 13.2,26.5 113.2,-85.5 181.2,-166.7"
         style="fill:#c64238;fill-opacity:1;fill-rule:nonzero;stroke:none"
         id="path268" /><path
         d="m 16870.9,2100.7 c -23.8,-15 -49.3,-30.8 -76.1,-47.5 -32,44.1 -63.5,103.2 -40.7,143.1 22,38.6 73.8,-27.2 116.8,-95.6"
         style="fill:#c64238;fill-opacity:1;fill-rule:nonzero;stroke:none"
         id="path270" /><path
         d="m 16550.2,3493.3 c -130.9,0 -336.8,46.2 -610.4,168.8 -550.9,247 -703.1,378.7 -1101.3,378.7 -28.6,0 -58.4,-0.6 -89.8,-2 -368.7,-16 -1015.1,-246.7 -1412.4,-299.3 -40.5,169 -94,327.3 -154.4,467.5 357.2,198.6 866.2,374.3 1396.8,374.3 243,0 490.4,-36.8 729.9,-125.2 1048.5,-386.8 1272.5,-682 1384.4,-824.5 60.1,-76.5 8.8,-138.3 -142.8,-138.3 m -3354.4,235.6 c -45.6,0 -84.9,4.5 -116.5,14.7 -285,91.6 -325.7,142.5 -325.7,142.5 63.1,73.7 164.6,157.8 295.2,241.5 68.3,-133 120.3,-266.7 159,-398.6 -4.1,-0.1 -8.1,-0.1 -12,-0.1"
         style="fill:#ff8773;fill-opacity:1;fill-rule:nonzero;stroke:none"
         id="path272" /><path
         d="m 13207.8,3729 c -38.7,131.9 -90.7,265.6 -159,398.6 41.5,26.7 86,53.3 133.1,79.4 60.4,-140.2 113.9,-298.5 154.4,-467.5 -46.5,-6.1 -89.7,-9.9 -128.5,-10.5"
         style="fill:#e56250;fill-opacity:1;fill-rule:nonzero;stroke:none"
         id="path274" /><path
         d="m 14860,5595.8 c -413.5,-157.4 -676.2,-613.7 -599.9,-427.1 89.2,218.1 361.7,436 620.3,513.2 -3.9,-29.5 -12.2,-59.7 -20.4,-86.1"
         style="fill:#c64238;fill-opacity:1;fill-rule:nonzero;stroke:none"
         id="path276" /><path
         d="m 14999.2,5335.4 c 10.6,-9.8 21.9,-19.9 33.7,-30.2 -240.6,-159.6 -403.9,-373.2 -345.2,-248.5 44.5,94.6 189.3,201.3 311.5,278.7"
         style="fill:#c64238;fill-opacity:1;fill-rule:nonzero;stroke:none"
         id="path278" /><path
         d="m 15288.5,5112.6 c 12.6,-8.4 25.5,-16.9 38.8,-25.4 -186.9,-129 -316.2,-266 -263,-173 37.9,66.4 133.2,139.3 224.2,198.4"
         style="fill:#c64238;fill-opacity:1;fill-rule:nonzero;stroke:none"
         id="path280" /><path
         d="m 15612.3,4923.2 c 11.1,-5.7 22.3,-11.5 33.7,-17.2 -98.6,-102.7 -159.4,-182 -154.1,-134.3 4.1,37.7 58.2,95.9 120.4,151.5"
         style="fill:#c64238;fill-opacity:1;fill-rule:nonzero;stroke:none"
         id="path282" /><path
         d="m 15996.3,4748.3 c 11.8,-4.7 23.8,-9.5 35.8,-14.2 -109.5,-85.9 -204.3,-164.8 -204.3,-135.4 0,24.5 82.7,89.2 168.5,149.6"
         style="fill:#c64238;fill-opacity:1;fill-rule:nonzero;stroke:none"
         id="path284" /><path
         d="m 16333.3,4612.9 c 6.4,-3.2 12.8,-6.6 19,-10.1 -113.6,-89.5 -209,-187.4 -209,-156.8 0,27.7 99.4,103.5 190,166.9"
         style="fill:#c64238;fill-opacity:1;fill-rule:nonzero;stroke:none"
         id="path286" /><path
         d="m 16574.6,4413.9 c -115.2,-83.8 -166.6,-148.5 -166.6,-110.4 0,31.5 76,87.4 149.5,134.1 5.9,-7.6 11.6,-15.6 17.1,-23.7"
         style="fill:#c64238;fill-opacity:1;fill-rule:nonzero;stroke:none"
         id="path288" /><path
         d="m 14127.8,2257.4 c 120.6,43 685.9,86.1 924.7,110.6 -19.2,-10.6 -38.4,-20.9 -57.5,-30.7 -374.1,-10.1 -985.5,-122.2 -867.2,-79.9"
         style="fill:#c64238;fill-opacity:1;fill-rule:nonzero;stroke:none"
         id="path290" /><path
         d="m 15169.7,2746.3 c -420.1,-114.6 -1266.4,-240.6 -1103,-163.2 144.3,68.3 769.8,91.3 1061.5,166.2 14.2,-1 27.9,-1.9 41.5,-3"
         style="fill:#c64238;fill-opacity:1;fill-rule:nonzero;stroke:none"
         id="path292" /><path
         d="m 14382.3,2440.6 c 162.9,40.7 478.4,30.5 794,173 100.8,45.6 181.8,80.7 245.4,107.4 70.3,-8.9 110.9,-15.7 110.9,-15.7 -600.6,-315.6 -1313.2,-305.4 -1150.3,-264.7"
         style="fill:#c64238;fill-opacity:1;fill-rule:nonzero;stroke:none"
         id="path294" /><path
         d="m 12020.6,2916.8 -0.9,0.6 c -157.3,101.3 -374.4,151.5 -489.6,172.4 -4.6,15.3 -8.9,30.7 -12.7,46.2 12.2,6.7 24.3,13.7 36.4,21 95.2,-31.8 253.9,-83.8 375.7,-165.2 34,-22.7 65.1,-47.6 91.1,-75"
         style="fill:#001630;fill-opacity:1;fill-rule:nonzero;stroke:none"
         id="path296" /><path
         d="m 18506.7,2867.5 c 28.8,-31.4 54.2,-61.8 76.7,-91.2 -335.3,-63.5 -489.2,12.4 -423.4,29 66.6,16.8 249.4,-27.6 346.7,62.2"
         style="fill:#c64238;fill-opacity:1;fill-rule:nonzero;stroke:none"
         id="path298" /><path
         d="m 18160.5,2571.2 c 139.4,-13.6 340.9,-46.2 545.4,10 13.6,-26.4 25.8,-52 37.7,-77.2 -591.3,-97.7 -768.2,85.2 -583.1,67.2"
         style="fill:#c64238;fill-opacity:1;fill-rule:nonzero;stroke:none"
         id="path300" /><path
         d="m 18321.6,3345.2 c 127.1,159.6 326.2,199.7 457.4,207.4 -7.2,-13.4 -14.4,-26.6 -21.7,-39.3 -267.1,-3.1 -582.6,-352.6 -435.7,-168.1"
         style="fill:#c64238;fill-opacity:1;fill-rule:nonzero;stroke:none"
         id="path302" /><path
         d="m 18848.3,2303.7 c 13.3,-20.6 27.9,-40.9 44.2,-61.4 -478.7,-91.6 -846.5,87.9 -599,54.4 171.4,-23.4 373.6,-36.2 554.8,7"
         style="fill:#c64238;fill-opacity:1;fill-rule:nonzero;stroke:none"
         id="path304" /><path
         d="m 18943.2,3970.2 c -6.8,-24.9 -13.8,-49 -21.2,-72.5 -348.1,-61.2 -704.7,-358.5 -550.4,-196.1 116.9,123 368.2,212.6 571.6,268.6"
         style="fill:#c64238;fill-opacity:1;fill-rule:nonzero;stroke:none"
         id="path306" /><path
         d="m 18895.6,4303.7 c 36.9,-1.9 75,-5.3 114.4,-10.4 -2.3,-16.5 -4.9,-32.9 -7.5,-49 -694.3,-133 -1078.9,-883.7 -905.6,-553.6 152.4,290.6 502.8,530.4 798.7,613"
         style="fill:#c64238;fill-opacity:1;fill-rule:nonzero;stroke:none"
         id="path308" /></g><g
       id="g1917"
       inkscape:label="Fish1"
       transform="matrix(0.03089449,0,0,-0.03089449,-53.261974,521.48631)"><path
         d="m 13448.4,7416.5 c -133.2,-56.7 -273.1,-107.1 -418.4,-150.9 -1479.6,-446.7 -3524.84,-225.4 -4892.86,565.3 -163.67,94.6 -348.08,125.1 -520.15,165.4 -172.06,40.1 -331.58,89.9 -445.46,222.7 -73.95,130.6 -115.96,275.3 -124.15,422.8 -4.98,90.5 2.7,181.8 23.44,271.6 l 20.64,89 9.02,39.2 c 285.43,408.8 755.17,344.1 1306.32,614.7 1109.36,544.7 2608,917.3 3921.8,854.1 85.1,-4.2 169.4,-10.1 252.8,-18 875.5,-82 1648.3,-373.5 2138.1,-957.2 l 1.2,-1.3 h 0.3 l 3.5,0.1 v 0 c 85.7,1.6 155.8,-66.9 157.5,-152.5 18.9,-948.7 -567,-1595.1 -1433.6,-1965"
         style="fill:#28a6b2;fill-opacity:1;fill-rule:nonzero;stroke:none"
         id="path158" /><path
         d="m 6062.8,6887 -653.42,-186.7 c -37.13,8.7 -58.6,28.3 -67.42,57.5 -65.34,215.3 554.47,959 627.49,1799.1 82.97,954.2 -694.9,1815 -684.53,1949.9 l 20.33,1.2 155.99,9.1 c 2416.6,-259.3 2458.09,-2987 601.56,-3630.1"
         style="fill:#007e84;fill-opacity:1;fill-rule:nonzero;stroke:none"
         id="path160" /><path
         d="m 14721.5,8555 c -229,-511.4 -686.8,-888.2 -1273.1,-1138.5 -133.2,-56.7 -273.1,-107.1 -418.4,-150.9 -1479.6,-446.7 -3524.84,-225.4 -4892.86,565.3 -163.67,94.6 -348.08,125.1 -520.15,165.4 -172.06,40.1 -331.58,89.9 -445.46,222.7 -24.79,43.8 -46.05,89.3 -63.47,135.9 -34.85,92.2 -55.29,189 -60.68,286.9 -4.98,90.5 2.7,181.8 23.44,271.6 l 20.64,89 c 2237.07,1241.2 6710.64,1400.4 7628.04,532.8 l 1.5,-1.3 2.2,-2.1 0.1,0.1 c 0.1,0.3 0.5,1 1.2,2.1 h 3.2 c 38.8,-0.1 74.5,-14.5 101.9,-38.3 14.5,-12.7 26.6,-28.2 35.4,-45.5 h 0.2 c 10.2,-19.9 16.2,-42.4 16.8,-66.4 6.4,-307.7 -50.8,-583.7 -160.5,-828.8"
         style="fill:#56b8c3;fill-opacity:1;fill-rule:nonzero;stroke:none"
         id="path162" /><path
         d="m 14721.5,8555 c -229,-511.4 -686.8,-888.2 -1273.1,-1138.5 -133.2,-56.7 -273.1,-107.1 -418.4,-150.9 -1479.6,-446.7 -3524.84,-225.4 -4892.86,565.3 -163.67,94.6 -348.08,125.1 -520.15,165.4 -172.06,40.1 -331.58,89.9 -445.46,222.7 -24.79,43.8 -46.05,89.3 -63.47,135.9 1377.56,548.3 6072.14,951.6 7613.44,200.1"
         style="fill:#88d3d8;fill-opacity:1;fill-rule:nonzero;stroke:none"
         id="path164" /><path
         d="m 13416.3,9645.8 c 0,-87.9 -71.2,-159.1 -159.1,-159.1 -87.8,0 -159.1,71.2 -159.1,159.1 0,87.8 71.3,159.1 159.1,159.1 87.9,0 159.1,-71.3 159.1,-159.1"
         style="fill:#001630;fill-opacity:1;fill-rule:nonzero;stroke:none"
         id="path166" /><path
         d="m 13448.4,7416.5 c -133.2,-56.7 -273.1,-107.1 -418.4,-150.9 -98.5,207 -244.9,524.4 -443.4,1000.9 -325.3,780.8 -159.6,1695.3 -258,2243.9 85.1,-4.2 169.4,-10.1 252.8,-18 -308.2,-842.3 -170.1,-2378.2 867,-3075.9"
         style="fill:#007e84;fill-opacity:1;fill-rule:nonzero;stroke:none"
         id="path168" /><path
         d="m 8520.89,7934.6 c 819.36,300.8 3723.41,-663.8 4843.61,-114.1 -1389.8,-1161.6 -4843.61,114.1 -4843.61,114.1"
         style="fill:#fcfbf9;fill-opacity:1;fill-rule:nonzero;stroke:none"
         id="path170" /><path
         d="m 5689.3,9770.4 c 70.54,-142 137.62,-298.9 189.14,-465.9 229.82,3.9 472.64,21.1 605.67,31.9 -68.14,170 -160.72,320.9 -264.53,453 -150.96,28.2 -336.24,36 -530.28,-19"
         style="fill:#28a6b2;fill-opacity:1;fill-rule:nonzero;stroke:none"
         id="path172" /><path
         d="m 6601.95,8753.4 c -3.58,187.4 -37.59,359 -92.47,515.3 -122.59,-7.8 -371.55,-30.6 -594.89,-93.8 41.13,-165.3 64.87,-338.9 60.41,-516.6 220.58,38.5 461.11,77.2 626.95,95.1"
         style="fill:#28a6b2;fill-opacity:1;fill-rule:nonzero;stroke:none"
         id="path174" /><path
         d="m 6077.98,7393.3 c 134.68,161.3 260.2,348.3 354.67,558.4 -175.75,13.9 -401.48,27.5 -592.7,24.6 -63.88,-186 -142.45,-360.3 -218.37,-516.8 110.5,-43.1 259.93,-74.3 456.4,-66.2"
         style="fill:#28a6b2;fill-opacity:1;fill-rule:nonzero;stroke:none"
         id="path176" /><path
         d="m 6076.21,9954 c -319.45,332.6 -682.28,512.9 -770.96,554 l -20.33,-1.2 c -4.25,-55.3 123.92,-232.6 270.96,-488.2 170.16,-40.3 368.23,-43.2 520.33,-64.6"
         style="fill:#28a6b2;fill-opacity:1;fill-rule:nonzero;stroke:none"
         id="path178" /><path
         d="m 5968.29,8545 c -13.81,-148.3 -44.48,-293.5 -85.27,-433.2 100.97,-63.4 278.86,-120.2 582.2,-83.7 78.59,195.3 129.36,409.4 136.2,640.1 -174.8,-17.4 -409.12,-50.2 -633.13,-123.2"
         style="fill:#28a6b2;fill-opacity:1;fill-rule:nonzero;stroke:none"
         id="path180" /><path
         d="m 5564.61,7343.9 c -138.98,-278.4 -252.55,-487.6 -222.65,-586.1 157.06,91.6 431.15,288.7 683.72,574.6 -130.38,12.4 -292.41,20.5 -461.07,11.5"
         style="fill:#28a6b2;fill-opacity:1;fill-rule:nonzero;stroke:none"
         id="path182" /><path
         d="m 12389.5,8204.2 c 135.1,-405.2 -311.1,-477.1 -446,-674.1 -321.5,62.2 -404.4,715.6 -404.4,715.6 321.5,176.3 798.6,114.1 850.4,-41.5"
         style="fill:#007e84;fill-opacity:1;fill-rule:nonzero;stroke:none"
         id="path184" /><path
         d="m 11611.7,8193.9 c 103.7,31.1 352.6,41.5 394.1,0 41.5,-41.5 -394.1,0 -394.1,0"
         style="fill:#28a6b2;fill-opacity:1;fill-rule:nonzero;stroke:none"
         id="path186" /><path
         d="m 11670.6,7990 c 93,55.5 331.8,126.3 382.2,96.2 50.4,-30.1 -382.2,-96.2 -382.2,-96.2"
         style="fill:#28a6b2;fill-opacity:1;fill-rule:nonzero;stroke:none"
         id="path188" /><path
         d="m 11728.3,7837.4 c 87.3,64 318.5,157 371.4,131.7 53,-25.2 -371.4,-131.7 -371.4,-131.7"
         style="fill:#28a6b2;fill-opacity:1;fill-rule:nonzero;stroke:none"
         id="path190" /><path
         d="m 11811.2,7679.7 c 78.6,74.5 296.2,195.9 351.9,177.5 55.8,-18.3 -351.9,-177.5 -351.9,-177.5"
         style="fill:#28a6b2;fill-opacity:1;fill-rule:nonzero;stroke:none"
         id="path192" /><path
         d="m 12008.6,10510.4 c -521.4,-180 -1934.3,-251 -1934.3,-251 0,0 -391.78,465.2 -412.53,527.4 -20.74,62.2 1700.93,705.3 1981.03,601.6 165.9,-166 365.8,-878 365.8,-878"
         style="fill:#007e84;fill-opacity:1;fill-rule:nonzero;stroke:none"
         id="path194" /><path
         d="m 9147.09,9972.4 c 0,0 -159.48,285.4 -283.94,368.4 -124.46,83 -601.55,-321.5 -694.9,-373.4 -93.35,-51.8 238.55,-311.1 238.55,-311.1 0,0 536.76,103.3 740.29,316.1"
         style="fill:#007e84;fill-opacity:1;fill-rule:nonzero;stroke:none"
         id="path196" /><path
         d="m 11549.4,11305.4 c -62.2,0 -124.4,0 -114.1,-31.1 10.4,-31.1 290.4,-622.3 311.2,-643.1 20.7,-20.7 51.8,20.8 51.8,20.8 l -248.9,653.4"
         style="fill:#28a6b2;fill-opacity:1;fill-rule:nonzero;stroke:none"
         id="path198" /><path
         d="m 11300.5,11232.8 c -62.2,0 -124.5,0 -114.1,-31.1 10.4,-31.1 290.4,-622.3 311.2,-643.1 20.7,-20.7 51.8,20.8 51.8,20.8 l -248.9,653.4"
         style="fill:#28a6b2;fill-opacity:1;fill-rule:nonzero;stroke:none"
         id="path200" /><path
         d="m 11027.6,11170.6 c -60.5,0 -121,0 -110.9,-28.5 10.1,-28.5 282.2,-569.5 302.3,-588.5 20.2,-19 50.4,19 50.4,19 l -241.8,598"
         style="fill:#28a6b2;fill-opacity:1;fill-rule:nonzero;stroke:none"
         id="path202" /><path
         d="m 10771.5,11087.6 c -62.2,0 -124.4,0 -114,-27.5 10.3,-27.6 290.4,-550.6 311.1,-568.9 20.8,-18.4 51.9,18.3 51.9,18.3 l -249,578.1"
         style="fill:#28a6b2;fill-opacity:1;fill-rule:nonzero;stroke:none"
         id="path204" /><path
         d="m 10501.9,11015 c -62.2,0 -124.5,0 -114.1,-28 10.4,-28 290.4,-560.1 311.1,-578.7 20.8,-18.7 51.9,18.6 51.9,18.6 l -248.9,588.1"
         style="fill:#28a6b2;fill-opacity:1;fill-rule:nonzero;stroke:none"
         id="path206" /><path
         d="m 10243.4,10921.6 c -62.1,0 -124.1,0 -113.8,-24.2 10.4,-24.2 289.5,-484.1 310.2,-500.2 20.7,-16.1 51.7,16.1 51.7,16.1 l -248.1,508.3"
         style="fill:#28a6b2;fill-opacity:1;fill-rule:nonzero;stroke:none"
         id="path208" /><path
         d="m 9971.78,10849.6 c -58.26,-6.3 -116.53,-12.5 -104.14,-36.4 12.39,-23.8 325.46,-468.8 346.66,-483.3 21.2,-14.5 46.7,21.8 46.7,21.8 l -289.22,497.9"
         style="fill:#28a6b2;fill-opacity:1;fill-rule:nonzero;stroke:none"
         id="path210" /><path
         d="m 8799.67,10256.6 c -38.53,-10.5 -77.07,-21.1 -66.25,-35.4 10.82,-14.4 267.72,-273 283.49,-280.3 15.78,-7.2 29.18,19.5 29.18,19.5 l -246.42,296.2"
         style="fill:#28a6b2;fill-opacity:1;fill-rule:nonzero;stroke:none"
         id="path212" /><path
         d="m 8644.1,10173.6 c -38.54,-10.5 -77.07,-21 -66.25,-35.4 10.81,-14.3 267.71,-273 283.49,-280.2 15.77,-7.3 29.18,19.5 29.18,19.5 l -246.42,296.1"
         style="fill:#28a6b2;fill-opacity:1;fill-rule:nonzero;stroke:none"
         id="path214" /><path
         d="m 8488.52,10080.3 c -38.53,-10.6 -77.07,-21.1 -66.25,-35.4 10.82,-14.4 267.72,-273.1 283.49,-280.3 15.78,-7.2 29.18,19.5 29.18,19.5 l -246.42,296.2"
         style="fill:#28a6b2;fill-opacity:1;fill-rule:nonzero;stroke:none"
         id="path216" /><path
         d="m 8333.05,9994.5 c -32.99,-9 -65.98,-18 -56.97,-29.4 9,-11.3 224.07,-215 237.41,-220.6 13.33,-5.5 25.15,16.1 25.15,16.1 l -205.59,233.9"
         style="fill:#28a6b2;fill-opacity:1;fill-rule:nonzero;stroke:none"
         id="path218" /><path
         d="m 14865,9450.2 c -299.6,62.4 -680.2,-402.3 -691.3,-415.9 7.2,12.9 243.2,426.1 549.5,497.5 l 0.1,0.1 4.4,2.1 c 38.8,-0.1 74.5,-14.5 101.9,-38.3 14.5,-12.7 26.6,-28.2 35.4,-45.5"
         style="fill:#001630;fill-opacity:1;fill-rule:nonzero;stroke:none"
         id="path220" /></g><g
       id="g1883"
       inkscape:label="Shrimp"
       transform="matrix(0.03089449,0,0,-0.03089449,233.37219,1137.6917)"><path
         d="m 5389.62,16850 c -87.12,-96.5 -215.65,-225.6 -372.48,-342.1 -339.53,-252.5 -811.26,-446.7 -1279.43,-127.4 l -0.13,0.1 c -69.72,47.4 -139.31,106.4 -208.29,178.1 0,0 -26.1,-43.5 -114.81,-84 -35.78,-16.3 -81.72,-32.1 -140.29,-44.2 -39.58,-8.3 -85.03,-14.8 -136.99,-18.9 -25.11,-66.3 -52.81,-122.3 -81.24,-169.6 -123.99,-206.4 -261.84,-247 -261.84,-247 0,0 27.94,-213.9 -159.4,-447.2 -27.69,-34.6 -60.04,-69.5 -97.9,-104.1 0,0 71.31,-40.8 135.14,-198 35.17,-86.6 68.01,-208.3 85.4,-377.9 0,0 208.3,-36.8 465.61,-318.6 0,0 208.3,110.3 563.63,12.2 0,0 206.95,147.9 396.98,173.8 54.65,7.4 107.83,4.7 154.39,-14.5 343.07,245.1 453.35,-49 453.35,-49 0,0 -12.25,-257.3 -269.56,-257.3 0,0 -10.05,-85.6 -65.68,-181.6 -60.64,-104.6 -175.33,-221.5 -390.25,-252.5 -22.54,-3.4 -46.19,-5.7 -70.94,-7 0,0 -22.67,-24.1 -64.2,-57.8 -113.83,-92.4 -369.79,-256.5 -690.57,-191 -33.69,6.7 -68,16 -102.92,28.3 -6.49,-4.6 -13.11,-8.8 -19.85,-13.1 -1.59,-1 -3.06,-2 -4.65,-2.8 -296.52,-183.5 -786.63,-110.9 -1003.13,217.2 -19.12,28.9 -36.15,59.9 -50.61,92.7 0,0 -60.53,8.5 -145.93,43.5 -199.72,81.6 -534.95,307.8 -548.31,907.1 -1.47,66.4 0.98,137.5 8.09,213.5 0,0 -16.18,29.5 -37.62,81.4 -76.21,183.3 -220.18,646 39.95,1069.8 17.64,28.9 37.25,57.7 58.93,86.3 0,0 4.41,74.2 24.87,184 44.73,239.5 166.15,647.9 486.31,821.8 24.51,13.4 50.12,25.2 76.95,35.7 6.99,86.2 41.05,175.7 95.57,261.5 211.61,334.4 731.12,616.1 1159.85,456.2 39.82,-14.7 78.91,-33.3 116.89,-56.1 113.09,0 216.5,-14.6 312.08,-40.7 795.93,-216.2 1040.86,-1221.4 1679.97,-1140.5 -66.9,-64.9 -141.89,-105.3 -141.89,-105.3 0,0 63.22,-23.8 144.95,-15"
         style="fill:#f5b64f;fill-opacity:1;fill-rule:nonzero;stroke:none"
         id="path58" /><path
         d="m 5465.22,15308.9 c -3.92,-29.1 -9.8,-57 -17.4,-83.8 -131.96,-470.8 -779.03,-602.4 -779.03,-602.4 l -85.77,24.5 c 198.74,456.1 486.81,722.4 832.21,671.2 16.54,-2.4 33.2,-5.6 49.99,-9.5"
         style="fill:#f4a03d;fill-opacity:1;fill-rule:nonzero;stroke:none"
         id="path60" /><path
         d="m 5465.22,15308.9 c -3.92,-29.1 -9.8,-57 -17.4,-83.8 l -668.26,-406 c 16.91,13.5 447.34,354.8 635.67,499.3 16.54,-2.4 33.2,-5.6 49.99,-9.5"
         style="fill:#e28223;fill-opacity:1;fill-rule:nonzero;stroke:none"
         id="path62" /><path
         d="m 5688.56,14927.8 c -13.71,-25.9 -28.86,-50.1 -45.25,-72.6 -286.28,-396.4 -939.02,-296.6 -939.02,-296.6 l -72.04,52.6 c 343.88,359.4 706.16,510.1 1012.68,342.8 14.68,-8 29.22,-16.7 43.63,-26.2"
         style="fill:#f4a03d;fill-opacity:1;fill-rule:nonzero;stroke:none"
         id="path64" /><path
         d="m 5688.55,14927.8 c -13.7,-25.9 -28.85,-50.1 -45.24,-72.7 l -767.29,-150.4 c 20.52,6.8 542.27,178.6 768.91,249.3 14.68,-8 29.22,-16.7 43.62,-26.2"
         style="fill:#e28223;fill-opacity:1;fill-rule:nonzero;stroke:none"
         id="path66" /><path
         d="m 3388.07,13709.4 c -47.47,0 -96.88,4.7 -147.95,15.1 -33.69,6.7 -68,16 -102.92,28.3 -6.49,-4.6 -13.11,-8.8 -19.85,-13.1 -1.59,-1 -3.06,-2 -4.65,-2.8 v 0 c -3.22,429.6 -243.05,650 -518.67,650 -81.8,0 -166.71,-19.4 -249.58,-58.5 199.28,161 280.51,582.7 -45.54,963.3 1.95,0.1 3.92,0.1 5.86,0.1 164.61,0 286.34,-23 367.19,-46.1 v 0 0 c -63.83,157.2 -135.14,198 -135.14,198 v 0 c 0,0 71.31,-40.8 135.14,-198 35.17,-86.6 68.01,-208.3 85.4,-377.9 0,0 208.3,-36.8 465.61,-318.6 0,0 99.86,52.9 279.17,52.9 79.72,0 175.11,-10.5 284.46,-40.7 0,0 206.95,147.9 396.98,173.8 18.1,2.4 36.03,3.8 53.61,3.8 35.53,0 69.63,-5.5 100.78,-18.3 100.89,72.1 181.67,97.6 245.41,97.6 28.66,0 53.88,-5.2 75.94,-13.5 -26.71,-49.6 -52.16,-102.2 -76.3,-157.6 l 65.88,-18.8 c -5.55,-5.7 -11.11,-11.4 -16.65,-17.2 l 72.04,-52.6 c 0,0 19.69,-3 53.76,-5.9 -33.7,-67.4 -101.25,-138.3 -236.29,-138.3 0,0 -10.05,-85.6 -65.68,-181.6 -60.64,-104.6 -175.33,-221.5 -390.25,-252.5 -22.54,-3.4 -46.19,-5.7 -70.94,-7 0,0 -22.67,-24.1 -64.2,-57.8 -95.71,-77.7 -291.91,-206.1 -542.62,-206.1 m -1156.41,1654.4 c -0.02,0.1 -0.03,0.1 -0.06,0.1 0,0 513.51,349.3 280.71,814.9 0,0 6.51,-0.8 17.33,-0.8 69.17,0 315.06,33.1 171.99,523 200.87,-197.9 312.19,-381.6 354.33,-459 -123.99,-206.4 -261.84,-247 -261.84,-247 v 0 0 c 0,0 1.49,-11.3 1.48,-31.7 -0.03,-67.9 -16.71,-236 -160.88,-415.5 v 0 c -112.27,-77.9 -252.48,-139.2 -403.06,-184 m 2023.5,850.1 c -168.31,0 -343.11,47.7 -517.45,166.6 l -0.13,0.1 c -69.72,47.4 -139.31,106.4 -208.29,178.1 0,0 -26.1,-43.5 -114.81,-84 -35.78,-16.3 -81.72,-32.1 -140.29,-44.2 v 0 c -236.95,90.1 -437.79,218.2 -602.21,362.5 -0.01,0 0,0 -0.02,0.1 0,0 149.69,-118.5 301.36,-118.5 161.18,0 324.61,133.7 313.12,685.5 92.28,-527.1 594.2,-900.8 1285.3,-900.8 141.23,0 290.24,15.6 445.4,48.6 -213.09,-158.5 -478.29,-294 -761.98,-294"
         style="fill:#f4ab46;fill-opacity:1;fill-rule:nonzero;stroke:none"
         id="path68" /><path
         d="m 4648.9,14628.4 -65.88,18.8 c 24.14,55.4 49.59,108 76.3,157.6 44.35,-16.8 75.91,-46.6 97.05,-73.7 -35.96,-31.9 -71.79,-66.2 -107.47,-102.7"
         style="fill:#f4a03d;fill-opacity:1;fill-rule:nonzero;stroke:none"
         id="path70" /><path
         d="m 4758.05,14552.7 v 0 c -34.07,2.9 -53.76,5.9 -53.76,5.9 l -72.04,52.6 c 5.54,5.8 11.1,11.5 16.65,17.2 35.68,36.5 71.51,70.8 107.47,102.7 24.5,-31.5 34.95,-59.4 34.95,-59.4 0,0 -2.76,-58.1 -33.27,-119"
         style="fill:#f4a03d;fill-opacity:1;fill-rule:nonzero;stroke:none"
         id="path72" /><path
         d="m 3847.86,17538.9 c 0,-60.9 -49.37,-110.3 -110.27,-110.3 -60.91,0 -110.28,49.4 -110.28,110.3 0,60.9 49.37,110.2 110.28,110.2 60.9,0 110.27,-49.3 110.27,-110.2"
         style="fill:#001630;fill-opacity:1;fill-rule:nonzero;stroke:none"
         id="path74" /><path
         d="m 1375.14,16362.1 c 17.64,28.9 37.25,57.7 58.93,86.3 0,0 4.41,74.2 24.87,184 170.19,-219.7 577.6,-333.9 610.19,-342.8 -30.88,7 -394.9,87.3 -693.99,72.5"
         style="fill:#f4a03d;fill-opacity:1;fill-rule:nonzero;stroke:none"
         id="path76" /><path
         d="m 2670.99,14670.8 c -12.5,-20.4 -215.78,-348.3 -465,-538.2 -61.99,-47.3 -89.93,-110.1 -96.42,-178.5 -19.12,28.9 -36.15,59.9 -50.61,92.7 0,0 -60.53,8.5 -145.93,43.5 274.34,81 602.71,344.1 757.96,580.5"
         style="fill:#f4a03d;fill-opacity:1;fill-rule:nonzero;stroke:none"
         id="path78" /><path
         d="m 2671.96,15245.7 c -130.97,37.4 -369.17,74.4 -723.27,14.2 -321.76,-54.8 -494.4,-170.8 -583.97,-262.5 -1.47,66.4 0.98,137.5 8.09,213.5 0,0 -16.18,29.5 -37.62,81.4 362.32,-63.6 959.39,19.4 1299.53,255.5 -27.69,-34.6 -60.04,-69.5 -97.9,-104.1 0,0 71.31,-40.8 135.14,-198"
         style="fill:#f4a03d;fill-opacity:1;fill-rule:nonzero;stroke:none"
         id="path80" /><path
         d="m 3274.19,16430.5 c -39.58,-8.3 -85.03,-14.8 -136.99,-18.9 -25.11,-66.3 -52.81,-122.3 -81.24,-169.6 -51.09,93.9 -203.88,343.9 -494.64,586.2 -287.45,239.6 -440.11,516.7 -616.07,626 24.51,13.4 50.12,25.2 76.95,35.7 6.99,86.2 41.05,175.7 95.57,261.5 9.44,-354.5 397.61,-1032.4 1156.42,-1320.9"
         style="fill:#f4a03d;fill-opacity:1;fill-rule:nonzero;stroke:none"
         id="path82" /><path
         d="m 3186.21,14353.2 c 0,0 104.64,-399.7 53.91,-628.7 -33.69,6.7 -68,16 -102.92,28.3 -6.49,-4.6 -13.11,-8.9 -19.85,-13.1 120.2,254.2 68.86,613.5 68.86,613.5"
         style="fill:#f4a03d;fill-opacity:1;fill-rule:nonzero;stroke:none"
         id="path84" /><path
         d="m 3860.23,14328.4 c 5.64,-6.4 155,-180.2 205.61,-348.1 -22.55,-3.4 -46.2,-5.7 -70.95,-7 0,0 -22.66,-24.1 -64.2,-57.8 22.3,117.9 12.99,259 -70.46,412.9"
         style="fill:#f4a03d;fill-opacity:1;fill-rule:nonzero;stroke:none"
         id="path86" /><path
         d="m 3737.59,16380.6 c -69.72,47.4 -139.32,106.4 -208.3,178.1 0,0 -26.1,-43.5 -114.81,-84 1.35,121.3 -14.21,338 -105.74,635.3 -119.34,388.1 108.68,832.7 -31.12,1097.6 39.82,-14.7 78.91,-33.3 116.89,-56.1 113.09,0 216.5,-14.6 312.08,-40.7 -429.58,-184.5 -648.91,-913.7 31,-1730.2"
         style="fill:#f4a03d;fill-opacity:1;fill-rule:nonzero;stroke:none"
         id="path88" /><path
         d="m 4791.32,14671.7 c 0,0 -12.25,-257.3 -269.56,-257.3 0,0 -10.05,-85.6 -65.68,-181.6 24.02,152.8 8.09,388.3 -272.5,502.4 54.65,7.4 107.83,4.7 154.39,-14.5 343.08,245.1 453.35,-49 453.35,-49"
         style="fill:#f4a03d;fill-opacity:1;fill-rule:nonzero;stroke:none"
         id="path90" /><path
         d="m 4798.6,16794.2 c -122.17,0 -253.89,21.7 -392.65,65.5 -9.68,3.1 -15.05,13.4 -11.99,23.1 3.05,9.6 13.38,15 23.06,11.9 386.52,-122 715.55,-67.5 926.49,153.6 212.41,222.7 279.01,600.1 161.97,917.9 -105.29,285.8 -335.02,467.3 -630.28,497.8 -210.65,33.3 -380.02,-11.8 -465.73,-123.4 -61.9,-80.7 -72.81,-187.5 -29.16,-285.7 60.11,-135.3 209.73,-225.2 400.22,-240.4 10.12,-0.8 17.66,-9.7 16.86,-19.8 -0.81,-10.1 -9.73,-17.6 -19.79,-16.8 -204.13,16.3 -365.21,114.3 -430.88,262 -49.21,110.8 -36.64,231.5 33.59,323 94.18,122.7 276.3,172.8 499.64,137.6 308.78,-31.9 549.7,-222.1 660.02,-521.6 123.64,-335.7 55.38,-719.8 -169.86,-955.9 -144.55,-151.5 -340.96,-228.8 -571.51,-228.8"
         style="fill:#f5b64f;fill-opacity:1;fill-rule:nonzero;stroke:none"
         id="path92" /><path
         d="m 4956.72,16889.5 c -8.2,0 -15.68,5.5 -17.8,13.8 -2.51,9.8 3.43,19.9 13.26,22.4 203.09,51.8 324.64,148.2 361.28,286.5 49.02,185.1 -64.39,439 -295.98,662.7 -242.77,234.3 -199.8,494.7 -89.24,646.3 117.3,161 308.93,214.6 466.02,130.5 8.94,-4.8 12.31,-15.9 7.52,-24.9 -4.8,-8.9 -15.94,-12.3 -24.88,-7.5 -163.91,87.8 -332.08,-0.5 -418.95,-119.7 -101.87,-139.8 -140.71,-380.3 85.06,-598.3 241.18,-232.9 358.42,-500.5 305.98,-698.5 -39.74,-150 -173.81,-258.1 -387.71,-312.8 -1.53,-0.3 -3.06,-0.5 -4.56,-0.5"
         style="fill:#f5b64f;fill-opacity:1;fill-rule:nonzero;stroke:none"
         id="path94" /><path
         d="m 4548.45,17157.5 c -92.61,0 -277.01,204.4 -480.04,418.1 -232.8,245.1 -637.14,294.1 -441.1,355.3 15.32,4.8 32.46,7.2 51.25,7.2 221.75,0 667.26,-323.4 904.46,-730.1 v -36.7 c -9.4,-9.4 -21,-13.8 -34.57,-13.8"
         style="fill:#f8c761;fill-opacity:1;fill-rule:nonzero;stroke:none"
         id="path96" /><path
         d="m 1820.67,14337.5 c -59.41,0 -140.03,40.6 -202.81,150.4 -107.06,187.4 -84.19,420.2 -106.42,622.8 36.39,21.6 78.09,42.8 125.85,62.6 1.87,-14.8 3.56,-30.8 5.08,-48.2 24.51,-281.8 49.01,-502.4 208.29,-637.2 91.29,-77.2 49.76,-150.4 -29.99,-150.4 m -222.9,934.2 c -41.48,0 -81.84,1.3 -120.64,3.9 -5.42,15.6 -11.57,30.8 -18.55,45.5 -110.28,232.8 -257.31,367.6 -183.79,624.9 61.75,216.2 192.68,268 232.98,417.1 28.8,-0.9 57.63,-2.3 86.23,-4.3 7.1,-23.5 18.93,-46.8 36.12,-69.7 147.03,-196 -134.78,12.2 -110.28,-477.9 18.91,-378.2 67.02,-413.5 99.25,-539.4 -7.14,-0.1 -14.24,-0.1 -21.32,-0.1 m 4.25,1229 c -29.5,20.7 -57.55,43 -83.1,66.7 -1.6,181 5.66,326.8 160.21,481.4 183.79,183.8 220.55,196 269.56,281.8 12.68,22.2 31.46,51.6 52.34,83.1 40.5,-33.5 80.65,-75 122.49,-121.8 -17.53,-109.9 7.15,-203.8 -150.33,-353.4 -160.32,-152.3 -320.64,-299.4 -371.17,-437.8"
         style="fill:#f8c761;fill-opacity:1;fill-rule:nonzero;stroke:none"
         id="path98" /><path
         d="m 1594,16358.8 c -28.6,2 -57.43,3.4 -86.23,4.3 7.68,28.4 12.07,60.3 12.07,97.5 0,37.1 -0.62,72.6 -0.92,106.8 25.55,-23.7 53.6,-46 83.1,-66.7 -17.67,-48.4 -21.92,-95.7 -8.02,-141.9"
         style="fill:#f8b650;fill-opacity:1;fill-rule:nonzero;stroke:none"
         id="path100" /><path
         d="m 1511.44,15110.7 c -6.37,58.1 -16.43,113.6 -34.31,164.9 38.8,-2.6 79.16,-3.9 120.64,-3.9 7.08,0 14.18,0 21.32,0.1 6.96,-27.1 13.18,-58.5 18.2,-98.5 -47.76,-19.8 -89.46,-41 -125.85,-62.6"
         style="fill:#f8b650;fill-opacity:1;fill-rule:nonzero;stroke:none"
         id="path102" /><path
         d="m 2189.52,17451.1 c -22.6,55.6 -39.88,109.1 -51.84,159.3 0.02,0 0.03,0 0.03,0 0,0 92.79,345.1 472.63,443.1 236.79,61.1 383.11,131.7 471.6,131.7 53.46,0 85.81,-25.8 104.27,-95 94.77,-355.3 -747.41,-355.3 -955.71,-588.1 -15.89,-17.7 -29.42,-34.7 -40.98,-51"
         style="fill:#f8c761;fill-opacity:1;fill-rule:nonzero;stroke:none"
         id="path104" /><path
         d="m 2123.52,17291.9 c -41.84,46.8 -81.99,88.3 -122.49,121.8 59.08,89.1 134.91,194.2 136.65,196.7 11.96,-50.2 29.24,-103.7 51.84,-159.3 -42.59,-60.1 -58.34,-111.2 -66,-159.2"
         style="fill:#f8b650;fill-opacity:1;fill-rule:nonzero;stroke:none"
         id="path106" /></g><g
       id="g1365"
       transform="matrix(0.02473354,0,0,-0.02473354,-25.780383,802.43024)"
       inkscape:label="Oyster"><path
         d="m 18764.2,14192.6 c 2.3,-607.7 -267.1,-369.4 -829.5,-280 -562.3,89.4 -323.2,-131.3 -1033.6,103.5 -710.4,234.8 -1131.4,337.6 -1361,1255.8 -229.7,918.2 -194.9,1525.7 280.1,1738.5 475,212.9 563.5,607.3 1057.2,268 493.7,-339.3 535.9,101.1 807.6,-729.2 271.6,-830.2 200.4,-610.4 666.4,-1011 465.9,-400.7 410.7,-791.9 412.8,-1345.6"
         style="fill:#12454c;fill-opacity:1;fill-rule:nonzero;stroke:none"
         id="path42" /><path
         d="m 16697.2,13212.2 c -493.2,-488.8 -1266,-240 -2298.3,487.3 -581,409.3 -811.4,769.8 -893,1184.4 -63.5,322.3 -37.1,677.3 -15.5,1113.2 49.3,997 209,593.3 368.1,1336.2 145.4,678.6 18.7,1112.7 571.2,957.8 52.4,-14.7 110.7,-34.6 176.1,-60.1 688.1,-268.8 1201.6,-388.2 1476.2,-1160.7 274.6,-772.6 35.2,-578.3 937.9,-1315.6 902.6,-737.3 334.3,-578.1 519.1,-1355.6 184.9,-777.6 -348.5,-698.1 -841.8,-1186.9"
         style="fill:#18525d;fill-opacity:1;fill-rule:nonzero;stroke:none"
         id="path44" /><path
         d="m 13505.9,14883.9 c -63.5,322.3 -37.1,677.3 -15.5,1113.2 49.3,997 209,593.3 368.1,1336.2 145.4,678.6 18.7,1112.7 571.2,957.8 -312,-317.9 -85.7,-864.7 -361.7,-1187 -328.8,-384 -378.7,-284.4 -413.3,-728.1 -34.7,-443.6 -224,-648.1 -134,-1116.7 24.7,-128.7 14,-256.8 -14.8,-375.4"
         style="fill:#12454c;fill-opacity:1;fill-rule:nonzero;stroke:none"
         id="path46" /><path
         d="m 16637.2,13640.9 c -241.3,-396.9 -497.1,-392.7 -899.5,-251.7 -179.1,62.6 -387.2,152.3 -635.9,245.9 -807.7,303.6 -1107.2,1001.4 -1152.6,1908.6 -45.3,907.2 354.3,1604.4 1006.1,1665.5 366.8,34.4 727.8,-243.1 986.3,-561 156.3,-191.9 275.1,-398.5 335.3,-559.9 159.8,-428.6 713.2,-642.7 972.5,-797.1 259.3,-154.3 -44.7,-264.2 25.5,-947.1 70.1,-682.9 -289.1,-129.8 -637.7,-703.2"
         style="fill:#ffffff;fill-opacity:1;fill-rule:nonzero;stroke:none"
         id="path48" /><path
         d="m 15737.7,13389.2 c -179.1,62.6 -387.2,152.3 -635.9,245.9 -807.7,303.6 -1107.2,1001.4 -1152.6,1908.6 -45.3,907.2 354.3,1604.4 1006.1,1665.5 366.8,34.4 727.8,-243.1 986.3,-561 -486.2,360.7 -1011.7,451.7 -1210.5,311.7 -269.1,-189.6 -553.1,-409.1 -518,-862.7 35.2,-453.6 155,-762.6 105.3,-1061.8 -49.7,-299.1 15.5,-1041.8 1207.2,-1549.6 84.2,-36 154.5,-68.1 212.1,-96.6"
         style="fill:#e2c7ba;fill-opacity:1;fill-rule:nonzero;stroke:none"
         id="path50" /><path
         d="m 15744.8,14138.3 c -493.4,66.2 -310.7,404.4 -737.5,465.1 -426.7,60.7 -360.5,581.8 -139,886.7 10.4,14.2 20.1,28.7 29,43.3 182.4,296.5 87,645.5 353,721.7 194,55.5 376.9,-22 532.2,-265.7 155.3,-243.8 354.9,-371.1 416,-664.9 58.5,-281.1 608.9,-313 525.5,-747.3 -3.7,-19.7 -8.8,-40.2 -15.2,-61.6 -149.3,-493.3 -470.8,-443.5 -964,-377.3"
         style="fill:#f6a47f;fill-opacity:1;fill-rule:nonzero;stroke:none"
         id="path52" /><path
         d="m 15414.5,16057.9 c 264.2,55 403.9,-239 493.8,-408.5 89.8,-169.4 294.3,-358.7 159.7,-478.4 -134.5,-119.7 -319,9.8 -309.2,328.8 9.8,319.1 -114.9,368.8 -264.4,418.6 -149.6,49.8 -79.9,139.5 -79.9,139.5"
         style="fill:#fcba9f;fill-opacity:1;fill-rule:nonzero;stroke:none"
         id="path54" /><path
         d="m 15749.8,14148.3 c -493.4,66.2 -310.7,404.4 -737.5,465.1 -426.7,60.7 -360.5,581.7 -139,886.6 10.4,14.3 20.1,28.8 29,43.4 206.3,-578.4 1201.1,-1326.7 1826.7,-956.3 -3.7,-19.7 -8.8,-40.2 -15.2,-61.5 -149.3,-493.3 -470.8,-443.6 -964,-377.3"
         style="fill:#e28e6d;fill-opacity:1;fill-rule:nonzero;stroke:none"
         id="path56" /></g><g
       id="g1456"
       transform="matrix(0.03089449,0,0,-0.03089449,80.268509,846.95062)"
       inkscape:label="Seahorse"><path
         d="m 2634.93,10863.733 c -10.76,30.98 161.3,232.425 161.3,294.386 0,62.033 -318.1987,-165.983 -694.221,56.481 -241.2726,-275.574 -467.159,-234.655 -467.159,-234.655 75.27,-216.935 -236.58,-340.929 -236.58,-340.929 150.55,-100.722 -43.02,-317.657 -172.06,-348.638 182.81,-131.703 0,-433.8699 0,-433.8699 182.81,-85.2322 247.33,-340.8568 118.29,-441.5793 258.09,-154.9742 161.3,-379.6904 75.27,-433.8702 279.6,-147.1931 247.34,-449.3604 86.03,-534.5927 236.58,-162.6833 75.28,-325.4386 75.28,-325.4386 279.59,-216.9352 -32.26,-433.8703 -32.26,-433.8703 172.05,-178.1735 86.03,-402.8897 -118.29,-433.8702 225.82,-216.9351 64.52,-395.1086 -107.54,-402.8898 161.31,-147.1931 129.05,-325.3666 -21.5,-371.8373 161.3,-193.7358 -10.76,-387.3995 -10.76,-387.3995 225.83,-224.7163 21.51,-495.8311 21.51,-495.8311 129.04,-147.2652 96.67,-326.7356 96.67,-326.7356 0,0 656.08,636.612 645.32,698.5729 -10.75,62.0329 387.13,2301.054 344.12,2394.0673 -43.02,92.9413 -666.72,1255.14 -666.72,1255.14 0,0 53.77,635.3153 139.79,774.7273 86.03,139.484 279.6,302.167 473.16,364.128 193.56,62.033 290.35,108.504 290.35,108.504"
         style="fill:#007e84;fill-opacity:1;fill-rule:nonzero;stroke:none;stroke-width:0.848808"
         id="path348"
         sodipodi:nodetypes="cscccccccccccccccccccccc" /><path
         d="m 3914.6,4130.9631 c -606.5,-129.6856 -1231.82,-100.002 -1707.56,112.4662 -603.92,269.6018 -966.85,833.4458 -744.25,1739.2273 397.88,1619.2682 559.18,1588.2878 365.62,2487.0086 -193.56,898.7209 -569.94,1441.0947 -279.59,2076.4098 290.34,635.315 1372.47,463.626 1664.75,216.287 227.87,-169.816 152.6,-394.461 292.39,-541.726 139.8,-147.193 268.84,-216.935 462.41,-224.6439 193.56,-7.7811 365.62,77.4509 419.39,0 61.18,-88.1861 -96.79,-185.9546 -96.79,-309.9484 0,-123.9218 -251.09,-51.0097 -474.98,71.327 -38.28,20.8938 -74.31,37.3207 -107.97,50.1451 -163.02,62.5373 -266.58,41.2832 -266.58,41.2832 -322.6,-325.4386 -828.02,-108.5035 -828.02,-108.5035 0,0 -0.32,-0.4323 -0.86,-1.2969 -4.41,-6.9886 -25.16,-41.7876 -33.98,-99.8579 -10.54,-67.7246 -5.16,-167.0782 60.11,-290.9999 13.66,-26.0092 29.9,-53.027 49.25,-81.0535 85.49,-124.2099 230.45,-268.377 469.93,-426.8816 18.6,-12.3922 37.85,-24.7844 57.75,-37.3927 11.72,-7.4209 23.44,-14.9138 34.95,-22.5509 210.34,-137.6107 386.59,-298.1326 523.59,-471.1187 24.19,-30.3321 46.99,-61.0963 68.61,-92.2929 189.58,-272.1956 284.32,-569.6798 265.72,-854.7719 -2.05,-33.4301 -5.81,-66.716 -11.19,-99.7858 -32.9,-205.3355 -127.32,-401.665 -290.24,-574.5791 -63.01,-66.788 -126.24,-131.0544 -188.83,-193.2315 -26.02,-25.865 -51.94,-51.2978 -77.64,-76.4424 -396.38,-388.4803 -741.35,-696.9878 -731.56,-1039.5017 0.64,-27.5222 3.76,-55.1884 9.24,-83.1429 11.08,-56.2691 31.94,-113.691 63.99,-172.6979 64.3,-118.4461 150.76,-201.8772 247.54,-257.9302 28.5,-16.6429 57.97,-30.8363 87.97,-42.8682 28.28,-11.3835 57.21,-20.7497 86.35,-28.3147 288.41,-75.2897 602.74,23.7036 692.53,136.2419 5.91,7.4929 10.86,14.9138 14.73,22.4067 5.16,9.9426 9.68,20.2454 13.44,30.8364 36.46,101.515 11.19,231.2005 -78.82,312.1819 -15.59,14.1213 -33.23,26.7297 -52.8,37.3927 -67,36.7442 -157.11,51.3699 -270.88,27.7383 -10.11,-2.1614 -20.43,-4.539 -30.97,-7.2768 -6.89,-1.8012 -13.77,-3.6024 -20.86,-5.6918 -215.08,-46.5427 -75.28,-116.2847 -86.03,-193.7358 -10.76,-77.4511 -359.4003,-16.2109 -235.6395,234.6454 267.598,542.4065 814.4619,262.9766 922.9853,172.6645 C 4732.0463,5094.7613 4604.3999,4256.2863 3914.6,4130.9631"
         style="fill:#6fc6cf;fill-opacity:1;fill-rule:nonzero;stroke:none;stroke-width:0.848808"
         id="path350"
         sodipodi:nodetypes="cccscccccscccccccccscccccccccccccccccccccccssc" /><path
         d="m 4108.49,7362.0786 c -2.05,-33.4301 -5.81,-66.716 -11.19,-99.7858 -32.9,-205.3355 -127.32,-401.665 -290.24,-574.5791 -63.01,-66.788 -126.24,-131.0544 -188.83,-193.2315 -26.02,-25.865 -51.94,-51.2978 -77.64,-76.4424 -396.38,-388.4803 -741.35,-696.9878 -731.56,-1039.5017 0.64,-27.5222 3.76,-55.1884 9.24,-83.1429 11.08,-56.2691 31.94,-113.691 63.99,-172.6979 64.3,-118.4461 150.76,-201.8772 247.54,-257.9302 0.76,-2.5937 1.08,-3.9626 1.08,-3.9626 0,0 -969.11,509.8083 -829.31,1439.5097 139.79,929.7733 1903.38,945.2635 720.48,1983.4684 -1182.89,1038.1329 -1032.34,1572.7255 -632.84,1968.7704 0,0 299.48,-535.4568 1041.48,-310.8126 39.03,0 144.96,-53.8195 277.33,-134.2246 -163.02,62.5373 -266.58,41.2832 -266.58,41.2832 -322.6,-325.4386 -828.02,-108.5035 -828.02,-108.5035 0,0 -0.32,-0.4323 -0.86,-1.2969 -4.41,-6.9886 -25.16,-41.7876 -33.98,-99.8579 -10.54,-67.7246 -5.16,-167.0782 60.11,-290.9999 13.66,-26.0092 29.9,-53.027 49.25,-81.0535 85.49,-124.2099 230.45,-268.377 469.93,-426.8816 18.6,-12.3922 37.85,-24.7844 57.75,-37.3927 11.72,-7.4209 23.44,-14.9138 34.95,-22.5509 210.34,-137.6107 386.59,-298.1326 523.59,-471.1187 24.19,-30.3321 46.99,-61.0963 68.61,-92.2929 189.58,-272.1956 284.32,-569.6798 265.72,-854.7719"
         style="fill:#56b8c3;fill-opacity:1;fill-rule:nonzero;stroke:none;stroke-width:0.848808"
         id="path352" /><path
         d="m 2612.56,9738.9986 c -4.41,-6.9886 -25.16,-41.7876 -33.98,-99.8579 -337.66,160.8822 -344.44,589.9973 -158.72,643.5283 -110.44,-79.612 -136.47,-361.5342 192.7,-543.6704"
         style="fill:#007e84;fill-opacity:1;fill-rule:nonzero;stroke:none;stroke-width:0.848808"
         id="path354" /><path
         d="m 2911.43,10584.188 c -63.46,0 -114.9,-37.032 -114.9,-82.782 0,-45.679 51.44,-82.783 114.9,-82.783 63.46,0 114.91,37.104 114.91,82.783 0,45.75 -51.45,82.782 -114.91,82.782"
         style="fill:#001630;fill-opacity:1;fill-rule:nonzero;stroke:none;stroke-width:0.848808"
         id="path356" /><path
         d="m 2687.94,9267.0873 c -580.69,70.8948 -784.26,279.5444 -784.26,279.5444 0,0 277.55,-140.3486 735.01,-198.4909 13.66,-26.0092 29.9,-53.027 49.25,-81.0535"
         style="fill:#007e84;fill-opacity:1;fill-rule:nonzero;stroke:none;stroke-width:0.848808"
         id="path358" /><path
         d="m 3250.57,8780.2621 c -655.32,-136.3859 -998.9,18.156 -1006.32,21.4702 8.39,-1.2968 399.92,-64.0502 913.62,38.4734 18.6,-12.3922 37.85,-24.7844 57.75,-37.3927 11.72,-7.4209 23.44,-14.9138 34.95,-22.5509"
         style="fill:#007e84;fill-opacity:1;fill-rule:nonzero;stroke:none;stroke-width:0.848808"
         id="path360" /><path
         d="m 3842.77,8216.8505 c -991.59,-168.6633 -1461.63,94.5984 -1472.7,101.0106 12.58,-3.026 611.66,-147.4813 1404.09,-8.7177 24.19,-30.3321 46.99,-61.0963 68.61,-92.2929"
         style="fill:#007e84;fill-opacity:1;fill-rule:nonzero;stroke:none;stroke-width:0.848808"
         id="path362" /><path
         d="m 4108.49,7362.0786 c -2.05,-33.4301 -5.81,-66.716 -11.19,-99.7858 -923.19,3.6744 -1275.26,304.2567 -1275.26,304.2567 0,0 512.73,-213.0446 1286.45,-204.4709"
         style="fill:#007e84;fill-opacity:1;fill-rule:nonzero;stroke:none;stroke-width:0.848808"
         id="path364" /><path
         d="m 3618.23,6494.4822 c -26.02,-25.865 -51.94,-51.2978 -77.64,-76.4424 -741.24,158.8648 -944.48,456.5652 -951.26,466.796 9.79,-6.9887 376.48,-268.0889 1028.9,-390.3536"
         style="fill:#007e84;fill-opacity:1;fill-rule:nonzero;stroke:none;stroke-width:0.848808"
         id="path366" /><path
         d="m 2809.03,5378.5381 c 0.64,-27.5222 3.76,-55.1884 9.24,-83.1429 -394.01,-223.2753 -1022.12,-133.9363 -1022.12,-133.9363 0,0 543.91,-25.793 1012.88,217.0792"
         style="fill:#007e84;fill-opacity:1;fill-rule:nonzero;stroke:none;stroke-width:0.848808"
         id="path368" /><path
         d="m 3217.77,4821.8989 c 28.28,-11.3835 57.21,-20.7497 86.35,-28.3147 -30.11,-370.3964 -336.26,-465.7873 -346.37,-468.8133 224.32,144.8155 267.01,345.612 260.02,497.128"
         style="fill:#007e84;fill-opacity:1;fill-rule:nonzero;stroke:none;stroke-width:0.848808"
         id="path370" /><path
         d="m 3622.32,5360.3821 c -10.11,-2.1614 -20.43,-4.539 -30.97,-7.2768 -38.93,92.509 -160.66,149.2104 -160.66,149.2104 111.08,-17.7237 165.5,-86.5291 191.63,-141.9336"
         style="fill:#007e84;fill-opacity:1;fill-rule:nonzero;stroke:none;stroke-width:0.848808"
         id="path372" /><path
         d="m 3946,5295.2511 c -15.59,14.1213 -33.23,26.7297 -52.8,37.3927 161.62,134.6568 322.5,76.7306 322.5,76.7306 -114.85,9.2221 -210.77,-57.9982 -269.7,-114.1233"
         style="fill:#007e84;fill-opacity:1;fill-rule:nonzero;stroke:none;stroke-width:0.848808"
         id="path374" /><path
         d="m 4268.39,4802.0858 c -83.34,62.8254 -190.02,103.5323 -271.74,127.7403 5.91,7.4929 10.86,14.9138 14.73,22.4067 5.16,9.9426 9.68,20.2454 13.44,30.8364 96.57,-49.5687 182.28,-121.5442 243.57,-180.9834"
         style="fill:#007e84;fill-opacity:1;fill-rule:nonzero;stroke:none;stroke-width:0.848808"
         id="path376" /><path
         d="m 4366.03,4696.8964 c -3.33,4.1788 -39.57,49.0644 -97.64,105.1894 39.57,-29.8277 73.77,-64.6987 97.64,-105.1894"
         style="fill:#007e84;fill-opacity:1;fill-rule:nonzero;stroke:none;stroke-width:0.848808"
         id="path378" /><path
         d="M 3914.6,4130.9631 C 3294.0142,3991.887 2682.78,4030.9611 2207.04,4243.4293 3571.67,4044.506 4755.3925,4518.8097 4409.4804,5259.9626 4825.1973,4481.8517 4107.7176,4150.719 3914.6,4130.9631"
         style="fill:#56b8c3;fill-opacity:1;fill-rule:nonzero;stroke:none;stroke-width:0.848808"
         id="path380"
         sodipodi:nodetypes="cccc" /></g><g
       id="g1381"
       transform="matrix(0.03089449,0,0,-0.03089449,246.56451,919.33407)"
       inkscape:label="Squid"><path
         d="m 11529.9,12468.9 c -32.4,188.3 -18.2,222.1 -200.8,421.7 -182.5,199.6 72.8,505.7 -12.1,767.7 l -543,40.7 c -62.9,-529.7 4.4,-871.6 226.8,-1004.5 222.3,-132.9 370.8,-167.2 386.1,-272.9 15.3,-105.8 175.3,-141 143,47.3"
         style="fill:#e2675a;fill-opacity:1;fill-rule:nonzero;stroke:none"
         id="path14" /><path
         d="m 12251.1,12922 c -132.4,137.8 -168,146.5 -220.2,411.8 -52.2,265.4 -450.2,241.7 -610.6,465.5 l 289.6,461.2 c 463.7,-263.8 698.9,-521 673.8,-778.8 -25.1,-257.9 -85.6,-397.7 -9.6,-472.8 75.9,-75.1 9.3,-224.8 -123,-86.9"
         style="fill:#e2675a;fill-opacity:1;fill-rule:nonzero;stroke:none"
         id="path16" /><path
         d="m 12298,13746.1 c -358.6,124.3 -306.4,232.8 -607.7,129.1 h -0.1 l -1.2,-0.5 c 217.9,-173.2 186.6,-409.9 135.9,-721.1 -50.8,-311 152.1,-650.1 115.7,-727.9 -1.7,-3.5 -3.9,-6.3 -6.6,-8.3 -58.8,-43.4 -363.5,238.4 -432.1,624.9 -71.8,404.3 -207.5,470.4 -410.7,535.8 -44.9,14.4 -75.9,16.3 -97.3,7.4 -85,-35.2 -16.4,-241 -73.1,-495.3 -81.2,-364 -102.9,-487.4 87.8,-647.4 178.6,-149.9 339.2,-240.3 271.6,-435.4 -4.5,-13.3 -10,-27.1 -16.8,-41.3 -73.8,-6.1 -123.8,112.6 -247.3,158 -231.3,84.9 -547.5,162.1 -616.6,447.4 -84,347.3 -22.1,560.1 -25,791.4 -0.7,60.2 -5.9,121.7 -19.1,187.2 -14.1,70 -29,145.3 -49.3,223.8 0,0 -0.4,0 -1.4,-0.1 -26.3,0.3 -419.98,12.3 -670.78,523.8 l 254.37,181.9 c -58.06,51.5 -123.98,102 -199.22,150.6 l 257.21,185.7 882.02,636.7 c 9.2,-20.4 18.6,-40.3 28.2,-59.6 28.4,-57 58.4,-109.2 89.9,-157.1 l 174.9,125.1 c 230.8,-216 315.6,-436.5 341.6,-606.6 3.1,-2 6.2,-4 9.3,-5.8 31.4,-19.9 62.5,-39 93.4,-58 258.3,-159.4 662.6,-87.6 808.2,-443.9 134.3,-329 534.8,-411 603.4,-509 5.7,-8 9.2,-16.2 9.9,-24.7 10.3,-111 -329.9,-91.2 -689.1,33.2"
         style="fill:#f0735f;fill-opacity:1;fill-rule:nonzero;stroke:none"
         id="path18" /><path
         d="m 11472.2,14748.5 c -239.8,10.4 -563.1,123.3 -736.8,603.2 l 121.1,41.2 c 28.4,-57 58.4,-109.2 89.9,-157.1 l 174.9,125.1 c 230.8,-216 315.6,-436.5 341.6,-606.6 3.1,-2 6.2,-4 9.3,-5.8"
         style="fill:#e2675a;fill-opacity:1;fill-rule:nonzero;stroke:none"
         id="path20" /><path
         d="m 10304.7,13773.8 c -26.3,0.3 -419.98,12.3 -670.78,523.8 l 254.37,181.9 c -58.06,51.5 -123.98,102 -199.22,150.6 l 257.21,185.7 c 316.32,-537.7 377.72,-856.8 358.42,-1042"
         style="fill:#e2675a;fill-opacity:1;fill-rule:nonzero;stroke:none"
         id="path22" /><path
         d="m 7305.13,16673.4 c 1496.71,-3.5 2166.5,1491.5 2166.5,1491.5 0,0 -2005.88,726.4 -2225.93,720.5 -220.04,-6 59.43,-2212 59.43,-2212"
         style="fill:#ff7764;fill-opacity:1;fill-rule:nonzero;stroke:none"
         id="path24" /><path
         d="m 11396.8,15228 c 0,0 -202.7,-282.5 -610.9,-598.4 -277.2,-214.3 -649.1,-444 -1116.69,-611.2 0,0 -1647.98,1657.2 -2100.92,3660.3 -50.51,223.4 -81,444.2 -86.38,658.9 0,0 2091.97,159.2 3914.89,-3109.6"
         style="fill:#f6a47f;fill-opacity:1;fill-rule:nonzero;stroke:none"
         id="path26" /><path
         d="m 9669.21,14018.4 c 0,0 -1161.56,1168.1 -1802.34,2728.2 -122.47,298.2 -225.9,610.7 -298.58,932.1 414.95,-793.5 1438.54,-2741 3217.61,-3049.1 -158.4,-122.5 -347.7,-249.9 -568.2,-367.9 -133,-71.2 -277.3,-138.9 -433,-200 -37.82,-14.8 -76.33,-29.3 -115.49,-43.3"
         style="fill:#f99375;fill-opacity:1;fill-rule:nonzero;stroke:none"
         id="path28" /><path
         d="m 10738.9,15690 c -4.6,0 -10,1.3 -16.2,3.9 -135.2,56.6 -240.9,41.3 -592.9,613.7 -352.11,572.5 -668.61,426.3 -1228.35,863.3 -559.73,437 -1088.88,718.4 -1007.39,819.1 15.03,18.6 42.15,27.4 79.32,27.4 247.66,0 939.64,-389.7 1449.69,-862.4 586.63,-543.6 531.38,-241.7 853.73,-591.2 307.4,-333.4 557.1,-873.8 462.1,-873.8"
         style="fill:#f8b08d;fill-opacity:1;fill-rule:nonzero;stroke:none"
         id="path30" /><path
         d="m 10166.4,14116.4 c -4.8,-63.8 -60.4,-111.7 -124.2,-106.9 -63.83,4.8 -111.68,60.4 -106.89,124.2 4.79,63.8 60.39,111.6 124.19,106.9 63.8,-4.8 111.7,-60.4 106.9,-124.2"
         style="fill:#001630;fill-opacity:1;fill-rule:nonzero;stroke:none"
         id="path32" /><path
         d="m 11334.9,14981.4 c -4.7,-63.8 -60.3,-111.7 -124.1,-106.9 -63.9,4.8 -111.7,60.4 -106.9,124.2 4.8,63.8 60.4,111.7 124.2,106.9 63.8,-4.8 111.6,-60.4 106.8,-124.2"
         style="fill:#001630;fill-opacity:1;fill-rule:nonzero;stroke:none"
         id="path34" /><path
         d="m 12298,13746.1 c -358.6,124.3 -306.4,232.8 -607.7,129.1 h -0.1 c -67.7,52.9 -139.2,114.1 -139.2,114.1 0,0 346.9,287.6 559.7,27.7 174.8,-213.4 538.4,-307.8 866.5,-279.4 5.7,-8 9.2,-16.2 9.9,-24.7 10.3,-111 -329.9,-91.2 -689.1,33.2"
         style="fill:#e2675a;fill-opacity:1;fill-rule:nonzero;stroke:none"
         id="path36" /><path
         d="m 11934,12417.4 c -58.8,-43.4 -363.5,238.4 -432.1,624.9 -71.8,404.3 -207.5,470.4 -410.7,535.8 -44.9,14.4 -75.9,16.3 -97.3,7.4 98.6,128 268,111.8 476.2,-54.9 208.2,-166.6 222.7,-283.9 197.5,-618.9 -22.7,-303.6 67.9,-367.7 266.4,-494.3"
         style="fill:#e2675a;fill-opacity:1;fill-rule:nonzero;stroke:none"
         id="path38" /><path
         d="m 11280.2,12007.4 c -4.5,-13.3 -10,-27.1 -16.8,-41.3 -73.8,-6.1 -123.8,112.6 -247.3,158 -231.3,84.9 -547.5,162.1 -616.6,447.4 -84,347.3 -22.1,560.1 -25,791.4 85.1,-135.8 114.5,-402.9 108.1,-606.3 -8.4,-266.6 175.6,-292 238.9,-378.1 63.2,-86.1 131.7,-102.8 360.1,-154.8 174.5,-39.7 190.4,-115 198.6,-216.3"
         style="fill:#e2675a;fill-opacity:1;fill-rule:nonzero;stroke:none"
         id="path40" /></g></g></svg>
