<?xml version="1.0" encoding="UTF-8" standalone="no"?>
<!-- Created with Inkscape (http://www.inkscape.org/) -->

<svg
   width="200"
   height="200"
   viewBox="0 0 52.916666 52.916668"
   version="1.1"
   id="svg5"
   inkscape:version="1.1 (c68e22c387, 2021-05-23)"
   sodipodi:docname="Fruit_Kiwi.svg"
   xmlns:inkscape="http://www.inkscape.org/namespaces/inkscape"
   xmlns:sodipodi="http://sodipodi.sourceforge.net/DTD/sodipodi-0.dtd"
   xmlns="http://www.w3.org/2000/svg"
   xmlns:svg="http://www.w3.org/2000/svg">
  <sodipodi:namedview
     id="namedview7"
     pagecolor="#ffffff"
     bordercolor="#666666"
     borderopacity="1.0"
     inkscape:pageshadow="2"
     inkscape:pageopacity="0.0"
     inkscape:pagecheckerboard="0"
     inkscape:document-units="mm"
     showgrid="false"
     inkscape:snap-global="false"
     inkscape:zoom="0.64"
     inkscape:cx="-7.03125"
     inkscape:cy="253.90625"
     inkscape:window-width="1920"
     inkscape:window-height="1017"
     inkscape:window-x="-8"
     inkscape:window-y="-8"
     inkscape:window-maximized="1"
     inkscape:current-layer="layer2"
     units="px"
     width="200px" />
  <defs
     id="defs2">
    <radialGradient
       fx="0"
       fy="0"
       cx="0"
       cy="0"
       r="1"
       gradientUnits="userSpaceOnUse"
       gradientTransform="matrix(30.3355,0.981768,-0.422583,12.1114,2672.38,5985.84)"
       spreadMethod="pad"
       id="radialGradient3046">
      <stop
         style="stop-opacity:1;stop-color:#d76f1b"
         offset="0"
         id="stop3040" />
      <stop
         style="stop-opacity:1;stop-color:#954a1d"
         offset="0.99767542"
         id="stop3042" />
      <stop
         style="stop-opacity:1;stop-color:#642e0e"
         offset="1"
         id="stop3044" />
    </radialGradient>
    <radialGradient
       fx="0"
       fy="0"
       cx="0"
       cy="0"
       r="1"
       gradientUnits="userSpaceOnUse"
       gradientTransform="matrix(154.545,0,0,154.545,2818.59,5865.93)"
       spreadMethod="pad"
       id="radialGradient3068">
      <stop
         style="stop-opacity:1;stop-color:#3f8012"
         offset="0"
         id="stop3062" />
      <stop
         style="stop-color:#58ab16;stop-opacity:1"
         offset="0.29546189"
         id="stop33170" />
      <stop
         style="stop-opacity:1;stop-color:#b5ee83"
         offset="1"
         id="stop3066" />
    </radialGradient>
    <radialGradient
       fx="0"
       fy="0"
       cx="0"
       cy="0"
       r="1"
       gradientUnits="userSpaceOnUse"
       gradientTransform="matrix(54.8409,-11.2819,25.9388,84.0978,2653.2,5900.27)"
       spreadMethod="pad"
       id="radialGradient3086">
      <stop
         style="stop-opacity:1;stop-color:#d76f1b"
         offset="0"
         id="stop3080" />
      <stop
         style="stop-opacity:1;stop-color:#954a1d"
         offset="0.99767542"
         id="stop3082" />
      <stop
         style="stop-opacity:1;stop-color:#954a1d"
         offset="1"
         id="stop3084" />
    </radialGradient>
    <linearGradient
       x1="0"
       y1="0"
       x2="1"
       y2="0"
       gradientUnits="userSpaceOnUse"
       gradientTransform="matrix(42.8812,751.1,-751.1,42.8812,5695.23,2111.71)"
       spreadMethod="pad"
       id="linearGradient18818">
      <stop
         style="stop-opacity:1;stop-color:#629e0e"
         offset="0"
         id="stop18816" />
      <stop
         style="stop-opacity:1;stop-color:#3f7b16"
         offset="1"
         id="stop18812" />
    </linearGradient>
    <linearGradient
       x1="0"
       y1="0"
       x2="1"
       y2="0"
       gradientUnits="userSpaceOnUse"
       gradientTransform="matrix(45.0302,788.74,-788.74,45.0302,5727.73,2071.09)"
       spreadMethod="pad"
       id="linearGradient19090">
      <stop
         style="stop-opacity:1;stop-color:#f8b410"
         offset="0"
         id="stop19084" />
      <stop
         style="stop-opacity:1;stop-color:#f9bb10"
         offset="0.570552"
         id="stop19086" />
      <stop
         style="stop-opacity:1;stop-color:#d1b315"
         offset="1"
         id="stop19088" />
    </linearGradient>
    <linearGradient
       x1="0"
       y1="0"
       x2="1"
       y2="0"
       gradientUnits="userSpaceOnUse"
       gradientTransform="matrix(712.031,384.129,-384.129,712.031,5728.98,2061.71)"
       spreadMethod="pad"
       id="linearGradient19132">
      <stop
         style="stop-opacity:1;stop-color:#f46229"
         offset="0"
         id="stop19126" />
      <stop
         style="stop-opacity:1;stop-color:#f9bb10"
         offset="0.47288707"
         id="stop19128" />
      <stop
         style="stop-opacity:1;stop-color:#eae221"
         offset="1"
         id="stop19130" />
    </linearGradient>
    <radialGradient
       fx="0"
       fy="0"
       cx="0"
       cy="0"
       r="1"
       gradientUnits="userSpaceOnUse"
       gradientTransform="matrix(153.996,0,0,153.996,2815.7,5863.59)"
       spreadMethod="pad"
       id="radialGradient2920-3">
      <stop
         style="stop-opacity:1;stop-color:#38c31d"
         offset="0"
         id="stop2914-9" />
      <stop
         style="stop-opacity:1;stop-color:#74c31d"
         offset="0.31075472"
         id="stop2916-5" />
      <stop
         style="stop-opacity:1;stop-color:#437d1c"
         offset="1"
         id="stop2918-3" />
    </radialGradient>
  </defs>
  <g
     inkscape:groupmode="layer"
     id="layer2"
     inkscape:label="Layer 2">
    <g
       id="g13246"
       inkscape:label="kiwi"
       transform="matrix(0.09231276,0,0,-0.09231276,-351.71307,169.4511)"
       style="display:inline">
      <path
         d="m 3975.22,1745.24 c 87.21,53.78 169.47,32.72 257.13,-83.57 87.65,-116.29 74.21,-227.9 -7.6,-293.35 -81.81,-65.45 -203.36,-38.57 -267.64,79.47 -64.28,118.04 -79.48,237.26 18.11,297.45"
         style="fill:#ac6f28;fill-opacity:1;fill-rule:nonzero;stroke:none"
         id="path212" />
      <path
         d="m 3969.96,1680.95 c -17.8,24.86 54.06,69.55 73.34,47.34 19.29,-22.21 -59.31,-66.91 -73.34,-47.34"
         style="fill:#70430d;fill-opacity:1;fill-rule:nonzero;stroke:none"
         id="path214" />
      <path
         d="m 3984.87,1693.81 c -7.18,11.5 34.16,35.14 41.78,26.3 7.43,-8.62 -36.67,-34.5 -41.78,-26.3"
         style="fill:#8d5616;fill-opacity:1;fill-rule:nonzero;stroke:none"
         id="path216" />
      <path
         d="m 4232.35,1661.67 c -42.4,56.25 -83.54,90.22 -124.59,104.21 38.88,-30.97 91.08,-88.24 110.56,-201.6 19.48,-113.37 -33.11,-149.21 -81.03,-174.54 -47.91,-25.31 -99.84,-25.84 -133.47,-3.78 66.45,-63.39 156.14,-69.47 220.93,-17.64 81.81,65.45 95.25,177.06 7.6,293.35"
         style="fill:#955c16;fill-opacity:1;fill-rule:nonzero;stroke:none"
         id="path218" />
      <path
         d="m 4020.03,1628.95 c 48.08,25.47 96.61,10.12 126.22,-63.12 29.61,-73.24 3.12,-128.56 -63.11,-127.78 -66.23,0.78 -167.52,135.57 -63.11,190.9"
         style="fill:#c78338;fill-opacity:1;fill-rule:nonzero;stroke:none"
         id="path220" />
      <path
         d="m 4095.96,1589.69 -1.66,0.87 -7.37,10.74 c -0.63,0.92 -0.4,2.17 0.52,2.8 0.91,0.63 2.17,0.4 2.79,-0.52 l 7.38,-10.74 c 0.63,-0.91 0.4,-2.17 -0.52,-2.8 l -1.14,-0.35"
         style="fill:#ac6f28;fill-opacity:1;fill-rule:nonzero;stroke:none"
         id="path222" />
      <path
         d="m 4103.32,1595.05 -1.73,0.98 -6.02,10.08 c -0.57,0.95 -0.26,2.19 0.7,2.76 0.95,0.57 2.19,0.26 2.76,-0.7 l 6.02,-10.08 c 0.57,-0.95 0.26,-2.19 -0.7,-2.76 l -1.03,-0.28"
         style="fill:#ac6f28;fill-opacity:1;fill-rule:nonzero;stroke:none"
         id="path224" />
      <path
         d="m 4118.24,1562.25 -1.77,1.06 -5.41,10.04 c -0.53,0.98 -0.17,2.2 0.81,2.73 0.98,0.53 2.2,0.16 2.73,-0.82 l 5.41,-10.04 c 0.53,-0.98 0.16,-2.2 -0.81,-2.73 l -0.96,-0.24"
         style="fill:#ac6f28;fill-opacity:1;fill-rule:nonzero;stroke:none"
         id="path226" />
      <path
         d="m 4124.04,1566.82 -1.78,1.07 -5.77,10.88 c -0.52,0.98 -0.14,2.2 0.84,2.72 0.98,0.52 2.2,0.15 2.72,-0.83 l 5.76,-10.89 c 0.52,-0.98 0.15,-2.2 -0.83,-2.72 l -0.94,-0.23"
         style="fill:#ac6f28;fill-opacity:1;fill-rule:nonzero;stroke:none"
         id="path228" />
      <path
         d="m 4125.76,1582.47 -1.73,0.98 -8.34,13.92 c -0.57,0.96 -0.26,2.19 0.7,2.76 0.95,0.58 2.19,0.26 2.76,-0.69 l 8.34,-13.92 c 0.57,-0.96 0.26,-2.19 -0.7,-2.76 l -1.03,-0.29"
         style="fill:#ac6f28;fill-opacity:1;fill-rule:nonzero;stroke:none"
         id="path230" />
      <path
         d="m 4134.79,1532.62 -1.9,1.36 -5.14,14.84 c -0.37,1.05 0.19,2.2 1.24,2.56 1.05,0.37 2.2,-0.19 2.56,-1.24 l 5.14,-14.85 c 0.36,-1.05 -0.19,-2.19 -1.24,-2.56 l -0.66,-0.11"
         style="fill:#ac6f28;fill-opacity:1;fill-rule:nonzero;stroke:none"
         id="path232" />
      <path
         d="m 4141.07,1544.1 c -0.92,0 -1.75,0.64 -1.96,1.57 -0.82,3.56 -2.14,6.98 -3.93,10.17 -0.54,0.97 -0.2,2.2 0.77,2.74 0.97,0.55 2.2,0.2 2.74,-0.77 1.98,-3.52 3.44,-7.3 4.34,-11.24 0.25,-1.09 -0.42,-2.17 -1.51,-2.41 l -0.45,-0.06"
         style="fill:#ac6f28;fill-opacity:1;fill-rule:nonzero;stroke:none"
         id="path234" />
      <path
         d="m 4118.28,1496.47 -1.94,1.49 -3.04,11.31 c -0.28,1.08 0.35,2.18 1.43,2.47 1.07,0.29 2.17,-0.35 2.46,-1.42 l 3.04,-11.32 c 0.29,-1.07 -0.35,-2.18 -1.43,-2.46 l -0.52,-0.07"
         style="fill:#ac6f28;fill-opacity:1;fill-rule:nonzero;stroke:none"
         id="path236" />
      <path
         d="m 4126.17,1499.78 c -0.92,0 -1.75,0.63 -1.97,1.57 l -2.74,12.06 c -0.24,1.09 0.44,2.17 1.52,2.41 1.08,0.25 2.16,-0.43 2.41,-1.51 l 2.74,-12.07 c 0.25,-1.09 -0.43,-2.16 -1.52,-2.41 l -0.44,-0.05"
         style="fill:#ac6f28;fill-opacity:1;fill-rule:nonzero;stroke:none"
         id="path238" />
      <path
         d="m 4048.57,1741.43 c -0.93,0 -1.76,0.65 -1.97,1.59 l -2.62,12.09 c -0.24,1.09 0.45,2.16 1.54,2.4 1.08,0.24 2.16,-0.45 2.39,-1.54 l 2.63,-12.1 c 0.23,-1.08 -0.46,-2.15 -1.54,-2.39 l -0.43,-0.05"
         style="fill:#955c16;fill-opacity:1;fill-rule:nonzero;stroke:none"
         id="path240" />
      <path
         d="m 4057.47,1738.66 c -0.96,0 -1.81,0.69 -1.98,1.67 l -2.33,13.48 c -0.19,1.1 0.54,2.14 1.64,2.33 1.09,0.18 2.14,-0.55 2.33,-1.64 l 2.32,-13.49 c 0.19,-1.09 -0.54,-2.14 -1.64,-2.32 l -0.34,-0.03"
         style="fill:#955c16;fill-opacity:1;fill-rule:nonzero;stroke:none"
         id="path242" />
      <path
         d="m 3947.77,1664.35 -1.06,0.3 -13.6,8.43 c -0.95,0.59 -1.24,1.83 -0.65,2.77 0.58,0.95 1.82,1.24 2.77,0.66 l 13.6,-8.43 c 0.95,-0.59 1.24,-1.83 0.65,-2.78 l -1.71,-0.95"
         style="fill:#955c16;fill-opacity:1;fill-rule:nonzero;stroke:none"
         id="path244" />
      <path
         d="m 3948.42,1672.42 -0.77,0.16 c -4.41,1.84 -8.47,4.37 -12.08,7.5 l -0.19,2.84 2.84,0.2 c 3.28,-2.85 6.97,-5.15 10.98,-6.83 1.03,-0.43 1.51,-1.6 1.08,-2.63 l -1.86,-1.24"
         style="fill:#955c16;fill-opacity:1;fill-rule:nonzero;stroke:none"
         id="path246" />
      <path
         d="m 3971.81,1627.27 -1.51,0.69 -8.14,9.32 0.19,2.84 2.84,-0.19 8.14,-9.32 -0.19,-2.84 -1.33,-0.5"
         style="fill:#955c16;fill-opacity:1;fill-rule:nonzero;stroke:none"
         id="path248" />
      <path
         d="m 3979.97,1630.06 -1.44,0.61 -8.91,9.22 0.05,2.84 2.84,-0.04 8.91,-9.22 -0.05,-2.85 -1.4,-0.56"
         style="fill:#955c16;fill-opacity:1;fill-rule:nonzero;stroke:none"
         id="path250" />
      <path
         d="m 3940.39,1631.43 -1.24,0.43 c -3.71,2.91 -7.71,5.47 -11.91,7.61 -0.99,0.51 -1.38,1.72 -0.87,2.71 0.5,0.99 1.72,1.38 2.71,0.88 4.42,-2.26 8.64,-4.96 12.55,-8.03 l 0.34,-2.82 -1.58,-0.78"
         style="fill:#955c16;fill-opacity:1;fill-rule:nonzero;stroke:none"
         id="path252" />
      <path
         d="m 3936.94,1643.39 -1.17,0.38 -6.67,4.74 c -0.91,0.64 -1.12,1.9 -0.48,2.81 0.64,0.9 1.9,1.12 2.81,0.47 l 6.68,-4.74 c 0.9,-0.64 1.12,-1.9 0.47,-2.81 l -1.64,-0.85"
         style="fill:#955c16;fill-opacity:1;fill-rule:nonzero;stroke:none"
         id="path254" />
      <path
         d="m 3942.33,1564.9 -1.32,0.49 c -4.22,3.66 -7.93,7.88 -11.02,12.53 -0.62,0.92 -0.37,2.17 0.56,2.79 0.92,0.62 2.17,0.36 2.79,-0.56 2.89,-4.35 6.36,-8.3 10.31,-11.72 l 0.2,-2.84 -1.52,-0.69"
         style="fill:#955c16;fill-opacity:1;fill-rule:nonzero;stroke:none"
         id="path256" />
      <path
         d="m 3945.53,1574.11 -1.25,0.44 c -2.84,2.27 -5.19,5.01 -7,8.15 -0.56,0.97 -0.23,2.2 0.74,2.75 0.96,0.56 2.19,0.23 2.75,-0.73 1.53,-2.67 3.62,-5.1 6.02,-7.03 l 0.32,-2.83 -1.58,-0.75"
         style="fill:#955c16;fill-opacity:1;fill-rule:nonzero;stroke:none"
         id="path258" />
      <path
         d="m 3946.9,1591.63 -1.57,0.75 -4.49,5.53 0.29,2.83 2.83,-0.29 4.5,-5.54 -0.3,-2.83 -1.26,-0.45"
         style="fill:#955c16;fill-opacity:1;fill-rule:nonzero;stroke:none"
         id="path260" />
      <path
         d="m 3952.15,1519.82 -1.84,1.19 -4.27,9.59 c -0.45,1.01 0.01,2.2 1.02,2.66 1.02,0.45 2.21,-0.01 2.66,-1.03 l 4.27,-9.58 c 0.45,-1.02 -0.01,-2.21 -1.02,-2.66 l -0.82,-0.17"
         style="fill:#955c16;fill-opacity:1;fill-rule:nonzero;stroke:none"
         id="path262" />
      <path
         d="m 3961.8,1524.63 -1.58,0.77 c -3.04,3.83 -5.6,8.05 -7.59,12.52 -0.45,1.02 0,2.21 1.02,2.66 1.01,0.45 2.2,0 2.66,-1.02 1.85,-4.16 4.23,-8.09 7.07,-11.66 l -0.33,-2.83 -1.25,-0.44"
         style="fill:#955c16;fill-opacity:1;fill-rule:nonzero;stroke:none"
         id="path264" />
      <path
         d="m 4113.38,1731.27 -1.61,0.8 -11.56,15.32 0.39,2.82 2.82,-0.4 11.57,-15.32 -0.4,-2.82 -1.21,-0.4"
         style="fill:#955c16;fill-opacity:1;fill-rule:nonzero;stroke:none"
         id="path266" />
      <path
         d="m 4122.84,1731.99 -1.47,0.63 c -3.43,3.65 -6.62,7.58 -9.5,11.69 -0.64,0.91 -0.42,2.16 0.49,2.8 0.91,0.64 2.17,0.42 2.81,-0.49 2.76,-3.95 5.84,-7.73 9.14,-11.24 l -0.09,-2.85 -1.38,-0.54"
         style="fill:#955c16;fill-opacity:1;fill-rule:nonzero;stroke:none"
         id="path268" />
      <path
         d="m 4145.76,1676.79 -1.82,1.16 c -2.92,6.19 -5.93,12.6 -8.13,19.26 -0.35,1.06 0.23,2.19 1.28,2.54 1.06,0.35 2.2,-0.22 2.54,-1.28 2.12,-6.43 5.09,-12.72 7.95,-18.81 0.48,-1 0.05,-2.2 -0.96,-2.68 l -0.86,-0.19"
         style="fill:#955c16;fill-opacity:1;fill-rule:nonzero;stroke:none"
         id="path270" />
      <path
         d="m 4153.1,1679.67 -1.82,1.14 -5.85,12.17 c -0.48,1 -0.06,2.2 0.94,2.69 1,0.48 2.2,0.06 2.69,-0.95 l 5.85,-12.16 c 0.48,-1.01 0.06,-2.21 -0.94,-2.69 l -0.87,-0.2"
         style="fill:#955c16;fill-opacity:1;fill-rule:nonzero;stroke:none"
         id="path272" />
      <path
         d="m 4162.35,1682.26 -1.61,0.81 -4.02,5.37 0.4,2.82 2.82,-0.41 4.02,-5.37 -0.4,-2.82 -1.21,-0.4"
         style="fill:#955c16;fill-opacity:1;fill-rule:nonzero;stroke:none"
         id="path274" />
      <path
         d="m 4171.67,1609.83 c -1.02,0 -1.9,0.78 -2,1.82 l -1.83,18.81 c -0.11,1.11 0.7,2.09 1.81,2.2 1.1,0.11 2.09,-0.7 2.2,-1.81 l 1.83,-18.81 c 0.1,-1.11 -0.71,-2.09 -1.81,-2.2 l -0.2,-0.01"
         style="fill:#955c16;fill-opacity:1;fill-rule:nonzero;stroke:none"
         id="path276" />
      <path
         d="m 4177.29,1607.17 c -1.03,0 -1.91,0.79 -2,1.83 l -1.42,15.43 c -0.1,1.11 0.72,2.09 1.82,2.19 1.11,0.11 2.09,-0.71 2.19,-1.82 l 1.42,-15.43 c 0.1,-1.11 -0.72,-2.09 -1.83,-2.19 l -0.18,-0.01"
         style="fill:#955c16;fill-opacity:1;fill-rule:nonzero;stroke:none"
         id="path278" />
      <path
         d="m 4187.94,1619.92 c -1.11,0 -2.01,0.9 -2.01,2.01 v 13.42 c 0,1.11 0.9,2.01 2.01,2.01 1.12,0 2.02,-0.9 2.02,-2.01 v -13.42 c 0,-1.11 -0.9,-2.01 -2.02,-2.01"
         style="fill:#955c16;fill-opacity:1;fill-rule:nonzero;stroke:none"
         id="path280" />
      <path
         d="m 4193.31,1568.24 c -1.11,0 -2.01,0.9 -2.01,2.01 v 11.41 c 0,1.11 0.9,2.02 2.01,2.02 1.12,0 2.02,-0.91 2.02,-2.02 v -11.41 c 0,-1.11 -0.9,-2.01 -2.02,-2.01"
         style="fill:#955c16;fill-opacity:1;fill-rule:nonzero;stroke:none"
         id="path282" />
      <path
         d="m 4200.03,1568.91 c -1.12,0 -2.02,0.9 -2.02,2.01 v 7.39 c 0,1.11 0.9,2.01 2.02,2.01 1.11,0 2.01,-0.9 2.01,-2.01 v -7.39 c 0,-1.11 -0.9,-2.01 -2.01,-2.01"
         style="fill:#955c16;fill-opacity:1;fill-rule:nonzero;stroke:none"
         id="path284" />
      <path
         d="m 4018.75,1399.61 -0.74,0.14 c -6,2.38 -11.78,5.36 -17.2,8.86 -0.94,0.61 -1.2,1.85 -0.6,2.79 0.6,0.93 1.85,1.2 2.78,0.59 5.2,-3.35 10.75,-6.21 16.51,-8.5 1.03,-0.4 1.53,-1.58 1.12,-2.61 l -1.87,-1.27"
         style="fill:#955c16;fill-opacity:1;fill-rule:nonzero;stroke:none"
         id="path286" />
      <path
         d="m 4014.92,1410.76 -0.94,0.23 c -5.07,2.68 -9.97,5.78 -14.57,9.21 l -0.41,2.82 2.82,0.41 c 4.43,-3.31 9.15,-6.3 14.04,-8.87 0.98,-0.52 1.36,-1.74 0.84,-2.72 l -1.78,-1.08"
         style="fill:#955c16;fill-opacity:1;fill-rule:nonzero;stroke:none"
         id="path288" />
      <path
         d="m 3989.27,1436.66 -1.02,0.28 -3.37,2 c -0.96,0.56 -1.28,1.8 -0.71,2.75 0.57,0.96 1.8,1.28 2.76,0.71 l 3.37,-1.99 c 0.95,-0.57 1.27,-1.8 0.7,-2.76 l -1.73,-0.99"
         style="fill:#955c16;fill-opacity:1;fill-rule:nonzero;stroke:none"
         id="path290" />
      <path
         d="m 4058.98,1378.19 -1.36,0.52 c -4.11,3.75 -7.79,7.97 -10.93,12.56 -0.63,0.91 -0.4,2.17 0.52,2.8 0.92,0.63 2.17,0.39 2.8,-0.53 2.97,-4.32 6.44,-8.31 10.32,-11.85 l 0.13,-2.84 -1.48,-0.66"
         style="fill:#955c16;fill-opacity:1;fill-rule:nonzero;stroke:none"
         id="path292" />
      <path
         d="m 4067.21,1383.75 -1.36,0.53 -6.66,6.1 -0.12,2.85 2.84,0.12 6.66,-6.1 0.12,-2.84 -1.48,-0.66"
         style="fill:#955c16;fill-opacity:1;fill-rule:nonzero;stroke:none"
         id="path294" />
      <path
         d="m 4222.88,1644.79 -1.22,0.42 -17.49,13.37 -0.38,2.82 2.83,0.38 17.48,-13.37 0.38,-2.83 -1.6,-0.79"
         style="fill:#ac6f28;fill-opacity:1;fill-rule:nonzero;stroke:none"
         id="path296" />
      <path
         d="m 4225.53,1652.14 -0.97,0.25 c -4.78,2.65 -9.23,5.87 -13.23,9.59 l -0.11,2.84 2.85,0.11 c 3.76,-3.5 7.95,-6.53 12.44,-9.01 0.97,-0.54 1.32,-1.77 0.79,-2.74 l -1.77,-1.04"
         style="fill:#ac6f28;fill-opacity:1;fill-rule:nonzero;stroke:none"
         id="path298" />
      <path
         d="m 4253.61,1592.37 -1.94,1.46 c -2.45,8.64 -4.58,17.48 -6.34,26.29 -0.21,1.09 0.5,2.15 1.59,2.37 1.09,0.22 2.15,-0.49 2.36,-1.58 1.73,-8.71 3.84,-17.44 6.27,-25.98 0.3,-1.06 -0.32,-2.18 -1.39,-2.48 l -0.55,-0.08"
         style="fill:#ac6f28;fill-opacity:1;fill-rule:nonzero;stroke:none"
         id="path300" />
      <path
         d="m 4259.54,1596.41 c -1.02,0 -1.9,0.78 -2,1.82 -0.56,5.99 -1.63,11.98 -3.16,17.8 -0.28,1.08 0.36,2.18 1.44,2.46 1.07,0.28 2.17,-0.36 2.46,-1.44 1.58,-6.02 2.68,-12.23 3.27,-18.44 0.11,-1.11 -0.71,-2.09 -1.81,-2.19 l -0.2,-0.01"
         style="fill:#ac6f28;fill-opacity:1;fill-rule:nonzero;stroke:none"
         id="path302" />
      <path
         d="m 4277.36,1552.07 -0.76,0.15 c -1.03,0.42 -1.52,1.6 -1.1,2.62 l 6.84,16.73 c 0.42,1.03 1.59,1.52 2.62,1.1 1.03,-0.42 1.53,-1.6 1.1,-2.62 l -6.83,-16.73 -1.87,-1.25"
         style="fill:#ac6f28;fill-opacity:1;fill-rule:nonzero;stroke:none"
         id="path304" />
      <path
         d="m 4281.3,1539.37 -0.45,0.05 c -1.08,0.24 -1.76,1.32 -1.51,2.41 1.5,6.6 3.3,13.2 5.37,19.64 0.34,1.05 1.47,1.64 2.53,1.3 1.06,-0.34 1.64,-1.48 1.3,-2.54 -2.03,-6.32 -3.8,-12.81 -5.28,-19.3 -0.21,-0.93 -1.04,-1.56 -1.96,-1.56"
         style="fill:#ac6f28;fill-opacity:1;fill-rule:nonzero;stroke:none"
         id="path306" />
      <path
         d="m 4253.01,1511.15 -1.08,0.31 c -3.74,2.38 -6.99,5.59 -9.4,9.31 -0.61,0.93 -0.34,2.18 0.59,2.78 0.93,0.61 2.18,0.35 2.78,-0.59 2.11,-3.23 4.94,-6.03 8.19,-8.1 0.94,-0.59 1.22,-1.84 0.62,-2.78 l -1.7,-0.93"
         style="fill:#ac6f28;fill-opacity:1;fill-rule:nonzero;stroke:none"
         id="path308" />
      <path
         d="m 4258.41,1517.24 -1.36,0.54 c -4.44,4.11 -8.37,8.76 -11.69,13.81 -0.61,0.93 -0.35,2.18 0.58,2.79 0.93,0.61 2.18,0.35 2.79,-0.58 3.13,-4.78 6.85,-9.18 11.05,-13.07 l 0.11,-2.85 -1.48,-0.64"
         style="fill:#ac6f28;fill-opacity:1;fill-rule:nonzero;stroke:none"
         id="path310" />
      <path
         d="m 4251.6,1552.77 -1.89,1.31 c -1.51,4.08 -3.16,8.17 -4.9,12.15 -0.44,1.02 0.02,2.21 1.04,2.65 1.02,0.45 2.2,-0.01 2.65,-1.03 1.77,-4.06 3.45,-8.22 4.99,-12.37 0.38,-1.04 -0.15,-2.2 -1.19,-2.59 l -0.7,-0.12"
         style="fill:#ac6f28;fill-opacity:1;fill-rule:nonzero;stroke:none"
         id="path312" />
      <path
         d="m 4269.31,1486.28 -0.98,0.25 c -0.97,0.54 -1.32,1.77 -0.78,2.74 l 7.19,12.86 c 0.54,0.97 1.77,1.32 2.74,0.77 0.97,-0.54 1.32,-1.77 0.78,-2.73 l -7.19,-12.86 -1.76,-1.03"
         style="fill:#ac6f28;fill-opacity:1;fill-rule:nonzero;stroke:none"
         id="path314" />
      <path
         d="m 4271.02,1477.73 -1.03,0.28 c -0.95,0.56 -1.27,1.8 -0.7,2.76 l 7.99,13.46 c 0.57,0.95 1.8,1.27 2.76,0.7 0.95,-0.57 1.27,-1.8 0.7,-2.76 l -7.99,-13.46 -1.73,-0.98"
         style="fill:#ac6f28;fill-opacity:1;fill-rule:nonzero;stroke:none"
         id="path316" />
      <path
         d="m 4120.07,1336.58 -1.23,0.42 c -5.05,3.89 -10.54,7.21 -16.34,9.85 -1.01,0.47 -1.46,1.66 -0.99,2.67 0.46,1.01 1.65,1.46 2.67,1 6.07,-2.78 11.83,-6.25 17.12,-10.33 l 0.36,-2.82 -1.59,-0.79"
         style="fill:#ac6f28;fill-opacity:1;fill-rule:nonzero;stroke:none"
         id="path318" />
      <path
         d="m 4132.92,1338.06 -0.66,0.11 c -6.49,2.25 -12.73,5.26 -18.53,8.95 -0.93,0.6 -1.21,1.84 -0.61,2.78 0.59,0.94 1.84,1.21 2.78,0.62 5.53,-3.52 11.48,-6.39 17.68,-8.54 1.05,-0.37 1.61,-1.51 1.24,-2.56 l -1.9,-1.36"
         style="fill:#ac6f28;fill-opacity:1;fill-rule:nonzero;stroke:none"
         id="path320" />
      <path
         d="m 4181.94,1362.87 -0.6,0.09 c -1.06,0.33 -1.65,1.46 -1.32,2.52 1.3,4.19 2.87,8.34 4.66,12.35 0.46,1.02 1.65,1.47 2.66,1.02 1.02,-0.46 1.47,-1.65 1.02,-2.66 -1.73,-3.86 -3.24,-7.87 -4.5,-11.91 l -1.92,-1.41"
         style="fill:#ac6f28;fill-opacity:1;fill-rule:nonzero;stroke:none"
         id="path322" />
      <path
         d="m 4188.62,1361.53 -1.15,0.37 c -0.91,0.64 -1.13,1.89 -0.49,2.8 2.29,3.27 3.95,6.9 4.91,10.78 0.26,1.08 1.35,1.73 2.44,1.47 1.08,-0.27 1.73,-1.36 1.47,-2.44 -1.08,-4.36 -2.94,-8.44 -5.53,-12.12 l -1.65,-0.86"
         style="fill:#ac6f28;fill-opacity:1;fill-rule:nonzero;stroke:none"
         id="path324" />
      <path
         d="m 4222.2,1392.39 -1.03,0.28 c -0.95,0.57 -1.27,1.81 -0.7,2.76 l 4.75,8.02 c 0.56,0.96 1.8,1.28 2.75,0.71 0.96,-0.57 1.28,-1.8 0.71,-2.76 l -4.75,-8.02 -1.73,-0.99"
         style="fill:#ac6f28;fill-opacity:1;fill-rule:nonzero;stroke:none"
         id="path326" />
    </g>
  </g>
</svg>
