<?xml version="1.0" encoding="UTF-8" standalone="no"?>
<!-- Created with Inkscape (http://www.inkscape.org/) -->

<svg
   width="200"
   height="200"
   viewBox="0 0 52.916666 52.916668"
   version="1.1"
   id="svg5"
   inkscape:version="1.1 (c68e22c387, 2021-05-23)"
   sodipodi:docname="Fruit_Banana.svg"
   xmlns:inkscape="http://www.inkscape.org/namespaces/inkscape"
   xmlns:sodipodi="http://sodipodi.sourceforge.net/DTD/sodipodi-0.dtd"
   xmlns="http://www.w3.org/2000/svg"
   xmlns:svg="http://www.w3.org/2000/svg">
  <sodipodi:namedview
     id="namedview7"
     pagecolor="#ffffff"
     bordercolor="#666666"
     borderopacity="1.0"
     inkscape:pageshadow="2"
     inkscape:pageopacity="0.0"
     inkscape:pagecheckerboard="0"
     inkscape:document-units="mm"
     showgrid="false"
     inkscape:snap-global="false"
     inkscape:zoom="0.64"
     inkscape:cx="-7.03125"
     inkscape:cy="253.90625"
     inkscape:window-width="1920"
     inkscape:window-height="1017"
     inkscape:window-x="-8"
     inkscape:window-y="-8"
     inkscape:window-maximized="1"
     inkscape:current-layer="layer2"
     units="px"
     width="200px" />
  <defs
     id="defs2">
    <radialGradient
       fx="0"
       fy="0"
       cx="0"
       cy="0"
       r="1"
       gradientUnits="userSpaceOnUse"
       gradientTransform="matrix(30.3355,0.981768,-0.422583,12.1114,2672.38,5985.84)"
       spreadMethod="pad"
       id="radialGradient3046">
      <stop
         style="stop-opacity:1;stop-color:#d76f1b"
         offset="0"
         id="stop3040" />
      <stop
         style="stop-opacity:1;stop-color:#954a1d"
         offset="0.99767542"
         id="stop3042" />
      <stop
         style="stop-opacity:1;stop-color:#642e0e"
         offset="1"
         id="stop3044" />
    </radialGradient>
    <radialGradient
       fx="0"
       fy="0"
       cx="0"
       cy="0"
       r="1"
       gradientUnits="userSpaceOnUse"
       gradientTransform="matrix(154.545,0,0,154.545,2818.59,5865.93)"
       spreadMethod="pad"
       id="radialGradient3068">
      <stop
         style="stop-opacity:1;stop-color:#3f8012"
         offset="0"
         id="stop3062" />
      <stop
         style="stop-color:#58ab16;stop-opacity:1"
         offset="0.29546189"
         id="stop33170" />
      <stop
         style="stop-opacity:1;stop-color:#b5ee83"
         offset="1"
         id="stop3066" />
    </radialGradient>
    <radialGradient
       fx="0"
       fy="0"
       cx="0"
       cy="0"
       r="1"
       gradientUnits="userSpaceOnUse"
       gradientTransform="matrix(54.8409,-11.2819,25.9388,84.0978,2653.2,5900.27)"
       spreadMethod="pad"
       id="radialGradient3086">
      <stop
         style="stop-opacity:1;stop-color:#d76f1b"
         offset="0"
         id="stop3080" />
      <stop
         style="stop-opacity:1;stop-color:#954a1d"
         offset="0.99767542"
         id="stop3082" />
      <stop
         style="stop-opacity:1;stop-color:#954a1d"
         offset="1"
         id="stop3084" />
    </radialGradient>
    <linearGradient
       x1="0"
       y1="0"
       x2="1"
       y2="0"
       gradientUnits="userSpaceOnUse"
       gradientTransform="matrix(42.8812,751.1,-751.1,42.8812,5695.23,2111.71)"
       spreadMethod="pad"
       id="linearGradient18818">
      <stop
         style="stop-opacity:1;stop-color:#629e0e"
         offset="0"
         id="stop18816" />
      <stop
         style="stop-opacity:1;stop-color:#3f7b16"
         offset="1"
         id="stop18812" />
    </linearGradient>
    <linearGradient
       x1="0"
       y1="0"
       x2="1"
       y2="0"
       gradientUnits="userSpaceOnUse"
       gradientTransform="matrix(45.0302,788.74,-788.74,45.0302,5727.73,2071.09)"
       spreadMethod="pad"
       id="linearGradient19090">
      <stop
         style="stop-opacity:1;stop-color:#f8b410"
         offset="0"
         id="stop19084" />
      <stop
         style="stop-opacity:1;stop-color:#f9bb10"
         offset="0.570552"
         id="stop19086" />
      <stop
         style="stop-opacity:1;stop-color:#d1b315"
         offset="1"
         id="stop19088" />
    </linearGradient>
    <linearGradient
       x1="0"
       y1="0"
       x2="1"
       y2="0"
       gradientUnits="userSpaceOnUse"
       gradientTransform="matrix(712.031,384.129,-384.129,712.031,5728.98,2061.71)"
       spreadMethod="pad"
       id="linearGradient19132">
      <stop
         style="stop-opacity:1;stop-color:#f46229"
         offset="0"
         id="stop19126" />
      <stop
         style="stop-opacity:1;stop-color:#f9bb10"
         offset="0.47288707"
         id="stop19128" />
      <stop
         style="stop-opacity:1;stop-color:#eae221"
         offset="1"
         id="stop19130" />
    </linearGradient>
    <radialGradient
       fx="0"
       fy="0"
       cx="0"
       cy="0"
       r="1"
       gradientUnits="userSpaceOnUse"
       gradientTransform="matrix(153.996,0,0,153.996,2815.7,5863.59)"
       spreadMethod="pad"
       id="radialGradient2920-3">
      <stop
         style="stop-opacity:1;stop-color:#38c31d"
         offset="0"
         id="stop2914-9" />
      <stop
         style="stop-opacity:1;stop-color:#74c31d"
         offset="0.31075472"
         id="stop2916-5" />
      <stop
         style="stop-opacity:1;stop-color:#437d1c"
         offset="1"
         id="stop2918-3" />
    </radialGradient>
  </defs>
  <g
     inkscape:groupmode="layer"
     id="layer2"
     inkscape:label="Layer 2">
    <g
       id="g18202"
       inkscape:label="banana"
       transform="matrix(0.06027674,-0.03113522,-0.03193357,-0.05876981,96.896487,242.3228)"
       style="display:inline">
      <path
         d="m 1018.42,3488.42 c 3.79,-3.79 9.46,-13.64 14.17,-16.63 -5.43,-10.51 -44.348,-46.84 -53.781,-64.52 -9.434,-17.69 -53.93,-189.71 -191.043,-250.72 -137.118,-61.01 -387.442,-61.01 -469.207,-3.15 -81.762,57.87 -110.696,105.67 -110.696,105.67 0,0 22.563,60.38 67.887,50.94 45.324,-9.43 240.305,-77.94 366.094,-45.91 125.793,32.03 196.867,123.9 252.215,144.66 55.347,20.75 107.211,65.6 124.361,79.66"
         style="fill:#ffcf00;fill-opacity:1;fill-rule:nonzero;stroke:none"
         id="path1378" />
      <path
         d="m 944.453,3243.97 c -4.723,-5.81 -10.066,-12.07 -16.117,-18.87 -50.633,-56.92 -93.086,-90.88 -176.738,-123.9 -83.653,-33.02 -169.504,-41.51 -279.887,-22.64 -110.383,18.86 -199.066,72.33 -222.652,98.74 -5.625,6.3 -10.801,13.26 -15.778,20.52 -12.312,22.41 -12.523,30.74 -7.09,37.29 5.434,6.55 15.875,-4.79 15.875,-4.79 16.528,-17.15 40.071,-36.91 86.715,-60.57 66.985,-33.96 185.856,-51.88 308.032,-42.92 122.175,8.96 211.332,90.57 255.199,141.04 17.41,20.03 27.984,39.1 35.41,56.25 0,0 21.898,41.95 33.891,37.66 11.996,-4.28 30.078,-35.11 -16.86,-117.81"
         style="fill:#f5b900;fill-opacity:1;fill-rule:nonzero;stroke:none"
         id="path1380" />
      <path
         d="m 972.305,3310.12 -6.657,-3.7 c -50.207,-83.2 -161.531,-189.37 -289.21,-210.5 -127.68,-21.14 -231.458,3.39 -304.418,27.92 -72.957,24.53 -114.692,55.73 -145.399,99.56 -1.238,-0.16 -2.43,-0.37 -3.594,-0.59 0.825,-5.74 3.953,-13.52 10.254,-24.99 4.977,-7.26 10.153,-14.22 15.778,-20.52 23.586,-26.41 112.269,-79.88 222.652,-98.74 110.383,-18.87 196.234,-10.38 279.887,22.64 83.652,33.02 126.105,66.98 176.738,123.9 6.051,6.8 11.394,13.06 16.117,18.87 15.59,27.46 24,49.2 27.852,66.15"
         style="fill:#efa900;fill-opacity:1;fill-rule:nonzero;stroke:none"
         id="path1382" />
      <path
         d="m 1001.92,3501.84 c 13.92,5.2 20.06,0 30.67,-1.41 10.61,-1.42 10.85,-20.13 14.62,-35.06 -13.21,-4.56 -34.42,5.95 -38.44,12.37 -4.02,6.42 -6.85,24.1 -6.85,24.1"
         style="fill:#f5d785;fill-opacity:1;fill-rule:nonzero;stroke:none"
         id="path1384" />
      <path
         d="m 834.621,3396.49 c -45.914,-37.42 -81.449,-59.75 -163.215,-96.23 -81.765,-36.48 -184.914,-26.41 -237.746,-16.66 -52.836,9.74 -127.68,45.28 -146.234,46.22 -48.746,-0.09 -37.66,-21.85 -9.434,-34.9 17.61,-10.07 101.578,-42.14 182.711,-52.52 81.137,-10.38 202.527,-13.97 290.578,42.86 88.059,56.83 109.442,96.45 149.067,114.69 l 11.636,28.62 c -24.214,-5.97 -56.609,-13.52 -77.363,-32.08"
         style="fill:#ffec94;fill-opacity:1;fill-rule:nonzero;stroke:none"
         id="path1386" />
      <path
         d="m 275.75,3296.09 c -15.055,2.29 -21.031,-3.69 -27.949,-20.98 -6.918,-17.3 -17.926,-24.68 0,-50.55 -25.606,-9.83 -69.633,45.83 -57.996,69.73 11.636,23.9 73.64,35.04 85.945,1.8"
         style="fill:#cebd00;fill-opacity:1;fill-rule:nonzero;stroke:none"
         id="path1388" />
      <path
         d="m 280.141,3329.73 v 0 c -24.36,-1.28 -76.996,-10.6 -76.996,-10.6 0,0 -4.387,-8.34 -8.965,-19.05 3.418,0.57 5.718,1.31 5.718,1.31 24.836,2.84 57.672,3.53 75.852,-5.3 -8.465,4.65 -14.711,11.1 -12.539,18.48 2.359,8.02 0.559,13.68 16.93,15.16"
         style="fill:#e6d60a;fill-opacity:1;fill-rule:nonzero;stroke:none"
         id="path1390" />
      <path
         d="m 223.113,3251.36 c -19.34,21.7 -30.496,28.23 -30.496,28.23 0,0 -2.051,1.32 -5.086,2.86 -2.047,-6.47 -3.484,-12.72 -3.57,-17.72 21.887,-19.49 36.527,-49.84 54.875,-74.73 -7.395,18.04 -14.621,30.7 -11.465,37.37 3.16,6.67 7.649,5.01 20.43,-2.81 v 0 c -9.977,9.68 -17.332,18.55 -24.688,26.8"
         style="fill:#b2a200;fill-opacity:1;fill-rule:nonzero;stroke:none"
         id="path1392" />
      <path
         d="m 203.145,3319.13 c 0,0 -3.457,-33.96 -19.184,-54.4 -6.918,8.17 -11.32,18.24 -2.828,18.55 -4.09,7.86 -0.688,18.1 8.672,16.67 -9.301,11.32 0.293,16.97 13.34,19.18"
         style="fill:#6d2e28;fill-opacity:1;fill-rule:nonzero;stroke:none"
         id="path1394" />
      <path
         d="m 1018.42,3488.42 -1.09,1.48 c -5.97,7.86 -15.41,11.94 -15.41,11.94 0,0 -5.654,-18.55 -34.904,-43.39 -29.246,-24.85 -30.817,-23.9 -55.032,-29.88 -10.718,-2.64 -23.039,-5.6 -35.246,-9.68 16.063,0.25 21.723,-4.79 6,-20.19 -15.726,-15.41 -33.574,-36.92 -33.574,-36.92 18.68,16.95 33.016,29.81 51.184,38.17 39.625,18.24 44.472,6.17 118.072,88.47"
         style="fill:#e8d511;fill-opacity:1;fill-rule:nonzero;stroke:none"
         id="path1396" />
      <path
         d="m 1018.42,3488.42 c -73.6,-82.3 -78.447,-70.23 -118.072,-88.47 -26.172,-12.04 -44.395,-33.42 -79.118,-62.92 l -0.003,-0.01 c 28.175,20.48 56.793,40.29 74.402,47.84 17.613,7.55 35.375,3.01 34.594,-23.08 -0.629,-20.95 -6.36,-37.51 -11.383,-55.36 0,0 32.848,41.17 48.176,75.37 1.714,3.82 3.929,7.91 6.515,12.17 2.379,6.49 4.102,11.1 5.278,13.31 9.433,17.68 48.351,54.01 53.781,64.52 -4.71,2.99 -10.38,12.84 -14.17,16.63"
         style="fill:#cfbd00;fill-opacity:1;fill-rule:nonzero;stroke:none"
         id="path1398" />
      <path
         d="m 931.125,3228.26 c 47.883,54.47 49.137,73.28 50.988,106.91 1.887,34.28 0.629,62.27 8.176,73.59 7.547,11.32 36.161,39.94 56.921,56.61 -6.07,1.19 -10.79,3.54 -14.62,6.42 -21.06,-20.49 -43.949,-42.99 -61.317,-62.56 -16.796,-16.75 -26.171,-34.39 -31.144,-50.83 -5.102,-14.75 -10.715,-32.46 -21.289,-51.98 v 0 c 20.109,24.43 31.668,49.19 42.047,48.01 10.375,-1.18 12.734,-21.37 2.828,-55.03 -9.906,-33.65 -20.84,-50.14 -32.59,-71.14"
         style="fill:#b2a200;fill-opacity:1;fill-rule:nonzero;stroke:none"
         id="path1400" />
    </g>
  </g>
</svg>
