<?xml version="1.0" encoding="UTF-8" standalone="no"?>
<!-- Created with Inkscape (http://www.inkscape.org/) -->

<svg
   width="200"
   height="200"
   viewBox="0 0 52.916666 52.916668"
   version="1.1"
   id="svg5"
   inkscape:version="1.1 (c68e22c387, 2021-05-23)"
   sodipodi:docname="Fruit_Peach.svg"
   xmlns:inkscape="http://www.inkscape.org/namespaces/inkscape"
   xmlns:sodipodi="http://sodipodi.sourceforge.net/DTD/sodipodi-0.dtd"
   xmlns:xlink="http://www.w3.org/1999/xlink"
   xmlns="http://www.w3.org/2000/svg"
   xmlns:svg="http://www.w3.org/2000/svg">
  <sodipodi:namedview
     id="namedview7"
     pagecolor="#ffffff"
     bordercolor="#666666"
     borderopacity="1.0"
     inkscape:pageshadow="2"
     inkscape:pageopacity="0.0"
     inkscape:pagecheckerboard="0"
     inkscape:document-units="mm"
     showgrid="false"
     inkscape:snap-global="false"
     inkscape:zoom="0.64"
     inkscape:cx="-7.03125"
     inkscape:cy="253.90625"
     inkscape:window-width="1920"
     inkscape:window-height="1017"
     inkscape:window-x="-8"
     inkscape:window-y="-8"
     inkscape:window-maximized="1"
     inkscape:current-layer="layer2"
     units="px"
     width="200px" />
  <defs
     id="defs2">
    <radialGradient
       fx="0"
       fy="0"
       cx="0"
       cy="0"
       r="1"
       gradientUnits="userSpaceOnUse"
       gradientTransform="matrix(30.3355,0.981768,-0.422583,12.1114,2672.38,5985.84)"
       spreadMethod="pad"
       id="radialGradient3046">
      <stop
         style="stop-opacity:1;stop-color:#d76f1b"
         offset="0"
         id="stop3040" />
      <stop
         style="stop-opacity:1;stop-color:#954a1d"
         offset="0.99767542"
         id="stop3042" />
      <stop
         style="stop-opacity:1;stop-color:#642e0e"
         offset="1"
         id="stop3044" />
    </radialGradient>
    <radialGradient
       fx="0"
       fy="0"
       cx="0"
       cy="0"
       r="1"
       gradientUnits="userSpaceOnUse"
       gradientTransform="matrix(154.545,0,0,154.545,2818.59,5865.93)"
       spreadMethod="pad"
       id="radialGradient3068">
      <stop
         style="stop-opacity:1;stop-color:#3f8012"
         offset="0"
         id="stop3062" />
      <stop
         style="stop-color:#58ab16;stop-opacity:1"
         offset="0.29546189"
         id="stop33170" />
      <stop
         style="stop-opacity:1;stop-color:#b5ee83"
         offset="1"
         id="stop3066" />
    </radialGradient>
    <radialGradient
       fx="0"
       fy="0"
       cx="0"
       cy="0"
       r="1"
       gradientUnits="userSpaceOnUse"
       gradientTransform="matrix(54.8409,-11.2819,25.9388,84.0978,2653.2,5900.27)"
       spreadMethod="pad"
       id="radialGradient3086">
      <stop
         style="stop-opacity:1;stop-color:#d76f1b"
         offset="0"
         id="stop3080" />
      <stop
         style="stop-opacity:1;stop-color:#954a1d"
         offset="0.99767542"
         id="stop3082" />
      <stop
         style="stop-opacity:1;stop-color:#954a1d"
         offset="1"
         id="stop3084" />
    </radialGradient>
    <linearGradient
       x1="0"
       y1="0"
       x2="1"
       y2="0"
       gradientUnits="userSpaceOnUse"
       gradientTransform="matrix(42.8812,751.1,-751.1,42.8812,5695.23,2111.71)"
       spreadMethod="pad"
       id="linearGradient18818">
      <stop
         style="stop-opacity:1;stop-color:#629e0e"
         offset="0"
         id="stop18816" />
      <stop
         style="stop-opacity:1;stop-color:#3f7b16"
         offset="1"
         id="stop18812" />
    </linearGradient>
    <linearGradient
       x1="0"
       y1="0"
       x2="1"
       y2="0"
       gradientUnits="userSpaceOnUse"
       gradientTransform="matrix(45.0302,788.74,-788.74,45.0302,5727.73,2071.09)"
       spreadMethod="pad"
       id="linearGradient19090">
      <stop
         style="stop-opacity:1;stop-color:#f8b410"
         offset="0"
         id="stop19084" />
      <stop
         style="stop-opacity:1;stop-color:#f9bb10"
         offset="0.570552"
         id="stop19086" />
      <stop
         style="stop-opacity:1;stop-color:#d1b315"
         offset="1"
         id="stop19088" />
    </linearGradient>
    <linearGradient
       x1="0"
       y1="0"
       x2="1"
       y2="0"
       gradientUnits="userSpaceOnUse"
       gradientTransform="matrix(712.031,384.129,-384.129,712.031,5728.98,2061.71)"
       spreadMethod="pad"
       id="linearGradient19132">
      <stop
         style="stop-opacity:1;stop-color:#f46229"
         offset="0"
         id="stop19126" />
      <stop
         style="stop-opacity:1;stop-color:#f9bb10"
         offset="0.47288707"
         id="stop19128" />
      <stop
         style="stop-opacity:1;stop-color:#eae221"
         offset="1"
         id="stop19130" />
    </linearGradient>
    <radialGradient
       inkscape:collect="always"
       xlink:href="#linearGradient19132"
       id="radialGradient19883"
       cx="68.889"
       cy="136.89464"
       fx="68.889"
       fy="136.89464"
       r="12.859858"
       gradientTransform="matrix(0.78360781,2.2365996,-1.5181307,0.5497951,222.731,-92.871333)"
       gradientUnits="userSpaceOnUse" />
    <radialGradient
       inkscape:collect="always"
       xlink:href="#linearGradient19132"
       id="radialGradient20482"
       cx="76.244949"
       cy="139.70766"
       fx="76.244949"
       fy="139.70766"
       r="11.789435"
       gradientTransform="matrix(0.5953448,2.8461119,-1.627354,0.35887177,258.20673,-127.94974)"
       gradientUnits="userSpaceOnUse" />
    <radialGradient
       inkscape:collect="always"
       xlink:href="#radialGradient3086"
       id="radialGradient16818-3"
       cx="34.653263"
       cy="131.84628"
       fx="34.653263"
       fy="131.84628"
       r="0.99009567"
       gradientTransform="matrix(-2.4729366,-0.53283094,-1.09092,4.5119132,314.97536,-450.51023)"
       gradientUnits="userSpaceOnUse" />
    <radialGradient
       fx="0"
       fy="0"
       cx="0"
       cy="0"
       r="1"
       gradientUnits="userSpaceOnUse"
       gradientTransform="matrix(153.996,0,0,153.996,2815.7,5863.59)"
       spreadMethod="pad"
       id="radialGradient2920-3">
      <stop
         style="stop-opacity:1;stop-color:#38c31d"
         offset="0"
         id="stop2914-9" />
      <stop
         style="stop-opacity:1;stop-color:#74c31d"
         offset="0.31075472"
         id="stop2916-5" />
      <stop
         style="stop-opacity:1;stop-color:#437d1c"
         offset="1"
         id="stop2918-3" />
    </radialGradient>
    <radialGradient
       inkscape:collect="always"
       xlink:href="#radialGradient2920-3"
       id="radialGradient22999"
       cx="96.550865"
       cy="118.0779"
       fx="96.550865"
       fy="118.0779"
       r="6.1378388"
       gradientTransform="matrix(1.6998034,2.1489111,0.72114315,-0.559129,-177.23485,-15.981086)"
       gradientUnits="userSpaceOnUse" />
  </defs>
  <g
     inkscape:groupmode="layer"
     id="layer2"
     inkscape:label="Layer 2">
    <g
       id="g21784"
       transform="matrix(1.2052594,0,0,1.2173779,-74.16545,-142.99869)"
       inkscape:label="Peach">
      <path
         style="font-variation-settings:normal;opacity:1;vector-effect:none;fill:url(#radialGradient19883);fill-opacity:1;stroke:none;stroke-width:0.322003;stroke-linecap:butt;stroke-linejoin:miter;stroke-miterlimit:4;stroke-dasharray:none;stroke-dashoffset:0;stroke-opacity:0.766129;-inkscape-stroke:none;stop-color:#000000;stop-opacity:1"
         d="m 92.060481,132.45421 c -1.951575,-1.89581 -7.967701,-4.17361 -14.987114,-3.16842 -7.445751,1.06624 -8.553787,5.53099 -9.383799,9.96251 -1.277687,6.8217 2.296885,15.78279 9.476011,16.21826 5.660537,0.34335 9.595527,-4.19073 12.848973,-8.83558 3.840503,-5.48297 4.633414,-11.66323 2.045929,-14.17677 z"
         id="path19224"
         sodipodi:nodetypes="ssssss" />
      <path
         style="display:inline;fill:url(#radialGradient22999);fill-opacity:1;stroke:none;stroke-width:0.202249;stroke-linecap:round;stroke-opacity:0.77208;paint-order:stroke fill markers;stop-color:#000000"
         d="m 77.99641,129.72422 c 0.753548,0.0787 1.371752,0.15453 1.373798,0.16849 0.0021,0.014 -0.208237,0.14167 -0.467287,0.28379 -0.259054,0.14211 -0.46972,0.2655 -0.468146,0.27419 0.0019,0.008 0.222453,0.0708 0.490909,0.13798 0.643299,0.16101 1.420234,0.2229 2.059556,0.16404 0.284955,-0.0263 0.495552,-0.0243 0.46799,0.005 -0.02759,0.0285 -0.208579,0.14753 -0.402254,0.26446 -0.193684,0.11692 -0.350338,0.22504 -0.348119,0.24024 0.0067,0.0457 0.428793,0.14166 0.883625,0.20088 1.14759,0.1494 2.241224,-0.14131 3.041589,-0.80852 0.601855,-0.50173 0.912638,-1.53414 0.834078,-2.77075 -0.01258,-0.19809 -0.04382,-0.36137 -0.06941,-0.36283 -0.02563,-0.002 -0.193924,0.0889 -0.374071,0.20067 -0.180146,0.11185 -0.342398,0.19454 -0.360565,0.18377 -0.01817,-0.0108 -0.03703,-0.18584 -0.04191,-0.38903 -0.0089,-0.37124 -0.07871,-0.71665 -0.203578,-1.0077 -0.06675,-0.15559 -0.06752,-0.15602 -0.104736,-0.0575 -0.107066,0.28337 -0.318963,0.55675 -0.497462,0.64182 -0.10903,0.052 -0.204921,0.0648 -0.241323,0.0323 -0.03324,-0.0295 -0.005,-0.2697 0.06279,-0.53352 0.06776,-0.26382 0.127158,-0.63906 0.132004,-0.83387 l 0.0088,-0.3542 -0.265974,0.25269 c -0.176487,0.16767 -0.284254,0.24055 -0.320301,0.21659 -0.03006,-0.0196 -0.0582,-0.16374 -0.06294,-0.31973 -0.01198,-0.39453 -0.127516,-0.78482 -0.345869,-1.16842 -0.179013,-0.31447 -0.545957,-0.79773 -0.600477,-0.7908 -0.01449,0.002 -0.07189,0.11867 -0.127516,0.25962 -0.09804,0.24838 -0.25735,0.46638 -0.315577,0.43184 -0.0157,-0.009 -0.04996,-0.0998 -0.07619,-0.20094 -0.07328,-0.28276 -0.341204,-0.69728 -0.662731,-1.02531 -0.160143,-0.16335 -0.306867,-0.30637 -0.32607,-0.31774 -0.01918,-0.0114 -0.08392,0.11386 -0.143807,0.27835 -0.16703,0.45876 -0.224377,0.47264 -0.376085,0.0911 -0.163851,-0.41217 -0.658453,-0.88474 -1.366382,-1.30555 l -0.390257,-0.23186 -0.0443,0.25013 c -0.02437,0.13755 -0.06936,0.2533 -0.09999,0.2572 -0.03065,0.004 -0.101956,-0.0559 -0.158516,-0.13278 -0.277457,-0.37748 -0.452951,-0.53351 -0.997257,-0.88659 l -0.583481,-0.37853 -0.03613,0.27234 c -0.04374,0.3297 -0.09712,0.39478 -0.249566,0.30435 -0.133241,-0.079 -0.86637,-0.72597 -0.951128,-0.83928 -0.08604,-0.11509 -0.10676,-0.0569 -0.138696,0.39281 -0.03707,0.51916 -0.07879,0.57102 -0.311882,0.38757 l -0.174971,-0.13767 0.09199,0.64298 0.09199,0.64298 -0.221503,0.0687 c -0.12184,0.0378 -0.219096,0.0792 -0.216132,0.0919 0.0028,0.0127 0.07368,0.12504 0.157047,0.24957 l 0.151658,0.22642 -0.314642,-0.0471 -0.314633,-0.0471 0.214989,0.34201 c 0.118245,0.1881 0.296032,0.42261 0.395089,0.5211 0.179728,0.17867 0.216086,0.27808 0.106844,0.29194 -0.03178,0.004 -0.190887,-0.0792 -0.353583,-0.18504 l -0.295891,-0.19233 -0.01003,0.16284 c -0.01431,0.23159 0.139364,1.09876 0.220286,1.24315 0.03744,0.0667 0.132693,0.19209 0.211774,0.27859 l 0.143788,0.15725 -0.318805,-0.04 -0.318796,-0.04 0.116257,0.17362 c 0.197651,0.29521 0.511049,0.58499 0.852627,0.78838 l 0.327241,0.19479 -0.374238,0.0504 c -0.205838,0.0277 -0.371247,0.0624 -0.367577,0.077 0.0446,0.17855 1.004192,0.82021 1.389293,0.92902 0.109882,0.0311 0.200932,0.0642 0.202367,0.0737 0.0016,0.009 -0.224565,0.0962 -0.502115,0.19268 -0.277559,0.0965 -0.502741,0.18842 -0.500419,0.20431 0.0065,0.0463 0.737179,0.34886 1.255548,0.51999 0.26256,0.0867 0.676079,0.18479 0.91892,0.21807 0.242847,0.0332 0.428403,0.0741 0.412344,0.0907 -0.01603,0.0166 -0.300432,0.15971 -0.631949,0.31797 -0.331517,0.15826 -0.588606,0.29502 -0.571318,0.30392 0.01702,0.009 0.647977,0.0806 1.401522,0.15929 z"
         id="path22714" />
      <path
         style="font-variation-settings:normal;vector-effect:none;fill:url(#radialGradient16818-3);fill-opacity:1;stroke:none;stroke-width:0.674059;stroke-linecap:butt;stroke-linejoin:miter;stroke-miterlimit:4;stroke-dasharray:none;stroke-dashoffset:0;stroke-opacity:0.766129;-inkscape-stroke:none;stop-color:#000000"
         d="m 85.523291,122.35226 -1.528554,8.83355 -1.695388,-0.49299 c 0,0 1.20606,-5.77652 0.756606,-6.06585 -0.449447,-0.28932 2.467336,-2.27471 2.467336,-2.27471 z"
         id="path16704-1" />
      <path
         style="font-variation-settings:normal;opacity:1;vector-effect:none;fill:url(#radialGradient20482);fill-opacity:1;stroke:none;stroke-width:0.301444;stroke-linecap:butt;stroke-linejoin:miter;stroke-miterlimit:4;stroke-dasharray:none;stroke-dashoffset:0;stroke-opacity:0.766129;-inkscape-stroke:none;stop-color:#000000;stop-opacity:1"
         d="m 93.992087,134.04447 c -1.664346,-1.92532 -4.590524,-4.50859 -11.025658,-3.54767 -6.825985,1.01927 -8.902829,5.86031 -9.779908,10.13133 -1.333685,6.49451 1.664252,15.84715 8.245805,16.26344 5.189367,0.32823 12.047273,1.72169 14.708891,-5.8968 2.078335,-5.94892 1.988583,-12.1638 -2.14913,-16.9503 z"
         id="path19857"
         sodipodi:nodetypes="ssssss" />
    </g>
  </g>
</svg>
