<?xml version="1.0" encoding="UTF-8" standalone="no"?>
<!-- Created with Inkscape (http://www.inkscape.org/) -->

<svg
   width="210mm"
   height="297mm"
   viewBox="0 0 210 297"
   version="1.1"
   id="svg1010"
   inkscape:version="1.1 (c68e22c387, 2021-05-23)"
   sodipodi:docname="BeachCamp.svg"
   xmlns:inkscape="http://www.inkscape.org/namespaces/inkscape"
   xmlns:sodipodi="http://sodipodi.sourceforge.net/DTD/sodipodi-0.dtd"
   xmlns:xlink="http://www.w3.org/1999/xlink"
   xmlns="http://www.w3.org/2000/svg"
   xmlns:svg="http://www.w3.org/2000/svg">
  <sodipodi:namedview
     id="namedview1012"
     pagecolor="#ffffff"
     bordercolor="#666666"
     borderopacity="1.0"
     inkscape:pageshadow="2"
     inkscape:pageopacity="0.0"
     inkscape:pagecheckerboard="0"
     inkscape:document-units="mm"
     showgrid="false"
     inkscape:snap-global="false"
     inkscape:zoom="1.3416246"
     inkscape:cx="159.13543"
     inkscape:cy="335.04157"
     inkscape:window-width="1920"
     inkscape:window-height="1017"
     inkscape:window-x="-8"
     inkscape:window-y="-8"
     inkscape:window-maximized="1"
     inkscape:current-layer="layer1" />
  <defs
     id="defs1007">
    <linearGradient
       inkscape:collect="always"
       id="linearGradient9892">
      <stop
         style="stop-color:#594c87;stop-opacity:1"
         offset="0"
         id="stop9888" />
      <stop
         style="stop-color:#28314d;stop-opacity:1"
         offset="1"
         id="stop9890" />
    </linearGradient>
    <linearGradient
       inkscape:collect="always"
       id="linearGradient4699">
      <stop
         style="stop-color:#e0a90d;stop-opacity:1"
         offset="0"
         id="stop4695" />
      <stop
         style="stop-color:#d52a0a;stop-opacity:0.77207977"
         offset="1"
         id="stop4697" />
    </linearGradient>
    <linearGradient
       inkscape:collect="always"
       id="linearGradient2098">
      <stop
         style="stop-color:#3a2014;stop-opacity:1"
         offset="0"
         id="stop2094" />
      <stop
         style="stop-color:#803313;stop-opacity:1"
         offset="1"
         id="stop2096" />
    </linearGradient>
    <linearGradient
       inkscape:collect="always"
       xlink:href="#linearGradient2098"
       id="linearGradient2100"
       x1="59.169739"
       y1="148.70633"
       x2="55.210987"
       y2="139.33879"
       gradientUnits="userSpaceOnUse" />
    <linearGradient
       inkscape:collect="always"
       xlink:href="#linearGradient2098"
       id="linearGradient2236"
       x1="48.050953"
       y1="158.2305"
       x2="42.948273"
       y2="151.51254"
       gradientUnits="userSpaceOnUse"
       gradientTransform="matrix(0.88267182,0,0,0.88067588,4.7536102,18.665648)" />
    <linearGradient
       inkscape:collect="always"
       xlink:href="#linearGradient2098"
       id="linearGradient3188"
       x1="44.580242"
       y1="156.43774"
       x2="40.812172"
       y2="157.91682"
       gradientUnits="userSpaceOnUse" />
    <radialGradient
       inkscape:collect="always"
       xlink:href="#linearGradient4699"
       id="radialGradient4703"
       cx="53.156418"
       cy="109.39084"
       fx="53.156418"
       fy="109.39084"
       r="12.971905"
       gradientTransform="matrix(0.77230335,0.01269514,-0.03480576,2.1173937,21.232027,-124.04199)"
       gradientUnits="userSpaceOnUse" />
    <linearGradient
       inkscape:collect="always"
       xlink:href="#linearGradient2098"
       id="linearGradient8952"
       x1="39.664154"
       y1="113.17176"
       x2="78.660538"
       y2="113.17176"
       gradientUnits="userSpaceOnUse"
       gradientTransform="matrix(1,0,-0.11994821,1,16.418231,-5.3247012)" />
    <linearGradient
       inkscape:collect="always"
       xlink:href="#linearGradient9892"
       id="linearGradient9894"
       x1="113.21149"
       y1="101.11546"
       x2="126.71977"
       y2="93.621437"
       gradientUnits="userSpaceOnUse"
       gradientTransform="translate(-45.950199,3.747012)" />
    <linearGradient
       inkscape:collect="always"
       xlink:href="#linearGradient9892"
       id="linearGradient10345"
       gradientUnits="userSpaceOnUse"
       x1="119.41263"
       y1="86.916252"
       x2="122.28006"
       y2="95.47319"
       gradientTransform="matrix(1.0353734,0,0,1.0131618,-50.622131,2.4310075)" />
    <linearGradient
       inkscape:collect="always"
       xlink:href="#linearGradient9892"
       id="linearGradient11033"
       x1="83.169716"
       y1="86.768112"
       x2="82.350761"
       y2="89.430458"
       gradientUnits="userSpaceOnUse" />
    <linearGradient
       inkscape:collect="always"
       xlink:href="#linearGradient9892"
       id="linearGradient12627"
       gradientUnits="userSpaceOnUse"
       x1="71.879372"
       y1="84.352272"
       x2="62.333832"
       y2="83.41552" />
  </defs>
  <g
     inkscape:label="Layer 1"
     inkscape:groupmode="layer"
     id="layer1">
    <use
       x="0"
       y="0"
       xlink:href="#g3911"
       id="use3916"
       width="100%"
       height="100%"
       transform="matrix(0.76910065,-0.35291582,0.78635181,0.66123113,-98.470893,65.110812)" />
    <g
       id="g3911"
       inkscape:label="Log1"
       transform="translate(4.5358566,-3.3525896)">
      <path
         style="font-variation-settings:normal;opacity:1;vector-effect:none;fill:url(#linearGradient2100);fill-opacity:1;stroke:none;stroke-width:0.322003;stroke-linecap:butt;stroke-linejoin:miter;stroke-miterlimit:4;stroke-dasharray:none;stroke-dashoffset:0;stroke-opacity:0.766129;-inkscape-stroke:none;stop-color:#000000;stop-opacity:1"
         d="m 42.301792,147.41533 c 1.487388,-1.23566 37.585807,-18.26358 39.343626,-19.6225 1.217391,-0.94113 5.95694,0.78649 5.521912,8.8745 0,0 -36.241797,20.05786 -40.625498,21.49602 -2.773748,0.90998 -5.525531,-9.68008 -4.24004,-10.74802 z"
         id="path1104"
         sodipodi:nodetypes="sssss" />
      <ellipse
         style="fill:url(#linearGradient2236);fill-opacity:1;stroke:url(#linearGradient3188);stroke-width:1.03174;stroke-linecap:round;stroke-miterlimit:4;stroke-dasharray:none;stroke-opacity:1;paint-order:stroke fill markers;stop-color:#000000"
         id="path1130"
         cx="44.224594"
         cy="152.78934"
         rx="3.9601545"
         ry="5.3406324" />
    </g>
    <use
       x="0"
       y="0"
       xlink:href="#g3911"
       id="use3918"
       width="100%"
       height="100%"
       transform="matrix(0.57619054,0.11345512,0.45007062,0.92982308,-30.033814,5.6307188)" />
    <use
       x="0"
       y="0"
       xlink:href="#g3911"
       id="use3914"
       width="100%"
       height="100%"
       transform="matrix(-0.33180773,-0.91957743,0.73710414,-0.28881736,-6.6621591,238.90198)" />
    <g
       id="g8184"
       inkscape:label="Fire1"
       transform="matrix(-0.8750805,0,0,0.67647421,131.455,45.261335)">
      <use
         x="0"
         y="0"
         xlink:href="#path3986"
         id="use8181"
         width="100%"
         height="100%"
         transform="matrix(1.2675449,0,0,0.7915741,-5.6980068,23.548536)" />
      <use
         x="0"
         y="0"
         xlink:href="#path3986"
         id="use7814"
         width="100%"
         height="100%"
         transform="matrix(-0.83592749,0.08735965,0.0793851,0.7596206,118.24012,25.438484)" />
      <path
         style="font-variation-settings:normal;opacity:1;vector-effect:none;fill:url(#radialGradient4703);fill-opacity:1;stroke:none;stroke-width:0.322003;stroke-linecap:butt;stroke-linejoin:miter;stroke-miterlimit:4;stroke-dasharray:none;stroke-dashoffset:0;stroke-opacity:0.766129;-inkscape-stroke:none;stop-color:#000000;stop-opacity:1"
         d="m 61.927567,79.861748 c -0.418446,-5.138306 -11.095593,12.58437 -13.217169,20.965942 -3.516331,13.89173 2.27248,38.66479 15.958417,33.49855 5.70393,-2.15315 6.568783,-17.25093 2.28184,-21.37485 -8.056215,-7.74985 -4.349034,-24.812543 -5.023092,-33.089643 z"
         id="path3986"
         sodipodi:nodetypes="sssss" />
    </g>
    <g
       id="g9594"
       inkscape:label="Kettle">
      <path
         style="font-variation-settings:normal;opacity:1;vector-effect:none;fill:url(#linearGradient11033);fill-opacity:1;stroke:none;stroke-width:0.322003;stroke-linecap:butt;stroke-linejoin:miter;stroke-miterlimit:4;stroke-dasharray:none;stroke-dashoffset:0;stroke-opacity:0.766129;-inkscape-stroke:none;stop-color:#000000;stop-opacity:1"
         d="M 73.461155,77.208164 C 79.843066,77.62262 85.309744,93.615187 83.962649,92.985057 82.615554,92.354927 78.861841,78.745947 73.165337,78.687249 72.788427,77.99192 72.458484,77.79531 73.461155,77.208164 Z"
         id="path10987"
         sodipodi:nodetypes="czcc" />
      <path
         style="font-variation-settings:normal;opacity:1;vector-effect:none;fill:url(#linearGradient10345);fill-opacity:1;stroke:none;stroke-width:0.329798;stroke-linecap:butt;stroke-linejoin:miter;stroke-miterlimit:4;stroke-dasharray:none;stroke-dashoffset:0;stroke-opacity:0.766129;-inkscape-stroke:none;stop-color:#000000;stop-opacity:1"
         d="m 63.722693,91.94446 c -1.841929,2.072126 0.231924,5.763053 3.675368,8.99131 4.177494,3.91642 8.756867,3.53928 13.272162,0 4.136979,-3.242743 5.427129,-8.923875 4.492122,-10.190151 C 82.603209,87.279795 67.3108,87.90792 63.722693,91.94446 Z"
         id="path9675"
         sodipodi:nodetypes="sssss" />
      <path
         style="font-variation-settings:normal;opacity:1;vector-effect:none;fill:url(#linearGradient8952);fill-opacity:1;stroke:none;stroke-width:0.322003;stroke-linecap:butt;stroke-linejoin:miter;stroke-miterlimit:4;stroke-dasharray:none;stroke-dashoffset:0;stroke-opacity:0.766129;-inkscape-stroke:none;stop-color:#000000;stop-opacity:1"
         d="m 82.135218,76.912349 c 1.386909,1.534526 -5.277327,2.970166 -6.511698,4.141434 -3.010766,2.856854 -6.703349,0.905129 -9.424802,-1.577689 -1.745799,-1.592716 -24.610901,54.043096 -22.510377,62.713146 0.502206,2.07288 -1.375056,1.01537 -5.277391,-0.39442 -3.384241,-1.22262 24.571916,-62.721511 24.74244,-69.81275 0.117121,-4.87054 5.846432,5.874746 10.596497,6.606574 3.281522,0.505574 6.250603,-4.038235 8.385331,-1.676295 z"
         id="path8405"
         sodipodi:nodetypes="ssssssss" />
      <path
         style="font-variation-settings:normal;display:inline;opacity:1;vector-effect:none;fill:url(#linearGradient9894);fill-opacity:1;stroke:none;stroke-width:0.322003;stroke-linecap:butt;stroke-linejoin:miter;stroke-miterlimit:4;stroke-dasharray:none;stroke-dashoffset:0;stroke-opacity:0.766129;-inkscape-stroke:none;stop-color:#000000;stop-opacity:1"
         d="m 64.488051,92.097609 c -2.16331,-1.63334 -2.73417,10.618461 0.59163,13.804781 4.03477,3.86555 12.40192,3.49331 16.76295,0 3.99564,-3.20061 4.729781,-15.976764 3.35259,-14.988048 -6.718841,4.823603 -16.05838,4.693189 -20.70717,1.183267 z"
         id="path10070"
         sodipodi:nodetypes="sssss" />
      <path
         style="font-variation-settings:normal;opacity:1;vector-effect:none;fill:url(#linearGradient12627);fill-opacity:1;stroke:none;stroke-width:0.322003;stroke-linecap:butt;stroke-linejoin:miter;stroke-miterlimit:4;stroke-dasharray:none;stroke-dashoffset:0;stroke-opacity:0.766129;-inkscape-stroke:none;stop-color:#000000;stop-opacity:1"
         d="m 66.755976,95.006473 c 0.09642,2.519605 -3.151846,0.254407 -2.908865,-3.648407 0.24298,-3.902814 2.048865,-14.810871 9.959164,-14.100598 0.107251,0.960331 -0.270275,1.08258 -0.640938,1.429781 -5.696504,-0.0587 -6.557271,6.853086 -7.543327,10.895915 -0.986056,4.04283 1.037544,2.903703 1.133966,5.423309 z"
         id="path11593"
         sodipodi:nodetypes="zzcczz" />
    </g>
  </g>
</svg>
